<svg width="708" height="125" viewBox="0 0 708 125" fill="none" xmlns="http://www.w3.org/2000/svg">
<g clip-path="url(#clip0)">
<path d="M433.735 51.3163C433.735 51.3163 214.495 33.083 85.1602 93.0263C41.273 113.361 12.8868 137.132 -5.44458 159.681C-43.6814 206.683 -15.4399 271.335 46.1748 277.891C75.7232 281.036 113.209 278.127 159.002 262.137C293.939 215.004 433.735 51.3163 433.735 51.3163Z" fill="#2F8C91"/>
<path d="M85.7707 196.715C94.8926 192.993 104.009 189.288 113.131 185.567C140.541 206 167.945 226.45 195.372 246.888C196.413 246.382 197.454 245.875 198.483 245.349C171.15 224.968 143.816 204.588 116.483 184.207C125.098 180.699 133.736 177.178 142.351 173.669C168.932 192.819 194.512 213.08 218.996 234.396C219.938 233.849 220.892 233.322 221.833 232.774C197.507 211.549 172.12 191.386 145.726 172.298C154.013 168.921 162.3 165.545 170.587 162.168C194.836 181.342 219.068 200.512 243.318 219.686C244.235 219.098 245.153 218.51 246.076 217.906C222.021 198.883 197.954 179.84 173.898 160.817C182.582 157.272 191.278 153.747 199.963 150.202C224.359 166.221 247.983 183.178 270.748 201.053C271.624 200.42 272.495 199.803 273.354 199.166C250.848 181.475 227.51 164.674 203.406 148.795C212.35 145.154 221.293 141.513 230.242 137.855C251.924 152.528 272.855 168.073 292.954 184.455C293.795 183.814 294.624 183.152 295.466 182.511C275.637 166.333 255.022 150.968 233.663 136.46C240.942 133.493 248.239 130.529 255.518 127.562C275.728 140.061 295.251 153.414 314.023 167.587C314.841 166.905 315.653 166.239 316.47 165.557C298.021 151.601 278.861 138.457 259.025 126.134C267.905 122.513 276.785 118.892 285.665 115.271C304.133 124.394 321.34 135.338 337.045 147.923C337.827 147.233 338.609 146.542 339.397 145.836C324.069 133.533 307.318 122.802 289.374 113.751C292.397 112.524 295.426 111.281 298.45 110.054C299.019 110.102 299.613 109.91 300.028 109.412C302.222 108.514 304.41 107.632 306.604 106.734C323.323 113.723 338.304 123.437 350.93 135.466C351.701 134.755 352.466 134.06 353.236 133.349C340.97 121.704 326.567 112.18 310.526 105.142C317.189 102.431 323.835 99.7161 330.498 97.0054C343.587 103.728 356.018 111.328 367.746 119.778C368.504 119.047 369.257 118.332 370.016 117.6C358.699 109.441 346.718 102.071 334.16 95.5096C340.345 92.9832 346.542 90.4772 352.727 87.9508C360.525 93.6786 368.312 99.386 376.111 105.114C377.398 106.051 378.691 107.024 379.978 107.961C380.719 107.226 381.455 106.507 382.19 105.788C380.269 104.384 378.393 102.957 376.506 101.562C369.706 96.5622 362.901 91.5789 356.101 86.5794C361.342 84.4421 366.559 82.3168 371.8 80.1794C379.753 84.1207 387.508 88.3657 395.019 92.9384C395.766 92.1868 396.495 91.431 397.218 90.6915C390.193 86.4098 382.964 82.3951 375.543 78.6678C381.659 76.1776 387.758 73.6832 393.868 71.2093C398.705 73.8141 403.384 76.6089 407.892 79.6263C408.627 78.8544 409.338 78.0945 410.044 77.3508C405.994 74.6527 401.801 72.0959 397.49 69.7214C401.176 68.2135 404.856 66.7219 408.541 65.2141C411.405 66.7361 414.274 68.242 417.119 69.7599C417.86 68.9717 418.554 68.2076 419.242 67.4598C416.888 66.2167 414.535 64.9735 412.198 63.7345C417.704 61.4848 423.203 59.2513 428.726 57.0058C432.002 53.3145 433.735 51.2724 433.735 51.2724C433.735 51.2724 431.074 51.0431 426.173 50.737C420.034 53.2392 413.895 55.7415 407.756 58.2438C409.478 55.5679 410.966 52.8015 412.267 49.9731C411.188 49.9268 410.091 49.8764 408.958 49.8176C407.219 53.4357 405.135 56.9545 402.666 60.3291C398.387 62.0816 394.096 63.8137 389.818 65.5662C393.177 60.3522 396.01 54.9608 398.319 49.3919C397.239 49.3456 396.154 49.3155 395.034 49.2771C392.551 55.1375 389.444 60.8321 385.747 66.2637C385.492 66.6239 385.446 66.9811 385.504 67.3104C377.615 70.5183 369.742 73.7304 361.853 76.9384C366.903 67.6917 371.586 58.3049 375.93 48.8027C374.822 48.7847 373.696 48.7625 372.565 48.7565C367.907 58.903 362.841 68.9173 357.378 78.767C350.295 81.6583 343.194 84.5454 336.111 87.4367C342.839 74.6447 349.222 61.7006 355.261 48.6572C354.129 48.6512 353.01 48.6656 351.856 48.6717C345.515 62.3269 338.8 75.8582 331.7 89.2454C323.016 92.7903 314.314 96.3311 305.63 99.8761C315.142 83.1709 323.959 66.1777 332.087 48.9331C330.945 48.9596 329.802 48.986 328.643 49.0084C320.189 66.8768 310.977 84.4772 301.04 101.765C295.316 104.103 289.575 106.437 283.85 108.775C290.967 89.116 298.083 69.4573 305.2 49.7987C304.087 49.8497 302.974 49.9007 301.844 49.9476C294.55 70.0724 287.274 90.2014 279.975 110.342C268.86 114.87 257.745 119.397 246.631 123.924C260.032 100.168 272.042 75.8354 282.606 51.0363C281.447 51.1114 280.306 51.1907 279.147 51.2658C268.275 76.6401 255.909 101.519 242.07 125.785C231.894 129.939 221.724 134.078 211.531 138.228C222.277 110.282 233.028 82.3197 243.773 54.3736C242.615 54.5015 241.463 54.6132 240.323 54.7453C229.416 83.1089 218.51 111.473 207.621 139.84C203.74 141.424 199.858 143.008 195.982 144.576C191.266 146.505 186.538 148.414 181.821 150.342C192.911 119.551 204.006 88.7429 215.095 57.9512C213.944 58.1158 212.775 58.2761 211.618 58.4569C200.408 89.6054 189.174 120.766 177.963 151.914C170.684 154.882 163.405 157.849 156.126 160.817C164.206 128.486 172.287 96.1552 180.351 63.8203C179.218 64.0418 178.085 64.2633 176.946 64.501C168.855 96.917 160.747 129.329 152.656 161.745C152.613 161.927 152.616 162.086 152.618 162.244C142.206 166.483 131.812 170.725 121.4 174.964C131.182 140.128 140.982 105.296 150.764 70.4599C149.604 70.7625 148.426 71.0609 147.265 71.3635C137.417 106.394 127.568 141.425 117.737 176.46C109.934 179.636 102.148 182.816 94.345 185.992C99.7958 151.563 105.235 117.115 110.685 82.6862C109.544 83.0985 108.421 83.515 107.291 83.9478C101.842 118.429 96.3687 152.922 90.9188 187.403C82.6144 190.776 74.3219 194.168 66.0175 197.541C67.3283 164.179 70.6808 130.812 76.0428 97.5895C74.8584 98.1844 73.6971 98.7672 72.5477 99.3705C67.2933 132.443 64.0309 165.656 62.8101 198.864C49.3462 204.358 35.8702 209.831 22.4062 215.325C23.4947 185.452 26.1493 155.582 30.3022 125.806C29.0775 126.742 27.8932 127.67 26.7035 128.614C22.7362 157.733 20.2322 186.937 19.207 216.125C19.2043 216.299 19.2246 216.462 19.2853 216.617C13.6246 218.935 7.95191 221.232 2.29119 223.55C2.01958 199.734 1.76544 175.922 1.48831 152.121C0.407163 153.302 -0.639032 154.491 -1.66224 155.667C-1.39823 178.728 -1.13422 201.789 -0.887683 224.845C-6.49691 227.123 -12.1116 229.417 -17.7034 231.698C-16.8833 233.787 -15.9418 235.851 -14.9259 237.863C-13.3709 237.233 -11.816 236.604 -10.261 235.974C6.23392 249.624 22.7288 263.274 39.2063 276.919C41.1561 277.295 43.151 277.594 45.1798 277.848C27.7898 263.442 10.3943 249.053 -7.01318 234.643C-1.99706 232.61 3.0071 230.557 8.02323 228.524C28.769 245.392 49.5377 262.249 70.2834 279.118C71.8551 279.106 73.4553 279.066 75.061 279.009C53.8094 261.739 32.5402 244.466 11.294 227.18C19.0743 224.016 26.8371 220.848 34.6174 217.685C57.7597 237.226 80.9076 256.752 104.05 276.294C105.386 276.086 106.722 275.878 108.087 275.641C84.6798 255.878 61.267 236.132 37.8772 216.373C44.6552 213.602 51.4451 210.852 58.223 208.081C58.4189 208.005 58.5973 207.924 58.7932 207.848C84.6338 227.453 109.25 248.327 132.576 270.384C133.754 270.086 134.938 269.771 136.127 269.44C112.734 247.244 88.0288 226.244 62.1219 206.501C62.9973 206.148 63.8727 205.795 64.7307 205.438C64.933 205.399 65.1289 205.323 65.2778 205.218C70.956 202.904 76.6342 200.59 82.3298 198.281C111.78 217.324 140.117 237.697 167.293 259.32C168.404 258.883 169.528 258.466 170.645 258.013C143.478 236.2 115.164 215.814 85.7707 196.715Z" fill="#286F7F"/>
<path d="M324.862 132.821C324.862 132.821 438.226 230.3 542.814 258.221C578.312 267.694 606.929 269.377 629.243 267.452C675.791 263.448 694.423 224.817 663.334 196.828C648.42 183.4 625.829 169.252 591.577 157.174C490.696 121.601 324.862 132.821 324.862 132.821Z" fill="#BAE3DD"/>
<path d="M597.964 214.663C590.853 212.473 583.753 210.296 576.642 208.106C572.146 188.315 567.654 168.513 563.158 148.722C562.306 148.505 561.45 148.298 560.594 148.091C565.077 167.834 569.559 187.576 574.046 207.308C567.328 205.246 560.6 203.169 553.882 201.107C549.172 182.189 545.599 163.223 543.225 144.262C542.402 144.098 541.579 143.934 540.77 143.774C543.121 162.627 546.618 181.493 551.257 200.301C544.803 198.321 538.338 196.326 531.884 194.346C528.49 176.382 525.1 158.408 521.706 140.444C520.871 140.31 520.05 140.181 519.21 140.058C522.574 157.889 525.939 175.721 529.303 193.552C522.53 191.464 515.768 189.389 508.995 187.301C503.838 170.589 499.613 153.809 496.341 136.99C495.523 136.895 494.69 136.797 493.872 136.702C497.086 153.336 501.234 169.936 506.299 186.465C499.333 184.324 492.351 182.18 485.389 180.03C481.031 164.996 477.568 149.906 475.015 134.8C474.204 134.73 473.378 134.656 472.567 134.586C475.069 149.486 478.464 164.375 482.723 179.201C477.049 177.453 471.371 175.715 465.697 173.966C461.004 160.442 457.176 146.855 454.188 133.221C453.369 133.171 452.549 133.122 451.734 133.062C454.65 146.462 458.399 159.835 462.972 173.122C456.05 170.994 449.128 168.866 442.206 166.737C436.702 155.344 432.873 143.709 430.752 131.998C429.944 131.962 429.131 131.937 428.322 131.902C430.369 143.344 434.064 154.694 439.317 165.849C436.955 165.125 434.608 164.405 432.251 163.671C431.955 163.421 431.514 163.246 431.018 163.295C429.317 162.771 427.601 162.243 425.901 161.718C420.238 151.928 417.01 141.725 416.335 131.513C415.522 131.488 414.721 131.477 413.908 131.452C414.589 141.359 417.594 151.253 422.852 160.776C417.661 159.18 412.484 157.588 407.293 155.991C403.527 147.81 400.607 139.527 398.517 131.183C397.696 131.179 396.894 131.168 396.078 131.153C398.082 139.214 400.873 147.201 404.434 155.111C399.61 153.625 394.786 152.139 389.974 150.667C388.65 145.081 387.316 139.481 385.992 133.895C385.765 132.972 385.558 132.043 385.331 131.12C384.526 131.119 383.72 131.119 382.929 131.122C383.257 132.493 383.553 133.865 383.871 135.221C385.028 140.105 386.19 144.977 387.348 149.861C383.271 148.608 379.194 147.356 375.116 146.104C372.737 141.189 370.671 136.232 368.879 131.247C368.054 131.253 367.24 131.273 366.445 131.286C368.111 135.966 370.026 140.598 372.212 145.212C367.448 143.742 362.695 142.286 357.931 140.815C356.597 137.746 355.47 134.652 354.531 131.541C353.717 131.561 352.903 131.581 352.119 131.609C352.951 134.408 353.957 137.185 355.101 139.943C352.227 139.059 349.353 138.175 346.479 137.291C345.679 135.488 344.884 133.675 344.07 131.868C343.237 131.894 342.434 131.929 341.65 131.956C342.313 133.439 342.956 134.928 343.619 136.411C339.323 135.088 335.041 133.77 330.745 132.448C326.922 132.671 324.856 132.82 324.856 132.82C324.856 132.82 326.229 134.005 328.821 136.141C333.6 137.616 338.383 139.08 343.177 140.558C340.776 140.97 338.469 141.52 336.237 142.169C336.812 142.63 337.397 143.104 338.026 143.591C340.93 142.781 343.985 142.171 347.169 141.776C350.511 142.808 353.842 143.826 357.184 144.859C352.522 145.662 348.039 146.764 343.79 148.143C344.383 148.597 344.973 149.062 345.573 149.54C350.089 148.108 354.873 146.996 359.859 146.245C360.19 146.198 360.423 146.068 360.566 145.913C366.712 147.799 372.854 149.696 379 151.582C371.23 153.379 363.592 155.382 356.072 157.586C356.68 158.045 357.299 158.517 357.937 158.983C365.971 156.644 374.144 154.535 382.49 152.654C388.02 154.352 393.549 156.051 399.059 157.755C388.453 160.357 377.969 163.151 367.61 166.127C368.247 166.593 368.875 167.044 369.527 167.514C380.371 164.397 391.361 161.489 402.495 158.801C409.268 160.889 416.045 162.968 422.803 165.052C408.549 168.14 394.527 171.642 380.747 175.527C381.404 175.987 382.061 176.446 382.718 176.906C397.007 172.897 411.557 169.31 426.379 166.158C430.85 167.539 435.309 168.905 439.765 170.281C425.275 175.586 410.799 180.896 396.309 186.201C396.959 186.636 397.609 187.072 398.274 187.511C413.113 182.072 427.949 176.644 442.773 171.201C451.426 173.861 460.093 176.526 468.745 179.186C448.546 183.619 428.824 188.883 409.647 194.929C410.327 195.372 411.026 195.809 411.721 196.256C431.369 190.099 451.581 184.762 472.31 180.278C480.242 182.723 488.177 185.157 496.094 187.598C475.144 194.881 454.194 202.165 433.239 209.459C433.961 209.879 434.668 210.295 435.39 210.716C456.647 203.322 477.908 195.917 499.166 188.523C502.185 189.458 505.207 190.382 508.226 191.316C511.906 192.45 515.586 193.584 519.255 194.704C496.585 203.047 473.935 211.384 451.265 219.727C452.01 220.131 452.74 220.531 453.484 220.935C476.404 212.5 499.324 204.065 522.263 195.624C527.937 197.373 533.615 199.111 539.289 200.859C517.506 211.074 495.705 221.295 473.922 231.509C474.679 231.883 475.436 232.256 476.197 232.619C498.041 222.375 519.884 212.131 541.728 201.887C541.85 201.829 541.942 201.763 542.004 201.689C550.114 204.181 558.224 206.674 566.33 209.176C542.239 219.736 518.162 230.301 494.071 240.861C494.885 241.215 495.699 241.57 496.517 241.914C520.73 231.295 544.962 220.671 569.174 210.052C575.246 211.919 581.317 213.785 587.404 215.655C565.962 227.833 544.538 240.005 523.096 252.184C523.949 252.481 524.821 252.771 525.678 253.058C547.144 240.863 568.609 228.668 590.07 216.484C596.539 218.468 603.003 220.462 609.472 222.446C590.942 235.871 571.245 248.46 550.5 260.167C551.475 260.406 552.454 260.634 553.418 260.859C574.024 249.171 593.562 236.607 611.979 223.221C622.48 226.445 632.963 229.676 643.465 232.9C626.911 244.948 609.488 256.366 591.272 267.128C592.461 267.243 593.624 267.339 594.787 267.435C612.543 256.878 629.531 245.684 645.687 233.893C645.783 233.817 645.845 233.743 645.912 233.658C650.327 235.012 654.738 236.377 659.154 237.731C646.604 247.812 634.044 257.878 621.494 267.959C622.733 267.905 623.942 267.844 625.159 267.761C637.316 258.007 649.473 248.252 661.634 238.487C666.005 239.829 670.376 241.171 674.743 242.523C675.406 241.306 675.98 240.064 676.465 238.799C675.247 238.427 674.044 238.059 672.83 237.676C670.849 225.197 668.864 212.728 666.883 200.249C665.979 199.292 665.023 198.343 664.024 197.417C666.115 210.573 668.203 223.739 670.294 236.894C666.395 235.69 662.477 234.492 658.578 233.287C655.913 217.72 653.247 202.153 650.601 186.579C649.702 185.941 648.788 185.299 647.856 184.663C650.585 200.61 653.313 216.558 656.027 232.501C649.971 230.639 643.914 228.777 637.858 226.915C635.283 209.25 632.693 191.581 630.119 173.916C629.263 173.459 628.392 172.999 627.507 172.535C630.117 190.402 632.727 208.269 635.336 226.136C630.056 224.516 624.764 222.882 619.484 221.262C619.335 221.222 619.19 221.172 619.046 221.121C614.995 202.323 612.292 183.489 610.955 164.692C610.126 164.334 609.294 163.986 608.465 163.628C609.769 182.506 612.436 201.433 616.469 220.317C615.793 220.113 615.106 219.895 614.43 219.691C614.294 219.62 614.145 219.58 614.003 219.565C609.573 218.207 605.147 216.839 600.716 215.481C594.332 195.432 589.269 175.285 585.558 155.091C584.697 154.815 583.836 154.539 582.975 154.262C586.599 174.467 591.628 194.617 597.964 214.663Z" fill="#97C9CE"/>
<path d="M422.916 169.883C422.88 169.642 422.818 169.401 422.769 169.173C422.754 169.137 422.766 169.1 422.751 169.064C422.703 168.836 422.654 168.607 422.593 168.391C422.592 168.366 422.577 168.331 422.576 168.306C422.514 168.066 422.465 167.837 422.39 167.609C422.388 167.561 422.359 167.513 422.358 167.465C422.282 167.237 422.234 167.009 422.158 166.781C422.144 166.745 422.142 166.696 422.127 166.66C422.052 166.433 421.976 166.205 421.901 165.977L421.887 165.965C421.812 165.737 421.723 165.498 421.635 165.282C421.62 165.247 421.605 165.211 421.591 165.175C421.502 164.959 421.414 164.744 421.326 164.529C421.311 164.493 421.296 164.457 421.268 164.409C421.18 164.194 421.078 163.967 420.99 163.752C420.976 163.74 420.989 163.727 420.975 163.716C420.887 163.5 420.786 163.298 420.684 163.095C420.67 163.059 420.656 163.047 420.641 163.011C420.54 162.808 420.439 162.606 420.324 162.391C420.309 162.355 420.295 162.319 420.28 162.283C420.179 162.08 420.064 161.866 419.95 161.676C419.936 161.664 419.935 161.64 419.908 161.616C419.807 161.413 419.679 161.211 419.565 161.021C419.551 161.009 419.564 160.997 419.55 160.985C419.436 160.795 419.308 160.593 419.194 160.403C419.18 160.367 419.152 160.343 419.151 160.319C419.037 160.129 418.91 159.951 418.796 159.761C418.782 159.749 418.768 159.713 418.754 159.701C418.499 159.322 418.232 158.954 417.964 158.587C417.95 158.575 417.936 158.539 417.922 158.528C417.795 158.35 417.655 158.185 417.515 158.019C417.502 158.008 417.474 157.984 417.473 157.96C417.193 157.605 416.9 157.287 416.608 156.969C416.594 156.957 416.594 156.957 416.58 156.946C416.428 156.793 416.302 156.639 416.149 156.486C416.135 156.475 416.121 156.463 416.108 156.451C415.955 156.299 415.816 156.157 415.663 156.005C415.359 155.723 415.055 155.442 414.751 155.185C414.737 155.173 414.723 155.161 414.723 155.161C414.572 155.033 414.407 154.917 414.269 154.8L414.255 154.788C413.939 154.543 413.637 154.335 413.309 154.127L413.295 154.115C413.144 154.011 412.98 153.919 412.83 153.839L412.817 153.827C412.339 153.563 411.877 153.335 411.389 153.156L411.375 153.144C410.901 152.977 410.442 152.846 409.985 152.763L409.971 152.752C409.823 152.72 409.676 152.712 409.515 152.693C409.207 152.666 408.926 152.663 408.62 152.684C408.473 152.701 408.34 152.705 408.194 152.746C408.194 152.746 408.194 152.746 408.182 152.758C406.27 153.084 404.682 154.55 403.762 157.45C399.53 170.713 410.312 185.027 414.642 190.055C411.804 189.197 408.969 188.388 406.108 187.604C404.151 187.071 402.195 186.562 400.239 186.053L397.501 185.35C390.245 183.514 382.966 181.751 375.748 179.829C375.811 179.742 375.875 179.656 375.952 179.581C376.144 179.345 376.322 179.121 376.514 178.885C376.629 178.748 376.717 178.612 376.832 178.475C376.998 178.264 377.137 178.054 377.303 177.843C377.404 177.694 377.505 177.546 377.607 177.397C377.746 177.187 377.899 176.989 378.025 176.791C378.126 176.642 378.227 176.494 378.315 176.334C378.441 176.136 378.58 175.926 378.693 175.716C378.794 175.568 378.868 175.42 378.956 175.26C379.068 175.05 379.195 174.853 379.307 174.643C379.382 174.496 379.469 174.335 379.557 174.199C379.67 173.99 379.782 173.781 379.881 173.56C379.955 173.412 380.03 173.264 380.092 173.129C380.19 172.908 380.289 172.687 380.4 172.453C380.462 172.318 380.524 172.183 380.586 172.048C380.696 171.79 380.794 171.545 380.904 171.287C380.94 171.177 380.99 171.078 381.04 170.98C381.173 170.624 381.307 170.269 381.427 169.902C381.426 169.877 381.452 169.852 381.451 169.828C381.559 169.498 381.666 169.167 381.774 168.837C381.81 168.727 381.832 168.605 381.868 168.495C381.939 168.25 382.01 168.006 382.068 167.774C382.103 167.64 382.138 167.505 382.174 167.371C382.219 167.151 382.291 166.931 382.336 166.712C382.371 166.577 382.392 166.431 382.413 166.285C382.459 166.066 382.491 165.859 382.536 165.639C382.557 165.493 382.579 165.347 382.614 165.213C382.646 165.006 382.678 164.799 382.711 164.592C382.732 164.446 382.753 164.3 382.774 164.154C382.807 163.947 382.825 163.728 382.845 163.534C382.866 163.388 382.874 163.254 382.895 163.108C382.914 162.89 382.92 162.684 382.938 162.465C382.947 162.331 382.955 162.198 382.963 162.064C382.982 161.846 382.986 161.615 382.991 161.385C382.987 161.264 382.996 161.155 383.004 161.021C383.008 160.767 382.998 160.5 383.002 160.246C382.999 160.173 383.009 160.088 382.993 160.004C382.98 159.665 382.967 159.326 382.955 158.987C382.953 158.939 382.938 158.903 382.95 158.866C382.939 158.576 382.902 158.286 382.891 157.996C382.874 157.887 382.856 157.779 382.865 157.67C382.843 157.44 382.822 157.235 382.787 157.018C382.769 156.885 382.752 156.777 382.733 156.644C382.712 156.439 382.678 156.246 382.644 156.053C382.626 155.92 382.608 155.788 382.577 155.667C382.543 155.475 382.509 155.282 382.476 155.113C382.457 154.981 382.412 154.849 382.394 154.716C382.347 154.536 382.327 154.355 382.28 154.174C382.262 154.042 382.217 153.91 382.199 153.777C382.152 153.597 382.105 153.416 382.072 153.248C382.041 153.128 382.009 152.983 381.977 152.863C381.93 152.683 381.871 152.515 381.824 152.335C381.793 152.215 381.748 152.083 381.716 151.963C381.67 151.782 381.596 151.603 381.549 151.423C381.505 151.315 381.474 151.195 381.43 151.087C381.355 150.883 381.295 150.691 381.22 150.488C381.19 150.392 381.161 150.32 381.13 150.224C381.027 149.948 380.923 149.673 380.792 149.398C380.749 149.315 380.719 149.219 380.676 149.135C380.602 148.956 380.515 148.765 380.441 148.585C380.383 148.466 380.339 148.358 380.281 148.239C380.209 148.084 380.15 147.94 380.064 147.797C380.006 147.678 379.949 147.559 379.891 147.439C379.819 147.308 379.747 147.177 379.688 147.034C379.631 146.914 379.546 146.796 379.488 146.676C379.416 146.545 379.358 146.426 379.274 146.307C379.216 146.188 379.131 146.07 379.073 145.95C379.003 145.843 378.931 145.712 378.86 145.605C378.776 145.487 378.718 145.367 378.633 145.249C378.562 145.142 378.491 145.035 378.407 144.917C378.322 144.798 378.252 144.691 378.167 144.573C378.096 144.466 378.012 144.372 377.942 144.265C377.857 144.146 377.786 144.039 377.689 143.933C377.605 143.839 377.548 143.744 377.478 143.661C377.394 143.543 377.296 143.437 377.225 143.33C377.155 143.247 377.099 143.176 377.03 143.093C376.68 142.68 376.318 142.279 375.943 141.915C375.874 141.857 375.832 141.798 375.763 141.739C375.666 141.633 375.555 141.54 375.445 141.446C375.376 141.388 375.307 141.329 375.251 141.258C375.141 141.165 375.044 141.083 374.934 140.989C374.865 140.931 374.796 140.873 374.727 140.814C374.63 140.732 374.52 140.639 374.41 140.569C374.341 140.511 374.286 140.464 374.204 140.418C374.095 140.349 373.998 140.267 373.889 140.198C373.834 140.151 373.752 140.105 373.684 140.071C373.574 140.002 373.465 139.932 373.355 139.863C373.287 139.829 373.232 139.782 373.164 139.748C373.054 139.678 372.932 139.622 372.823 139.552C372.755 139.518 372.7 139.495 372.632 139.461C372.51 139.404 372.4 139.335 372.278 139.278C372.224 139.256 372.183 139.245 372.129 139.222C372.007 139.165 371.884 139.109 371.749 139.064L371.735 139.053C371.261 138.861 370.789 138.743 370.319 138.672C370.292 138.673 370.251 138.662 370.211 138.651C370.077 138.631 369.956 138.623 369.835 138.615C369.782 138.616 369.742 138.605 369.674 138.595C369.554 138.587 369.447 138.59 369.327 138.582C369.273 138.583 369.22 138.585 369.153 138.575C369.046 138.578 368.939 138.582 368.82 138.597C368.766 138.599 368.7 138.613 368.647 138.615C368.54 138.618 368.434 138.646 368.314 138.661C368.248 138.676 368.195 138.677 368.142 138.703C368.036 138.731 367.931 138.758 367.825 138.786C367.759 138.8 367.706 138.826 367.667 138.839C367.561 138.866 367.456 138.918 367.35 138.946C367.297 138.971 367.245 138.997 367.205 139.011C367.101 139.062 366.982 139.102 366.877 139.154C366.837 139.167 366.799 139.205 366.759 139.218C365.686 139.809 364.694 140.796 363.895 142.275C357.279 154.291 369.536 173.418 373.6 179.205C368.647 177.843 363.717 176.384 358.846 174.741L358.657 174.674C358.508 174.618 358.373 174.574 358.211 174.53C358.211 174.53 358.211 174.53 358.197 174.519L355.408 173.538C349.328 171.339 343.449 168.794 337.77 165.904C338.12 165.264 338.583 164.413 339.091 163.368C339.154 163.257 339.19 163.147 339.253 163.036C339.463 162.581 339.711 162.089 339.932 161.573C339.994 161.438 340.043 161.315 340.105 161.18C340.227 160.886 340.363 160.579 340.498 160.272C340.597 160.051 340.695 159.829 340.78 159.597C340.854 159.425 340.927 159.253 341 159.057C341.245 158.468 341.476 157.843 341.705 157.194C341.827 156.875 341.935 156.544 342.043 156.214C343.451 152.088 344.59 147.195 344.525 142.242C344.516 142 344.52 141.769 344.511 141.527C344.508 141.455 344.506 141.382 344.503 141.309C344.483 141.128 344.489 140.946 344.469 140.765C344.467 140.693 344.465 140.644 344.462 140.572C344.44 140.342 344.431 140.1 344.409 139.871C344.407 139.822 344.406 139.798 344.405 139.75C344.397 139.556 344.363 139.363 344.343 139.182C344.34 139.109 344.325 139.049 344.322 138.977C344.302 138.796 344.282 138.615 344.249 138.446C344.247 138.398 344.245 138.349 344.23 138.313C344.196 138.096 344.161 137.879 344.126 137.662C344.124 137.614 344.109 137.554 344.094 137.518C344.061 137.349 344.028 137.181 343.995 137.012C343.979 136.952 343.964 136.892 343.948 136.832C343.914 136.639 343.88 136.446 343.833 136.266C343.832 136.242 343.818 136.23 343.831 136.218C343.784 136.013 343.736 135.809 343.688 135.604C343.673 135.544 343.658 135.508 343.656 135.46C343.61 135.304 343.564 135.148 343.532 135.003C343.53 134.955 343.502 134.907 343.5 134.859C343.439 134.667 343.379 134.475 343.318 134.283C343.318 134.283 343.304 134.271 343.317 134.259C343.27 134.078 343.197 133.899 343.137 133.731C343.122 133.695 343.107 133.635 343.092 133.599C343.033 133.456 342.987 133.3 342.929 133.156C342.914 133.12 342.913 133.096 342.898 133.06C342.825 132.881 342.765 132.713 342.679 132.546C342.678 132.522 342.664 132.51 342.65 132.498C342.591 132.355 342.519 132.199 342.447 132.068C342.432 132.033 342.418 131.997 342.403 131.961C342.33 131.806 342.258 131.65 342.172 131.508L342.158 131.496C342.086 131.341 341.986 131.186 341.901 131.043C341.887 131.032 341.886 131.007 341.859 130.984C341.787 130.853 341.702 130.735 341.631 130.603C341.617 130.592 341.602 130.556 341.588 130.544C341.405 130.271 341.234 130.01 341.039 129.774C341.025 129.762 341.011 129.75 341.01 129.726C340.913 129.62 340.842 129.513 340.744 129.407C340.731 129.395 340.731 129.395 340.717 129.384C340.508 129.16 340.3 128.96 340.093 128.785C340.079 128.773 340.066 128.762 340.052 128.75C339.831 128.563 339.625 128.412 339.392 128.262C339.283 128.192 339.161 128.135 339.065 128.078C339.051 128.066 339.051 128.066 339.037 128.054C338.819 127.94 338.575 127.851 338.333 127.785L338.319 127.774C338.197 127.741 338.09 127.72 337.968 127.688C337.968 127.688 337.954 127.676 337.942 127.688C337.7 127.647 337.459 127.631 337.205 127.626L337.178 127.627C335.164 127.701 332.972 129.453 330.877 133.443C325.93 142.936 332.777 158.838 335.726 164.829C330.643 162.138 325.738 159.2 321.035 155.965L318.305 154.05C317.412 153.411 316.533 152.76 315.654 152.109C312.149 149.466 308.798 146.674 305.589 143.744C305.716 143.571 305.842 143.373 305.994 143.15C306.084 143.039 306.159 142.915 306.235 142.792C306.413 142.544 306.589 142.272 306.792 141.975C307.4 141.084 308.107 139.996 308.953 138.698C309.218 138.266 309.522 137.82 309.811 137.339C309.962 137.092 310.113 136.845 310.278 136.61C311.841 134.114 313.662 131.041 315.704 127.429C315.805 127.256 315.905 127.083 315.979 126.911C316.017 126.85 316.041 126.8 316.079 126.739C316.142 126.628 316.191 126.505 316.266 126.382C316.304 126.32 316.328 126.246 316.366 126.185C316.428 126.074 316.464 125.964 316.527 125.853C316.551 125.779 316.602 125.705 316.625 125.632C316.675 125.533 316.724 125.41 316.774 125.312C316.798 125.239 316.848 125.164 316.872 125.091C316.922 124.992 316.958 124.882 317.007 124.76C317.031 124.686 317.068 124.6 317.106 124.539C317.141 124.428 317.191 124.33 317.24 124.207C317.264 124.134 317.288 124.06 317.326 123.999C317.375 123.876 317.41 123.766 317.446 123.656C317.47 123.582 317.495 123.533 317.519 123.46C317.567 123.313 317.615 123.166 317.663 123.019C317.675 122.982 317.687 122.946 317.699 122.909C317.759 122.725 317.819 122.542 317.879 122.358C317.904 122.309 317.915 122.248 317.913 122.2C317.948 122.065 317.983 121.931 318.032 121.808C318.056 121.735 318.067 121.674 318.091 121.601C318.127 121.49 318.149 121.369 318.185 121.258C318.209 121.185 318.219 121.1 318.243 121.026C318.279 120.916 318.288 120.807 318.311 120.709C318.335 120.636 318.345 120.551 318.355 120.466C318.379 120.368 318.401 120.246 318.424 120.149C318.434 120.064 318.458 119.99 318.468 119.905C318.491 119.807 318.5 119.698 318.536 119.588C318.546 119.503 318.57 119.429 318.581 119.344C318.59 119.235 318.613 119.137 318.635 119.015C318.645 118.93 318.656 118.869 318.667 118.784C318.689 118.662 318.698 118.553 318.72 118.431C318.731 118.37 318.728 118.298 318.74 118.237C318.76 118.067 318.779 117.872 318.8 117.702C318.811 117.641 318.809 117.593 318.82 117.532C318.842 117.41 318.838 117.289 318.86 117.167C318.87 117.082 318.867 117.009 318.877 116.924C318.887 116.815 318.883 116.718 318.906 116.62C318.916 116.535 318.913 116.463 318.91 116.366C318.906 116.269 318.916 116.184 318.913 116.087C318.923 116.002 318.906 115.918 318.917 115.833C318.913 115.736 318.923 115.651 318.919 115.554C318.93 115.469 318.913 115.384 318.923 115.299C318.92 115.203 318.917 115.13 318.913 115.033C318.91 114.936 318.907 114.864 318.903 114.767C318.914 114.682 318.897 114.598 318.893 114.501C318.89 114.404 318.887 114.331 318.883 114.234C318.881 114.162 318.877 114.065 318.874 113.992C318.871 113.896 318.854 113.811 318.864 113.726C318.862 113.654 318.845 113.569 318.842 113.497C318.822 113.316 318.815 113.122 318.781 112.929C318.765 112.869 318.777 112.808 318.761 112.748C318.757 112.651 318.727 112.555 318.723 112.459C318.721 112.386 318.705 112.326 318.702 112.253C318.686 112.169 318.668 112.06 318.652 111.976C318.636 111.916 318.634 111.843 318.618 111.783C318.601 111.699 318.584 111.591 318.567 111.506C318.552 111.446 318.549 111.374 318.534 111.313C318.517 111.229 318.487 111.133 318.483 111.036C318.467 110.976 318.452 110.916 318.436 110.856C318.406 110.76 318.389 110.676 318.359 110.58C318.344 110.52 318.328 110.46 318.312 110.4C318.282 110.304 318.265 110.219 318.235 110.123C318.233 110.075 318.205 110.027 318.203 109.979C318.173 109.883 318.142 109.787 318.112 109.691C318.111 109.667 318.096 109.631 318.083 109.619C317.962 109.259 317.815 108.9 317.682 108.553C317.681 108.529 317.667 108.517 317.666 108.493C317.622 108.385 317.579 108.302 317.522 108.207C317.507 108.171 317.493 108.135 317.478 108.099C317.435 108.016 317.378 107.921 317.348 107.825C317.333 107.789 317.318 107.753 317.29 107.705C317.246 107.622 317.203 107.538 317.146 107.443C317.132 107.407 317.117 107.371 317.075 107.336C317.032 107.253 316.989 107.169 316.919 107.087C316.904 107.051 316.877 107.027 316.862 106.991C316.819 106.908 316.749 106.825 316.706 106.742C316.678 106.718 316.677 106.694 316.65 106.671C316.593 106.576 316.523 106.493 316.467 106.422C316.453 106.41 316.453 106.41 316.439 106.399C316.144 106.008 315.837 105.654 315.491 105.338C315.477 105.326 315.464 105.314 315.464 105.314C315.381 105.244 315.312 105.186 315.229 105.115C315.215 105.104 315.188 105.08 315.174 105.069C315.105 105.01 315.022 104.94 314.953 104.882C314.926 104.858 314.912 104.847 314.884 104.823C314.815 104.765 314.733 104.719 314.65 104.649C314.623 104.625 314.609 104.614 314.569 104.603C314.487 104.557 314.418 104.498 314.322 104.441C314.308 104.429 314.281 104.406 314.254 104.407C314.172 104.361 314.077 104.303 313.995 104.257C313.981 104.245 313.981 104.245 313.967 104.234C313.545 104.016 313.111 103.836 312.652 103.705C312.544 103.684 312.449 103.65 312.341 103.63C312.315 103.63 312.301 103.619 312.274 103.619C312.167 103.599 312.073 103.589 311.978 103.556C311.951 103.557 311.911 103.546 311.884 103.547C311.79 103.537 311.683 103.517 311.589 103.507C311.562 103.508 311.522 103.497 311.495 103.498C311.401 103.489 311.281 103.48 311.187 103.471C311.16 103.472 311.12 103.461 311.093 103.462C310.986 103.465 310.892 103.456 310.772 103.448C310.745 103.449 310.718 103.449 310.692 103.45C309.543 103.461 308.284 103.73 306.916 104.281C294.127 109.473 301.058 133.695 303.854 141.993C298.744 137.171 294.022 131.998 289.769 126.52C289.768 126.496 289.768 126.496 289.768 126.471L288.181 124.424C285.748 121.168 283.472 117.809 281.366 114.361C281.378 114.324 281.39 114.287 281.402 114.251C281.486 113.994 281.57 113.761 281.641 113.516C281.653 113.48 281.653 113.456 281.665 113.419C281.736 113.174 281.807 112.93 281.864 112.674C281.863 112.65 281.875 112.613 281.888 112.6C281.945 112.344 282.002 112.088 282.059 111.832C282.057 111.783 282.082 111.734 282.08 111.686C282.125 111.442 282.182 111.186 282.212 110.931C282.211 110.882 282.223 110.845 282.221 110.797C282.264 110.529 282.295 110.274 282.324 109.994L282.323 109.97C282.354 109.715 282.371 109.448 282.387 109.181C282.386 109.132 282.398 109.095 282.396 109.047C282.412 108.78 282.416 108.525 282.42 108.271C282.418 108.223 282.416 108.174 282.428 108.113C282.431 107.859 282.448 107.592 282.438 107.325C282.45 107.289 282.435 107.253 282.434 107.204C282.437 106.95 282.427 106.684 282.405 106.43C282.404 106.406 282.403 106.382 282.402 106.357C282.392 106.091 282.368 105.813 282.345 105.559C282.343 105.511 282.342 105.463 282.34 105.414C282.317 105.161 282.28 104.895 282.257 104.641C282.256 104.593 282.254 104.545 282.252 104.496C282.215 104.231 282.179 103.965 282.142 103.7C282.141 103.676 282.127 103.664 282.126 103.64C282.09 103.375 282.04 103.122 282.003 102.856C281.989 102.82 281.987 102.772 281.986 102.748C281.937 102.495 281.886 102.218 281.836 101.965C281.835 101.916 281.819 101.856 281.804 101.821C281.741 101.556 281.691 101.303 281.628 101.038C281.613 101.003 281.612 100.954 281.597 100.918C281.534 100.654 281.457 100.402 281.394 100.137C281.38 100.125 281.393 100.113 281.379 100.101C281.302 99.8249 281.226 99.5728 281.149 99.2966C281.134 99.2607 281.118 99.2006 281.104 99.1647C281.028 98.9126 280.938 98.6489 280.861 98.3968C280.833 98.3492 280.831 98.3008 280.802 98.2532C280.712 97.9895 280.622 97.7257 280.519 97.4745C280.519 97.4503 280.491 97.4269 280.49 97.4027C280.387 97.1515 280.311 96.8994 280.208 96.6482C280.193 96.6123 280.179 96.5764 280.178 96.5522C280.075 96.3009 279.972 96.0497 279.869 95.7984C279.84 95.7509 279.839 95.7025 279.81 95.6549C279.707 95.4036 279.591 95.1649 279.488 94.9137C279.474 94.8778 279.445 94.8302 279.431 94.7943C279.314 94.5314 279.198 94.2926 279.081 94.0297C278.952 93.7793 278.835 93.5163 278.705 93.2659C278.691 93.23 278.662 93.1824 278.648 93.1466C278.532 92.9078 278.389 92.6699 278.273 92.4312C278.245 92.3836 278.23 92.3477 278.202 92.3001C278.059 92.0622 277.943 91.8235 277.801 91.5856C277.786 91.5497 277.772 91.538 277.758 91.5021C277.629 91.2759 277.487 91.038 277.358 90.8118C277.344 90.8001 277.329 90.7642 277.316 90.7525C277.173 90.5146 277.044 90.2884 276.889 90.063C276.86 90.0154 276.846 89.9795 276.817 89.9319C276.676 89.7182 276.533 89.4803 276.392 89.2666C276.377 89.2307 276.336 89.1956 276.321 89.1597C276.165 88.9343 276.01 88.7089 275.855 88.4836L275.841 88.4719C275.685 88.2465 275.53 88.0211 275.376 87.8199C275.361 87.784 275.333 87.7606 275.319 87.7247C275.164 87.5235 275.023 87.3098 274.854 87.0969C274.826 87.0493 274.798 87.026 274.77 86.9784C274.615 86.7772 274.447 86.5643 274.293 86.3631C274.265 86.3397 274.264 86.3155 274.236 86.2921C274.082 86.091 273.915 85.9023 273.76 85.7011C273.746 85.6894 273.733 85.6777 273.732 85.6535C273.564 85.4648 273.41 85.2636 273.242 85.0749C273.215 85.0516 273.186 85.004 273.159 84.9806C272.991 84.7919 272.838 84.6149 272.67 84.4262C272.643 84.4029 272.628 84.367 272.587 84.3319C272.419 84.1432 272.239 83.967 272.072 83.7784L272.058 83.7667C271.878 83.5905 271.724 83.4135 271.544 83.2373C271.516 83.214 271.503 83.2023 271.475 83.1789C271.308 83.0144 271.142 82.8499 270.976 82.6855C270.948 82.6621 270.92 82.6387 270.879 82.6036C270.713 82.4391 270.533 82.2872 270.381 82.1344C270.353 82.111 270.339 82.0993 270.312 82.0759C270.132 81.924 269.966 81.7595 269.787 81.6317L269.773 81.62C269.594 81.4681 269.429 81.3278 269.25 81.2C269.223 81.1767 269.195 81.1533 269.181 81.1416C269.016 81.0013 268.837 80.8735 268.673 80.7575C268.645 80.7341 268.631 80.7224 268.604 80.699C268.425 80.5712 268.247 80.4435 268.082 80.3274C268.068 80.3157 268.068 80.3157 268.054 80.304C267.89 80.1879 267.711 80.0602 267.534 79.9566C267.52 79.9449 267.506 79.9332 267.492 79.9216C267.328 79.8055 267.15 79.7019 266.987 79.61C266.959 79.5867 266.932 79.5875 266.905 79.5641C266.741 79.4722 266.563 79.3687 266.4 79.2768C266.386 79.2651 266.359 79.2659 266.332 79.2425C265.977 79.0596 265.651 78.9001 265.311 78.753C265.298 78.7414 265.271 78.7422 265.257 78.7305C265.094 78.6628 264.931 78.5951 264.782 78.5392C264.769 78.5275 264.742 78.5283 264.714 78.5049C264.552 78.4372 264.39 78.3938 264.228 78.3503C264.228 78.3503 264.214 78.3386 264.201 78.3511C264.039 78.3077 263.877 78.2642 263.729 78.2324L263.702 78.2332C263.554 78.2014 263.406 78.1697 263.245 78.1504C263.218 78.1512 263.205 78.1395 263.178 78.1403C262.861 78.247 262.727 78.2269 262.58 78.2194C262.553 78.2202 262.553 78.2202 262.526 78.221C262.232 78.2058 261.925 78.2032 261.645 78.2239C261.618 78.2248 261.618 78.2248 261.592 78.2256C261.445 78.2422 261.326 78.258 261.193 78.2863C261.166 78.2871 261.153 78.2997 261.127 78.3005C260.994 78.3288 260.862 78.3571 260.73 78.4096C260.73 78.4096 260.717 78.4221 260.691 78.423C260.572 78.463 260.44 78.5155 260.309 78.568L260.296 78.5805C260.164 78.633 260.046 78.6972 259.928 78.7614C259.916 78.7739 259.889 78.7748 259.876 78.7873C259.758 78.8515 259.654 78.9274 259.537 79.0158C259.524 79.0283 259.512 79.0408 259.499 79.0533C259.407 79.1167 259.291 79.2051 259.187 79.3052C257.987 80.4204 257.193 82.3954 256.959 85.4314C255.699 103.134 272.275 112.376 278.377 115.156C280.527 118.712 282.86 122.165 285.35 125.517L286.755 127.364C291.122 133.032 295.972 138.407 301.222 143.419C292.71 140.119 271.112 133.043 262.323 141.952C259.993 144.314 259.205 146.434 259.527 148.253C259.54 148.265 259.527 148.277 259.541 148.289C259.641 148.819 259.834 149.334 260.119 149.81L260.133 149.822C260.418 150.297 260.796 150.758 261.239 151.181L261.253 151.192C261.696 151.615 262.232 152.022 262.82 152.38C262.834 152.392 262.834 152.392 262.848 152.403C262.957 152.473 263.081 152.554 263.203 152.61C263.694 152.886 264.225 153.148 264.782 153.41C264.796 153.421 264.837 153.432 264.85 153.444C264.973 153.501 265.108 153.545 265.244 153.614C265.258 153.625 265.285 153.624 265.298 153.636C265.719 153.805 266.152 153.961 266.612 154.117C266.626 154.128 266.653 154.127 266.666 154.139C266.802 154.183 266.937 154.228 267.072 154.272C267.113 154.283 267.167 154.305 267.207 154.316C267.343 154.361 267.464 154.393 267.612 154.425C267.653 154.436 267.693 154.447 267.747 154.469C268.193 154.589 268.638 154.708 269.082 154.804C269.137 154.826 269.19 154.825 269.231 154.836C269.352 154.868 269.486 154.888 269.621 154.908C269.688 154.918 269.769 154.94 269.836 154.95C269.97 154.97 270.092 155.003 270.226 155.023C270.307 155.045 270.374 155.055 270.468 155.064C270.602 155.084 270.724 155.117 270.844 155.125C270.911 155.135 270.979 155.145 271.046 155.155C271.288 155.196 271.53 155.237 271.771 155.254C271.865 155.263 271.959 155.272 272.04 155.294C272.16 155.303 272.268 155.323 272.388 155.332C272.482 155.341 272.59 155.362 272.696 155.359C272.817 155.367 272.925 155.388 273.045 155.396C273.153 155.417 273.26 155.414 273.38 155.422C273.501 155.431 273.594 155.44 273.715 155.448C273.876 155.468 274.023 155.475 274.197 155.482C274.332 155.502 274.465 155.498 274.599 155.518C274.746 155.526 274.867 155.534 275.014 155.542C275.108 155.551 275.215 155.548 275.309 155.557C275.429 155.565 275.563 155.561 275.683 155.57C275.79 155.566 275.884 155.575 275.991 155.572C276.124 155.568 276.271 155.576 276.392 155.584C276.486 155.593 276.566 155.591 276.672 155.587C276.9 155.593 277.113 155.586 277.34 155.591C277.394 155.589 277.447 155.588 277.514 155.598C277.688 155.605 277.861 155.587 278.035 155.594C278.115 155.591 278.222 155.588 278.302 155.586C278.435 155.582 278.595 155.577 278.729 155.573C278.809 155.57 278.916 155.567 278.996 155.564C279.156 155.559 279.302 155.543 279.462 155.538C279.542 155.535 279.622 155.533 279.702 155.53C279.929 155.511 280.155 155.492 280.382 155.473C280.408 155.472 280.448 155.459 280.488 155.47C280.688 155.452 280.888 155.433 281.087 155.415C281.167 155.413 281.234 155.398 281.327 155.383C281.473 155.367 281.646 155.349 281.792 155.333C281.872 155.33 281.965 155.315 282.031 155.301C282.191 155.272 282.351 155.267 282.51 155.238C282.576 155.224 282.656 155.221 282.723 155.207C282.962 155.176 283.174 155.145 283.4 155.102C283.427 155.101 283.439 155.088 283.453 155.1C283.666 155.069 283.865 155.027 284.077 154.996C284.143 154.982 284.21 154.968 284.303 154.953C284.462 154.923 284.621 154.894 284.766 154.853C284.846 154.827 284.926 154.824 285.005 154.798C285.164 154.768 285.309 154.728 285.469 154.699C285.535 154.684 285.601 154.67 285.667 154.656C285.879 154.601 286.104 154.558 286.329 154.49C286.329 154.49 286.342 154.478 286.356 154.489C286.567 154.434 286.779 154.379 286.991 154.325C287.057 154.31 287.123 154.296 287.189 154.258C287.334 154.217 287.492 154.164 287.638 154.123C287.717 154.096 287.783 154.082 287.862 154.055C288.008 154.015 288.166 153.961 288.298 153.909C288.364 153.895 288.429 153.856 288.495 153.842C288.706 153.763 288.904 153.696 289.115 153.617C292.224 152.455 294.722 151.385 296.716 150.427C297.293 150.142 297.818 149.884 298.316 149.626C298.814 149.369 299.272 149.124 299.69 148.869C300.318 148.511 300.879 148.166 301.362 147.848C301.518 147.747 301.675 147.645 301.831 147.543C302.43 147.137 302.898 146.783 303.286 146.456C303.39 146.381 303.468 146.305 303.558 146.218C303.687 146.093 303.83 145.979 303.933 145.879C307.196 148.832 310.614 151.658 314.161 154.335L316.95 156.394C322.152 160.122 327.623 163.54 333.322 166.611C323.821 165.801 296.458 164.573 295.012 176.963C294.952 177.497 294.917 177.983 294.908 178.468C294.913 178.589 294.903 178.698 294.908 178.819L294.909 178.844C294.913 178.965 294.917 179.061 294.934 179.17L294.935 179.194C294.939 179.291 294.956 179.399 294.96 179.496L294.961 179.52C294.967 179.69 294.985 179.798 294.988 179.895L294.989 179.919C294.993 180.016 295.023 180.112 295.027 180.209C295.041 180.221 295.028 180.233 295.042 180.245C295.058 180.329 295.075 180.438 295.092 180.522C295.106 180.534 295.093 180.546 295.107 180.558C295.123 180.642 295.154 180.738 295.17 180.822C295.184 180.834 295.171 180.847 295.185 180.858C295.201 180.943 295.218 181.027 295.261 181.11C295.275 181.122 295.262 181.134 295.276 181.146C295.292 181.23 295.322 181.302 295.365 181.386C295.379 181.397 295.366 181.41 295.38 181.422C295.409 181.493 295.425 181.578 295.469 181.661C295.482 181.673 295.47 181.685 295.483 181.697C295.513 181.769 295.542 181.841 295.585 181.924C295.599 181.936 295.586 181.948 295.6 181.96C295.629 182.032 295.659 182.104 295.715 182.175C295.729 182.186 295.716 182.199 295.73 182.21C295.759 182.282 295.801 182.341 295.845 182.425C295.858 182.437 295.858 182.437 295.859 182.461C295.902 182.52 295.931 182.592 295.987 182.663C296.001 182.675 296.001 182.675 296.002 182.699C296.044 182.758 296.086 182.817 296.142 182.888C296.156 182.9 296.156 182.9 296.17 182.912C296.212 182.971 296.255 183.03 296.311 183.101C296.324 183.113 296.324 183.113 296.338 183.125C296.381 183.184 296.45 183.242 296.492 183.302C296.506 183.313 296.506 183.313 296.519 183.325C296.562 183.384 296.631 183.443 296.686 183.489L296.7 183.501C296.755 183.548 296.824 183.606 296.866 183.666L296.88 183.677C296.935 183.724 297.004 183.782 297.059 183.829L297.073 183.841C297.128 183.888 297.197 183.946 297.265 183.98C297.265 183.98 297.265 183.98 297.279 183.992C297.348 184.05 297.416 184.085 297.485 184.143C297.567 184.189 297.622 184.236 297.704 184.282C299.452 185.294 301.904 185.497 304.761 185.106C304.881 185.09 305 185.075 305.12 185.059C305.12 185.059 305.12 185.059 305.133 185.046C305.253 185.03 305.372 185.015 305.478 184.987L305.505 184.986C305.624 184.971 305.73 184.943 305.85 184.927C305.863 184.915 305.877 184.926 305.889 184.914C306.009 184.898 306.115 184.871 306.247 184.842C306.26 184.83 306.274 184.842 306.287 184.829C306.407 184.813 306.512 184.786 306.631 184.746C306.658 184.745 306.671 184.732 306.685 184.744C306.79 184.717 306.91 184.701 307.029 184.661C307.055 184.66 307.068 184.647 307.095 184.647C307.201 184.619 307.32 184.603 307.439 184.563C307.466 184.562 307.479 184.55 307.505 184.549C307.611 184.522 307.717 184.494 307.85 184.466C307.876 184.465 307.889 184.453 307.916 184.452C308.022 184.424 308.14 184.384 308.246 184.357C308.273 184.356 308.286 184.343 308.325 184.33C308.431 184.303 308.55 184.263 308.656 184.235C308.682 184.234 308.708 184.209 308.735 184.208C308.841 184.181 308.959 184.141 309.065 184.113C309.092 184.113 309.132 184.099 309.144 184.087C309.25 184.059 309.369 184.019 309.475 183.992C309.502 183.991 309.541 183.978 309.554 183.965C309.66 183.938 309.779 183.898 309.884 183.87C309.924 183.857 309.951 183.856 309.976 183.831C310.082 183.803 310.201 183.763 310.307 183.736C310.346 183.723 310.373 183.722 310.399 183.697C310.505 183.669 310.623 183.629 310.728 183.578C310.768 183.564 310.795 183.563 310.82 183.538C310.939 183.498 311.031 183.459 311.15 183.419C311.189 183.406 311.216 183.405 311.256 183.392C311.374 183.352 311.466 183.313 311.585 183.273C311.625 183.259 311.664 183.246 311.677 183.233C311.796 183.193 311.888 183.154 312.007 183.114C312.046 183.101 312.086 183.087 312.099 183.075C312.217 183.035 312.309 182.996 312.428 182.956C312.468 182.942 312.507 182.929 312.533 182.904C312.652 182.864 312.757 182.812 312.863 182.785C312.902 182.772 312.942 182.758 312.981 182.745C313.1 182.705 313.205 182.653 313.324 182.613C313.363 182.6 313.403 182.587 313.416 182.574C313.534 182.534 313.639 182.482 313.758 182.442C313.798 182.429 313.837 182.416 313.863 182.391C313.968 182.339 314.087 182.299 314.192 182.247C314.231 182.234 314.257 182.209 314.297 182.196C314.401 182.144 314.52 182.104 314.625 182.052C314.665 182.039 314.704 182.025 314.73 182C314.835 181.949 314.954 181.909 315.059 181.857C315.098 181.844 315.124 181.819 315.151 181.818C315.256 181.766 315.387 181.714 315.492 181.662C315.532 181.649 315.557 181.624 315.584 181.623C315.689 181.571 315.821 181.519 315.926 181.467C315.965 181.454 315.978 181.441 316.018 181.428C316.135 181.363 316.254 181.323 316.372 181.259C316.399 181.258 316.424 181.233 316.451 181.233C316.569 181.168 316.701 181.116 316.818 181.052C316.831 181.039 316.858 181.038 316.884 181.013C317.015 180.961 317.133 180.897 317.264 180.82C317.277 180.807 317.303 180.807 317.303 180.807C317.448 180.742 317.566 180.677 317.71 180.612C318.747 180.108 319.768 179.568 320.789 179.003C320.907 178.939 321.038 178.862 321.155 178.798C321.181 178.773 321.208 178.772 321.234 178.747C321.339 178.695 321.443 178.619 321.548 178.568C321.587 178.554 321.626 178.517 321.665 178.504C321.77 178.452 321.861 178.388 321.966 178.337C322.019 178.311 322.057 178.273 322.097 178.26C322.188 178.197 322.293 178.145 322.371 178.094C322.424 178.068 322.476 178.042 322.515 178.005C322.606 177.941 322.698 177.902 322.789 177.839C322.842 177.813 322.907 177.775 322.96 177.749C323.038 177.698 323.143 177.646 323.221 177.595C323.286 177.557 323.339 177.531 323.404 177.493C323.482 177.442 323.561 177.391 323.665 177.339C323.731 177.301 323.783 177.275 323.849 177.237C323.927 177.186 324.005 177.135 324.083 177.084C324.149 177.046 324.214 177.008 324.267 176.982C324.345 176.931 324.423 176.88 324.501 176.829C324.567 176.791 324.632 176.752 324.697 176.714C324.776 176.663 324.854 176.612 324.932 176.561C324.997 176.523 325.063 176.485 325.128 176.446C325.206 176.395 325.285 176.345 325.363 176.294C325.428 176.255 325.494 176.217 325.545 176.167C325.623 176.116 325.702 176.065 325.78 176.014C325.845 175.976 325.911 175.938 325.962 175.888C326.04 175.837 326.106 175.798 326.184 175.747C326.249 175.709 326.328 175.658 326.379 175.608C326.457 175.557 326.523 175.519 326.587 175.456C326.652 175.418 326.731 175.367 326.782 175.317C326.86 175.266 326.926 175.228 326.99 175.165C327.056 175.127 327.134 175.076 327.185 175.026C327.264 174.975 327.329 174.937 327.393 174.874C327.459 174.836 327.523 174.773 327.589 174.735C327.667 174.684 327.718 174.634 327.797 174.583C327.862 174.545 327.926 174.482 327.992 174.444C328.057 174.406 328.122 174.343 328.187 174.305C328.252 174.266 328.317 174.204 328.382 174.165C328.447 174.127 328.512 174.064 328.577 174.026C328.643 173.988 328.707 173.925 328.772 173.887C328.838 173.848 328.902 173.786 328.968 173.747C329.033 173.709 329.097 173.647 329.163 173.608C329.228 173.57 329.293 173.507 329.358 173.469C329.423 173.431 329.488 173.368 329.553 173.33C329.618 173.291 329.683 173.229 329.748 173.19C329.814 173.152 329.878 173.089 329.943 173.051C330.009 173.013 330.073 172.95 330.138 172.912C330.19 172.862 330.268 172.811 330.32 172.761C330.371 172.711 330.45 172.66 330.501 172.61C330.553 172.56 330.631 172.509 330.683 172.459C330.734 172.409 330.799 172.37 330.864 172.308C330.915 172.258 330.994 172.207 331.045 172.157C331.097 172.107 331.162 172.069 331.214 172.019C331.265 171.968 331.343 171.918 331.395 171.868C331.447 171.817 331.512 171.779 331.564 171.729C331.615 171.679 331.693 171.628 331.745 171.578C331.796 171.528 331.862 171.49 331.913 171.44C331.965 171.39 332.043 171.339 332.095 171.289C332.146 171.239 332.212 171.2 332.263 171.15C332.315 171.1 332.393 171.049 332.445 170.999C332.496 170.949 332.548 170.899 332.613 170.861C332.665 170.811 332.729 170.748 332.794 170.71C332.846 170.66 332.897 170.61 332.963 170.571C333.014 170.521 333.066 170.471 333.144 170.42C333.196 170.37 333.247 170.32 333.299 170.27C333.35 170.22 333.415 170.158 333.466 170.108C333.518 170.058 333.569 170.008 333.608 169.97C333.66 169.92 333.711 169.87 333.776 169.807C333.827 169.757 333.879 169.707 333.917 169.67C333.969 169.62 334.021 169.57 334.072 169.52C334.124 169.469 334.162 169.432 334.214 169.382C334.265 169.332 334.317 169.282 334.369 169.232C334.42 169.182 334.459 169.144 334.51 169.094C334.562 169.044 334.614 168.994 334.665 168.944C334.717 168.894 334.755 168.856 334.807 168.806C334.858 168.756 334.91 168.706 334.962 168.656C335 168.619 335.052 168.569 335.09 168.531C335.142 168.481 335.194 168.431 335.258 168.368C335.297 168.331 335.348 168.281 335.387 168.243C335.438 168.193 335.503 168.131 335.541 168.069C335.554 168.056 335.579 168.031 335.592 168.019C339.788 170.191 344.11 172.166 348.531 173.944C349.778 174.439 351.026 174.933 352.299 175.403L354.642 176.264C359.611 178.037 364.665 179.601 369.783 181.055C361.036 181.494 343.056 184.326 336.587 199.56C335.323 202.543 335.069 204.695 335.578 206.157C335.578 206.157 335.592 206.169 335.579 206.181C335.624 206.313 335.682 206.433 335.74 206.552C335.74 206.552 335.754 206.564 335.741 206.576C335.799 206.696 335.87 206.803 335.928 206.922C336.083 207.147 336.25 207.336 336.444 207.524C336.541 207.606 336.638 207.687 336.747 207.757L336.761 207.768C336.87 207.838 336.98 207.907 337.102 207.964C337.102 207.964 337.102 207.964 337.116 207.976C337.484 208.17 337.89 208.303 338.334 208.398C338.334 208.398 338.348 208.41 338.361 208.398C338.509 208.429 338.67 208.449 338.818 208.48C338.818 208.48 338.832 208.492 338.845 208.48C339.328 208.537 339.849 208.558 340.409 208.516L340.436 208.515C340.622 208.51 340.795 208.492 340.995 208.474L341.022 208.473C341.607 208.407 342.231 208.303 342.88 208.149C342.893 208.137 342.906 208.148 342.919 208.136C343.131 208.081 343.33 208.039 343.554 207.971C343.567 207.959 343.594 207.958 343.594 207.958C343.805 207.903 344.03 207.835 344.255 207.768L344.267 207.755C344.717 207.62 345.191 207.46 345.666 207.3C345.679 207.288 345.706 207.287 345.706 207.287C345.943 207.207 346.167 207.115 346.404 207.035C346.431 207.034 346.444 207.022 346.484 207.008C346.707 206.917 346.958 206.824 347.181 206.733C347.194 206.72 347.221 206.719 347.221 206.719C347.708 206.523 348.194 206.302 348.706 206.08C348.719 206.067 348.746 206.066 348.759 206.054C348.995 205.95 349.245 205.833 349.48 205.705C349.52 205.691 349.533 205.679 349.572 205.665C349.822 205.549 350.057 205.42 350.307 205.304C350.32 205.291 350.359 205.278 350.372 205.265C350.87 205.008 351.394 204.725 351.918 204.442C351.931 204.43 351.957 204.429 351.97 204.416C352.219 204.275 352.467 204.135 352.716 203.994C352.755 203.98 352.781 203.955 352.821 203.942C353.069 203.801 353.318 203.66 353.552 203.507C353.578 203.482 353.618 203.469 353.643 203.444C353.905 203.291 354.14 203.138 354.401 202.985C354.414 202.972 354.427 202.96 354.453 202.959C354.715 202.805 354.962 202.64 355.21 202.475C355.223 202.463 355.236 202.45 355.263 202.449C355.51 202.284 355.758 202.119 356.005 201.954C356.031 201.929 356.084 201.903 356.109 201.878C356.357 201.713 356.605 201.548 356.838 201.371C356.877 201.333 356.917 201.32 356.955 201.282C357.203 201.117 357.45 200.928 357.697 200.763C357.723 200.738 357.75 200.737 357.776 200.712C358.036 200.534 358.27 200.358 358.517 200.168C358.529 200.156 358.542 200.143 358.555 200.131C358.802 199.941 359.049 199.752 359.295 199.563C359.334 199.525 359.374 199.512 359.412 199.474C359.646 199.297 359.893 199.108 360.113 198.92C360.151 198.882 360.204 198.856 360.243 198.819C360.489 198.629 360.709 198.441 360.956 198.252C360.982 198.227 361.021 198.189 361.06 198.176C361.293 197.975 361.553 197.773 361.786 197.572L361.798 197.559C362.031 197.358 362.277 197.145 362.51 196.944C362.549 196.906 362.574 196.881 362.613 196.844C362.846 196.643 363.079 196.442 363.285 196.241C363.324 196.204 363.363 196.166 363.401 196.129C363.634 195.928 363.853 195.715 364.059 195.515C364.098 195.477 364.124 195.452 364.163 195.415C364.395 195.19 364.614 194.977 364.846 194.752C364.859 194.739 364.859 194.739 364.871 194.727C365.091 194.514 365.323 194.289 365.542 194.076C365.567 194.051 365.606 194.013 365.632 193.988C365.851 193.776 366.056 193.551 366.275 193.339C366.314 193.301 366.353 193.264 366.391 193.226C366.597 193.002 366.803 192.801 367.008 192.577C367.047 192.539 367.086 192.502 367.111 192.453C367.316 192.228 367.521 192.004 367.739 191.767C367.752 191.754 367.778 191.729 367.791 191.717C367.996 191.493 368.188 191.256 368.393 191.032C368.419 191.007 368.445 190.982 368.457 190.945C368.648 190.709 368.853 190.485 369.032 190.261C369.071 190.224 369.096 190.174 369.134 190.137C369.313 189.913 369.504 189.677 369.683 189.454C369.722 189.416 369.747 189.367 369.785 189.329C369.977 189.093 370.142 188.858 370.319 188.61C370.345 188.585 370.357 188.549 370.37 188.536C370.535 188.301 370.713 188.053 370.877 187.818C370.89 187.805 370.902 187.768 370.915 187.756C371.093 187.508 371.258 187.273 371.409 187.026C371.434 186.977 371.472 186.939 371.484 186.902C371.649 186.667 371.8 186.42 371.938 186.186C371.963 186.137 372.002 186.099 372.027 186.05C372.178 185.803 372.329 185.556 372.467 185.321C372.479 185.285 372.505 185.26 372.517 185.223C372.668 184.976 372.805 184.717 372.956 184.47C372.969 184.458 372.982 184.445 372.968 184.434C373.105 184.175 373.243 183.916 373.367 183.67C373.379 183.634 373.404 183.584 373.43 183.559C373.554 183.313 373.678 183.067 373.803 182.821C373.827 182.772 373.852 182.723 373.864 182.686C373.926 182.551 373.988 182.415 374.062 182.268C381.754 184.333 389.532 186.213 397.246 188.18L400.888 189.11C405.164 190.226 409.415 191.391 413.617 192.655C405.611 196.112 380.531 207.667 378.948 216.403C378.473 219.07 379.48 220.978 381.394 222.155C381.422 222.178 381.448 222.177 381.476 222.201C381.817 222.396 382.171 222.579 382.565 222.748C382.606 222.759 382.619 222.771 382.66 222.782C383.053 222.927 383.472 223.072 383.904 223.18C383.944 223.191 383.971 223.19 384.011 223.201C384.241 223.254 384.456 223.296 384.685 223.349C384.685 223.349 384.699 223.361 384.712 223.349C384.927 223.39 385.155 223.42 385.397 223.461C385.438 223.472 385.464 223.471 385.505 223.482C385.733 223.511 385.988 223.539 386.229 223.556C386.256 223.555 386.269 223.567 386.296 223.566C386.537 223.583 386.764 223.588 387.005 223.605C387.032 223.604 387.073 223.615 387.112 223.602C387.366 223.606 387.62 223.61 387.887 223.602C387.914 223.601 387.967 223.6 387.994 223.599C388.234 223.591 388.474 223.584 388.727 223.564C388.754 223.563 388.78 223.562 388.82 223.549C389.087 223.541 389.353 223.508 389.619 223.476C389.672 223.474 389.712 223.461 389.752 223.472C390.005 223.452 390.257 223.408 390.51 223.388C390.537 223.387 390.564 223.386 390.59 223.386C390.856 223.353 391.135 223.308 391.414 223.263C391.467 223.262 391.52 223.236 391.573 223.234C391.838 223.177 392.104 223.145 392.382 223.076C392.395 223.063 392.409 223.075 392.422 223.063C392.7 222.993 392.991 222.936 393.269 222.867C393.336 222.853 393.375 222.839 393.441 222.825C393.997 222.687 394.565 222.512 395.119 222.325C395.185 222.311 395.238 222.285 395.304 222.271C395.581 222.178 395.858 222.084 396.148 221.979C396.161 221.966 396.188 221.965 396.188 221.965C396.451 221.86 396.701 221.768 396.964 221.663C397.017 221.637 397.096 221.61 397.148 221.584C397.425 221.467 397.688 221.362 397.95 221.232C397.99 221.219 398.015 221.194 398.055 221.181C398.304 221.064 398.541 220.96 398.777 220.831C398.829 220.806 398.894 220.767 398.947 220.741C399.209 220.612 399.458 220.471 399.733 220.329C399.785 220.304 399.811 220.279 399.864 220.253C400.099 220.124 400.308 219.997 400.544 219.868C400.596 219.842 400.662 219.804 400.7 219.767C400.962 219.613 401.197 219.461 401.444 219.295C401.497 219.27 401.548 219.219 401.601 219.194C401.822 219.054 402.03 218.902 402.239 218.75C402.277 218.712 402.33 218.687 402.368 218.649C402.602 218.472 402.836 218.295 403.07 218.119C403.121 218.069 403.174 218.043 403.225 217.993C403.432 217.817 403.641 217.665 403.834 217.477C403.86 217.452 403.898 217.415 403.924 217.39C404.144 217.201 404.363 216.988 404.583 216.8C404.635 216.75 404.686 216.7 404.738 216.65C404.931 216.462 405.137 216.262 405.317 216.062C405.33 216.05 405.356 216.025 405.369 216.012C405.574 215.788 405.766 215.576 405.972 215.352C406.023 215.302 406.061 215.24 406.112 215.19C406.304 214.954 406.509 214.729 406.674 214.494C412.228 207.272 414.619 200.511 415.66 196.214C415.937 195.043 416.114 194.068 416.233 193.301C423.112 195.452 429.883 197.908 436.407 200.906L436.53 200.962C436.612 201.008 436.706 201.042 436.788 201.088L438.909 202.088C438.909 202.088 438.909 202.088 438.936 202.088C439.086 202.168 439.249 202.235 439.399 202.316L439.467 202.35C440.869 203.046 442.258 203.754 443.635 204.499C460.215 213.486 474.384 225.867 484.938 240.528C485.953 241.951 488.202 240.294 487.201 238.884C477.872 225.917 465.683 214.675 451.571 205.975C448.331 203.979 444.976 202.144 441.573 200.456L438.839 199.147C431.905 195.895 424.684 193.198 417.303 190.857C417.47 190.671 417.623 190.472 417.775 190.273C417.814 190.236 417.852 190.174 417.891 190.137C418.095 189.888 418.286 189.628 418.476 189.367C418.502 189.342 418.501 189.318 418.527 189.293C418.705 189.045 418.882 188.798 419.06 188.55C419.085 188.501 419.111 188.476 419.149 188.438C419.313 188.179 419.491 187.931 419.655 187.671C419.68 187.622 419.718 187.56 419.756 187.523C419.92 187.263 420.071 187.016 420.208 186.758C420.22 186.721 420.259 186.684 420.271 186.647C420.408 186.388 420.546 186.154 420.684 185.895C420.696 185.858 420.709 185.846 420.734 185.821C420.872 185.562 420.995 185.292 421.119 185.046C421.144 184.996 421.169 184.947 421.194 184.898C421.305 184.64 421.429 184.394 421.526 184.125C421.551 184.075 421.563 184.039 421.587 183.989C421.698 183.732 421.795 183.462 421.905 183.204L421.918 183.192C422.015 182.922 422.112 182.653 422.209 182.383C422.233 182.334 422.232 182.286 422.256 182.236C422.34 181.979 422.424 181.722 422.494 181.454C422.505 181.393 422.53 181.344 422.528 181.295C422.599 181.026 422.682 180.769 422.74 180.513C422.739 180.489 422.751 180.452 422.764 180.44C422.821 180.184 422.892 179.939 422.936 179.695C422.948 179.659 422.946 179.61 422.958 179.574C423.015 179.317 423.059 179.05 423.103 178.806C423.114 178.745 423.112 178.697 423.123 178.636C423.154 178.38 423.211 178.124 423.242 177.869C423.254 177.832 423.252 177.784 423.264 177.747C423.294 177.492 423.326 177.26 423.343 177.018C423.342 176.993 423.354 176.957 423.353 176.933C423.384 176.677 423.388 176.423 423.404 176.156C423.403 176.107 423.414 176.046 423.412 175.998C423.416 175.743 423.433 175.5 423.437 175.246C423.435 175.198 423.434 175.149 423.432 175.101C423.436 174.846 423.439 174.592 423.443 174.337L423.442 174.313C423.446 174.058 423.436 173.792 423.413 173.538C423.411 173.49 423.41 173.442 423.408 173.393C423.399 173.151 423.376 172.898 423.367 172.656C423.365 172.607 423.363 172.559 423.348 172.499C423.325 172.245 423.302 171.991 423.266 171.75C423.265 171.726 423.264 171.702 423.263 171.677C423.241 171.448 423.206 171.207 423.17 170.965C423.168 170.917 423.153 170.881 423.152 170.833C423.116 170.592 423.08 170.35 423.032 170.122C422.933 169.991 422.931 169.943 422.916 169.883Z" fill="#3D4775"/>
<path d="M434.84 94.3368C434.84 94.3368 546.907 193.12 644.234 212.664C677.257 219.299 703.304 217.774 723.304 212.846C765.006 202.583 778.078 155.728 747.215 127.182C732.415 113.491 710.593 99.9024 678.444 90.116C583.704 61.285 434.84 94.3368 434.84 94.3368Z" fill="#2F8C91"/>
<path d="M689.866 155.73C683.221 154.071 676.586 152.405 669.941 150.746C663.933 128.441 657.936 106.13 651.92 83.8165C651.126 83.6719 650.331 83.5274 649.535 83.3988C655.524 105.643 661.513 127.888 667.503 150.132C661.229 148.562 654.938 146.989 648.664 145.419C642.544 124.154 637.464 102.685 633.45 81.0833C632.692 81.0016 631.937 80.9038 631.179 80.822C635.146 102.31 640.163 123.647 646.208 144.802C640.173 143.292 634.138 141.783 628.103 140.273C623.272 119.94 618.449 99.616 613.618 79.2826C612.856 79.2329 612.093 79.1831 611.32 79.14C616.111 99.3118 620.9 119.5 625.691 139.671C619.364 138.093 613.039 136.499 606.712 134.921C600.407 116.256 594.94 97.3906 590.349 78.371C589.589 78.3626 588.839 78.3476 588.087 78.3486C592.617 97.1625 597.996 115.826 604.202 134.296C597.69 132.665 591.178 131.034 584.656 129.41C579.245 112.584 574.632 95.5835 570.844 78.4621C570.1 78.4724 569.353 78.4987 568.608 78.5091C572.338 95.4089 576.858 112.182 582.164 128.788C576.862 127.463 571.553 126.128 566.251 124.803C560.688 109.764 555.878 94.5352 551.843 79.1615C551.093 79.2038 550.354 79.2395 549.605 79.2819C553.559 94.4059 558.262 109.373 563.697 124.164C557.229 122.548 550.761 120.932 544.293 119.316C538.194 106.832 533.591 93.862 530.536 80.6017C529.802 80.6628 529.069 80.7239 528.324 80.7916C531.297 93.7448 535.744 106.413 541.588 118.645C539.388 118.092 537.178 117.545 534.979 116.992C534.688 116.735 534.277 116.599 533.83 116.703C532.23 116.306 530.641 115.902 529.041 115.505C522.959 104.899 519.034 93.5051 517.421 81.7975C516.685 81.8745 515.959 81.945 515.223 82.0221C516.807 93.3733 520.499 104.429 526.188 114.787C521.337 113.571 516.494 112.365 511.644 111.149C507.434 102.16 503.973 92.9575 501.274 83.5749C500.535 83.668 499.806 83.7545 499.067 83.8476C501.67 92.9043 504.985 101.799 508.975 110.483C504.468 109.36 499.963 108.221 495.456 107.098C493.709 100.799 491.959 94.516 490.212 88.2171C489.92 87.1821 489.64 86.1245 489.348 85.0896C488.617 85.1921 487.897 85.2879 487.176 85.3837C487.61 86.9314 488.008 88.4737 488.427 90.0027C489.948 95.4978 491.479 100.986 493 106.481C489.183 105.528 485.383 104.577 481.566 103.624C478.945 98.241 476.567 92.772 474.467 87.2222C473.726 87.3313 472.993 87.4498 472.269 87.5616C474.231 92.7547 476.422 97.8843 478.846 102.934C474.393 101.819 469.947 100.714 465.504 99.5921C464.002 96.2043 462.67 92.7769 461.531 89.2965C460.787 89.4216 460.061 89.5494 459.346 89.6706C460.375 92.7904 461.545 95.8905 462.861 98.9389C460.174 98.2709 457.498 97.5963 454.811 96.9284C453.913 94.9339 453.004 92.946 452.114 90.9609C451.36 91.0927 450.642 91.2299 449.935 91.3604C450.676 92.9955 451.418 94.6307 452.152 96.2565C448.14 95.2573 444.138 94.2514 440.118 93.2428C436.692 93.9371 434.84 94.3533 434.84 94.3533C434.84 94.3533 436.198 95.5575 438.75 97.7118C443.221 98.8295 447.692 99.9472 452.163 101.065C450.038 101.833 448 102.745 446.038 103.767C446.61 104.23 447.189 104.702 447.784 105.194C450.335 103.917 453.032 102.834 455.876 101.986C458.996 102.76 462.113 103.551 465.233 104.325C461.089 105.82 457.155 107.625 453.43 109.74C454.002 110.203 454.584 110.659 455.181 111.134C459.13 108.93 463.348 107.07 467.774 105.593C468.072 105.499 468.255 105.322 468.369 105.118C474.112 106.559 479.847 107.991 485.589 109.431C478.737 112.449 472.025 115.693 465.447 119.138C466.046 119.597 466.654 120.065 467.272 120.527C474.306 116.857 481.505 113.425 488.85 110.243C494.011 111.531 499.18 112.828 504.34 114.115C495.003 118.395 485.787 122.899 476.717 127.596C477.334 128.058 477.954 128.504 478.59 128.968C488.097 124.058 497.753 119.368 507.558 114.912C513.885 116.491 520.22 118.078 526.547 119.656C513.955 124.952 501.617 130.687 489.546 136.839C490.184 137.287 490.822 137.736 491.468 138.193C503.993 131.832 516.816 125.924 529.898 120.482C534.069 121.522 538.248 122.571 542.419 123.61C529.837 131.495 517.254 139.379 504.671 147.263C505.304 147.686 505.937 148.11 506.577 148.542C519.463 140.474 532.341 132.397 545.237 124.323C553.331 126.348 561.424 128.373 569.518 130.398C551.68 137.98 534.35 146.441 517.607 155.744C518.276 156.173 518.937 156.592 519.605 157.02C536.771 147.527 554.537 138.911 572.84 131.228C580.255 133.077 587.659 134.933 595.081 136.791C576.849 147.744 558.607 158.704 540.375 169.657C541.066 170.056 541.747 170.462 542.431 170.852C560.936 159.735 579.44 148.619 597.937 137.493C600.764 138.198 603.592 138.904 606.41 139.616C609.848 140.471 613.283 141.342 616.721 142.198C597.044 154.57 577.357 166.949 557.68 179.322C558.384 179.699 559.096 180.084 559.81 180.454C579.711 167.936 599.63 155.419 619.531 142.901C624.833 144.226 630.135 145.551 635.436 146.876C616.73 161.311 598.023 175.746 579.324 190.191C580.043 190.529 580.762 190.867 581.491 191.198C600.241 176.72 618.999 162.252 637.749 147.774C637.853 147.691 637.921 147.603 637.99 147.515C645.571 149.414 653.144 151.304 660.725 153.202C639.979 168.32 619.225 183.429 598.479 198.547C599.249 198.852 600.027 199.166 600.797 199.47C621.665 184.272 642.533 169.075 663.394 153.867C669.075 155.291 674.749 156.705 680.43 158.128C662.239 174.779 644.046 191.445 625.855 208.096C626.663 208.332 627.463 208.56 628.273 208.78C646.487 192.1 664.718 175.423 682.932 158.744C688.975 160.263 695.02 161.766 701.063 163.284C685.613 181.029 669.041 197.948 651.432 213.974C652.344 214.128 653.238 214.28 654.135 214.415C671.619 198.428 688.073 181.556 703.406 163.86C713.215 166.308 723.021 168.772 732.83 171.22C719.042 187.144 704.398 202.43 688.973 217.058C690.058 217.042 691.117 217.014 692.186 216.979C707.219 202.635 721.487 187.652 734.937 172.079C735.016 171.984 735.076 171.887 735.111 171.778C739.239 172.803 743.364 173.843 747.491 174.868C737.124 188.025 726.749 201.173 716.392 214.323C717.506 214.114 718.605 213.887 719.686 213.657C729.723 200.918 739.761 188.178 749.807 175.447C753.888 176.473 757.98 177.493 762.053 178.51C762.526 177.033 762.921 175.521 763.252 174.007C762.122 173.721 760.991 173.436 759.86 173.15C756.842 158.987 753.824 144.823 750.814 130.669C749.911 129.672 748.949 128.7 747.949 127.738C751.124 142.679 754.309 157.613 757.492 172.563C753.843 171.644 750.193 170.74 746.544 169.82C742.617 152.17 738.671 134.517 734.744 116.867C733.877 116.236 732.981 115.61 732.076 114.99C736.104 133.065 740.14 151.149 744.158 169.23C738.494 167.81 732.839 166.398 727.175 164.978C723.114 144.892 719.043 124.812 714.981 104.726C714.157 104.299 713.332 103.871 712.479 103.447C716.588 123.762 720.708 144.07 724.809 164.375C719.869 163.145 714.931 161.9 709.991 160.67C709.85 160.632 709.716 160.604 709.575 160.566C704.062 139.352 699.781 117.939 696.729 96.4004C695.952 96.0863 695.164 95.7789 694.366 95.4782C697.392 117.119 701.667 138.638 707.155 159.955C706.519 159.793 705.884 159.632 705.255 159.48C705.127 159.419 704.986 159.382 704.858 159.379C700.723 158.344 696.587 157.31 692.444 156.267C684.704 133.897 678.161 111.25 672.807 88.3888C672.004 88.1775 671.204 87.9501 670.392 87.7455C675.657 110.708 682.182 133.352 689.866 155.73Z" fill="#286F7F"/>
<path d="M582.868 101.497C580.336 116.408 590.077 135.673 593.9 142.503C584.88 136.869 575.718 131.784 566.413 127.272C563.913 77.3711 535.259 31.5465 535.259 31.5465C535.259 31.5465 539.497 42.626 543.733 73.8863C547.477 101.479 559.686 119.972 564.51 126.359C555.742 122.191 546.881 118.534 537.933 115.397C534.688 114.26 531.43 113.196 528.17 112.2C519.813 98.9317 525.528 75.7211 520.863 53.981C517.358 37.6193 490.227 22.7022 490.227 22.7022C490.227 22.7022 512.959 38.2345 510.16 63.7263C507.923 84.0864 522.126 104.654 527.936 112.13C517.554 108.975 507.077 106.516 496.546 104.773C495.643 100.209 492.458 84.9743 487.593 70.0559C481.852 52.4817 460.995 15.1112 460.995 15.1112C460.995 15.1112 461.578 31.5154 467.596 54.0167C472.466 72.1949 490.937 98.1383 495.692 104.626C486.935 103.211 478.141 102.278 469.316 101.838C467.841 97.3451 462.776 82.154 456.631 66.5702C449.306 48.0046 416.37 6.02541 416.37 6.02541C416.37 6.02541 421.779 19.8128 433.028 49.4013C442.705 74.8364 462.867 96.2826 468.341 101.804C460.384 101.438 452.407 101.466 444.418 101.898C438.698 99.2826 421.519 93.8071 386.241 99.7927C344.751 106.828 332.056 112.004 332.056 112.004C332.056 112.004 408.002 123.032 444.027 104.571C451.269 104.164 458.364 104.11 465.312 104.339C458.559 109.091 434.61 126.686 415.566 150.257C393.178 177.977 387.617 187.004 387.617 187.004C387.617 187.004 435.237 149.34 448.661 131.166C459.248 116.824 464.633 107.632 466.443 104.389C475.933 104.765 485.148 105.714 494.049 107.124C487.512 111.848 463.164 130.569 455.005 152.326C445.543 177.553 426.031 190.35 426.031 190.35C426.031 190.35 447.934 182.387 466.233 151.324C481.416 125.556 491.663 111.329 494.728 107.225C506.406 109.115 517.551 111.8 528.119 115.089C522.017 118.696 503.723 130.691 492.787 150.39C479.513 174.297 454.99 197.785 454.99 197.785C454.99 197.785 493.284 175.309 512.711 147.757C526.722 127.886 529.596 119.09 530.111 115.72C542.112 119.545 553.366 124.124 563.806 129.094C558.142 131.543 539.882 140.551 522.54 161.316C501.673 186.294 485.585 205.656 485.585 205.656C485.585 205.656 553.041 159.064 565.094 129.702C575.438 134.706 584.963 140.09 593.611 145.55C588.414 147.171 572.916 153.193 561.043 169.922C546.576 190.31 536.835 196.343 522.79 202.839C522.79 202.839 554.177 193.875 565.789 179.861C579.367 163.467 585.017 150.551 593.927 145.752C599.702 149.4 605.07 153.078 610.03 156.666C649.845 185.558 672.441 216.127 672.676 216.434C673.129 217.045 674.031 217.221 674.712 216.831C674.795 216.776 674.879 216.722 674.956 216.657C675.422 216.227 675.512 215.546 675.131 215.006C674.907 214.692 652.1 183.831 611.943 154.671C606.484 150.706 600.957 146.962 595.366 143.421C595.294 137.198 595.094 114.479 596.053 99.5381C597.169 82.0931 567.67 48.8455 567.67 48.8455C567.67 48.8455 586.002 83.0522 582.868 101.497Z" fill="#E5674E"/>
<path d="M203.86 5.98294C203.86 5.98294 31.5518 33.7573 -35.6429 103.813C-58.4451 127.593 -68.0146 151.029 -70.686 171.623C-76.2751 214.575 -23.7127 258.299 25.4003 251.581C48.9626 248.36 75.4893 239.044 101.838 218.203C179.44 156.822 203.86 5.98294 203.86 5.98294Z" fill="#BAE3DD"/>
<path d="M15.1751 182.509C20.1759 177.955 25.153 173.4 30.1538 168.847C60.5553 179.156 90.9711 189.476 121.373 199.785C121.905 199.207 122.422 198.618 122.94 198.029C92.6143 187.744 62.2886 177.458 31.9771 167.184C36.6909 162.877 41.4284 158.571 46.1422 154.264C75.3049 163.763 104.256 174.275 132.904 185.817C133.35 185.225 133.797 184.634 134.233 184.052C105.751 172.568 76.9669 162.063 47.9847 152.581C52.5119 148.442 57.0628 144.305 61.59 140.166C89.0147 150.115 116.454 160.074 143.878 170.023C144.282 169.399 144.677 168.785 145.066 168.15C117.845 158.271 90.6246 148.392 63.4037 138.513C68.17 134.177 72.9126 129.841 77.6789 125.505C103.687 133.039 129.565 141.423 155.265 150.657C155.607 150.02 155.959 149.374 156.302 148.737C130.89 139.586 105.297 131.264 79.5834 123.783C84.4742 119.318 89.3747 114.843 94.2797 110.389C117.607 117.408 140.794 125.237 163.781 133.863C164.086 133.214 164.399 132.556 164.704 131.908C142.035 123.387 119.16 115.642 96.165 108.687C100.156 105.054 104.133 101.41 108.124 97.7767C129.299 103.426 150.354 109.864 171.271 117.061C171.547 116.391 171.823 115.72 172.113 115.061C151.562 107.972 130.843 101.618 110.048 96.0348C114.91 91.5996 119.772 87.1644 124.634 82.7292C142.856 86.1525 161.023 91.1926 178.879 97.7573C179.131 97.0863 179.37 96.4045 179.622 95.7335C162.183 89.298 144.472 84.3474 126.663 80.8779C128.319 79.363 129.965 77.8581 131.635 76.354C132.078 76.278 132.446 76.0238 132.497 75.5618C133.693 74.4729 134.899 73.374 136.095 72.2851C151.985 74.4238 167.884 78.9552 183.163 85.6904C183.401 85.0085 183.615 84.3258 183.853 83.6439C169.024 77.1321 153.638 72.6305 138.244 70.3352C141.891 67.0088 145.528 63.6923 149.174 60.3659C162.213 62.9844 175.194 66.4049 188.059 70.5841C188.269 69.8806 188.483 69.1978 188.707 68.5051C176.283 64.4561 163.772 61.1358 151.184 58.5345C154.577 55.446 157.97 52.3574 161.339 49.268C169.933 52.1304 178.55 54.9937 187.144 57.8561C188.566 58.3224 189.993 58.8096 191.415 59.276C191.615 58.5824 191.815 57.8888 192.006 57.2051C189.896 56.5065 187.792 55.7771 185.706 55.0793C178.193 52.5776 170.695 50.0866 163.181 47.5849C166.043 44.9711 168.905 42.3574 171.767 39.7437C179.63 41.2173 187.476 42.9892 195.297 45.018C195.493 44.3037 195.665 43.5884 195.841 42.8939C188.504 40.9762 181.175 39.3063 173.805 37.8824C177.16 34.8337 180.491 31.784 183.845 28.7352C188.718 29.7861 193.575 31.0323 198.411 32.453C198.583 31.7377 198.754 31.0224 198.907 30.327C194.559 29.0383 190.201 27.9141 185.836 26.9237C187.856 25.0824 189.875 23.241 191.895 21.3996C194.76 22.0032 197.64 22.6176 200.515 23.2113C200.683 22.4752 200.831 21.759 200.983 21.0636C198.625 20.5721 196.263 20.0597 193.905 19.5682C196.924 16.8161 199.934 14.0739 202.954 11.3218C203.57 7.8702 203.86 5.98389 203.86 5.98389C203.86 5.98389 201.766 6.31699 197.964 7.01838C194.6 10.0771 191.25 13.1466 187.876 16.2153C187.861 13.8534 187.618 11.4725 187.208 9.08539C186.385 9.25009 185.538 9.4139 184.662 9.60755C185.142 12.6882 185.29 15.7563 185.086 18.7802C182.731 20.9182 180.401 23.0571 178.046 25.1951C178.01 20.6052 177.49 15.9556 176.499 11.3088C175.68 11.4943 174.847 11.669 173.99 11.8427C174.993 16.7581 175.455 21.6735 175.332 26.5049C175.32 26.8241 175.456 27.118 175.649 27.3521C171.337 31.2926 167.011 35.2223 162.699 39.1628C161.962 31.1847 160.887 23.1732 159.485 15.1184C158.657 15.3139 157.805 15.5084 156.957 15.7238C158.431 24.3175 159.53 32.8661 160.249 41.4003C156.368 44.9446 152.487 48.489 148.601 52.0126C147.374 41.0153 145.833 29.9855 143.993 18.9341C143.145 19.1494 142.321 19.3657 141.464 19.591C143.395 31.1614 144.98 42.7084 146.204 54.2211C141.437 58.5569 136.685 62.9034 131.928 67.2292C130.884 52.7433 129.171 38.1599 126.831 23.5114C125.988 23.7475 125.145 23.9837 124.302 24.2198C126.7 39.3964 128.409 54.4952 129.407 69.5155C126.258 72.3762 123.133 75.2377 119.993 78.0884C115.727 61.8099 111.451 45.5413 107.184 29.2628C106.379 29.5107 105.574 29.7586 104.76 30.0164C109.137 46.691 113.501 63.3547 117.888 80.0193C111.81 85.5633 105.723 91.1173 99.6453 96.6613C98.0823 76.0926 95.171 55.3387 90.9679 34.4947C90.1437 34.7624 89.3241 35.051 88.4904 35.3288C92.7421 56.6593 95.6402 77.887 97.1472 98.9485C91.5673 104.027 86.0016 109.116 80.4314 114.184C74.8353 90.9259 69.2393 67.6677 63.629 44.3987C62.8282 44.7189 62.037 45.0292 61.2362 45.3494C66.9199 68.9512 72.6178 92.5639 78.3015 116.166C76.172 118.096 74.0568 120.037 71.9273 121.967C69.3384 124.323 66.7494 126.679 64.1842 129.035C57.4458 103.538 50.7119 78.0605 43.9734 52.5627C43.1914 52.9145 42.4189 53.2565 41.6369 53.6083C48.4492 79.3874 55.2616 105.166 62.0785 130.966C58.0875 134.599 54.1106 138.243 50.1195 141.876C40.3916 115.801 30.659 89.705 20.9311 63.6298C20.1916 64.0142 19.4521 64.3986 18.7267 64.7939C28.4826 90.9423 38.2385 117.091 47.9943 143.239C48.0502 143.386 48.1253 143.512 48.2195 143.619C42.5247 148.817 36.8299 154.014 31.1209 159.201C21.4529 130.89 11.7752 102.59 2.10717 74.2794C1.38143 74.7262 0.655694 75.173 -0.0558772 75.6307C9.66808 104.088 19.3966 132.565 29.1206 161.022C24.8567 164.913 20.5928 168.804 16.3193 172.705C3.60124 145.516 -9.11219 118.348 -21.8302 91.1592C-22.4805 91.681 -23.1262 92.2237 -23.7623 92.7564C-11.0255 119.977 1.71128 147.197 14.4339 174.407C9.89712 178.555 5.34618 182.693 0.809413 186.841C-14.4729 161.267 -28.2313 135.287 -40.4243 109.036C-41.0187 109.704 -41.5989 110.383 -42.1695 111.052C-29.9708 137.17 -16.2111 162.995 -0.956401 188.445C-8.3262 195.177 -15.7006 201.889 -23.0704 208.621C-36.805 185.735 -49.3921 162.552 -60.8132 139.156C-61.2766 140.097 -61.7067 141.029 -62.1368 141.962C-50.9063 164.815 -38.5433 187.463 -25.0897 209.823C-25.0005 209.961 -24.9063 210.067 -24.7979 210.185C-27.8942 213.017 -31.0047 215.838 -34.1009 218.669C-45.9148 200.64 -57.7049 182.612 -69.5188 164.584C-69.7458 165.689 -69.9537 166.774 -70.1332 167.881C-58.7047 185.338 -47.2761 202.795 -35.8334 220.264C-38.901 223.066 -41.9685 225.867 -45.0503 228.658C-43.4123 230.102 -41.7169 231.486 -39.9639 232.811C-39.1121 232.029 -38.2698 231.256 -37.4037 230.485C-18.4457 237.72 0.498259 244.945 19.4563 252.18C21.0965 252.088 22.7371 251.944 24.3544 251.747C4.36805 244.122 -15.6324 236.486 -35.6188 228.861C-32.872 226.367 -30.1297 223.852 -27.3829 221.357C-3.6851 230.216 20.0127 239.075 43.7152 247.955C44.8819 247.638 46.0581 247.311 47.2298 246.964C22.9539 237.887 -1.32203 228.811 -25.5884 219.724C-21.334 215.843 -17.0797 211.962 -12.8254 208.082C13.954 218.521 40.743 228.951 67.5224 239.391C68.4095 238.981 69.3061 238.562 70.2123 238.132C43.1249 227.577 16.0375 217.023 -11.05 206.468C-7.34591 203.082 -3.61809 199.697 0.085967 196.311C0.181771 196.211 0.291752 196.123 0.401729 196.034C29.2233 206.015 57.765 217.182 85.9129 229.498C86.6482 229.042 87.3694 228.574 88.1047 228.117C59.8434 215.714 31.1742 204.45 2.22961 194.392C2.69865 193.956 3.19145 193.521 3.6605 193.085C3.79882 193.018 3.89463 192.918 3.95251 192.807C7.05839 189.965 10.1784 187.135 13.2843 184.293C44.5333 193.16 75.6019 203.236 106.405 214.509C107.027 213.966 107.649 213.422 108.271 212.878C77.4731 201.523 46.4094 191.416 15.1751 182.509Z" fill="#97C9CE"/>
<path d="M64.8625 166.537C71.6717 180.975 67.2471 202.456 65.3127 210.148C72.8536 202.512 80.7183 195.411 88.8676 188.858C77.2455 138.148 93.2811 85.846 93.2811 85.846C93.2811 85.846 92.1272 97.9008 96.7025 130.244C100.742 158.786 93.6106 180.044 90.5245 187.505C98.2286 181.406 106.185 175.801 114.374 170.69C117.335 168.836 120.343 167.07 123.364 165.357C128.08 150.211 115.676 128.103 114.232 105.258C113.152 88.0439 136.419 67.1529 136.419 67.1529C136.419 67.1529 117.774 87.7146 127.849 112.727C135.905 132.7 127.336 156.479 123.564 165.255C133.19 159.822 143.124 155.074 153.329 151.009C152.953 146.223 151.842 130.224 152.558 114.157C153.399 95.2398 163.94 53.1448 163.94 53.1448C163.94 53.1448 168.021 69.7604 168.291 93.6933C168.527 113.021 157.141 143.133 154.159 150.688C162.637 147.36 171.295 144.504 180.129 142.136C180.346 137.297 181.169 120.934 182.988 103.925C185.183 83.6478 206.678 34.2834 206.678 34.2834C206.678 34.2834 205.102 49.3154 202.09 81.5061C199.508 109.18 185.141 135.121 181.143 141.864C189.116 139.764 197.217 138.063 205.45 136.746C210.516 132.866 226.377 123.615 263.883 121.954C307.98 119.992 322.329 122.411 322.329 122.411C322.329 122.411 248.401 150.053 206.622 139.347C199.164 140.508 191.938 141.993 184.967 143.754C193.177 147.054 222.468 159.522 248.468 179.063C279.06 202.046 287.253 209.897 287.253 209.897C287.253 209.897 228.249 182.421 209.456 167.079C194.65 154.976 186.555 146.914 183.801 144.03C174.276 146.476 165.21 149.434 156.575 152.799C164.535 156.13 194.574 169.624 209.026 189.719C225.782 213.015 249.217 221.616 249.217 221.616C249.217 221.616 224.732 218.394 197.349 191.158C174.623 168.571 160.191 156.516 155.924 153.05C144.618 157.499 134.076 162.619 124.281 168.224C131.493 170.529 153.449 178.584 170.15 196.004C190.411 217.136 221.945 235.408 221.945 235.408C221.945 235.408 176.702 221.166 149.174 197.709C129.312 180.789 123.906 172.576 122.424 169.306C111.326 175.769 101.211 182.82 92.0379 190.101C98.4902 191.327 119.561 196.399 143.064 213.5C171.328 234.057 193.149 250.004 193.149 250.004C193.149 250.004 111.477 217.883 90.9219 190.99C81.845 198.262 73.7112 205.764 66.4819 213.138C72.2123 213.645 89.665 216.303 106.45 230.532C126.913 247.873 138.508 251.808 154.605 255.285C154.605 255.285 120.207 253.124 104.454 241.569C86.0212 228.051 76.6195 216.31 66.225 213.422C61.4117 218.338 57.0019 223.203 52.9872 227.914C20.7721 265.632 6.53752 301.28 6.38822 301.623C6.10495 302.344 5.23257 302.712 4.4245 302.459C4.31344 302.433 4.22465 302.375 4.13413 302.334C3.54328 301.997 3.25212 301.33 3.48737 300.707C3.6196 300.345 18.0035 264.354 50.4619 226.302C54.8654 221.131 59.4189 216.16 64.085 211.384C62.4018 205.119 56.1455 182.232 50.9301 167.418C44.8522 150.13 65.3245 110.276 65.3245 110.276C65.3245 110.276 56.4559 148.668 64.8625 166.537Z" fill="#FCF4DF"/>
<path d="M507.501 35.6511C507.501 35.6511 571.305 163.066 652.176 213.557C679.614 230.693 703.854 238.07 723.909 240.322C765.722 245.03 795.599 206.873 778.543 170.564C770.364 153.152 755.77 133.469 730.337 113.766C655.384 55.7107 507.501 35.6511 507.501 35.6511Z" fill="#1A4143"/>
<path d="M715.64 177.134C710.24 173.393 704.851 169.65 699.451 165.909C702.567 143.637 705.696 121.363 708.809 99.0799C708.142 98.6816 707.476 98.2832 706.802 97.8986C703.692 120.11 700.582 142.321 697.471 164.532C692.375 160.997 687.262 157.454 682.166 153.919C684.78 132.553 688.418 111.352 693.076 90.3883C692.419 90.0592 691.77 89.7164 691.112 89.3873C686.455 110.232 682.812 131.292 680.171 152.533C675.267 149.133 670.364 145.734 665.46 142.334C668.888 122.247 672.32 102.172 675.748 82.0855C675.074 81.7838 674.399 81.4821 673.714 81.1831C670.312 101.11 666.902 121.05 663.5 140.976C658.357 137.416 653.223 133.842 648.08 130.281C649.527 111.215 651.813 92.2472 654.954 73.4343C654.267 73.1712 653.591 72.9054 652.907 72.6534C649.79 91.2592 647.501 110.014 646.04 128.87C640.749 125.2 635.459 121.53 630.157 117.863C631.71 100.766 634.054 83.7785 637.195 66.959C636.515 66.7181 635.826 66.4909 635.145 66.2499C632.037 82.8487 629.695 99.5982 628.132 116.46C623.824 113.474 619.512 110.477 615.204 107.492C615.931 91.9657 617.416 76.5213 619.66 61.2055C618.963 60.992 618.277 60.7759 617.58 60.5624C615.358 75.6241 613.877 90.7949 613.13 106.052C607.873 102.41 602.617 98.7684 597.361 95.1264C596.619 81.7409 597.423 68.4167 599.745 55.3496C599.055 55.1583 598.365 54.9671 597.662 54.7784C595.384 67.5391 594.554 80.5368 595.161 93.6081C593.375 92.366 591.577 91.1265 589.791 89.8845C589.625 89.5533 589.304 89.2921 588.858 89.2366C587.557 88.3381 586.268 87.4369 584.967 86.5383C583.519 74.8635 584.332 63.1982 587.368 52.0259C586.67 51.8483 585.983 51.6681 585.284 51.4905C582.359 62.3298 581.464 73.6097 582.65 84.9272C578.71 82.1923 574.773 79.4685 570.833 76.7335C570.464 67.1572 570.858 57.6375 572.012 48.2106C571.305 48.0467 570.609 47.8803 569.902 47.7164C568.785 56.8148 568.378 66.0053 568.664 75.2322C565 72.6971 561.345 70.1483 557.682 67.6132C558.516 61.3063 559.341 55.0132 560.175 48.7063C560.308 47.6685 560.461 46.6143 560.593 45.5764C559.89 45.4237 559.198 45.2683 558.506 45.1129C558.305 46.6642 558.074 48.1984 557.867 49.7275C557.136 55.2283 556.417 60.7266 555.687 66.2274C552.585 64.0783 549.498 61.9376 546.395 59.7885C546.084 54.0199 546.025 48.2546 546.251 42.5095C545.536 42.3594 544.824 42.2204 544.123 42.0787C543.909 47.4535 543.928 52.8478 544.189 58.2479C540.571 55.7383 536.956 53.2398 533.35 50.7275C533.288 47.1463 533.396 43.5867 533.698 40.0434C532.974 39.9069 532.266 39.779 531.569 39.6484C531.305 42.8273 531.176 46.0356 531.2 49.2458C529.015 47.7359 526.842 46.2235 524.658 44.7137C524.609 42.6008 524.548 40.4905 524.502 38.3887C523.766 38.2548 523.061 38.138 522.368 38.0186C522.413 39.7527 522.458 41.4867 522.5 43.2097C519.239 40.9535 515.989 38.6946 512.724 36.4273C509.344 35.9058 507.501 35.661 507.501 35.661C507.501 35.661 508.272 37.2109 509.763 40.0251C513.396 42.5432 517.029 45.0614 520.662 47.5795C518.435 47.5621 516.233 47.7054 514.057 47.9734C514.398 48.586 514.743 49.2097 515.095 49.8557C517.904 49.5542 520.771 49.4775 523.681 49.664C526.218 51.4161 528.747 53.1819 531.285 54.934C526.944 54.8979 522.675 55.2138 518.478 55.8818C518.819 56.4944 519.172 57.1044 519.532 57.7367C523.968 57.0634 528.516 56.7925 533.105 56.9396C533.413 56.9546 533.647 56.8553 533.829 56.7083C538.493 59.9474 543.154 63.1754 547.819 66.4144C540.432 66.8509 533.085 67.5395 525.783 68.4554C526.152 69.0738 526.524 69.7034 526.907 70.3304C534.71 69.3629 542.572 68.6671 550.47 68.2482C554.664 71.1522 558.862 74.0674 563.057 76.9715C552.926 77.7185 542.821 78.7091 532.772 79.9245C533.156 80.5514 533.548 81.1647 533.947 81.8002C544.473 80.5384 555.052 79.5262 565.674 78.7771C570.816 82.3375 575.962 85.909 581.105 89.4694C567.627 90.0437 554.21 91.1026 540.876 92.6298C541.284 93.2516 541.691 93.8733 542.102 94.5062C555.929 92.941 569.852 91.8885 583.832 91.3455C587.223 93.6919 590.617 96.0494 594.007 98.3958C579.542 101.324 565.078 104.252 550.613 107.181C551.025 107.778 551.437 108.375 551.853 108.983C566.664 105.99 581.471 102.985 596.294 99.9898C602.87 104.55 609.446 109.11 616.022 113.67C596.897 114.557 577.897 116.413 559.107 119.23C559.549 119.844 559.989 120.447 560.431 121.061C579.679 118.213 599.136 116.363 618.722 115.541C624.748 119.712 630.763 123.887 636.792 128.069C616.014 131.885 595.224 135.703 574.446 139.518C574.92 140.113 575.383 140.71 575.855 141.294C596.944 137.422 618.032 133.55 639.118 129.667C641.416 131.258 643.714 132.849 646.001 134.444C648.796 136.376 651.583 138.322 654.378 140.254C631.741 144.873 609.092 149.493 586.455 154.112C586.95 154.69 587.448 155.28 587.955 155.856C610.852 151.18 633.764 146.513 656.661 141.837C660.969 144.823 665.277 147.809 669.585 150.794C647.037 157.612 624.488 164.429 601.943 171.258C602.467 171.806 602.99 172.355 603.525 172.901C626.13 166.059 648.737 159.229 671.341 152.387C671.468 152.347 671.564 152.291 671.66 152.234C677.818 156.507 683.974 160.768 690.132 165.041C665.468 171.793 640.801 178.533 616.137 185.285C616.719 185.821 617.305 186.367 617.888 186.903C642.693 180.12 667.499 173.337 692.302 166.542C696.917 169.745 701.528 172.936 706.144 176.139C683.212 185.141 660.273 194.157 637.341 203.159C637.984 203.646 638.624 204.121 639.275 204.594C662.239 195.573 685.217 186.56 708.181 177.539C713.088 180.95 718.003 184.347 722.91 187.758C702.049 198.675 680.485 208.466 658.322 217.096C659.092 217.543 659.846 217.981 660.609 218.406C682.643 209.768 704.082 199.981 724.818 189.068C732.79 194.589 740.753 200.123 748.725 205.644C730.074 215.467 710.89 224.423 691.249 232.519C692.241 232.869 693.214 233.199 694.2 233.527C713.374 225.558 732.1 216.75 750.31 207.132C750.417 207.073 750.51 207.005 750.584 206.917C753.94 209.236 757.289 211.568 760.645 213.886C746.166 222.346 731.684 230.796 717.217 239.254C718.309 239.439 719.395 239.602 720.465 239.757C734.484 231.564 748.503 223.372 762.526 215.19C765.84 217.494 769.167 219.795 772.477 222.088C773.474 220.906 774.415 219.666 775.298 218.403C774.38 217.763 773.463 217.124 772.545 216.485C775.248 202.61 777.951 188.735 780.658 174.871C780.22 173.662 779.72 172.456 779.181 171.247C776.322 185.88 773.474 200.511 770.618 215.155C767.657 213.093 764.687 211.046 761.725 208.984C764.943 191.637 768.145 174.282 771.362 156.936C770.816 156.072 770.244 155.202 769.659 154.334C766.37 172.1 763.084 189.877 759.783 207.646C755.183 204.452 750.587 201.269 745.987 198.075C750.019 178.472 754.04 158.871 758.072 139.268C757.487 138.602 756.902 137.937 756.29 137.265C752.213 157.092 748.149 176.916 744.069 196.732C740.052 193.954 736.044 191.163 732.028 188.386C731.914 188.304 731.804 188.234 731.69 188.152C734.837 167.036 739.179 146.154 744.688 125.571C744.102 125.025 743.504 124.481 742.894 123.939C737.324 144.607 732.935 165.582 729.726 186.783C729.21 186.423 728.695 186.062 728.183 185.713C728.089 185.615 727.976 185.533 727.86 185.488C724.5 183.158 721.14 180.829 717.777 178.488C719.344 155.574 722.106 132.811 726.03 110.254C725.382 109.792 724.742 109.317 724.083 108.858C720.039 131.477 717.262 154.232 715.64 177.134Z" fill="#2F8C91"/>
</g>
<defs>
<clipPath id="clip0">
<rect width="708" height="125" fill="white" transform="translate(708 125) rotate(-180)"/>
</clipPath>
</defs>
</svg>
