<svg width="125" height="708" viewBox="0 0 125 708" fill="none" xmlns="http://www.w3.org/2000/svg">
<g clip-path="url(#clip0)">
<path d="M59.9006 354.631C59.9006 354.631 51.999 578.359 114.348 708.97C135.498 753.29 159.243 781.75 181.4 799.99C227.585 838.035 287.654 808.007 291.232 745.103C292.949 714.936 288.588 676.8 271.472 630.454C221.026 493.887 59.9006 354.631 59.9006 354.631Z" fill="#2F8C91"/>
<path d="M212.699 706.403C208.784 697.18 204.885 687.962 200.97 678.738C219.151 650.411 237.348 622.089 255.532 593.743C255.008 592.692 254.484 591.641 253.941 590.603C235.807 618.852 217.673 647.1 199.539 675.349C195.848 666.638 192.143 657.903 188.452 649.192C205.452 621.734 223.549 595.275 242.69 569.911C242.132 568.962 241.592 568.001 241.033 567.052C221.97 592.253 203.958 618.513 187.008 645.779C183.456 637.4 179.904 629.021 176.351 620.641C193.475 595.559 210.595 570.494 227.718 545.412C227.122 544.488 226.525 543.564 225.913 542.635C208.925 567.517 191.918 592.411 174.93 617.293C171.201 608.512 167.491 599.719 163.762 590.938C177.89 565.767 192.94 541.364 208.896 517.82C208.259 516.939 207.638 516.064 206.997 515.201C191.205 538.479 176.29 562.586 162.281 587.456C158.45 578.413 154.619 569.37 150.772 560.321C163.741 537.943 177.57 516.312 192.226 495.513C191.583 494.668 190.921 493.836 190.277 492.991C175.803 513.51 162.132 534.815 149.304 556.862C146.182 549.502 143.064 542.124 139.942 534.764C150.916 513.927 162.728 493.773 175.349 474.369C174.668 473.549 174.003 472.735 173.322 471.915C160.892 490.986 149.263 510.765 138.44 531.217C134.63 522.238 130.821 513.259 127.011 504.28C134.862 485.284 144.492 467.538 155.74 451.29C155.053 450.506 154.365 449.722 153.662 448.933C142.665 464.792 133.218 482.069 125.413 500.531C124.122 497.473 122.815 494.411 121.523 491.353C121.544 490.772 121.337 490.171 120.848 489.758C119.903 487.539 118.974 485.326 118.03 483.108C123.934 465.935 132.494 450.481 143.347 437.381C142.641 436.61 141.95 435.844 141.244 435.073C130.739 447.797 122.335 462.659 116.354 479.142C113.502 472.405 110.646 465.685 107.794 458.948C113.601 445.48 120.268 432.664 127.769 420.549C127.044 419.791 126.335 419.037 125.61 418.278C118.366 429.968 111.898 442.32 106.22 455.245C103.563 448.991 100.925 442.725 98.2672 436.471C103.359 428.413 108.431 420.367 113.523 412.309C114.355 410.979 115.222 409.643 116.054 408.313C115.326 407.572 114.613 406.837 113.901 406.101C112.654 408.086 111.382 410.025 110.141 411.975C105.697 419.001 101.268 426.032 96.8239 433.059C94.5754 427.76 92.3393 422.484 90.0908 417.185C93.4837 409.005 97.1725 401.02 101.182 393.277C100.438 392.53 99.6915 391.802 98.9601 391.079C95.2052 398.321 91.7119 405.765 88.499 413.4C85.8789 407.216 83.2556 401.049 80.651 394.87C82.9112 389.891 85.3583 385.069 88.0233 380.416C87.2608 379.683 86.5106 378.972 85.7761 378.267C83.3938 382.447 81.1515 386.769 79.0869 391.208C77.5011 387.482 75.931 383.761 74.3452 380.034C75.6643 377.087 76.9679 374.134 78.2838 371.204C77.5056 370.465 76.7523 369.773 76.0146 369.086C74.9378 371.508 73.861 373.931 72.7874 376.336C70.4212 370.769 68.0706 365.208 65.7075 359.624C62.0713 356.357 60.063 354.631 60.063 354.631C60.063 354.631 59.9596 357.347 59.8793 362.347C62.5119 368.554 65.1444 374.762 67.777 380.969C65.1689 379.266 62.4851 377.803 59.7506 376.532C59.7529 377.633 59.7521 378.752 59.7448 379.907C63.2461 381.61 66.668 383.665 69.9698 386.116C71.8126 390.442 73.6367 394.781 75.4796 399.107C70.3975 395.785 65.1699 393.002 59.7967 390.758C59.799 391.859 59.8169 392.965 59.8285 394.108C65.4853 396.524 71.0117 399.58 76.3143 403.242C76.6663 403.495 77.0066 403.535 77.316 403.469C80.6918 411.447 84.0708 419.407 87.4466 427.384C78.4727 422.417 69.3819 417.827 60.1962 413.584C60.2265 414.714 60.2537 415.861 60.2964 417.014C70.1056 421.564 79.8072 426.532 89.3699 431.909C92.4113 439.071 95.4495 446.251 98.4909 453.413C86.0874 446.805 73.5546 440.551 60.9424 434.65C60.9851 435.803 61.0467 436.943 61.1018 438.119C74.3063 444.317 87.4095 450.897 100.393 457.873C104.122 466.654 107.847 475.453 111.576 484.234C95.3474 474.864 78.8755 466.208 62.1949 458.259C62.2688 459.423 62.3427 460.586 62.4135 461.768C79.6988 470.036 96.7628 479.082 113.562 488.874C116.021 494.662 118.477 500.467 120.936 506.255C102.012 499.384 83.0884 492.513 64.1647 485.642C64.2606 486.775 64.3565 487.908 64.4492 489.058C83.8221 496.101 103.198 503.126 122.587 510.175C127.35 521.413 132.113 532.652 136.877 543.89C113.803 530.694 90.2431 518.926 66.3032 508.642C66.4239 509.821 66.5478 510.983 66.6685 512.162C91.1664 522.75 115.259 534.87 138.834 548.502C143.204 558.791 147.559 569.075 151.925 579.381C124.997 568.972 98.0532 558.558 71.1249 548.149C71.2956 549.327 71.4507 550.499 71.6246 551.658C98.9552 562.223 126.286 572.788 153.62 583.335C155.286 587.259 156.952 591.184 158.603 595.103C160.632 599.872 162.641 604.653 164.67 609.422C135.032 598.718 105.378 588.008 75.74 577.304C75.945 578.474 76.1469 579.662 76.3676 580.837C106.349 591.658 136.343 602.502 166.324 613.323C169.446 620.684 172.568 628.044 175.69 635.404C144.722 627.796 113.755 620.187 82.7848 612.596C83.0431 613.747 83.3013 614.897 83.5751 616.052C114.624 623.67 145.669 631.305 176.717 638.922C176.892 638.962 177.042 638.956 177.192 638.951C181.651 649.479 186.114 659.989 190.574 670.517C157.161 661.223 123.752 651.911 90.3388 642.617C90.675 643.794 91.0081 644.989 91.3443 646.166C124.944 655.523 158.544 664.881 192.148 674.22C195.489 682.111 198.834 689.983 202.176 697.874C169.335 692.986 136.474 688.11 103.633 683.223C104.072 684.378 104.515 685.515 104.973 686.657C137.864 691.543 170.768 696.452 203.66 701.338C207.209 709.735 210.777 718.12 214.326 726.517C182.672 725.827 150.925 723.057 119.23 718.236C119.844 719.432 120.446 720.604 121.066 721.763C152.615 726.477 184.212 729.159 215.717 729.76C221.496 743.374 227.256 757 233.036 770.614C204.695 770.083 176.291 767.957 147.911 764.301C148.85 765.531 149.78 766.72 150.725 767.914C178.474 771.393 206.241 773.379 233.93 773.859C234.095 773.858 234.248 773.834 234.392 773.769C236.83 779.493 239.249 785.229 241.686 790.953C219.14 791.691 196.598 792.411 174.068 793.154C175.232 794.233 176.403 795.276 177.561 796.296C199.391 795.58 221.222 794.865 243.049 794.167C245.446 799.839 247.859 805.516 250.259 811.17C252.202 810.294 254.116 809.295 255.979 808.22C255.316 806.648 254.653 805.076 253.99 803.503C266.213 786.43 278.435 769.357 290.655 752.301C290.927 750.307 291.125 748.268 291.279 746.196C278.379 764.196 265.494 782.201 252.59 800.219C250.45 795.147 248.292 790.088 246.152 785.015C261.241 763.548 276.319 742.057 291.408 720.59C291.33 718.988 291.223 717.359 291.101 715.723C275.653 737.714 260.202 759.723 244.739 781.708C241.41 773.841 238.077 765.992 234.748 758.125C252.267 734.163 269.771 710.197 287.29 686.235C287.035 684.877 286.781 683.52 286.498 682.134C268.782 706.369 251.08 730.61 233.367 754.828C230.452 747.975 227.557 741.109 224.642 734.256C224.562 734.057 224.478 733.877 224.398 733.679C241.861 706.967 260.578 681.478 280.472 657.28C280.139 656.086 279.79 654.886 279.426 653.68C259.404 677.948 240.571 703.53 222.979 730.313C222.608 729.428 222.236 728.543 221.861 727.675C221.815 727.47 221.735 727.272 221.629 727.122C219.195 721.38 216.76 715.639 214.329 709.88C231.106 679.5 249.19 650.229 268.508 622.117C268.046 620.993 267.604 619.855 267.127 618.726C247.629 646.833 229.532 676.081 212.699 706.403Z" fill="#286F7F"/>
<path d="M125.178 380.281C125.178 380.281 216.163 264.807 239.389 158.843C247.269 122.878 247.792 93.9395 245.03 71.4047C239.279 24.3956 200.723 5.92043 174.541 37.6004C161.98 52.7974 149.016 75.7603 138.537 110.49C107.673 212.778 125.178 380.281 125.178 380.281Z" fill="#BAE3DD"/>
<path d="M194.578 103.505C192.713 110.713 190.861 117.909 188.996 125.116C169.794 129.842 150.581 134.564 131.379 139.291C131.2 140.153 131.032 141.02 130.863 141.887C150.017 137.175 169.172 132.463 188.316 127.747C186.561 134.555 184.792 141.375 183.037 148.183C164.698 153.118 146.269 156.904 127.796 159.477C127.668 160.311 127.54 161.145 127.415 161.963C145.782 159.414 164.117 155.705 182.351 150.844C180.666 157.385 178.967 163.938 177.282 170.479C159.826 174.074 142.359 177.666 124.903 181.262C124.805 182.107 124.711 182.938 124.624 183.788C141.951 180.223 159.278 176.659 176.606 173.095C174.827 179.959 173.062 186.813 171.283 193.678C155.122 199.043 138.858 203.468 122.518 206.93C122.457 207.757 122.394 208.6 122.333 209.428C138.494 206.026 154.585 201.681 170.57 196.41C168.748 203.47 166.923 210.546 165.091 217.603C150.542 222.145 135.903 225.785 121.212 228.503C121.176 229.324 121.136 230.16 121.099 230.98C135.59 228.314 150.035 224.746 164.385 220.305C162.896 226.055 161.417 231.81 159.928 237.561C146.871 242.428 133.717 246.423 120.485 249.568C120.468 250.396 120.452 251.225 120.425 252.05C133.431 248.979 146.378 245.067 159.209 240.323C157.397 247.339 155.585 254.354 153.773 261.369C142.834 267.037 131.591 271.014 120.208 273.266C120.205 274.083 120.212 274.905 120.21 275.722C131.332 273.548 142.301 269.709 153.017 264.297C152.401 266.691 151.788 269.07 151.162 271.459C150.929 271.761 150.775 272.208 150.842 272.709C150.396 274.433 149.946 276.172 149.5 277.895C140.136 283.708 130.272 287.065 120.3 287.841C120.307 288.663 120.328 289.473 120.336 290.295C130.009 289.516 139.579 286.387 148.697 280.985C147.338 286.247 145.982 291.493 144.623 296.755C136.761 300.637 128.765 303.664 120.677 305.853C120.705 306.682 120.726 307.493 120.744 308.319C128.557 306.218 136.268 303.325 143.874 299.653C142.608 304.541 141.343 309.43 140.09 314.308C134.673 315.697 129.242 317.098 123.825 318.487C122.93 318.724 122.028 318.942 121.133 319.18C121.165 319.994 121.196 320.809 121.23 321.608C122.559 321.263 123.892 320.952 125.207 320.619C129.943 319.403 134.668 318.184 139.404 316.969C138.338 321.101 137.273 325.234 136.207 329.366C131.487 331.816 126.715 333.95 121.904 335.807C121.942 336.641 121.994 337.463 122.039 338.267C126.555 336.54 131.015 334.561 135.447 332.31C134.195 337.138 132.956 341.956 131.704 346.784C128.751 348.161 125.766 349.328 122.757 350.305C122.808 351.128 122.86 351.95 122.918 352.743C125.626 351.876 128.306 350.834 130.961 349.652C130.208 352.565 129.455 355.478 128.703 358.391C126.969 359.216 125.225 360.036 123.488 360.875C123.546 361.717 123.611 362.528 123.669 363.321C125.095 362.637 126.528 361.973 127.953 361.289C126.827 365.644 125.705 369.983 124.579 374.338C124.948 378.199 125.175 380.286 125.175 380.286C125.175 380.286 126.282 378.888 128.271 376.248C129.527 371.405 130.773 366.557 132.032 361.698C132.529 364.121 133.158 366.448 133.882 368.697C134.31 368.113 134.752 367.517 135.204 366.876C134.297 363.948 133.579 360.866 133.067 357.652C133.947 354.265 134.813 350.889 135.692 347.502C136.662 352.206 137.917 356.727 139.435 361.008C139.856 360.405 140.288 359.805 140.733 359.194C139.152 354.643 137.876 349.818 136.945 344.786C136.885 344.451 136.749 344.217 136.592 344.074C138.197 337.845 139.813 331.62 141.418 325.391C143.483 333.227 145.744 340.928 148.198 348.508C148.623 347.89 149.061 347.26 149.492 346.611C146.886 338.512 144.5 330.271 142.33 321.853C143.776 316.249 145.221 310.645 146.674 305.06C149.639 315.756 152.787 326.327 156.107 336.769C156.538 336.12 156.956 335.482 157.39 334.818C153.912 323.888 150.632 312.806 147.563 301.579C149.342 294.714 151.11 287.845 152.885 280.995C156.469 295.373 160.449 309.513 164.795 323.404C165.219 322.736 165.644 322.068 166.068 321.4C161.581 306.995 157.497 292.322 153.828 277.371C155.004 272.84 156.166 268.32 157.339 263.804C163.103 278.4 168.871 292.982 174.635 307.578C175.036 306.917 175.436 306.256 175.84 305.58C169.932 290.632 164.033 275.688 158.121 260.755C160.386 251.986 162.655 243.201 164.919 234.432C170.054 254.806 175.983 274.691 182.657 294.017C183.064 293.325 183.464 292.615 183.875 291.909C177.074 272.107 171.053 251.728 165.849 230.819C167.93 222.78 170.002 214.737 172.08 206.713C180.036 227.82 187.991 248.927 195.956 270.039C196.339 269.305 196.719 268.587 197.103 267.854C189.027 246.437 180.942 225.017 172.866 203.6C173.662 200.541 174.448 197.477 175.244 194.417C176.21 190.688 177.176 186.958 178.129 183.239C187.189 206.074 196.242 228.891 205.302 251.726C205.668 250.969 206.031 250.228 206.397 249.472C197.238 226.384 188.078 203.297 178.911 180.191C180.4 174.44 181.879 168.685 183.368 162.934C194.226 184.856 205.091 206.797 215.948 228.718C216.284 227.95 216.62 227.181 216.945 226.409C206.056 204.426 195.168 182.443 184.279 160.46C184.217 160.338 184.149 160.245 184.074 160.183C186.195 151.963 188.317 143.744 190.449 135.528C201.736 159.779 213.026 184.016 224.313 208.267C224.628 207.442 224.943 206.616 225.248 205.786C213.899 181.412 202.544 157.019 191.195 132.645C192.784 126.491 194.373 120.338 195.965 114.169C208.732 135.729 221.492 157.269 234.259 178.828C234.516 177.963 234.766 177.079 235.013 176.21C222.229 154.628 209.445 133.046 196.671 111.467C198.359 104.911 200.058 98.3586 201.747 91.8023C215.619 110.407 228.721 130.199 240.999 151.058C241.194 150.07 241.379 149.079 241.561 148.103C229.308 127.384 216.238 107.752 202.406 89.2619C205.151 78.6183 207.902 67.9938 210.646 57.3502C223.094 73.97 234.958 91.4738 246.213 109.785C246.278 108.583 246.327 107.407 246.375 106.231C235.34 88.3821 223.712 71.3151 211.531 55.095C211.453 54.9986 211.378 54.9364 211.293 54.8701C212.445 50.3951 213.608 45.9241 214.76 41.4491C225.124 54.0401 235.474 66.6421 245.838 79.233C245.737 77.9816 245.629 76.7603 245.501 75.531C235.471 63.3336 225.442 51.1362 215.403 38.9348C216.545 34.505 217.687 30.0752 218.84 25.6494C217.622 24.99 216.383 24.421 215.125 23.9424C214.809 25.177 214.496 26.3964 214.169 27.6269C202.028 29.7439 189.897 31.865 177.756 33.982C176.854 34.9044 175.963 35.88 175.095 36.8978C187.894 34.663 200.704 32.4322 213.503 30.1974C212.477 34.1491 211.458 38.1198 210.432 42.0715C195.294 44.9089 180.156 47.7462 165.01 50.5645C164.421 51.4787 163.828 52.408 163.242 53.3564C178.75 50.4516 194.258 47.5468 209.762 44.6571C208.177 50.7955 206.592 56.934 205.006 63.0724C187.811 65.8373 170.612 68.6172 153.416 71.382C153.003 72.251 152.587 73.135 152.167 74.0341C169.559 71.232 186.951 68.43 204.343 65.6279C202.964 70.9798 201.572 76.3428 200.193 81.6947C200.16 81.8454 200.117 81.9921 200.073 82.1387C181.826 86.4055 163.491 89.3114 145.139 90.8353C144.82 91.6761 144.512 92.5209 144.194 93.3617C162.628 91.87 181.055 89.0002 199.387 84.7504C199.214 85.4355 199.027 86.1316 198.854 86.8166C198.79 86.9553 198.757 87.106 198.748 87.2496C197.592 91.7397 196.426 96.2257 195.27 100.716C175.891 107.353 156.363 112.655 136.736 116.592C136.499 117.465 136.262 118.338 136.026 119.211C155.666 115.361 175.198 110.094 194.578 103.505Z" fill="#97C9CE"/>
<path d="M155.795 280.646C155.574 280.682 155.354 280.745 155.144 280.794C155.111 280.809 155.077 280.797 155.045 280.812C154.835 280.861 154.625 280.91 154.427 280.972C154.405 280.973 154.372 280.988 154.35 280.989C154.129 281.052 153.919 281.101 153.71 281.178C153.666 281.179 153.622 281.208 153.578 281.21C153.369 281.286 153.159 281.335 152.95 281.411C152.917 281.426 152.873 281.428 152.84 281.443C152.631 281.519 152.422 281.595 152.213 281.671L152.202 281.685C151.994 281.761 151.774 281.851 151.576 281.941C151.543 281.955 151.51 281.97 151.478 281.985C151.28 282.074 151.083 282.163 150.885 282.253C150.852 282.267 150.819 282.282 150.776 282.311C150.578 282.4 150.37 282.503 150.172 282.592C150.162 282.606 150.15 282.593 150.14 282.607C149.942 282.696 149.756 282.799 149.57 282.901C149.537 282.916 149.526 282.93 149.493 282.944C149.307 283.047 149.121 283.149 148.925 283.265C148.892 283.28 148.859 283.295 148.826 283.309C148.64 283.412 148.443 283.528 148.269 283.643C148.258 283.657 148.236 283.658 148.214 283.686C148.028 283.788 147.843 283.917 147.668 284.032C147.658 284.046 147.646 284.033 147.636 284.047C147.461 284.162 147.276 284.291 147.101 284.406C147.068 284.421 147.047 284.449 147.025 284.45C146.85 284.565 146.687 284.694 146.512 284.809C146.502 284.823 146.469 284.837 146.458 284.851C146.11 285.109 145.773 285.379 145.436 285.65C145.425 285.663 145.392 285.678 145.382 285.692C145.219 285.82 145.067 285.962 144.915 286.103C144.905 286.117 144.883 286.145 144.861 286.146C144.536 286.429 144.244 286.725 143.952 287.02C143.942 287.034 143.942 287.034 143.931 287.048C143.791 287.202 143.65 287.33 143.51 287.484C143.499 287.498 143.488 287.512 143.478 287.526C143.337 287.68 143.208 287.82 143.068 287.974C142.81 288.282 142.552 288.59 142.316 288.896C142.305 288.91 142.295 288.924 142.295 288.924C142.177 289.078 142.07 289.244 141.963 289.383L141.952 289.397C141.728 289.717 141.536 290.022 141.346 290.354L141.335 290.368C141.239 290.52 141.155 290.686 141.081 290.837L141.071 290.851C140.829 291.333 140.62 291.801 140.456 292.294L140.445 292.308C140.292 292.786 140.171 293.25 140.095 293.712L140.085 293.726C140.055 293.876 140.048 294.025 140.031 294.187C140.006 294.499 140.003 294.783 140.023 295.092C140.038 295.24 140.042 295.375 140.079 295.522C140.079 295.522 140.079 295.522 140.091 295.535C140.389 297.466 141.734 299.071 144.393 300.001C156.556 304.277 169.684 293.382 174.295 289.007C173.508 291.874 172.766 294.739 172.047 297.631C171.558 299.608 171.091 301.584 170.624 303.561L169.979 306.328C168.296 313.659 166.679 321.015 164.917 328.309C164.837 328.245 164.758 328.181 164.689 328.103C164.472 327.909 164.267 327.728 164.051 327.535C163.925 327.419 163.801 327.329 163.675 327.213C163.482 327.046 163.289 326.905 163.095 326.738C162.959 326.635 162.823 326.533 162.687 326.43C162.494 326.29 162.312 326.135 162.13 326.008C161.994 325.906 161.858 325.803 161.711 325.715C161.53 325.587 161.337 325.447 161.145 325.333C161.009 325.231 160.873 325.155 160.726 325.067C160.534 324.954 160.353 324.826 160.161 324.712C160.026 324.637 159.879 324.549 159.754 324.459C159.562 324.346 159.37 324.232 159.167 324.133C159.032 324.057 158.896 323.982 158.772 323.919C158.569 323.82 158.367 323.72 158.152 323.608C158.028 323.545 157.905 323.483 157.781 323.42C157.544 323.309 157.319 323.21 157.083 323.098C156.982 323.062 156.891 323.012 156.801 322.961C156.475 322.826 156.149 322.691 155.812 322.57C155.79 322.571 155.767 322.545 155.745 322.546C155.442 322.437 155.139 322.328 154.836 322.219C154.735 322.183 154.623 322.16 154.522 322.124C154.298 322.052 154.074 321.981 153.861 321.922C153.738 321.887 153.615 321.851 153.492 321.816C153.29 321.77 153.088 321.697 152.887 321.652C152.764 321.616 152.63 321.595 152.496 321.573C152.295 321.528 152.105 321.495 151.904 321.449C151.77 321.428 151.636 321.406 151.513 321.371C151.323 321.338 151.133 321.306 150.943 321.273C150.809 321.252 150.675 321.23 150.541 321.209C150.352 321.176 150.151 321.157 149.973 321.138C149.839 321.116 149.716 321.108 149.583 321.086C149.382 321.068 149.193 321.062 148.992 321.043C148.87 321.035 148.748 321.026 148.625 321.018C148.425 320.999 148.213 320.994 148.002 320.99C147.891 320.994 147.791 320.985 147.668 320.976C147.435 320.972 147.191 320.982 146.957 320.979C146.891 320.981 146.813 320.971 146.736 320.988C146.425 321.001 146.114 321.013 145.803 321.026C145.759 321.028 145.726 321.043 145.692 321.031C145.426 321.042 145.16 321.08 144.894 321.091C144.795 321.108 144.695 321.126 144.595 321.117C144.384 321.139 144.196 321.16 143.997 321.195C143.875 321.214 143.776 321.231 143.654 321.25C143.466 321.271 143.289 321.306 143.112 321.34C142.991 321.358 142.869 321.377 142.759 321.408C142.582 321.443 142.405 321.477 142.25 321.51C142.129 321.529 142.008 321.574 141.886 321.593C141.721 321.64 141.555 321.661 141.389 321.708C141.268 321.726 141.147 321.772 141.025 321.79C140.86 321.838 140.694 321.885 140.54 321.918C140.43 321.95 140.297 321.982 140.187 322.014C140.022 322.061 139.868 322.122 139.702 322.169C139.592 322.201 139.471 322.246 139.361 322.278C139.196 322.325 139.031 322.399 138.866 322.447C138.767 322.491 138.657 322.523 138.558 322.567C138.371 322.642 138.195 322.704 138.008 322.779C137.92 322.81 137.855 322.839 137.767 322.87C137.514 322.975 137.261 323.08 137.01 323.212C136.933 323.255 136.845 323.286 136.768 323.329C136.604 323.404 136.429 323.492 136.264 323.566C136.154 323.625 136.056 323.669 135.946 323.728C135.804 323.801 135.672 323.861 135.541 323.947C135.432 324.006 135.322 324.064 135.213 324.123C135.093 324.195 134.973 324.268 134.841 324.327C134.731 324.385 134.623 324.471 134.513 324.529C134.393 324.602 134.284 324.66 134.175 324.746C134.065 324.804 133.957 324.89 133.847 324.948C133.749 325.02 133.629 325.092 133.531 325.164C133.422 325.249 133.313 325.308 133.204 325.393C133.106 325.465 133.008 325.536 132.899 325.622C132.791 325.707 132.693 325.779 132.584 325.864C132.486 325.936 132.4 326.02 132.302 326.092C132.193 326.178 132.095 326.249 131.998 326.348C131.911 326.432 131.824 326.49 131.748 326.56C131.639 326.646 131.542 326.744 131.444 326.816C131.368 326.886 131.303 326.943 131.227 327.014C130.848 327.367 130.481 327.733 130.147 328.111C130.093 328.181 130.039 328.224 129.985 328.293C129.888 328.392 129.802 328.503 129.717 328.615C129.663 328.685 129.61 328.754 129.544 328.811C129.459 328.923 129.384 329.02 129.298 329.132C129.244 329.201 129.191 329.271 129.137 329.341C129.062 329.438 128.976 329.55 128.913 329.66C128.859 329.73 128.816 329.786 128.774 329.869C128.711 329.979 128.635 330.077 128.572 330.187C128.529 330.243 128.487 330.326 128.455 330.395C128.392 330.505 128.328 330.616 128.265 330.727C128.233 330.795 128.19 330.851 128.159 330.92C128.096 331.03 128.043 331.154 127.98 331.265C127.948 331.334 127.928 331.388 127.896 331.457C127.844 331.581 127.781 331.691 127.729 331.815C127.708 331.87 127.698 331.911 127.677 331.966C127.625 332.089 127.573 332.213 127.532 332.35L127.522 332.363C127.346 332.843 127.237 333.32 127.173 333.795C127.174 333.822 127.164 333.863 127.154 333.904C127.135 334.04 127.128 334.162 127.12 334.283C127.121 334.337 127.111 334.378 127.102 334.446C127.095 334.568 127.098 334.676 127.09 334.797C127.091 334.851 127.093 334.905 127.084 334.973C127.087 335.081 127.09 335.189 127.104 335.31C127.106 335.364 127.119 335.431 127.12 335.485C127.123 335.592 127.148 335.699 127.163 335.82C127.176 335.887 127.177 335.941 127.201 335.994C127.226 336.101 127.252 336.208 127.277 336.315C127.29 336.382 127.313 336.435 127.326 336.475C127.351 336.582 127.398 336.688 127.423 336.795C127.447 336.848 127.471 336.901 127.483 336.941C127.531 337.047 127.567 337.167 127.615 337.273C127.627 337.313 127.661 337.352 127.673 337.392C128.215 338.477 129.121 339.478 130.476 340.286C141.496 346.972 159.037 334.585 164.344 330.479C163.095 335.484 161.757 340.466 160.25 345.388L160.189 345.579C160.138 345.73 160.097 345.867 160.057 346.03C160.057 346.03 160.057 346.03 160.047 346.044L159.148 348.862C157.131 355.006 154.797 360.947 152.147 366.685C151.559 366.331 150.779 365.864 149.821 365.35C149.719 365.287 149.618 365.25 149.516 365.187C149.099 364.975 148.648 364.724 148.175 364.5C148.051 364.438 147.938 364.388 147.814 364.326C147.544 364.202 147.263 364.065 146.981 363.929C146.778 363.829 146.576 363.729 146.362 363.644C146.204 363.569 146.047 363.495 145.867 363.421C145.327 363.173 144.754 362.941 144.158 362.709C143.866 362.586 143.563 362.477 143.26 362.368C139.476 360.945 134.988 359.794 130.446 359.86C130.224 359.869 130.013 359.864 129.791 359.873C129.724 359.876 129.658 359.879 129.591 359.882C129.425 359.902 129.258 359.895 129.092 359.916C129.026 359.918 128.981 359.92 128.915 359.923C128.704 359.945 128.482 359.954 128.272 359.977C128.227 359.978 128.205 359.979 128.161 359.981C127.983 359.988 127.806 360.023 127.64 360.043C127.574 360.046 127.519 360.062 127.452 360.064C127.286 360.085 127.12 360.105 126.965 360.138C126.921 360.14 126.877 360.142 126.844 360.157C126.645 360.192 126.446 360.227 126.247 360.263C126.202 360.264 126.147 360.28 126.114 360.295C125.96 360.328 125.805 360.362 125.65 360.395C125.595 360.411 125.54 360.427 125.485 360.443C125.308 360.477 125.131 360.511 124.966 360.558C124.944 360.559 124.933 360.573 124.922 360.56C124.734 360.609 124.547 360.657 124.359 360.705C124.304 360.721 124.271 360.736 124.227 360.737C124.084 360.784 123.94 360.83 123.808 360.863C123.764 360.865 123.72 360.893 123.676 360.895C123.5 360.956 123.324 361.018 123.147 361.079C123.147 361.079 123.137 361.093 123.125 361.08C122.96 361.127 122.795 361.202 122.641 361.262C122.609 361.277 122.553 361.292 122.521 361.307C122.389 361.367 122.246 361.413 122.114 361.473C122.081 361.487 122.059 361.488 122.026 361.503C121.861 361.578 121.708 361.638 121.555 361.725C121.532 361.726 121.522 361.74 121.511 361.754C121.379 361.813 121.237 361.887 121.117 361.959C121.084 361.974 121.051 361.989 121.018 362.004C120.876 362.077 120.733 362.151 120.602 362.237L120.592 362.251C120.449 362.324 120.308 362.425 120.177 362.511C120.166 362.525 120.144 362.526 120.122 362.554C120.002 362.626 119.893 362.712 119.773 362.784C119.762 362.798 119.73 362.813 119.719 362.827C119.468 363.013 119.229 363.184 119.012 363.382C119.001 363.396 118.991 363.41 118.969 363.411C118.871 363.51 118.773 363.581 118.676 363.68C118.665 363.694 118.665 363.694 118.655 363.708C118.449 363.919 118.266 364.129 118.106 364.338C118.095 364.352 118.084 364.366 118.073 364.38C117.902 364.603 117.763 364.811 117.625 365.046C117.562 365.157 117.51 365.28 117.457 365.377C117.446 365.391 117.446 365.391 117.436 365.405C117.331 365.625 117.249 365.871 117.189 366.117L117.178 366.131C117.148 366.253 117.129 366.362 117.099 366.485C117.099 366.485 117.088 366.499 117.1 366.512C117.062 366.756 117.047 367 117.043 367.257L117.044 367.284C117.112 369.319 118.718 371.534 122.377 373.65C131.083 378.65 145.666 371.731 151.16 368.75C148.693 373.887 145.998 378.844 143.031 383.596L141.275 386.355C140.69 387.256 140.092 388.145 139.495 389.034C137.072 392.576 134.511 395.961 131.824 399.204C131.665 399.075 131.484 398.948 131.28 398.794C131.177 398.704 131.064 398.628 130.951 398.551C130.723 398.372 130.474 398.193 130.202 397.988C129.384 397.374 128.387 396.66 127.196 395.804C126.8 395.537 126.391 395.23 125.95 394.938C125.723 394.785 125.497 394.633 125.281 394.466C122.993 392.887 120.175 391.046 116.862 388.983C116.703 388.881 116.545 388.78 116.387 388.705C116.331 388.667 116.286 388.642 116.229 388.604C116.127 388.54 116.015 388.491 115.901 388.415C115.845 388.377 115.778 388.352 115.721 388.314C115.619 388.251 115.518 388.215 115.416 388.151C115.349 388.127 115.281 388.076 115.214 388.052C115.123 388.001 115.011 387.952 114.921 387.902C114.853 387.878 114.785 387.826 114.718 387.802C114.627 387.752 114.526 387.716 114.414 387.666C114.347 387.642 114.268 387.605 114.211 387.567C114.11 387.53 114.02 387.48 113.907 387.431C113.84 387.407 113.773 387.382 113.716 387.344C113.604 387.295 113.503 387.258 113.402 387.222C113.334 387.198 113.289 387.173 113.222 387.149C113.087 387.1 112.952 387.052 112.818 387.003C112.784 386.991 112.75 386.979 112.717 386.967C112.548 386.906 112.38 386.846 112.212 386.785C112.167 386.76 112.111 386.749 112.066 386.751C111.943 386.715 111.82 386.68 111.707 386.631C111.64 386.606 111.584 386.595 111.517 386.571C111.416 386.535 111.304 386.512 111.203 386.476C111.136 386.452 111.058 386.442 110.99 386.417C110.889 386.381 110.789 386.372 110.7 386.348C110.632 386.324 110.554 386.314 110.476 386.304C110.387 386.28 110.275 386.258 110.185 386.235C110.107 386.224 110.04 386.2 109.962 386.19C109.872 386.167 109.772 386.157 109.671 386.121C109.593 386.111 109.526 386.086 109.448 386.076C109.347 386.067 109.258 386.043 109.146 386.021C109.068 386.011 109.012 386 108.934 385.989C108.822 385.967 108.722 385.958 108.61 385.935C108.555 385.924 108.488 385.927 108.432 385.916C108.276 385.895 108.098 385.875 107.942 385.855C107.886 385.844 107.841 385.845 107.785 385.834C107.674 385.812 107.563 385.816 107.451 385.794C107.373 385.784 107.306 385.787 107.228 385.776C107.128 385.767 107.039 385.771 106.95 385.747C106.872 385.737 106.805 385.74 106.716 385.743C106.627 385.747 106.549 385.737 106.461 385.74C106.383 385.73 106.305 385.747 106.227 385.737C106.138 385.74 106.06 385.73 105.972 385.734C105.894 385.723 105.816 385.74 105.738 385.73C105.649 385.733 105.583 385.736 105.494 385.74C105.405 385.744 105.339 385.746 105.25 385.75C105.172 385.74 105.095 385.756 105.006 385.76C104.917 385.764 104.85 385.766 104.762 385.77C104.695 385.773 104.606 385.776 104.54 385.779C104.451 385.783 104.374 385.8 104.296 385.789C104.229 385.792 104.152 385.809 104.085 385.812C103.919 385.832 103.741 385.839 103.565 385.873C103.509 385.889 103.454 385.878 103.398 385.894C103.31 385.898 103.222 385.928 103.133 385.932C103.066 385.935 103.011 385.95 102.945 385.953C102.867 385.97 102.768 385.987 102.691 386.004C102.635 386.02 102.569 386.023 102.514 386.038C102.436 386.055 102.337 386.073 102.26 386.089C102.204 386.105 102.138 386.108 102.083 386.124C102.005 386.14 101.917 386.171 101.829 386.175C101.774 386.19 101.718 386.206 101.663 386.222C101.575 386.253 101.498 386.269 101.41 386.3C101.355 386.316 101.3 386.331 101.245 386.347C101.157 386.378 101.079 386.395 100.991 386.425C100.947 386.427 100.903 386.456 100.859 386.458C100.771 386.488 100.683 386.519 100.595 386.55C100.573 386.55 100.54 386.565 100.529 386.579C100.199 386.701 99.8699 386.849 99.5515 386.984C99.5293 386.985 99.5186 386.999 99.4964 387C99.3976 387.044 99.3211 387.088 99.2338 387.146C99.2009 387.16 99.168 387.175 99.1351 387.19C99.0585 387.234 98.9712 387.291 98.8832 387.322C98.8503 387.337 98.8174 387.352 98.7737 387.381C98.6972 387.424 98.6206 387.468 98.5334 387.525C98.5004 387.54 98.4675 387.555 98.4354 387.597C98.3588 387.641 98.2823 387.684 98.2065 387.755C98.1736 387.77 98.1521 387.798 98.1192 387.813C98.0426 387.856 97.9668 387.927 97.8903 387.97C97.8689 387.998 97.8467 387.999 97.8252 388.027C97.7379 388.085 97.6621 388.155 97.5971 388.212C97.5863 388.226 97.5863 388.226 97.5756 388.24C97.2173 388.538 96.8927 388.849 96.6025 389.198C96.5918 389.212 96.5811 389.226 96.5811 389.226C96.5167 389.309 96.4631 389.379 96.3988 389.463C96.3881 389.477 96.3666 389.505 96.3559 389.519C96.3023 389.588 96.238 389.672 96.1844 389.742C96.163 389.77 96.1522 389.783 96.1308 389.811C96.0772 389.881 96.0351 389.964 95.9707 390.047C95.9493 390.075 95.9386 390.089 95.9286 390.13C95.8865 390.213 95.8329 390.283 95.78 390.379C95.7693 390.393 95.7479 390.421 95.7486 390.448C95.7065 390.531 95.6537 390.627 95.6115 390.71C95.6008 390.724 95.6008 390.724 95.5901 390.738C95.3909 391.165 95.2254 391.603 95.1051 392.067C95.0859 392.176 95.0553 392.272 95.0361 392.381C95.0368 392.408 95.0261 392.422 95.0269 392.449C95.0077 392.557 94.9992 392.652 94.9686 392.748C94.9693 392.775 94.9594 392.816 94.9601 392.843C94.9517 392.938 94.9325 393.046 94.924 393.141C94.9248 393.168 94.9148 393.209 94.9156 393.236C94.9071 393.331 94.8994 393.453 94.8909 393.548C94.8917 393.574 94.8817 393.615 94.8825 393.642C94.8855 393.75 94.877 393.845 94.8693 393.967C94.8701 393.994 94.8708 394.021 94.8716 394.048C94.8818 395.208 95.1285 396.48 95.6338 397.863C100.395 410.787 122.609 403.782 130.218 400.957C125.796 406.121 121.052 410.892 116.028 415.19C116.006 415.191 116.006 415.191 115.984 415.192L114.107 416.794C111.12 419.253 108.04 421.553 104.878 423.681C104.844 423.669 104.81 423.657 104.777 423.645C104.541 423.56 104.327 423.475 104.103 423.403C104.069 423.391 104.047 423.392 104.014 423.38C103.789 423.308 103.565 423.236 103.33 423.178C103.308 423.179 103.274 423.167 103.263 423.154C103.028 423.096 102.793 423.039 102.558 422.981C102.514 422.983 102.469 422.957 102.424 422.959C102.201 422.914 101.966 422.857 101.732 422.826C101.687 422.828 101.654 422.816 101.609 422.817C101.364 422.774 101.129 422.743 100.873 422.713L100.851 422.714C100.617 422.683 100.372 422.666 100.127 422.649C100.082 422.651 100.049 422.639 100.004 422.641C99.7595 422.624 99.526 422.62 99.2926 422.616C99.2482 422.618 99.2038 422.62 99.148 422.609C98.9145 422.605 98.6696 422.588 98.4255 422.598C98.3918 422.586 98.3589 422.601 98.3145 422.602C98.0811 422.599 97.8369 422.609 97.6043 422.632C97.5821 422.633 97.5599 422.634 97.5377 422.635C97.2935 422.645 97.0387 422.669 96.806 422.692C96.7616 422.694 96.7172 422.695 96.6728 422.697C96.4402 422.72 96.1968 422.757 95.9641 422.781C95.9197 422.782 95.8753 422.784 95.8309 422.786C95.5875 422.823 95.3441 422.86 95.1008 422.897C95.0786 422.898 95.0678 422.912 95.0456 422.913C94.8023 422.95 94.5703 423 94.3269 423.037C94.294 423.052 94.2496 423.054 94.2274 423.055C93.9955 423.105 93.7414 423.156 93.5095 423.206C93.4651 423.208 93.41 423.223 93.3771 423.238C93.1344 423.302 92.9025 423.352 92.6599 423.416C92.627 423.431 92.5826 423.433 92.5497 423.448C92.307 423.512 92.0759 423.589 91.8332 423.653C91.8225 423.667 91.811 423.654 91.8003 423.668C91.547 423.746 91.3158 423.823 91.0624 423.901C91.0295 423.916 90.9744 423.931 90.9415 423.946C90.7103 424.023 90.4685 424.114 90.2373 424.191C90.1937 424.22 90.1493 424.222 90.1056 424.251C89.8638 424.342 89.6219 424.433 89.3915 424.537C89.3693 424.538 89.3478 424.565 89.3256 424.566C89.0952 424.67 88.8641 424.747 88.6336 424.851C88.6007 424.866 88.5678 424.881 88.5456 424.882C88.3152 424.986 88.0848 425.09 87.8544 425.194C87.8108 425.223 87.7664 425.225 87.7227 425.253C87.4923 425.357 87.2734 425.474 87.043 425.578C87.0101 425.593 86.9664 425.622 86.9335 425.637C86.6924 425.755 86.4735 425.872 86.2323 425.99C86.0027 426.121 85.7615 426.239 85.5319 426.37C85.499 426.385 85.4553 426.413 85.4224 426.428C85.2035 426.545 84.9853 426.689 84.7664 426.806C84.7227 426.835 84.6898 426.85 84.6462 426.879C84.428 427.023 84.2091 427.14 83.9909 427.284C83.958 427.299 83.9473 427.313 83.9143 427.327C83.7069 427.457 83.4887 427.601 83.2812 427.731C83.2705 427.745 83.2376 427.76 83.2269 427.774C83.0087 427.918 82.8013 428.048 82.5946 428.205C82.5509 428.234 82.518 428.249 82.4744 428.278C82.2784 428.421 82.0602 428.565 81.8642 428.708C81.8313 428.723 81.7991 428.765 81.7662 428.779C81.5595 428.936 81.3528 429.093 81.1461 429.25L81.1354 429.264C80.9287 429.421 80.722 429.578 80.5375 429.734C80.5046 429.749 80.4831 429.777 80.4502 429.792C80.2657 429.948 80.0697 430.091 79.8745 430.261C79.8308 430.29 79.8094 430.318 79.7658 430.347C79.5813 430.503 79.386 430.673 79.2015 430.829C79.1801 430.857 79.1579 430.858 79.1364 430.886C78.9519 431.042 78.7789 431.211 78.5944 431.367C78.5837 431.381 78.5729 431.395 78.5507 431.396C78.3777 431.565 78.1932 431.721 78.0202 431.89C77.9987 431.918 77.9551 431.947 77.9336 431.975C77.7606 432.144 77.5983 432.299 77.4253 432.468C77.4038 432.496 77.3709 432.511 77.3387 432.553C77.1657 432.722 77.0041 432.904 76.8311 433.073L76.8204 433.087C76.6588 433.269 76.4965 433.424 76.335 433.606C76.3135 433.634 76.3028 433.648 76.2814 433.676C76.1305 433.844 75.9797 434.013 75.8288 434.181C75.8074 434.209 75.7859 434.237 75.7538 434.278C75.6029 434.447 75.4636 434.628 75.3235 434.782C75.302 434.81 75.2913 434.824 75.2699 434.852C75.1305 435.033 74.9797 435.201 74.8625 435.381L74.8518 435.395C74.7124 435.577 74.5838 435.744 74.4666 435.924C74.4451 435.952 74.4237 435.98 74.413 435.994C74.2843 436.161 74.1672 436.342 74.0607 436.508C74.0393 436.536 74.0286 436.55 74.0071 436.578C73.8899 436.758 73.7728 436.938 73.6663 437.105C73.6556 437.119 73.6556 437.119 73.6449 437.133C73.5384 437.299 73.4213 437.479 73.3263 437.659C73.3156 437.673 73.3048 437.686 73.2941 437.7C73.1877 437.867 73.0927 438.046 73.0084 438.212C72.987 438.24 72.9878 438.266 72.9663 438.294C72.8821 438.46 72.7871 438.639 72.7028 438.805C72.6921 438.819 72.6929 438.846 72.6714 438.873C72.5037 439.231 72.3574 439.561 72.2225 439.904C72.2118 439.918 72.2125 439.945 72.2018 439.959C72.1398 440.124 72.0777 440.288 72.0264 440.439C72.0156 440.453 72.0164 440.48 71.995 440.508C71.9329 440.672 71.893 440.836 71.8532 440.999C71.8532 440.999 71.8424 441.013 71.8539 441.026C71.8141 441.19 71.7742 441.354 71.745 441.503L71.7458 441.53C71.7167 441.68 71.6875 441.83 71.6698 441.992C71.6706 442.019 71.6599 442.033 71.6606 442.06C71.7585 442.38 71.74 442.516 71.7331 442.665C71.7338 442.692 71.7338 442.692 71.7346 442.719C71.7207 443.016 71.7183 443.327 71.7373 443.609C71.738 443.636 71.738 443.636 71.7388 443.663C71.754 443.811 71.7685 443.932 71.7945 444.066C71.7953 444.093 71.8067 444.106 71.8075 444.133C71.8334 444.267 71.8594 444.401 71.9076 444.534C71.9076 444.534 71.919 444.547 71.9198 444.574C71.9565 444.694 72.0046 444.827 72.0528 444.96L72.0643 444.973C72.1124 445.106 72.1713 445.225 72.2302 445.344C72.2417 445.357 72.2424 445.384 72.2539 445.397C72.3128 445.516 72.3824 445.621 72.4635 445.739C72.4749 445.752 72.4864 445.765 72.4979 445.778C72.556 445.87 72.6371 445.988 72.7289 446.093C73.7516 447.306 75.5629 448.108 78.347 448.344C94.5815 449.618 103.057 432.868 105.606 426.702C108.868 424.529 112.035 422.171 115.109 419.655L116.802 418.235C122.001 413.823 126.93 408.922 131.526 403.616C128.5 412.218 122.011 434.042 130.181 442.924C132.346 445.278 134.291 446.075 135.959 445.75C135.97 445.736 135.982 445.749 135.992 445.735C136.478 445.634 136.951 445.439 137.387 445.151L137.398 445.137C137.834 444.849 138.257 444.467 138.644 444.019L138.655 444.005C139.042 443.557 139.416 443.016 139.744 442.422C139.754 442.408 139.754 442.408 139.765 442.394C139.829 442.283 139.903 442.159 139.955 442.035C140.208 441.539 140.448 441.002 140.688 440.439C140.699 440.425 140.709 440.384 140.72 440.37C140.772 440.246 140.812 440.11 140.875 439.972C140.886 439.958 140.885 439.931 140.896 439.917C141.051 439.493 141.194 439.055 141.336 438.59C141.347 438.576 141.346 438.549 141.357 438.535C141.398 438.398 141.438 438.262 141.479 438.125C141.489 438.084 141.51 438.029 141.52 437.988C141.56 437.852 141.59 437.729 141.619 437.579C141.629 437.538 141.639 437.498 141.66 437.443C141.77 436.993 141.879 436.543 141.967 436.094C141.987 436.039 141.986 435.985 141.996 435.944C142.026 435.821 142.044 435.686 142.062 435.55C142.072 435.482 142.092 435.4 142.101 435.332C142.119 435.197 142.149 435.074 142.168 434.938C142.188 434.856 142.197 434.788 142.205 434.694C142.224 434.558 142.254 434.435 142.261 434.313C142.27 434.245 142.28 434.178 142.289 434.11C142.326 433.865 142.364 433.621 142.379 433.377C142.388 433.282 142.396 433.187 142.416 433.106C142.424 432.984 142.443 432.875 142.451 432.753C142.459 432.658 142.479 432.55 142.476 432.442C142.483 432.32 142.502 432.211 142.51 432.089C142.529 431.981 142.526 431.873 142.534 431.751C142.542 431.629 142.55 431.534 142.558 431.412C142.576 431.25 142.582 431.101 142.589 430.925C142.607 430.79 142.603 430.655 142.622 430.519C142.629 430.37 142.636 430.248 142.643 430.1C142.652 430.005 142.649 429.897 142.657 429.802C142.665 429.68 142.661 429.545 142.669 429.424C142.666 429.316 142.674 429.221 142.671 429.113C142.668 428.978 142.674 428.83 142.682 428.708C142.691 428.613 142.688 428.532 142.685 428.424C142.69 428.194 142.684 427.979 142.689 427.749C142.687 427.695 142.686 427.641 142.695 427.573C142.701 427.398 142.685 427.223 142.691 427.047C142.689 426.966 142.686 426.858 142.684 426.777C142.68 426.643 142.675 426.481 142.672 426.346C142.669 426.265 142.666 426.157 142.664 426.076C142.66 425.915 142.644 425.767 142.64 425.605C142.638 425.524 142.635 425.443 142.633 425.362C142.616 425.134 142.598 424.905 142.581 424.676C142.58 424.649 142.568 424.609 142.578 424.568C142.561 424.366 142.544 424.165 142.527 423.963C142.525 423.882 142.512 423.815 142.498 423.721C142.483 423.573 142.467 423.398 142.452 423.251C142.45 423.17 142.436 423.076 142.423 423.009C142.396 422.848 142.392 422.686 142.365 422.525C142.352 422.458 142.35 422.377 142.337 422.31C142.308 422.069 142.279 421.854 142.24 421.626C142.239 421.599 142.227 421.586 142.238 421.572C142.21 421.357 142.171 421.156 142.143 420.942C142.13 420.875 142.117 420.808 142.103 420.714C142.076 420.553 142.05 420.392 142.012 420.245C141.988 420.165 141.985 420.084 141.961 420.004C141.934 419.843 141.897 419.696 141.87 419.536C141.857 419.469 141.844 419.402 141.831 419.335C141.781 419.121 141.741 418.893 141.679 418.666C141.679 418.666 141.668 418.653 141.678 418.639C141.628 418.425 141.578 418.211 141.527 417.997C141.514 417.931 141.501 417.864 141.466 417.798C141.429 417.651 141.38 417.491 141.342 417.344C141.318 417.264 141.305 417.197 141.28 417.117C141.243 416.97 141.194 416.81 141.146 416.677C141.133 416.61 141.098 416.544 141.085 416.477C141.012 416.264 140.951 416.064 140.878 415.851C139.813 412.71 138.831 410.185 137.952 408.17C137.692 407.587 137.455 407.057 137.218 406.554C136.982 406.05 136.758 405.587 136.524 405.165C136.195 404.531 135.879 403.963 135.588 403.476C135.495 403.318 135.401 403.16 135.308 403.001C134.936 402.396 134.611 401.923 134.311 401.531C134.242 401.426 134.173 401.347 134.093 401.256C133.978 401.126 133.874 400.982 133.782 400.878C136.49 397.58 139.082 394.126 141.537 390.542L143.425 387.724C146.844 382.467 149.978 376.938 152.795 371.18C152.052 380.781 150.926 408.431 162.288 409.892C162.778 409.953 163.224 409.988 163.668 409.997C163.779 409.992 163.88 410.002 163.991 409.997L164.013 409.996C164.124 409.992 164.213 409.988 164.312 409.97L164.334 409.969C164.423 409.966 164.523 409.948 164.611 409.944L164.634 409.944C164.789 409.937 164.888 409.92 164.977 409.916L164.999 409.915C165.088 409.911 165.176 409.881 165.265 409.877C165.276 409.863 165.287 409.876 165.298 409.862C165.375 409.845 165.475 409.828 165.552 409.811C165.563 409.797 165.574 409.81 165.585 409.796C165.662 409.78 165.75 409.749 165.828 409.732C165.838 409.718 165.85 409.731 165.86 409.717C165.938 409.701 166.015 409.684 166.092 409.64C166.102 409.626 166.114 409.64 166.125 409.626C166.202 409.609 166.268 409.579 166.344 409.536C166.355 409.522 166.366 409.535 166.377 409.521C166.443 409.491 166.52 409.474 166.597 409.431C166.608 409.417 166.619 409.43 166.63 409.416C166.696 409.386 166.761 409.356 166.838 409.313C166.849 409.299 166.86 409.312 166.871 409.298C166.937 409.268 167.003 409.238 167.068 409.182C167.078 409.168 167.09 409.181 167.101 409.167C167.166 409.137 167.221 409.094 167.297 409.051C167.308 409.037 167.308 409.037 167.33 409.036C167.385 408.993 167.45 408.963 167.515 408.907C167.526 408.893 167.526 408.893 167.548 408.892C167.603 408.849 167.657 408.806 167.722 408.75C167.733 408.736 167.733 408.736 167.744 408.722C167.798 408.679 167.852 408.636 167.917 408.58C167.928 408.566 167.928 408.566 167.939 408.552C167.993 408.509 168.047 408.439 168.101 408.397C168.112 408.383 168.112 408.383 168.123 408.369C168.177 408.326 168.231 408.256 168.273 408.201L168.284 408.187C168.327 408.131 168.381 408.061 168.435 408.018L168.446 408.004C168.489 407.949 168.542 407.879 168.585 407.823L168.596 407.809C168.639 407.754 168.692 407.684 168.724 407.615C168.724 407.615 168.724 407.615 168.734 407.601C168.788 407.531 168.819 407.463 168.873 407.393C168.915 407.31 168.958 407.254 169 407.172C169.928 405.406 170.115 402.928 169.756 400.04C169.742 399.92 169.727 399.799 169.713 399.678C169.713 399.678 169.713 399.678 169.701 399.665C169.687 399.544 169.672 399.423 169.647 399.316L169.646 399.289C169.632 399.168 169.607 399.061 169.592 398.94C169.581 398.927 169.591 398.913 169.58 398.9C169.565 398.78 169.54 398.673 169.514 398.539C169.503 398.526 169.513 398.512 169.502 398.499C169.488 398.378 169.462 398.271 169.426 398.151C169.425 398.124 169.413 398.111 169.424 398.097C169.399 397.99 169.384 397.869 169.348 397.749C169.347 397.722 169.335 397.709 169.335 397.682C169.31 397.575 169.295 397.454 169.258 397.334C169.258 397.307 169.246 397.294 169.245 397.267C169.22 397.161 169.195 397.054 169.169 396.92C169.168 396.893 169.157 396.88 169.156 396.853C169.131 396.746 169.094 396.626 169.069 396.519C169.068 396.492 169.057 396.479 169.044 396.439C169.019 396.332 168.983 396.212 168.957 396.105C168.957 396.078 168.934 396.052 168.933 396.025C168.908 395.918 168.871 395.798 168.846 395.691C168.845 395.664 168.833 395.624 168.821 395.611C168.796 395.504 168.759 395.384 168.734 395.277C168.733 395.25 168.721 395.21 168.71 395.197C168.685 395.09 168.648 394.97 168.623 394.864C168.61 394.824 168.61 394.797 168.587 394.771C168.561 394.664 168.525 394.544 168.5 394.437C168.487 394.397 168.487 394.37 168.464 394.344C168.438 394.237 168.402 394.117 168.354 394.011C168.342 393.971 168.341 393.944 168.318 393.918C168.282 393.798 168.246 393.705 168.209 393.585C168.197 393.545 168.196 393.518 168.184 393.478C168.147 393.358 168.111 393.265 168.075 393.145C168.062 393.105 168.05 393.065 168.039 393.052C168.002 392.932 167.966 392.839 167.929 392.719C167.917 392.679 167.905 392.639 167.893 392.626C167.857 392.506 167.821 392.413 167.784 392.293C167.772 392.253 167.76 392.213 167.737 392.187C167.7 392.067 167.653 391.961 167.627 391.854C167.615 391.814 167.603 391.774 167.591 391.734C167.554 391.614 167.507 391.508 167.47 391.388C167.458 391.348 167.445 391.308 167.434 391.295C167.397 391.175 167.35 391.069 167.313 390.949C167.301 390.909 167.289 390.869 167.266 390.843C167.218 390.737 167.182 390.617 167.134 390.511C167.122 390.471 167.099 390.445 167.087 390.405C167.039 390.299 167.003 390.179 166.955 390.073C166.943 390.033 166.931 389.993 166.908 389.967C166.861 389.861 166.824 389.741 166.776 389.635C166.764 389.595 166.741 389.569 166.741 389.542C166.693 389.436 166.645 389.303 166.598 389.197C166.585 389.157 166.562 389.131 166.562 389.104C166.514 388.998 166.466 388.865 166.419 388.759C166.406 388.719 166.395 388.706 166.383 388.666C166.324 388.547 166.287 388.427 166.228 388.308C166.228 388.281 166.205 388.255 166.204 388.228C166.145 388.109 166.097 387.976 166.038 387.857C166.026 387.844 166.026 387.817 166.003 387.791C165.955 387.658 165.896 387.539 165.825 387.407C165.814 387.394 165.813 387.367 165.813 387.367C165.753 387.221 165.695 387.102 165.635 386.956C165.172 385.908 164.677 384.876 164.159 383.844C164.1 383.725 164.03 383.593 163.971 383.474C163.948 383.448 163.947 383.421 163.924 383.395C163.877 383.289 163.807 383.184 163.76 383.078C163.748 383.038 163.713 382.999 163.701 382.959C163.654 382.853 163.596 382.761 163.548 382.655C163.524 382.602 163.49 382.563 163.478 382.523C163.42 382.431 163.372 382.325 163.326 382.246C163.302 382.193 163.278 382.14 163.244 382.1C163.186 382.008 163.15 381.915 163.092 381.823C163.068 381.77 163.033 381.704 163.009 381.651C162.962 381.572 162.915 381.466 162.868 381.387C162.833 381.321 162.809 381.268 162.774 381.202C162.728 381.123 162.681 381.044 162.634 380.938C162.598 380.872 162.575 380.819 162.539 380.753C162.493 380.674 162.446 380.595 162.399 380.516C162.364 380.45 162.329 380.383 162.305 380.33C162.259 380.251 162.212 380.172 162.165 380.093C162.13 380.027 162.095 379.961 162.06 379.895C162.013 379.816 161.967 379.737 161.92 379.658C161.885 379.592 161.85 379.526 161.814 379.46C161.768 379.381 161.721 379.302 161.674 379.223C161.639 379.157 161.604 379.091 161.558 379.038C161.512 378.959 161.465 378.88 161.418 378.801C161.383 378.735 161.348 378.669 161.302 378.617C161.255 378.538 161.22 378.472 161.174 378.393C161.138 378.327 161.092 378.248 161.046 378.196C160.999 378.117 160.964 378.051 160.907 377.986C160.871 377.92 160.825 377.84 160.779 377.788C160.732 377.709 160.697 377.643 160.64 377.578C160.604 377.512 160.558 377.433 160.512 377.381C160.465 377.302 160.43 377.236 160.373 377.171C160.338 377.105 160.28 377.04 160.245 376.974C160.198 376.894 160.152 376.842 160.106 376.763C160.071 376.697 160.013 376.632 159.978 376.566C159.943 376.5 159.886 376.435 159.85 376.369C159.815 376.303 159.758 376.238 159.723 376.172C159.687 376.106 159.63 376.041 159.595 375.974C159.56 375.908 159.502 375.843 159.467 375.777C159.432 375.711 159.375 375.646 159.339 375.58C159.304 375.514 159.247 375.449 159.212 375.383C159.177 375.317 159.119 375.252 159.084 375.186C159.049 375.12 158.991 375.055 158.956 374.988C158.921 374.922 158.864 374.857 158.829 374.791C158.793 374.725 158.736 374.66 158.701 374.594C158.666 374.528 158.608 374.463 158.573 374.397C158.527 374.345 158.481 374.266 158.435 374.214C158.389 374.162 158.342 374.082 158.296 374.03C158.25 373.978 158.204 373.899 158.158 373.847C158.112 373.795 158.077 373.729 158.019 373.664C157.973 373.612 157.927 373.533 157.881 373.481C157.835 373.429 157.8 373.362 157.754 373.31C157.708 373.258 157.661 373.179 157.615 373.127C157.569 373.075 157.534 373.009 157.488 372.957C157.443 372.905 157.396 372.826 157.35 372.774C157.304 372.722 157.269 372.656 157.223 372.603C157.177 372.551 157.13 372.472 157.085 372.42C157.039 372.368 157.003 372.302 156.958 372.25C156.912 372.198 156.865 372.119 156.819 372.067C156.773 372.015 156.727 371.962 156.692 371.896C156.646 371.844 156.589 371.779 156.554 371.713C156.508 371.661 156.462 371.609 156.427 371.543C156.381 371.491 156.335 371.439 156.288 371.36C156.242 371.308 156.196 371.255 156.151 371.203C156.105 371.151 156.047 371.086 156.001 371.034C155.955 370.982 155.91 370.93 155.875 370.891C155.829 370.839 155.783 370.787 155.726 370.721C155.68 370.669 155.634 370.617 155.6 370.578C155.554 370.526 155.508 370.474 155.462 370.422C155.416 370.37 155.382 370.331 155.336 370.279C155.29 370.227 155.244 370.174 155.198 370.122C155.152 370.07 155.118 370.031 155.072 369.979C155.026 369.927 154.98 369.875 154.934 369.823C154.888 369.771 154.854 369.732 154.808 369.68C154.762 369.627 154.716 369.575 154.67 369.523C154.636 369.484 154.59 369.432 154.556 369.393C154.51 369.341 154.464 369.289 154.406 369.224C154.372 369.185 154.326 369.133 154.292 369.093C154.246 369.041 154.188 368.976 154.132 368.938C154.12 368.925 154.097 368.899 154.086 368.886C156.078 364.646 157.889 360.279 159.52 355.811C159.973 354.551 160.427 353.29 160.858 352.004L161.647 349.636C163.273 344.615 164.708 339.508 166.041 334.337C166.444 343.175 169.041 361.344 183.011 367.881C185.747 369.158 187.721 369.414 189.062 368.9C189.062 368.9 189.072 368.886 189.084 368.899C189.205 368.853 189.314 368.795 189.424 368.736C189.424 368.736 189.434 368.722 189.446 368.736C189.555 368.677 189.653 368.605 189.763 368.547C189.97 368.39 190.143 368.221 190.315 368.025C190.39 367.927 190.465 367.83 190.528 367.719L190.539 367.705C190.603 367.594 190.666 367.484 190.718 367.36C190.718 367.36 190.718 367.36 190.729 367.346C190.908 366.974 191.029 366.564 191.117 366.115C191.117 366.115 191.128 366.101 191.116 366.088C191.145 365.939 191.163 365.776 191.192 365.626C191.192 365.626 191.203 365.612 191.191 365.599C191.244 365.111 191.263 364.584 191.225 364.019L191.224 363.992C191.219 363.803 191.203 363.628 191.186 363.426L191.185 363.399C191.124 362.808 191.029 362.178 190.888 361.522C190.877 361.509 190.888 361.495 190.876 361.482C190.826 361.268 190.787 361.067 190.725 360.84C190.713 360.827 190.713 360.8 190.713 360.8C190.662 360.586 190.6 360.36 190.538 360.133L190.527 360.12C190.403 359.666 190.256 359.186 190.11 358.706C190.098 358.693 190.098 358.666 190.098 358.666C190.024 358.426 189.94 358.2 189.867 357.96C189.866 357.933 189.854 357.92 189.842 357.88C189.758 357.654 189.673 357.401 189.589 357.175C189.578 357.162 189.577 357.135 189.577 357.135C189.397 356.643 189.194 356.152 188.991 355.634C188.979 355.621 188.978 355.594 188.967 355.581C188.871 355.342 188.764 355.09 188.646 354.852C188.634 354.812 188.623 354.799 188.611 354.759C188.504 354.507 188.386 354.269 188.279 354.017C188.267 354.004 188.255 353.964 188.244 353.951C188.007 353.448 187.748 352.918 187.489 352.389C187.477 352.376 187.477 352.349 187.465 352.336C187.336 352.085 187.207 351.834 187.077 351.583C187.065 351.543 187.042 351.517 187.03 351.477C186.901 351.226 186.771 350.974 186.632 350.737C186.609 350.711 186.596 350.671 186.573 350.645C186.433 350.381 186.293 350.144 186.152 349.88C186.141 349.867 186.129 349.854 186.128 349.827C185.988 349.563 185.836 349.312 185.685 349.062C185.673 349.049 185.662 349.036 185.661 349.009C185.51 348.759 185.358 348.509 185.207 348.258C185.184 348.232 185.16 348.179 185.137 348.153C184.986 347.903 184.834 347.653 184.672 347.417C184.638 347.378 184.625 347.338 184.591 347.299C184.44 347.048 184.266 346.799 184.115 346.549C184.092 346.523 184.091 346.496 184.068 346.47C183.905 346.207 183.743 345.97 183.569 345.721C183.558 345.708 183.546 345.695 183.535 345.682C183.361 345.433 183.188 345.183 183.014 344.934C182.979 344.895 182.967 344.855 182.933 344.816C182.771 344.58 182.597 344.33 182.424 344.108C182.39 344.069 182.366 344.016 182.332 343.977C182.158 343.727 181.985 343.505 181.811 343.256C181.789 343.23 181.754 343.191 181.742 343.151C181.558 342.915 181.372 342.653 181.188 342.418L181.177 342.405C180.992 342.169 180.796 341.921 180.612 341.686C180.578 341.647 180.555 341.621 180.52 341.581C180.336 341.346 180.152 341.111 179.968 340.902C179.934 340.863 179.899 340.824 179.865 340.785C179.68 340.55 179.485 340.328 179.302 340.12C179.267 340.081 179.244 340.055 179.21 340.016C179.003 339.781 178.808 339.56 178.602 339.325C178.59 339.312 178.59 339.312 178.579 339.299C178.384 339.078 178.177 338.844 177.982 338.622C177.959 338.596 177.925 338.557 177.902 338.531C177.707 338.31 177.501 338.102 177.306 337.881C177.271 337.842 177.237 337.803 177.203 337.763C176.997 337.556 176.813 337.348 176.607 337.14C176.573 337.101 176.539 337.062 176.493 337.037C176.288 336.829 176.082 336.622 175.865 336.401C175.853 336.388 175.83 336.362 175.819 336.349C175.613 336.142 175.396 335.948 175.191 335.741C175.168 335.715 175.145 335.689 175.111 335.677C174.895 335.483 174.689 335.276 174.484 335.095C174.449 335.056 174.404 335.031 174.37 334.992C174.165 334.811 173.948 334.618 173.743 334.437C173.709 334.398 173.664 334.373 173.629 334.334C173.413 334.14 173.197 333.974 172.97 333.794C172.947 333.768 172.913 333.756 172.902 333.743C172.686 333.577 172.459 333.397 172.243 333.23C172.231 333.217 172.198 333.205 172.186 333.192C171.959 333.013 171.743 332.846 171.517 332.693C171.472 332.668 171.437 332.629 171.404 332.617C171.188 332.451 170.961 332.298 170.746 332.158C170.701 332.133 170.667 332.094 170.622 332.069C170.395 331.916 170.169 331.764 169.954 331.624C169.92 331.612 169.897 331.586 169.863 331.574C169.637 331.421 169.4 331.283 169.173 331.13C169.162 331.117 169.15 331.104 169.14 331.118C168.902 330.979 168.665 330.84 168.439 330.715C168.406 330.703 168.361 330.678 168.338 330.651C168.112 330.526 167.886 330.4 167.66 330.275C167.615 330.249 167.57 330.224 167.537 330.212C167.413 330.15 167.289 330.087 167.153 330.012C169.047 322.24 170.771 314.38 172.575 306.585L173.428 302.905C174.451 298.584 175.52 294.288 176.679 290.042C179.849 298.132 190.447 323.476 198.457 325.075C200.904 325.555 202.653 324.538 203.732 322.603C203.754 322.575 203.753 322.548 203.774 322.521C203.954 322.176 204.121 321.818 204.277 321.42C204.287 321.379 204.298 321.365 204.308 321.324C204.441 320.927 204.573 320.503 204.672 320.067C204.682 320.026 204.682 319.999 204.692 319.959C204.741 319.727 204.779 319.509 204.828 319.278C204.828 319.278 204.839 319.264 204.827 319.251C204.866 319.033 204.893 318.803 204.93 318.558C204.94 318.517 204.939 318.49 204.949 318.45C204.976 318.219 205.002 317.961 205.018 317.718C205.017 317.691 205.028 317.677 205.027 317.65C205.042 317.406 205.047 317.177 205.062 316.933C205.062 316.906 205.072 316.865 205.059 316.825C205.063 316.569 205.067 316.312 205.06 316.042C205.059 316.015 205.058 315.961 205.057 315.935C205.05 315.692 205.043 315.449 205.025 315.193C205.024 315.166 205.023 315.14 205.011 315.1C205.004 314.83 204.974 314.561 204.944 314.292C204.943 314.238 204.93 314.198 204.94 314.158C204.922 313.902 204.882 313.647 204.863 313.391C204.863 313.364 204.862 313.337 204.861 313.31C204.831 313.042 204.79 312.76 204.749 312.478C204.747 312.424 204.724 312.371 204.722 312.317C204.67 312.05 204.641 311.781 204.577 311.5C204.566 311.487 204.576 311.473 204.565 311.46C204.502 311.179 204.449 310.884 204.385 310.603C204.372 310.537 204.36 310.497 204.347 310.43C204.22 309.868 204.06 309.294 203.889 308.734C203.876 308.667 203.852 308.614 203.839 308.547C203.754 308.267 203.668 307.987 203.571 307.695C203.559 307.682 203.559 307.655 203.559 307.655C203.462 307.389 203.377 307.136 203.281 306.87C203.257 306.817 203.233 306.737 203.209 306.684C203.101 306.405 203.005 306.139 202.887 305.874C202.874 305.834 202.851 305.808 202.839 305.768C202.732 305.515 202.637 305.276 202.519 305.038C202.495 304.985 202.46 304.919 202.436 304.866C202.318 304.601 202.189 304.35 202.059 304.072C202.035 304.019 202.012 303.993 201.988 303.94C201.87 303.702 201.753 303.491 201.636 303.253C201.612 303.2 201.577 303.134 201.542 303.094C201.402 302.83 201.262 302.593 201.11 302.343C201.087 302.29 201.041 302.238 201.017 302.185C200.888 301.961 200.749 301.75 200.61 301.54C200.576 301.501 200.552 301.448 200.517 301.409C200.355 301.173 200.193 300.936 200.031 300.7C199.985 300.648 199.961 300.595 199.916 300.543C199.754 300.334 199.615 300.123 199.443 299.928C199.42 299.902 199.385 299.863 199.362 299.837C199.19 299.615 198.995 299.393 198.822 299.171C198.776 299.119 198.73 299.067 198.684 299.015C198.512 298.819 198.328 298.611 198.145 298.429C198.134 298.416 198.111 298.39 198.099 298.377C197.894 298.17 197.699 297.975 197.494 297.768C197.448 297.716 197.391 297.678 197.345 297.626C197.129 297.432 196.923 297.225 196.707 297.058C190.084 291.446 183.883 289.03 179.943 287.977C178.869 287.698 177.975 287.519 177.272 287.399C179.244 280.447 181.497 273.605 184.245 267.013L184.297 266.889C184.34 266.806 184.37 266.711 184.412 266.628L185.33 264.484C185.33 264.484 185.33 264.484 185.329 264.457C185.403 264.306 185.465 264.141 185.539 263.99L185.57 263.921C186.208 262.504 186.858 261.101 187.541 259.709C195.783 242.955 207.137 228.638 220.582 217.973C221.887 216.947 220.368 214.674 219.074 215.686C207.183 225.113 196.873 237.43 188.894 251.69C187.064 254.964 185.381 258.354 183.833 261.793L182.632 264.555C179.651 271.562 177.177 278.859 175.03 286.318C174.859 286.149 174.677 285.995 174.495 285.84C174.46 285.801 174.404 285.763 174.369 285.724C174.141 285.517 173.903 285.325 173.664 285.132C173.641 285.106 173.619 285.107 173.596 285.081C173.369 284.901 173.142 284.722 172.914 284.542C172.869 284.517 172.846 284.491 172.812 284.452C172.574 284.286 172.347 284.107 172.109 283.941C172.063 283.916 172.007 283.878 171.972 283.839C171.734 283.673 171.508 283.52 171.271 283.382C171.237 283.37 171.203 283.33 171.169 283.318C170.932 283.18 170.717 283.04 170.48 282.901C170.446 282.889 170.435 282.876 170.412 282.85C170.174 282.712 169.926 282.587 169.701 282.461C169.656 282.436 169.61 282.411 169.565 282.386C169.329 282.274 169.103 282.148 168.856 282.051C168.811 282.025 168.777 282.013 168.732 281.988C168.496 281.876 168.248 281.779 168.012 281.667L168 281.654C167.753 281.556 167.506 281.458 167.259 281.361C167.214 281.335 167.169 281.337 167.124 281.312C166.889 281.227 166.653 281.143 166.407 281.072C166.351 281.061 166.306 281.036 166.261 281.037C166.015 280.967 165.779 280.882 165.544 280.824C165.522 280.825 165.488 280.813 165.477 280.8C165.242 280.742 165.018 280.67 164.794 280.625C164.761 280.613 164.716 280.615 164.682 280.603C164.448 280.545 164.202 280.501 163.978 280.457C163.923 280.445 163.878 280.447 163.822 280.436C163.588 280.405 163.353 280.347 163.119 280.317C163.085 280.305 163.041 280.306 163.007 280.294C162.773 280.263 162.561 280.232 162.338 280.214C162.316 280.215 162.283 280.203 162.26 280.204C162.026 280.173 161.793 280.169 161.548 280.152C161.503 280.154 161.448 280.143 161.403 280.145C161.17 280.141 160.947 280.123 160.714 280.119C160.669 280.121 160.625 280.123 160.58 280.125C160.347 280.121 160.114 280.117 159.88 280.113L159.858 280.114C159.625 280.11 159.38 280.12 159.148 280.143C159.103 280.145 159.059 280.147 159.015 280.149C158.793 280.158 158.56 280.181 158.338 280.19C158.294 280.192 158.249 280.194 158.194 280.21C157.961 280.233 157.729 280.256 157.508 280.292C157.485 280.293 157.463 280.294 157.441 280.295C157.231 280.317 157.009 280.353 156.788 280.389C156.744 280.391 156.711 280.406 156.666 280.408C156.445 280.444 156.224 280.48 156.014 280.529C155.895 280.628 155.85 280.63 155.795 280.646Z" fill="#3D4775"/>
<path d="M84.2909 268.596C84.2909 268.596 176.347 154.365 195.496 56.0531C201.997 22.6959 200.921 -3.52412 196.646 -23.6049C187.747 -65.4769 144.906 -78.0125 118.323 -46.5353C105.574 -31.4405 92.8307 -9.2731 83.4488 23.2464C55.809 119.077 84.2909 268.596 84.2909 268.596Z" fill="#2F8C91"/>
<path d="M143.834 10.823C142.228 17.5406 140.616 24.248 139.011 30.9655C118.462 37.3198 97.9081 43.664 77.351 50.0263C77.2084 50.8285 77.0658 51.6308 76.9379 52.4353C97.4309 46.1003 117.924 39.7653 138.417 33.4303C136.897 39.7721 135.375 46.132 133.856 52.4739C114.26 58.9273 94.491 64.3358 74.6123 68.6721C74.5278 69.4369 74.4286 70.1995 74.3441 70.9643C94.1181 66.6769 113.765 61.3331 133.259 54.9567C131.799 61.0575 130.338 67.1583 128.877 73.2591C110.153 78.4011 91.4369 83.5352 72.7125 88.6773C72.6573 89.4466 72.6021 90.2159 72.5529 90.9954C91.1285 85.8955 109.719 80.7978 128.294 75.6978C126.767 82.094 125.225 88.4879 123.697 94.884C106.486 101.488 89.1015 107.252 71.586 112.134C71.5688 112.9 71.5457 113.655 71.5373 114.413C88.8632 109.595 106.062 103.924 123.092 97.4212C121.515 104.004 119.937 110.587 118.365 117.18C102.852 122.859 87.1899 127.736 71.4268 131.784C71.427 132.534 71.4419 133.286 71.4421 134.036C87.001 130.05 102.454 125.27 117.763 119.699C116.48 125.059 115.189 130.426 113.907 135.786C100.033 141.594 85.9942 146.645 71.8322 150.919C71.8618 151.674 71.8853 152.418 71.9149 153.172C85.8466 148.984 99.6434 144.044 113.288 138.367C111.724 144.906 110.16 151.445 108.596 157.983C97.0616 164.297 85.0988 169.109 72.889 172.366C72.9359 173.105 72.9828 173.843 73.0358 174.592C84.9626 171.422 96.6463 166.77 107.947 160.717C107.412 162.941 106.882 165.175 106.347 167.399C106.108 167.695 105.978 168.111 106.068 168.56C105.684 170.177 105.293 171.784 104.908 173.401C95.0974 179.672 84.5899 183.781 73.8233 185.564C73.8849 186.304 73.9405 187.035 74.0021 187.776C84.4412 186.027 94.6354 182.157 104.214 176.286C103.038 181.189 101.87 186.085 100.693 190.988C92.3903 195.35 83.8998 198.962 75.2538 201.809C75.3301 202.552 75.4003 203.285 75.4766 204.028C83.8223 201.283 92.0277 197.823 100.049 193.686C98.9623 198.242 97.8606 202.796 96.7735 207.352C90.9699 209.198 85.1808 211.046 79.3772 212.891C78.4235 213.199 77.4493 213.495 76.4957 213.803C76.5806 214.538 76.6596 215.263 76.7385 215.988C78.1646 215.53 79.5853 215.108 80.994 214.666C86.0569 213.059 91.1139 211.442 96.1769 209.835C95.2542 213.694 94.3342 217.535 93.4115 221.394C88.438 224.107 83.3883 226.577 78.268 228.767C78.3589 229.513 78.4585 230.25 78.5521 230.977C83.3434 228.931 88.0792 226.654 92.7449 224.144C91.666 228.645 90.5957 233.139 89.5109 237.631C86.3825 239.19 83.2198 240.578 80.0109 241.773C80.1165 242.521 80.2248 243.25 80.3271 243.97C83.2036 242.89 86.0638 241.669 88.8784 240.303C88.2318 243.019 87.5793 245.724 86.9327 248.44C85.0907 249.372 83.2547 250.314 81.4215 251.238C81.533 251.996 81.65 252.717 81.761 253.429C83.2712 252.659 84.7814 251.89 86.2828 251.128C85.3157 255.184 84.3425 259.23 83.3667 263.293C83.9613 266.736 84.3204 268.596 84.3204 268.596C84.3204 268.596 85.4426 267.212 87.4518 264.611C88.5335 260.091 89.6151 255.572 90.6967 251.052C91.3751 253.183 92.1871 255.223 93.1007 257.187C93.5328 256.605 93.9737 256.015 94.4319 255.409C93.2917 252.855 92.3312 250.153 91.5884 247.299C92.3381 244.145 93.1024 240.994 93.852 237.84C95.1725 241.995 96.7802 245.934 98.6751 249.658C99.1073 249.076 99.5334 248.484 99.977 247.876C98.0032 243.927 96.3482 239.702 95.0477 235.263C94.9651 234.963 94.8048 234.781 94.619 234.67C96.0131 228.864 97.3985 223.067 98.7925 217.261C101.478 224.125 104.372 230.844 107.451 237.424C107.88 236.814 108.318 236.196 108.749 235.567C105.468 228.53 102.407 221.322 99.5785 213.965C100.824 208.748 102.079 203.523 103.325 198.306C107.138 207.656 111.157 216.88 115.356 225.955C115.787 225.327 116.204 224.696 116.638 224.049C112.25 214.538 108.065 204.872 104.097 195.054C105.624 188.658 107.161 182.253 108.688 175.857C113.392 188.473 118.503 200.826 123.999 212.905C124.419 212.256 124.838 211.607 125.267 210.95C119.583 198.417 114.32 185.577 109.488 172.47C110.494 168.254 111.509 164.029 112.515 159.813C119.596 172.383 126.676 184.954 133.757 197.525C134.153 196.881 134.549 196.238 134.954 195.587C127.709 182.714 120.455 169.848 113.204 156.964C115.164 148.782 117.124 140.6 119.083 132.419C125.821 150.288 133.371 167.634 141.702 184.377C142.104 183.697 142.497 183.026 142.899 182.347C134.399 165.18 126.711 147.397 119.886 129.06C121.676 121.565 123.471 114.08 125.269 106.577C135.096 124.798 144.929 143.029 154.756 161.25C155.132 160.548 155.513 159.856 155.879 159.162C145.905 140.669 135.931 122.176 125.949 103.69C126.632 100.832 127.315 97.973 128.004 95.1246C128.831 91.6493 129.674 88.1762 130.502 84.7009C141.614 104.359 152.732 124.027 163.843 143.684C164.198 142.97 164.561 142.248 164.909 141.523C153.666 121.641 142.425 101.742 131.182 81.8604C132.464 76.5008 133.746 71.1413 135.029 65.7817C148.046 84.434 161.064 103.086 174.09 121.731C174.409 121.002 174.728 120.273 175.041 119.533C161.985 100.838 148.938 82.1351 135.882 63.4398C135.807 63.3359 135.728 63.2681 135.648 63.2004C137.485 55.5368 139.313 47.8811 141.151 40.2175C154.769 60.9152 168.379 81.6207 181.998 102.318C182.287 101.539 182.585 100.751 182.875 99.9708C169.184 79.1511 155.494 58.3314 141.795 37.5196C143.172 31.7764 144.54 26.0412 145.918 20.298C160.975 38.4005 176.047 56.5053 191.104 74.6078C191.331 73.7907 191.55 72.9815 191.762 72.1622C176.679 54.0371 161.598 35.8938 146.514 17.7687C147.983 11.66 149.438 5.54904 150.907 -0.559686C167.003 14.7663 182.327 31.2337 196.818 48.7592C196.971 47.8381 197.121 46.9352 197.257 46.03C182.8 28.63 167.517 12.2801 151.465 -2.92824C153.834 -12.8439 156.218 -22.7572 158.587 -32.6728C173.032 -18.9968 186.881 -4.44883 200.117 10.8943C200.115 9.80158 200.103 8.73487 200.084 7.65799C187.105 -7.29419 173.529 -21.4671 159.402 -34.8077C159.316 -34.8856 159.227 -34.9454 159.127 -34.9792C160.12 -39.1516 161.126 -43.3218 162.118 -47.4942C174.066 -37.2269 186.005 -26.9517 197.947 -16.6945C197.77 -17.8141 197.575 -18.9179 197.377 -20.0035C185.808 -29.9445 174.239 -39.8855 162.679 -49.8345C163.671 -53.9605 164.658 -58.0967 165.642 -62.2148C164.293 -62.6707 162.909 -63.0485 161.524 -63.3618C161.248 -62.2188 160.972 -61.0759 160.696 -59.9329C147.657 -56.7008 134.618 -53.4686 121.588 -50.2444C120.663 -49.321 119.758 -48.3387 118.863 -47.318C132.617 -50.7187 146.365 -54.1296 160.127 -57.5383C159.238 -53.8502 158.363 -50.1599 157.473 -46.4718C141.223 -42.2762 124.97 -38.0624 108.719 -33.8668C108.13 -32.9846 107.544 -32.0742 106.963 -31.1535C123.605 -35.4561 140.255 -39.7666 156.902 -44.0591C155.527 -38.334 154.161 -32.6168 152.787 -26.8917C134.299 -22.5284 115.817 -18.1548 97.3293 -13.7915C96.9266 -12.9548 96.5239 -12.1182 96.1244 -11.2533C114.822 -15.6679 133.514 -20.0927 152.204 -24.4994C151.014 -19.5054 149.809 -14.5136 148.619 -9.51959C148.582 -9.37699 148.555 -9.24233 148.518 -9.09973C128.977 -3.25838 109.268 1.34458 89.4598 4.71016C89.1618 5.49798 88.8699 6.29596 88.5839 7.10412C108.486 3.76214 128.292 -0.835316 147.927 -6.65307C147.771 -6.01028 147.615 -5.3675 147.467 -4.73265C147.41 -4.60246 147.374 -4.45986 147.37 -4.33089C146.369 -0.150532 145.368 4.02982 144.359 8.21811C123.729 16.3192 102.859 23.217 81.808 28.9206C81.6041 29.732 81.3854 30.5412 81.1874 31.3628C102.33 25.7473 123.197 18.8675 143.834 10.823Z" fill="#286F7F"/>
<path d="M145.528 119.015C159.203 121.573 176.87 111.73 183.133 107.867C177.967 116.981 173.303 126.24 169.166 135.643C123.403 138.169 81.3782 167.124 81.3782 167.124C81.3782 167.124 91.5389 162.841 120.207 158.561C145.511 154.777 162.471 142.44 168.328 137.566C164.506 146.425 161.152 155.38 158.275 164.422C157.233 167.7 156.257 170.993 155.343 174.287C143.175 182.731 121.89 176.957 101.952 181.671C86.9474 185.213 73.2673 212.628 73.2673 212.628C73.2673 212.628 87.5116 189.658 110.889 192.486C129.561 194.746 148.423 180.394 155.279 174.523C152.385 185.015 150.131 195.602 148.532 206.243C144.346 207.155 130.375 210.374 116.694 215.29C100.577 221.091 66.3058 242.167 66.3058 242.167C66.3058 242.167 81.3497 241.578 101.985 235.496C118.656 230.576 142.448 211.91 148.397 207.106C147.1 215.955 146.244 224.841 145.841 233.759C141.72 235.249 127.789 240.367 113.498 246.577C96.4715 253.979 57.9735 287.261 57.9735 287.261C57.9735 287.261 70.6175 281.795 97.7524 270.428C121.078 260.649 140.746 240.275 145.81 234.744C145.474 242.785 145.5 250.845 145.896 258.918C143.497 264.698 138.476 282.057 143.965 317.706C150.417 359.631 155.164 372.459 155.164 372.459C155.164 372.459 165.277 295.716 148.347 259.313C147.974 251.995 147.924 244.826 148.134 237.804C152.492 244.629 168.628 268.829 190.244 288.073C215.666 310.695 223.944 316.315 223.944 316.315C223.944 316.315 189.403 268.195 172.736 254.63C159.584 243.933 151.155 238.491 148.18 236.661C148.525 227.072 149.395 217.76 150.688 208.766C155.021 215.372 172.189 239.976 192.142 248.22C215.277 257.781 227.013 277.498 227.013 277.498C227.013 277.498 219.71 255.365 191.223 236.874C167.592 221.532 154.545 211.177 150.781 208.08C152.515 196.28 154.977 185.017 157.993 174.338C161.301 180.504 172.301 198.991 190.366 210.041C212.291 223.455 233.831 248.235 233.831 248.235C233.831 248.235 213.219 209.539 187.952 189.908C169.729 175.75 161.662 172.846 158.571 172.326C162.079 160.199 166.279 148.827 170.837 138.277C173.082 144 181.344 162.452 200.387 179.976C223.293 201.062 241.049 217.319 241.049 217.319C241.049 217.319 198.321 149.155 171.394 136.976C175.983 126.523 180.921 116.898 185.928 108.16C187.414 113.411 192.937 129.071 208.279 141.069C226.976 155.688 232.509 165.531 238.466 179.723C238.466 179.723 230.246 148.007 217.394 136.273C202.359 122.553 190.514 116.844 186.113 107.84C189.459 102.004 192.831 96.5799 196.122 91.5674C222.618 51.3354 250.652 28.5024 250.934 28.2645C251.494 27.8065 251.656 26.8952 251.298 26.207C251.248 26.1227 251.198 26.0385 251.138 25.9606C250.744 25.4897 250.12 25.3989 249.624 25.7833C249.336 26.0098 221.034 49.0567 194.292 89.6349C190.657 95.1508 187.222 100.736 183.975 106.386C178.269 106.459 157.433 106.66 143.732 105.692C127.733 104.564 97.2426 134.372 97.2426 134.372C97.2426 134.372 128.613 115.848 145.528 119.015Z" fill="#E5674E"/>
<path d="M4.89645 501.482C4.89645 501.482 31.3509 675.354 95.8944 743.62C117.803 766.786 139.319 776.613 158.19 779.465C197.551 785.433 237.272 732.8 230.83 683.25C227.741 659.479 219.053 632.672 199.814 605.955C143.152 527.268 4.89645 501.482 4.89645 501.482Z" fill="#BAE3DD"/>
<path d="M167.647 693.017C163.448 687.941 159.248 682.89 155.049 677.814C164.307 647.256 173.575 616.683 182.834 586.124C182.302 585.583 181.759 585.057 181.217 584.53C171.98 615.013 162.743 645.496 153.515 675.964C149.544 671.18 145.573 666.372 141.602 661.587C150.126 632.271 159.579 603.176 169.976 574.394C169.432 573.939 168.888 573.485 168.353 573.04C158.007 601.655 148.559 630.583 140.05 659.718C136.234 655.123 132.418 650.504 128.602 645.909C137.548 618.348 146.504 590.772 155.45 563.21C154.877 562.798 154.312 562.396 153.728 561.998C144.845 589.355 135.961 616.712 127.077 644.068C123.079 639.231 119.08 634.418 115.082 629.58C121.826 603.428 129.349 577.413 137.651 551.584C137.066 551.234 136.472 550.874 135.887 550.524C127.659 576.063 120.191 601.791 113.494 627.648C109.377 622.684 105.25 617.71 101.143 612.732C107.432 589.278 114.462 565.97 122.223 542.87C121.628 542.559 121.023 542.237 120.428 541.925C112.761 564.705 105.805 587.698 99.5734 610.819C96.2233 606.768 92.8633 602.732 89.5132 598.681C94.5597 577.385 100.33 556.215 106.794 535.191C106.179 534.908 105.564 534.625 104.959 534.327C98.5895 554.984 92.8953 575.814 87.9069 596.729C83.817 591.794 79.7272 586.86 75.6374 581.925C78.6636 563.587 83.1704 545.317 89.075 527.373C88.4591 527.114 87.8334 526.868 87.2176 526.609C81.4288 544.134 77.0012 561.945 73.9303 579.866C72.5334 578.185 71.1457 576.514 69.7587 574.82C69.6864 574.373 69.4516 574 69.0282 573.945C68.024 572.731 67.0108 571.507 66.0066 570.293C67.8705 554.296 71.925 538.308 78.0009 522.962C77.3752 522.717 76.7488 522.495 76.1231 522.25C70.2489 537.145 66.2186 552.616 64.2085 568.112C61.1412 564.411 58.083 560.72 55.0156 557.019C57.3356 543.899 60.3903 530.843 64.1404 517.91C63.495 517.693 62.8686 517.472 62.233 517.241C58.5995 529.731 55.6338 542.313 53.3268 554.979C50.4788 551.536 47.6307 548.092 44.7819 544.673C47.3517 536.034 49.9222 527.371 52.4919 518.733C52.9105 517.303 53.3481 515.869 53.7666 514.44C53.1304 514.232 52.4941 514.025 51.8671 513.828C51.2399 515.948 50.5846 518.064 49.9581 520.16C47.7121 527.712 45.4759 535.25 43.2299 542.803C40.8198 539.898 38.4096 536.994 35.9995 534.089C37.302 526.176 38.8778 518.282 40.6889 510.416C40.0336 510.213 39.3777 510.035 38.7408 509.851C37.0285 517.231 35.5431 524.604 34.2832 532.02C31.4718 528.616 28.6597 525.235 25.8483 521.83C26.7815 516.928 27.8937 512.043 29.1657 507.18C28.5098 507.001 27.8539 506.823 27.2162 506.663C26.0621 511.035 25.0586 515.419 24.1778 519.81C22.4798 517.76 20.7818 515.711 19.0839 513.661C19.6195 510.778 20.165 507.88 20.6914 504.987C20.0164 504.813 19.3598 504.658 18.7222 504.499C18.2862 506.872 17.8311 509.249 17.3951 511.621C14.8573 508.557 12.3286 505.502 9.79084 502.437C6.62685 501.79 4.898 501.483 4.898 501.483C4.898 501.483 5.21543 503.595 5.88023 507.433C8.70079 510.847 11.5312 514.247 14.3609 517.671C12.1985 517.668 10.02 517.894 7.83671 518.288C7.99241 519.12 8.14742 519.975 8.32993 520.859C11.1478 520.399 13.9561 520.274 16.726 520.503C18.6975 522.892 20.6698 525.258 22.6414 527.647C18.439 527.648 14.1849 528.136 9.93615 529.099C10.1109 529.925 10.2757 530.766 10.4399 531.631C14.9345 530.658 19.4323 530.232 23.8567 530.393C24.1491 530.407 24.4173 530.273 24.6306 530.08C28.2642 534.456 31.8879 538.847 35.5215 543.223C28.2211 543.904 20.8921 544.925 13.5253 546.275C13.7092 547.111 13.8924 547.971 14.0946 548.827C21.9544 547.409 29.775 546.368 37.5847 545.71C40.853 549.649 44.1213 553.588 47.3706 557.531C37.3087 558.683 27.2189 560.15 17.1111 561.918C17.3133 562.774 17.5162 563.606 17.7275 564.472C28.3101 562.615 38.8732 561.109 49.407 559.965C53.4052 564.802 57.4132 569.625 61.4022 574.453C48.145 575.392 34.8024 577.006 21.4041 579.25C21.6253 580.101 21.8465 580.953 22.0677 581.804C35.9492 579.506 49.7637 577.9 63.5105 577.012C66.1485 580.208 68.7871 583.38 71.4159 586.566C56.5365 590.739 41.6663 594.922 26.7869 599.095C27.0186 599.908 27.2504 600.721 27.4913 601.544C42.7326 597.262 57.9641 592.995 73.1963 588.703C78.3086 594.871 83.43 601.049 88.5423 607.218C69.7187 608.633 50.7336 611.405 31.6735 615.479C31.9236 616.311 32.1927 617.14 32.452 617.982C51.9572 613.863 71.3762 611.108 90.6513 609.753C95.3342 615.416 100.027 621.065 104.701 626.718C83.4384 632.177 62.1762 637.636 40.9042 643.108C41.2022 643.918 41.491 644.718 41.7889 645.527C63.3652 639.983 84.9513 634.424 106.528 628.88C108.307 631.041 110.097 633.188 111.877 635.349C114.049 637.977 116.222 640.604 118.395 643.208C95.089 649.801 71.802 656.389 48.496 662.981C48.8228 663.772 49.1405 664.553 49.4673 665.344C73.0304 658.679 96.5934 652.014 120.175 645.345C123.526 649.396 126.886 653.432 130.236 657.483C106.419 667.084 82.583 676.689 58.7661 686.29C59.1225 687.038 59.4788 687.786 59.8451 688.52C83.7288 678.892 107.613 669.264 131.496 659.635C131.63 659.58 131.746 659.505 131.843 659.411C136.636 665.191 141.428 670.971 146.211 676.765C120.347 686.288 94.4927 695.821 68.6288 705.344C69.0422 706.079 69.4557 706.814 69.8789 707.534C95.8766 697.956 121.893 688.373 147.891 678.795C151.479 683.122 155.066 687.45 158.663 691.787C133.845 704.393 109.045 716.994 84.2263 729.6C84.708 730.259 85.2087 730.914 85.7002 731.559C110.548 718.935 135.395 706.311 160.233 693.701C164.058 698.305 167.874 702.924 171.699 707.528C148.374 722.731 124.668 736.395 100.705 748.478C101.32 749.083 101.945 749.673 102.561 750.253C126.402 738.162 149.967 724.496 173.178 709.32C179.386 716.8 185.575 724.285 191.783 731.764C170.91 745.428 149.758 757.933 128.404 769.261C129.269 769.736 130.125 770.176 130.981 770.617C151.839 759.477 172.503 747.193 192.896 733.809C193.021 733.72 193.118 733.626 193.225 733.518C195.836 736.66 198.437 739.817 201.049 742.959C184.611 754.725 168.175 766.467 151.738 778.233C152.751 778.47 153.746 778.688 154.76 778.878C170.676 767.496 186.593 756.114 202.519 744.718C205.102 747.831 207.686 750.945 210.26 754.072C211.572 752.433 212.829 750.735 214.032 748.978C213.31 748.114 212.598 747.259 211.887 746.38C218.399 727.33 224.901 708.294 231.413 689.245C231.319 687.591 231.177 685.936 230.988 684.305C224.125 704.388 217.252 724.485 210.389 744.568C208.089 741.781 205.77 738.998 203.47 736.21C211.44 712.396 219.411 688.582 227.4 664.763C227.103 663.585 226.797 662.397 226.472 661.213C218.306 685.608 210.139 710.003 201.964 734.389C198.385 730.071 194.807 725.753 191.228 721.435C200.628 694.528 210.018 667.611 219.418 640.703C219.037 639.806 218.648 638.899 218.249 637.983C208.746 665.199 199.243 692.416 189.74 719.633C186.618 715.874 183.496 712.091 180.374 708.331C180.282 708.234 180.2 708.122 180.119 708.011C189.086 679.042 199.141 650.364 210.251 622.092C209.828 621.347 209.396 620.617 208.973 619.872C197.784 648.258 187.641 677.063 178.604 706.156C178.202 705.68 177.801 705.18 177.399 704.704C177.337 704.564 177.245 704.466 177.143 704.407C174.523 701.255 171.912 698.088 169.292 694.936C177.225 663.512 186.266 632.279 196.405 601.323C195.903 600.692 195.402 600.061 194.9 599.43C184.687 630.38 175.617 661.608 167.647 693.017Z" fill="#97C9CE"/>
<path d="M152.727 642.457C165.967 635.576 185.667 640.047 192.721 642.002C185.719 634.382 179.206 626.435 173.197 618.2C126.692 629.944 78.7272 613.74 78.7272 613.74C78.7272 613.74 89.7823 614.906 119.443 610.283C145.618 606.2 165.113 613.407 171.956 616.525C166.363 608.741 161.223 600.701 156.535 592.425C154.835 589.434 153.216 586.394 151.644 583.341C137.755 578.575 117.48 591.11 96.5295 592.57C80.7429 593.661 61.5843 570.15 61.5843 570.15C61.5843 570.15 80.4409 588.99 103.379 578.809C121.696 570.669 143.503 579.327 151.551 583.139C146.568 573.412 142.214 563.374 138.486 553.062C134.097 553.442 119.425 554.565 104.69 553.841C87.342 552.991 48.7378 542.339 48.7378 542.339C48.7378 542.339 63.9755 538.215 85.9238 537.942C103.648 537.705 131.264 549.21 138.192 552.223C135.14 543.656 132.521 534.907 130.349 525.98C125.912 525.761 110.906 524.93 95.3072 523.092C76.7113 520.874 31.4405 499.153 31.4405 499.153C31.4405 499.153 45.2259 500.745 74.7472 503.789C100.127 506.398 123.916 520.916 130.1 524.956C128.174 516.899 126.614 508.713 125.406 500.394C121.848 495.274 113.364 479.247 111.841 441.348C110.041 396.788 112.26 382.289 112.26 382.289C112.26 382.289 137.61 456.992 127.791 499.21C128.857 506.746 130.219 514.048 131.833 521.091C134.859 512.796 146.294 483.197 164.214 456.924C185.291 426.012 192.491 417.733 192.491 417.733C192.491 417.733 167.293 477.355 153.224 496.346C142.125 511.307 134.731 519.487 132.086 522.27C134.329 531.895 137.042 541.056 140.128 549.781C143.183 541.738 155.558 511.384 173.986 496.78C195.351 479.849 203.238 456.167 203.238 456.167C203.238 456.167 200.284 480.91 175.306 508.58C154.592 531.545 143.537 546.128 140.358 550.44C144.438 561.865 149.134 572.517 154.274 582.415C156.387 575.127 163.775 552.94 179.75 536.064C199.13 515.591 215.886 483.725 215.886 483.725C215.886 483.725 202.826 529.444 181.314 557.26C165.797 577.331 158.265 582.794 155.267 584.291C161.193 595.505 167.659 605.727 174.337 614.996C175.461 608.476 180.113 587.184 195.796 563.435C214.648 534.874 229.273 512.824 229.273 512.824C229.273 512.824 199.815 595.353 175.152 616.124C181.821 625.296 188.701 633.515 195.464 640.82C195.928 635.03 198.366 617.394 211.415 600.433C227.318 579.755 230.927 568.038 234.115 551.772C234.115 551.772 232.133 586.531 221.537 602.45C209.14 621.076 198.372 630.576 195.723 641.08C200.232 645.944 204.694 650.4 209.014 654.457C243.604 687.01 276.296 701.394 276.61 701.545C277.272 701.831 277.609 702.712 277.377 703.529C277.354 703.641 277.3 703.731 277.262 703.822C276.954 704.419 276.342 704.714 275.77 704.476C275.439 704.342 242.433 689.807 207.535 657.009C202.794 652.559 198.235 647.957 193.854 643.242C188.109 644.943 167.12 651.265 153.535 656.535C137.681 662.677 101.131 641.99 101.131 641.99C101.131 641.99 136.339 650.952 152.727 642.457Z" fill="#FCF4DF"/>
<path d="M24.7361 195.173C24.7361 195.173 146.83 132.418 197.52 50.635C214.722 22.8874 222.644 -1.78293 225.588 -22.272C231.737 -64.9893 197.208 -96.3517 162.463 -79.6217C145.8 -71.5995 126.742 -57.0541 107.216 -31.4108C49.6805 44.1601 24.7361 195.173 24.7361 195.173Z" fill="#1A4143"/>
<path d="M166.109 -15.0283C162.375 -9.57578 158.64 -4.13539 154.907 1.31714C134.145 -2.32564 113.382 -5.98057 92.6095 -9.62006C92.2081 -8.94614 91.8068 -8.27222 91.418 -7.58945C112.123 -3.95446 132.828 -0.31948 153.533 3.31551C150.005 8.46144 146.469 13.6228 142.941 18.7687C123.008 15.6579 103.273 11.5031 83.8025 6.3089C83.4665 6.97518 83.1179 7.63261 82.7819 8.29888C102.141 13.4897 121.744 17.6476 141.558 20.7826C138.165 25.7333 134.773 30.684 131.38 35.6347C112.681 31.7174 93.9927 27.7969 75.2939 23.8796C74.9829 24.5635 74.6719 25.2475 74.3629 25.9436C92.9126 29.8309 111.475 33.7271 130.025 37.6144C126.471 42.8066 122.905 47.99 119.352 53.1823C101.527 51.3136 83.8304 48.5885 66.3144 44.9906C66.039 45.689 65.7616 46.3752 65.4968 47.0702C82.8196 50.6392 100.316 53.363 117.943 55.2424C114.281 60.5836 110.618 65.9247 106.958 71.278C90.9851 69.3409 75.1484 66.5961 59.5022 63.0391C59.2479 63.7309 59.0061 64.4315 58.7518 65.1232C74.1923 68.6425 89.8061 71.3804 105.558 73.3227C102.578 77.6723 99.5875 82.0253 96.6077 86.375C82.0745 85.315 67.6492 83.4815 53.3762 80.8732C53.1469 81.5827 52.9157 82.28 52.6864 82.9894C66.7221 85.5698 80.8908 87.3942 95.1714 88.4693C91.5366 93.7762 87.9019 99.0832 84.2671 104.39C71.6805 104.878 59.2157 103.784 47.0553 101.141C46.8472 101.844 46.639 102.547 46.4328 103.262C58.3078 105.854 70.4652 106.967 82.7514 106.611C81.5121 108.414 80.2747 110.23 79.0353 112.033C78.7178 112.196 78.4595 112.519 78.3889 112.975C77.4919 114.288 76.593 115.59 75.696 116.903C64.6847 118.149 53.7765 117.079 43.4229 113.744C43.2273 114.456 43.0297 115.155 42.8341 115.867C52.8798 119.081 63.4232 120.227 74.0885 119.242C71.3593 123.22 68.6406 127.195 65.9114 131.173C56.9134 131.356 48.0002 130.76 39.2056 129.387C39.0225 130.108 38.8375 130.816 38.6544 131.537C47.1423 132.865 55.7461 133.468 64.4129 133.363C61.8827 137.062 59.3399 140.752 56.8096 144.451C50.9284 143.469 45.0597 142.496 39.1785 141.515C38.2105 141.358 37.228 141.18 36.26 141.023C36.0875 141.74 35.9129 142.445 35.7384 143.15C37.1852 143.387 38.6147 143.655 40.0403 143.899C45.1698 144.758 50.2973 145.606 55.4268 146.465C53.2819 149.597 51.1456 152.714 49.0007 155.846C43.5768 156.048 38.1664 155.991 32.7869 155.643C32.6163 156.372 32.4563 157.098 32.2943 157.812C37.3269 158.141 42.3876 158.231 47.4639 158.074C44.9594 161.727 42.4655 165.376 39.959 169.016C36.5972 169.008 33.2628 168.825 29.9516 168.443C29.7936 169.182 29.6441 169.904 29.4927 170.615C32.4635 170.95 35.4675 171.147 38.4797 171.188C36.9726 173.394 35.4636 175.587 33.9566 177.793C31.9726 177.8 29.9906 177.82 28.0171 177.824C27.861 178.575 27.7221 179.294 27.5813 180.002C29.2097 179.99 30.8382 179.979 32.4561 179.971C30.2041 183.264 27.9502 186.545 25.6876 189.842C25.0579 193.291 24.7517 195.173 24.7517 195.173C24.7517 195.173 26.2375 194.415 28.9393 192.946C31.4524 189.278 33.9655 185.61 36.4785 181.942C36.3696 184.221 36.4125 186.478 36.5734 188.712C37.1622 188.375 37.7616 188.034 38.3821 187.687C38.2162 184.805 38.2634 181.869 38.5594 178.894C40.3083 176.332 42.0699 173.779 43.8188 171.217C43.6045 175.659 43.7234 180.036 44.1754 184.347C44.7642 184.01 45.3511 183.66 45.9591 183.305C45.512 178.75 45.447 174.089 45.7758 169.393C45.8027 169.079 45.7193 168.837 45.589 168.648C48.8212 163.939 52.0428 159.233 55.2751 154.524C55.3773 162.095 55.7177 169.63 56.2732 177.123C56.8687 176.758 57.4747 176.39 58.0788 176.01C57.4957 168.003 57.1699 159.94 57.1054 151.847C60.0038 147.612 62.9128 143.374 65.8113 139.139C66.0907 149.525 66.5998 159.89 67.3219 170.202C67.926 169.821 68.5175 169.433 69.1302 169.037C68.3844 158.236 67.8747 147.386 67.6138 136.497C71.1673 131.304 74.7313 126.109 78.2848 120.916C78.2631 134.726 78.6985 148.482 79.5766 162.163C80.1768 161.759 80.7769 161.355 81.3876 160.947C80.4944 146.76 80.0861 132.485 80.1581 118.163C82.5 114.739 84.8524 111.313 87.1943 107.889C89.3397 122.757 91.4851 137.624 93.6304 152.492C94.2075 152.082 94.7845 151.672 95.3722 151.259C93.1805 136.036 90.9783 120.816 88.7846 105.581C93.3355 98.942 97.8865 92.3028 102.437 85.6636C102.474 105.259 103.424 124.748 105.286 144.041C105.88 143.6 106.464 143.163 107.058 142.722C105.187 122.96 104.261 103.004 104.304 82.9373C108.468 76.8529 112.633 70.7806 116.807 64.6928C119.522 86.0412 122.239 107.402 124.954 128.75C125.532 128.276 126.111 127.815 126.679 127.344C123.923 105.677 121.168 84.009 118.402 62.3448C119.991 60.0244 121.579 57.704 123.169 55.3957C125.098 52.5735 127.039 49.7601 128.968 46.9379C132.359 70.2056 135.752 93.4854 139.142 116.753C139.706 116.258 140.28 115.76 140.841 115.253C137.407 91.7181 133.982 68.1678 130.548 44.6329C133.528 40.2832 136.507 35.9336 139.487 31.5839C144.944 54.8056 150.402 78.0273 155.869 101.246C156.406 100.721 156.942 100.196 157.476 99.6593C151.999 76.3802 146.532 53.0978 141.054 29.8187C141.022 29.6884 140.973 29.589 140.923 29.4896C145.188 23.2717 149.441 17.0571 153.705 10.8392C159.013 36.2252 164.31 61.6145 169.617 87.0005C170.144 86.4151 170.681 85.8263 171.207 85.2409C165.876 59.7091 160.545 34.1773 155.203 8.64889C158.399 3.98932 161.585 -0.666948 164.781 -5.32652C172.271 18.3315 179.774 41.9983 187.265 65.6563C187.748 65.0078 188.221 64.3627 188.691 63.7054C181.184 40.0143 173.686 16.3078 166.179 -7.38336C169.582 -12.3374 172.973 -17.3003 176.376 -22.2543C185.749 -0.676819 194.037 21.5969 201.211 44.4609C201.662 43.6821 202.104 42.9189 202.534 42.1467C195.348 19.4141 187.059 -2.73156 177.684 -24.181C183.194 -32.2296 188.717 -40.2694 194.227 -48.3181C202.665 -29.0255 210.269 -9.20421 217.046 11.0665C217.415 10.058 217.766 9.06839 218.114 8.06658C211.436 -11.7249 203.954 -31.0737 195.689 -49.9102C195.638 -50.0217 195.578 -50.1178 195.499 -50.1952C197.813 -53.5843 200.14 -56.9645 202.454 -60.3536C209.788 -45.3595 217.111 -30.362 224.443 -15.3801C224.662 -16.4946 224.861 -17.6026 225.05 -18.6951C217.948 -33.2132 210.846 -47.7313 203.755 -62.2527C206.054 -65.5988 208.351 -68.957 210.639 -72.2998C209.572 -73.3442 208.448 -74.3323 207.3 -75.262C206.662 -74.3356 206.024 -73.4093 205.386 -72.4829C192.484 -75.532 179.581 -78.5812 166.689 -81.6336C165.538 -81.2101 164.385 -80.7226 163.228 -80.1953C176.836 -76.9708 190.441 -73.7586 204.059 -70.5374C202.002 -67.5476 199.958 -64.5489 197.901 -61.5591C181.763 -65.205 165.617 -68.8354 149.48 -72.4813C148.646 -71.9404 147.807 -71.3719 146.969 -70.7912C163.497 -67.0631 180.035 -63.3384 196.565 -59.5982C193.377 -54.954 190.201 -50.3132 187.013 -45.6691C168.793 -50.1951 150.575 -54.7089 132.354 -59.2349C131.706 -58.6496 131.057 -58.0643 130.402 -57.4514C148.83 -52.8755 167.256 -48.3117 185.674 -43.7325C182.901 -39.6773 180.117 -35.6309 177.344 -31.5757C177.263 -31.461 177.192 -31.3496 177.111 -31.2349C157.435 -34.8852 138.028 -39.7548 118.951 -45.8117C118.413 -45.223 117.878 -44.6221 117.345 -44.009C136.5 -37.8869 155.992 -32.9675 175.746 -29.252C175.386 -28.7314 175.026 -28.2109 174.677 -27.6937C174.582 -27.6 174.5 -27.4852 174.453 -27.3683C172.128 -23.9759 169.803 -20.5835 167.468 -17.1879C146.04 -19.2575 124.803 -22.5476 103.807 -27.0229C103.347 -26.369 102.874 -25.7238 102.416 -25.0577C123.465 -20.4587 144.694 -17.1531 166.109 -15.0283Z" fill="#2F8C91"/>
</g>
<defs>
<clipPath id="clip0">
<rect width="708" height="125" fill="white" transform="translate(125) rotate(90)"/>
</clipPath>
</defs>
</svg>