<svg width="708" height="125" viewBox="0 0 708 125" fill="none" xmlns="http://www.w3.org/2000/svg">
<g clip-path="url(#clip0)">
<path d="M274.265 110.75C274.265 110.75 484 110.074 613.689 60.9326C657.696 44.2618 687.054 26.1583 706.621 9.5049C747.431 -25.2101 725.666 -68.0758 666.843 -68.8727C638.634 -69.2559 602.265 -64.9856 556.788 -51.1941C422.781 -10.5464 274.265 110.75 274.265 110.75Z" fill="#2F8C91"/>
<path d="M621.548 -10.6542C612.451 -7.54148 603.362 -4.44024 594.265 -1.32752C569.594 -13.7403 544.929 -26.1645 520.241 -38.5791C519.196 -38.1676 518.151 -37.7562 517.116 -37.3315C541.719 -24.9508 566.321 -12.5701 590.924 -0.189336C582.333 2.74642 573.719 5.69188 565.129 8.62764C541.147 -2.95127 518.224 -15.356 496.443 -28.5528C495.49 -28.119 494.528 -27.6986 493.575 -27.2648C515.211 -14.1206 537.957 -1.77204 561.764 9.77553C553.501 12.6004 545.237 15.4252 536.974 18.2501C515.239 6.5137 493.521 -5.22088 471.787 -16.9573C470.854 -16.4969 469.921 -16.0366 468.981 -15.5647C490.541 -3.92078 512.111 7.73645 533.672 19.3804C525.012 22.3452 516.342 25.2968 507.682 28.2616C485.54 18.7064 464.221 8.45858 443.807 -2.47278C442.91 -1.98402 442.019 -1.50676 441.139 -1.01619C461.32 9.80401 482.376 19.9618 504.248 29.4386C495.33 32.4852 486.412 35.5319 477.488 38.5901C457.847 29.798 439.002 20.3594 421.029 10.2946C420.165 10.787 419.31 11.2927 418.446 11.785C436.177 21.7253 454.732 31.0589 474.076 39.7573C466.818 42.2398 459.543 44.7204 452.284 47.2028C433.877 39.8178 416.203 31.8037 399.322 23.1793C398.477 23.6983 397.64 24.2058 396.795 24.7248C413.384 33.2192 430.726 41.1113 448.787 48.3974C439.932 51.4264 431.077 54.4555 422.222 57.4846C405.208 52.319 389.562 45.8233 375.5 38.1071C374.689 38.6297 373.877 39.1523 373.059 39.6864C386.782 47.231 402.007 53.6071 418.523 58.7549C415.509 59.7822 412.488 60.821 409.473 61.8483C408.929 61.8498 408.341 62.0177 407.9 62.3852C405.712 63.1361 403.53 63.8755 401.342 64.6264C385.833 60.8241 372.226 55.041 361.082 47.5221C360.28 48.0579 359.485 48.5823 358.683 49.1182C369.513 56.3948 382.579 62.082 397.432 65.9592C390.788 68.2277 384.161 70.498 377.517 72.7665C365.481 68.9287 354.15 64.4467 343.57 59.3376C342.778 59.8868 341.993 60.4245 341.201 60.9737C351.41 65.9076 362.326 70.2585 373.865 74.0174C367.697 76.1301 361.52 78.2295 355.352 80.3422C348.325 76.8698 341.308 73.4106 334.281 69.9382C333.121 69.3708 331.957 68.7787 330.797 68.2113C330.022 68.7623 329.253 69.3018 328.484 69.8413C330.216 70.6914 331.902 71.561 333.601 72.4075C339.728 75.4389 345.861 78.4587 351.987 81.4901C346.761 83.278 341.559 85.0562 336.333 86.844C329.007 84.6108 321.898 82.1565 315.05 79.462C314.268 80.0245 313.503 80.5888 312.744 81.1416C319.147 83.6652 325.77 85.9927 332.601 88.1107C326.503 90.1944 320.421 92.2798 314.329 94.3519C309.891 92.8507 305.622 91.209 301.535 89.4039C300.763 89.9797 300.014 90.5458 299.271 91.1004C302.944 92.7134 306.765 94.2205 310.716 95.595C307.041 96.8556 303.372 98.1047 299.696 99.3653C297.068 98.4903 294.432 97.6268 291.82 96.7536C291.041 97.3409 290.308 97.9088 289.582 98.4652C291.744 99.179 293.905 99.8927 296.051 100.605C290.561 102.486 285.077 104.356 279.57 106.235C276.106 108.974 274.265 110.485 274.265 110.485C274.265 110.485 276.808 110.482 281.501 110.397C287.622 108.303 293.744 106.21 299.865 104.117C297.982 106.063 296.317 108.057 294.826 110.083C295.861 110.05 296.914 110.018 297.999 109.99C299.978 107.394 302.281 104.846 304.942 102.374C309.21 100.909 313.487 99.4572 317.754 97.9924C314.081 101.785 310.899 105.668 308.207 109.641C309.243 109.608 310.285 109.563 311.361 109.522C314.245 105.337 317.716 101.229 321.733 97.2664C322.008 97.003 322.082 96.7544 322.054 96.5311C329.921 93.8463 337.771 91.1596 345.638 88.4748C339.996 95.1456 334.697 101.891 329.715 108.695C330.78 108.64 331.862 108.588 332.951 108.523C338.29 101.257 344.01 94.0566 350.1 86.9457C357.164 84.5275 364.244 82.1111 371.307 79.693C363.752 88.9059 356.517 98.2027 349.604 107.547C350.693 107.483 351.772 107.405 352.883 107.331C360.139 97.5477 367.743 87.8266 375.707 78.1815C384.367 75.2166 393.043 72.2536 401.703 69.2887C391.138 81.3638 381.218 93.5951 371.94 105.958C373.042 105.871 374.144 105.784 375.263 105.698C384.906 92.8863 395.258 80.213 406.281 67.7112C411.989 65.756 417.714 63.8027 423.423 61.8475C414.916 75.8113 406.408 89.775 397.901 103.739C398.977 103.636 400.053 103.534 401.145 103.434C409.862 89.1383 418.563 74.8411 427.287 60.5342C438.369 56.7463 449.452 52.9584 460.535 49.1706C445.632 66.3349 432.019 83.8118 419.76 101.523C420.882 101.401 421.988 101.277 423.11 101.156C435.714 83.0303 449.716 65.1557 465.083 47.6142C475.231 44.1397 485.371 40.6766 495.535 37.2039C482.836 57.0922 470.13 76.9921 457.431 96.8805C458.557 96.7225 459.676 96.576 460.785 96.4162C473.674 76.2307 486.563 56.0452 499.436 35.8578C503.306 34.533 507.177 33.2081 511.041 31.8948C515.744 30.2821 520.458 28.6827 525.161 27.0699C511.891 48.9381 498.615 70.8178 485.345 92.686C486.467 92.5032 487.606 92.3222 488.735 92.1279C502.152 70.0068 515.592 47.8759 529.009 25.7548C536.267 23.2724 543.526 20.7899 550.784 18.3075C540.282 41.0536 529.779 63.7997 519.293 86.5476C520.403 86.3267 521.512 86.1058 522.629 85.8735C533.148 63.0681 543.684 40.2645 554.203 17.4591C554.26 17.3308 554.271 17.2219 554.281 17.113C564.663 13.5663 575.029 10.0178 585.411 6.47115C573.059 31.0448 560.691 55.6166 548.34 80.1903C549.482 79.9119 550.642 79.6353 551.785 79.3569C564.216 54.6453 576.648 29.9337 589.063 5.22025C596.844 2.56267 604.608 -0.0967169 612.389 -2.7543C604.242 21.2771 596.106 45.3219 587.959 69.3533C589.092 69.0005 590.209 68.6459 591.333 68.2798C599.483 44.2121 607.657 20.1347 615.807 -3.93307C624.087 -6.75612 632.357 -9.59246 640.637 -12.4155C636.566 10.6315 630.529 33.8056 622.569 57.0015C623.76 56.5204 624.927 56.049 626.085 55.5643C633.928 32.4781 639.865 9.41534 643.836 -13.5203C657.263 -18.1155 670.699 -22.6973 684.125 -27.2925C680.562 -6.66016 675.492 14.0638 668.986 34.8141C670.244 34.0958 671.463 33.3854 672.688 32.6635C678.959 12.3768 683.829 -7.87998 687.273 -28.0361C687.29 -28.1565 687.284 -28.2672 687.239 -28.37C692.884 -30.3076 698.54 -32.2318 704.185 -34.1694C702.442 -17.7893 700.682 -1.41111 698.945 14.9574C700.086 14.0795 701.193 13.198 702.277 12.3262C703.964 -3.53415 705.652 -19.3945 707.355 -35.2531C712.948 -37.1597 718.547 -39.0779 724.123 -40.9864C723.509 -42.3744 722.777 -43.7388 721.968 -45.0625C720.418 -44.5353 718.867 -44.008 717.317 -43.4807C702.584 -51.882 687.851 -60.2832 673.134 -68.6826C671.289 -68.8237 669.393 -68.909 667.461 -68.9617C682.992 -60.0939 698.53 -51.2376 714.078 -42.368C709.077 -40.6656 704.086 -38.9498 699.085 -37.2474C680.53 -47.6082 661.952 -57.9593 643.397 -68.3201C641.883 -68.217 640.338 -68.0926 638.788 -67.9567C657.796 -57.3506 676.821 -46.7426 695.823 -36.125C688.065 -33.4771 680.324 -30.8274 672.566 -28.1795C651.929 -40.236 631.284 -52.281 610.647 -64.3374C609.343 -64.1134 608.039 -63.8894 606.705 -63.6441C627.579 -51.4517 648.46 -39.2707 669.317 -27.0801C662.558 -24.7631 655.788 -22.4595 649.029 -20.1425C648.834 -20.0783 648.655 -20.0122 648.46 -19.948C625.23 -31.8849 603.286 -44.7694 582.683 -58.5464C581.524 -58.2698 580.358 -57.9818 579.185 -57.6822C599.84 -43.8138 621.859 -30.8477 645.142 -18.8195C644.269 -18.5237 643.397 -18.228 642.541 -17.9304C642.342 -17.8909 642.147 -17.8267 641.995 -17.7455C636.333 -15.8098 630.671 -13.874 624.993 -11.9401C598.24 -23.2723 572.67 -35.5877 548.325 -48.833C547.217 -48.4652 546.1 -48.1105 544.986 -47.7311C569.308 -34.3539 594.854 -22.0288 621.548 -10.6542Z" fill="#286F7F"/>
<path d="M376.892 33.5255C376.892 33.5255 273.929 -32.1218 172.481 -46.1566C138.049 -50.9179 109.672 -50.2884 87.2073 -47.3686C40.3468 -41.2862 17.7361 -11.0678 45.8428 7.8778C59.3255 16.9674 80.3932 26.0894 113.312 32.8875C210.264 52.9091 376.892 33.5255 376.892 33.5255Z" fill="#BAE3DD"/>
<path d="M112.92 -9.83373C119.788 -8.66011 126.646 -7.49647 133.513 -6.32285C135.939 8.23246 138.36 22.7957 140.786 37.351C141.613 37.4576 142.445 37.5562 143.278 37.6548C140.86 23.1354 138.443 8.61593 136.02 -5.89553C142.508 -4.79209 149.006 -3.67868 155.494 -2.57524C158.224 11.3108 159.815 25.3071 160.21 39.3798C161.015 39.4485 161.819 39.5172 162.609 39.5838C162.226 25.5908 160.7 11.6643 158.03 -2.1439C164.263 -1.08459 170.506 -0.0153141 176.74 1.04399C178.256 14.3009 179.768 27.5657 181.284 40.8226C182.104 40.8673 182.91 40.9101 183.735 40.9469C182.234 27.7877 180.733 14.6285 179.232 1.46931C185.773 2.58875 192.305 3.69821 198.845 4.81765C202.251 17.0184 204.72 29.3317 206.234 41.7375C207.04 41.7544 207.861 41.7732 208.668 41.7901C207.192 29.5198 204.781 17.3361 201.448 5.26701C208.176 6.41257 214.919 7.56013 221.642 8.71366C224.425 19.708 226.311 30.8029 227.285 41.9705C228.087 41.9694 228.904 41.9703 229.706 41.9693C228.76 30.9531 226.922 20.0037 224.216 9.15899C229.695 10.0959 235.18 11.0248 240.66 11.9617C243.934 21.8006 246.34 31.7442 247.902 41.7785C248.714 41.7615 249.527 41.7445 250.334 41.7354C248.819 31.8725 246.47 22.0845 243.291 12.4151C249.976 13.5546 256.661 14.6941 263.346 15.8336C267.652 24.0196 270.262 32.4986 271.159 41.147C271.962 41.12 272.77 41.0851 273.573 41.0581C272.722 32.607 270.217 24.3334 266.136 16.3091C268.418 16.6963 270.684 17.0815 272.96 17.4767C273.23 17.6444 273.651 17.7465 274.151 17.6774C275.794 17.9582 277.451 18.2411 279.093 18.522C283.724 25.4946 285.883 32.9387 285.494 40.5573C286.302 40.5224 287.101 40.4774 287.909 40.4425C288.261 33.053 286.292 25.8263 282.037 19.0275C287.051 19.8821 292.05 20.7348 297.064 21.5894C299.97 27.4799 302.022 33.5029 303.238 39.6267C304.057 39.5758 304.855 39.5308 305.669 39.4879C304.508 33.5715 302.555 27.7618 299.825 22.0609C304.483 22.8573 309.142 23.6538 313.791 24.4403C314.53 28.5446 315.278 32.6589 316.018 36.7632C316.148 37.441 316.258 38.1247 316.388 38.8025C317.192 38.7496 317.996 38.6966 318.786 38.6417C318.6 37.6351 318.449 36.6245 318.272 35.6278C317.625 32.0397 316.973 28.4597 316.326 24.8716C320.264 25.5417 324.202 26.2118 328.14 26.8819C330.002 30.4135 331.548 33.9966 332.817 37.6192C333.641 37.5604 334.455 37.4915 335.25 37.4286C334.075 34.0273 332.646 30.6775 330.945 27.3594C335.546 28.1478 340.137 28.9262 344.738 29.7146C345.749 31.9299 346.551 34.1769 347.164 36.4496C347.978 36.3807 348.793 36.3119 349.578 36.239C349.039 34.1937 348.325 32.176 347.47 30.1821C350.246 30.6555 353.022 31.129 355.797 31.6025C356.407 32.9026 357.012 34.2106 357.636 35.5127C358.47 35.4379 359.275 35.3591 360.06 35.2863C359.553 34.2175 359.066 33.1427 358.559 32.0739C362.708 32.7821 366.843 33.4883 370.992 34.1965C374.83 33.7763 376.907 33.5275 376.907 33.5275C376.907 33.5275 375.661 32.7289 373.297 31.2973C368.682 30.5069 364.062 29.7244 359.432 28.932C361.87 28.4644 364.23 27.8991 366.524 27.2639C365.999 26.9564 365.465 26.6389 364.887 26.3154C361.905 27.1152 358.793 27.7754 355.576 28.2819C352.348 27.7282 349.131 27.1845 345.904 26.6308C350.639 25.7194 355.227 24.5966 359.61 23.2802C359.065 22.9786 358.525 22.6691 357.976 22.3496C353.321 23.7235 348.432 24.8739 343.379 25.767C343.043 25.8245 342.798 25.9378 342.638 26.0632C336.702 25.054 330.772 24.0369 324.836 23.0278C332.776 21.1653 340.605 19.1573 348.338 17.0056C347.779 16.702 347.21 16.3885 346.622 16.0809C338.362 18.3675 329.988 20.4905 321.464 22.454C316.124 21.5451 310.784 20.6363 305.463 19.7215C316.317 17.0672 327.069 14.2772 337.715 11.3595C337.127 11.052 336.548 10.7544 335.946 10.4448C324.802 13.5014 313.533 16.4104 302.144 19.1638C295.603 18.0443 289.057 16.9328 282.531 15.8154C297.075 12.5554 311.431 9.00017 325.584 5.1737C324.977 4.87207 324.369 4.57045 323.762 4.26883C309.087 8.22227 294.195 11.8765 279.078 15.2216C274.761 14.4813 270.453 13.751 266.15 13.0128C281.161 8.07322 296.157 3.13164 311.168 -1.80793C310.565 -2.09161 309.962 -2.37529 309.344 -2.66098C293.971 2.40174 278.603 7.45651 263.245 12.5212C254.889 11.0968 246.518 9.67041 238.162 8.24599C258.777 3.58378 279.004 -1.67079 298.768 -7.47593C298.135 -7.76362 297.484 -8.04537 296.837 -8.33507C276.591 -2.41489 255.868 2.92681 234.718 7.66216C227.058 6.35213 219.394 5.05006 211.748 3.74204C233.41 -3.10925 255.073 -9.96055 276.74 -16.8198C276.064 -17.0876 275.402 -17.3534 274.725 -17.6213C252.745 -10.6667 230.76 -3.70415 208.78 3.25042C205.865 2.7489 202.945 2.25534 200.03 1.75382C196.476 1.14595 192.923 0.538076 189.378 -0.0598188C212.866 -7.81984 236.335 -15.5739 259.823 -23.3339C259.122 -23.5878 258.435 -23.8397 257.734 -24.0936C233.987 -16.2482 210.239 -8.40274 186.472 -0.551363C180.993 -1.48825 175.508 -2.41717 170.029 -3.35405C192.827 -12.4601 215.644 -21.5721 238.442 -30.6781C237.726 -30.9081 237.01 -31.1381 236.288 -31.3602C213.426 -22.2283 190.564 -13.0964 167.703 -3.96453C167.575 -3.91285 167.476 -3.85716 167.407 -3.79745C159.574 -5.13159 151.741 -6.46574 143.913 -7.80784C169.051 -17.3258 194.174 -26.8457 219.311 -36.3637C218.536 -36.5758 217.761 -36.7879 216.981 -36.9921C191.716 -27.4225 166.431 -17.8469 141.166 -8.27729C135.303 -9.27639 129.439 -10.2755 123.561 -11.2766C146.223 -21.8337 168.866 -32.3848 191.529 -42.9418C190.708 -43.1082 189.869 -43.2686 189.043 -43.4269C166.356 -32.856 143.669 -22.285 120.987 -11.7219C114.739 -12.7832 108.496 -13.8525 102.248 -14.9138C122.134 -26.2134 143.098 -36.9637 165.016 -47.1211C164.069 -47.2357 163.116 -47.3424 162.177 -47.4471C140.4 -37.3135 119.597 -26.593 99.8272 -15.3291C89.6843 -17.0545 79.561 -18.7858 69.4181 -20.5112C87.1894 -30.6473 105.762 -40.3679 125.058 -49.6493C123.884 -49.6566 122.734 -49.6519 121.584 -49.6472C102.768 -40.5507 84.6518 -31.0268 67.3041 -21.1095C67.2003 -21.0458 67.1304 -20.9861 67.0555 -20.9184C62.7908 -21.6427 58.5313 -22.3749 54.2666 -23.0992C67.8379 -31.4942 81.4185 -39.8792 94.9897 -48.2742C93.7482 -48.152 92.5355 -48.0258 91.3126 -47.8837C78.1668 -39.7593 65.0209 -31.6348 51.87 -23.5025C47.6486 -24.2207 43.4272 -24.9389 39.211 -25.6651C38.4221 -24.7074 37.7199 -23.7376 37.1042 -22.7558C38.2808 -22.5572 39.4431 -22.3605 40.6146 -22.1539C41.2922 -12.9198 41.975 -3.69364 42.6526 5.54049C43.4549 6.19907 44.3107 6.84775 45.2107 7.47654C44.4933 -2.25787 43.7811 -12.0002 43.0638 -21.7347C46.8288 -21.0887 50.6132 -20.4487 54.3782 -19.8027C55.4174 -8.29618 56.4567 3.21034 57.4763 14.7228C58.3067 15.1423 59.1514 15.5637 60.0157 15.9792C58.9529 4.19169 57.8902 -7.59586 56.8418 -19.3814C62.6912 -18.3843 68.5406 -17.3872 74.3899 -16.3901C75.1202 -3.30354 75.8648 9.78505 76.5951 22.8716C77.4013 23.1575 78.2219 23.4454 79.057 23.7354C78.3129 10.4993 77.5688 -2.73678 76.8247 -15.9728C81.925 -15.1061 87.0345 -14.2295 92.1348 -13.3628C92.2791 -13.3427 92.4182 -13.3146 92.5573 -13.2865C94.6421 0.552901 95.3793 14.5084 94.7563 28.5262C95.5458 28.7403 96.3404 28.9465 97.13 29.1606C97.7939 15.0791 97.1029 1.05192 95.0446 -12.8533C95.6979 -12.7449 96.3604 -12.6266 97.0136 -12.5182C97.1425 -12.4742 97.2867 -12.4541 97.4268 -12.452C101.706 -11.7257 105.98 -10.9915 110.259 -10.2652C114.543 4.35796 117.497 19.143 119.098 34.0522C119.928 34.2026 120.759 34.353 121.589 34.5034C120.076 19.5804 117.156 4.79138 112.92 -9.83373Z" fill="#97C9CE"/>
<path d="M285.084 15.2526C285.12 15.4084 285.183 15.5637 285.231 15.7114C285.246 15.7346 285.234 15.7583 285.249 15.7815C285.297 15.9292 285.346 16.077 285.407 16.2166C285.408 16.2322 285.423 16.2554 285.424 16.2711C285.486 16.4264 285.535 16.5741 285.61 16.7213C285.612 16.7526 285.641 16.7833 285.643 16.8146C285.718 16.9618 285.767 17.1095 285.842 17.2567C285.857 17.2799 285.858 17.3112 285.873 17.3344C285.948 17.4816 286.024 17.6288 286.099 17.776L286.113 17.7835C286.188 17.9307 286.277 18.0855 286.365 18.2246C286.38 18.2478 286.395 18.271 286.41 18.2942C286.498 18.4333 286.586 18.5724 286.674 18.7115C286.689 18.7347 286.704 18.7579 286.732 18.7886C286.82 18.9278 286.922 19.0744 287.011 19.2135C287.024 19.2211 287.012 19.2292 287.025 19.2367C287.114 19.3759 287.215 19.5069 287.316 19.6379C287.33 19.6611 287.344 19.6687 287.359 19.6919C287.46 19.8229 287.561 19.9539 287.676 20.0925C287.691 20.1157 287.705 20.1389 287.72 20.1621C287.821 20.2931 287.936 20.4317 288.05 20.5547C288.064 20.5622 288.065 20.5779 288.092 20.593C288.194 20.724 288.321 20.8545 288.435 20.9775C288.449 20.985 288.436 20.9931 288.45 21.0006C288.564 21.1236 288.692 21.2541 288.806 21.3771C288.82 21.4002 288.848 21.4153 288.849 21.431C288.963 21.5539 289.09 21.6688 289.204 21.7918C289.218 21.7993 289.232 21.8225 289.246 21.8301C289.501 22.0754 289.768 22.3127 290.036 22.55C290.05 22.5576 290.064 22.5808 290.078 22.5883C290.205 22.7032 290.345 22.81 290.485 22.9168C290.498 22.9243 290.526 22.9394 290.527 22.955C290.807 23.1843 291.1 23.3898 291.392 23.5952C291.406 23.6028 291.406 23.6028 291.42 23.6103C291.573 23.709 291.699 23.8083 291.851 23.907C291.865 23.9145 291.879 23.9221 291.893 23.9297C292.045 24.0284 292.184 24.1195 292.337 24.2182C292.641 24.4 292.946 24.5818 293.249 24.7479C293.263 24.7555 293.277 24.763 293.277 24.763C293.428 24.8461 293.593 24.9211 293.731 24.9966L293.745 25.0041C294.061 25.1622 294.363 25.2971 294.691 25.4314L294.705 25.439C294.856 25.5064 295.02 25.5657 295.17 25.6175L295.183 25.6251C295.661 25.7956 296.124 25.9429 296.611 26.0584L296.625 26.066C297.099 26.1739 297.558 26.2587 298.015 26.3122L298.029 26.3198C298.177 26.3403 298.324 26.3452 298.485 26.3577C298.793 26.375 299.074 26.3772 299.381 26.3633C299.527 26.3526 299.66 26.3499 299.806 26.3235C299.806 26.3235 299.806 26.3235 299.819 26.3155C301.73 26.1052 303.318 25.1579 304.238 23.2847C308.47 14.7165 297.688 5.46897 293.359 2.22108C296.196 2.77506 299.031 3.29777 301.893 3.80431C303.849 4.14885 305.805 4.47775 307.761 4.80665L310.499 5.26087C317.755 6.44692 325.034 7.58554 332.252 8.82712C332.189 8.88317 332.125 8.93922 332.048 8.98772C331.857 9.14024 331.678 9.28467 331.486 9.43718C331.371 9.52557 331.283 9.61342 331.168 9.7018C331.002 9.83815 330.863 9.97397 330.697 10.1103C330.596 10.2063 330.495 10.3022 330.393 10.3981C330.254 10.5339 330.101 10.6622 329.975 10.7899C329.874 10.8859 329.773 10.9818 329.685 11.0853C329.559 11.213 329.42 11.3489 329.308 11.4841C329.206 11.5801 329.132 11.6755 329.044 11.779C328.932 11.9143 328.806 12.042 328.693 12.1773C328.619 12.2727 328.531 12.3762 328.443 12.464C328.33 12.5993 328.218 12.7346 328.119 12.8774C328.045 12.9728 327.97 13.0682 327.908 13.1556C327.81 13.2984 327.711 13.4412 327.6 13.5922C327.538 13.6795 327.476 13.7668 327.415 13.8541C327.304 14.0207 327.206 14.1792 327.096 14.3457C327.06 14.4169 327.01 14.4805 326.96 14.5441C326.827 14.7737 326.693 15.0033 326.573 15.2405C326.574 15.2561 326.548 15.2723 326.549 15.2879C326.441 15.5014 326.334 15.7149 326.226 15.9283C326.19 15.9995 326.168 16.0782 326.132 16.1493C326.061 16.3073 325.99 16.4652 325.932 16.6151C325.897 16.7019 325.862 16.7887 325.827 16.8755C325.781 17.0172 325.709 17.1595 325.664 17.3013C325.629 17.3881 325.608 17.4825 325.587 17.5768C325.542 17.7186 325.509 17.8523 325.464 17.994C325.443 18.0884 325.422 18.1827 325.386 18.2695C325.354 18.4032 325.322 18.5369 325.29 18.6706C325.268 18.7649 325.247 18.8593 325.226 18.9536C325.193 19.0873 325.175 19.2286 325.155 19.3542C325.134 19.4485 325.126 19.5348 325.105 19.6291C325.086 19.7703 325.08 19.9035 325.062 20.0448C325.054 20.131 325.045 20.2173 325.037 20.3035C325.018 20.4448 325.014 20.5936 325.009 20.7424C325.013 20.8205 325.004 20.8912 324.996 20.9774C324.992 21.1419 325.002 21.3138 324.998 21.4783C325.001 21.5252 324.991 21.5802 325.007 21.6346C325.02 21.8535 325.033 22.0724 325.045 22.2913C325.047 22.3226 325.062 22.3457 325.05 22.3695C325.061 22.5571 325.098 22.7442 325.109 22.9318C325.127 23.0019 325.144 23.072 325.135 23.1426C325.157 23.2909 325.178 23.4235 325.213 23.5637C325.231 23.6494 325.248 23.7195 325.267 23.8052C325.288 23.9379 325.322 24.0624 325.356 24.187C325.374 24.2727 325.392 24.3584 325.424 24.4361C325.457 24.5606 325.491 24.6851 325.524 24.7941C325.543 24.8798 325.588 24.965 325.606 25.0507C325.653 25.1672 325.673 25.2842 325.72 25.4006C325.738 25.4864 325.783 25.5716 325.802 25.6573C325.848 25.7737 325.895 25.8902 325.928 25.9991C325.959 26.0768 325.992 26.17 326.023 26.2477C326.07 26.3642 326.129 26.4725 326.176 26.589C326.207 26.6666 326.252 26.7518 326.284 26.8295C326.33 26.946 326.404 27.0619 326.451 27.1783C326.495 27.2479 326.526 27.3256 326.57 27.3951C326.645 27.5267 326.705 27.6507 326.78 27.7823C326.81 27.8443 326.839 27.8906 326.87 27.9527C326.974 28.1306 327.077 28.3085 327.208 28.486C327.251 28.5399 327.281 28.6019 327.325 28.6558C327.398 28.7717 327.485 28.8952 327.559 29.0112C327.617 29.0883 327.661 29.1578 327.719 29.235C327.791 29.3353 327.85 29.428 327.936 29.5202C327.994 29.5973 328.052 29.6744 328.109 29.7516C328.181 29.8362 328.253 29.9209 328.312 30.0136C328.37 30.0907 328.454 30.1673 328.512 30.2444C328.584 30.3291 328.642 30.4062 328.726 30.4828C328.784 30.5599 328.869 30.6365 328.927 30.7136C328.997 30.7826 329.069 30.8673 329.14 30.9363C329.225 31.0129 329.282 31.09 329.367 31.1666C329.438 31.2356 329.509 31.3046 329.593 31.3812C329.678 31.4578 329.749 31.5268 329.833 31.6034C329.904 31.6724 329.988 31.7334 330.058 31.8024C330.143 31.879 330.214 31.948 330.311 32.0165C330.395 32.0775 330.452 32.1389 330.522 32.1923C330.606 32.2689 330.704 32.3374 330.775 32.4065C330.845 32.4598 330.901 32.5057 330.971 32.5591C331.32 32.8261 331.682 33.0849 332.057 33.3201C332.126 33.3579 332.168 33.3962 332.237 33.4339C332.334 33.5024 332.445 33.5628 332.555 33.6232C332.624 33.661 332.693 33.6988 332.749 33.7446C332.86 33.805 332.956 33.8579 333.066 33.9183C333.135 33.9561 333.204 33.9938 333.273 34.0316C333.37 34.0844 333.48 34.1449 333.59 34.1896C333.659 34.2274 333.714 34.2576 333.796 34.2873C333.905 34.3321 334.002 34.3849 334.111 34.4297C334.167 34.4599 334.248 34.4896 334.316 34.5117C334.426 34.5565 334.535 34.6013 334.645 34.646C334.713 34.6682 334.768 34.6984 334.836 34.7205C334.946 34.7653 335.068 34.802 335.177 34.8468C335.246 34.8689 335.3 34.8835 335.368 34.9056C335.49 34.9423 335.6 34.9871 335.722 35.0237C335.776 35.0383 335.817 35.0453 335.871 35.0599C335.993 35.0966 336.116 35.1333 336.251 35.1619L336.265 35.1695C336.739 35.2931 337.211 35.3698 337.682 35.4152C337.708 35.4147 337.749 35.4217 337.789 35.4287C337.924 35.4417 338.044 35.4471 338.165 35.4525C338.218 35.4515 338.259 35.4585 338.326 35.465C338.446 35.4704 338.553 35.4683 338.673 35.4737C338.727 35.4726 338.78 35.4716 338.847 35.4781C338.954 35.4759 339.061 35.4738 339.18 35.4636C339.234 35.4626 339.3 35.4534 339.353 35.4523C339.46 35.4502 339.566 35.4325 339.686 35.4222C339.752 35.4131 339.805 35.412 339.858 35.3953C339.964 35.3776 340.069 35.3598 340.175 35.3421C340.242 35.3329 340.294 35.3162 340.334 35.3076C340.439 35.2898 340.544 35.2565 340.65 35.2387C340.703 35.222 340.755 35.2053 340.795 35.1967C340.9 35.1633 341.018 35.1374 341.123 35.104C341.163 35.0954 341.201 35.0712 341.241 35.0626C342.314 34.6812 343.306 34.0432 344.105 33.0881C350.721 25.3255 338.464 12.9689 334.4 9.23048C339.353 10.1102 344.283 11.0529 349.154 12.1143L349.343 12.1575C349.492 12.1936 349.628 12.2223 349.79 12.2503C349.79 12.2503 349.79 12.2503 349.803 12.2579L352.592 12.8911C358.672 14.3119 364.551 15.9558 370.23 17.8228C369.88 18.2368 369.417 18.786 368.909 19.4614C368.846 19.5331 368.81 19.6042 368.748 19.6759C368.538 19.9697 368.289 20.2877 368.068 20.6208C368.006 20.7081 367.957 20.7874 367.895 20.8747C367.773 21.065 367.637 21.2633 367.502 21.4617C367.403 21.6045 367.305 21.7473 367.22 21.8977C367.146 22.0088 367.073 22.1198 367 22.2465C366.755 22.627 366.524 23.0308 366.295 23.4502C366.173 23.6561 366.065 23.8695 365.958 24.083C364.549 26.7486 363.41 29.9097 363.476 33.1094C363.485 33.2657 363.48 33.4145 363.489 33.5709C363.492 33.6178 363.494 33.6647 363.497 33.7116C363.517 33.8286 363.511 33.9461 363.531 34.0631C363.534 34.11 363.535 34.1413 363.538 34.1882C363.56 34.3365 363.569 34.4928 363.591 34.6411C363.593 34.6723 363.594 34.688 363.596 34.7193C363.603 34.8443 363.637 34.9689 363.657 35.0859C363.66 35.1328 363.675 35.1716 363.678 35.2185C363.698 35.3355 363.718 35.4525 363.751 35.5614C363.753 35.5927 363.755 35.624 363.77 35.6471C363.804 35.7873 363.839 35.9275 363.874 36.0677C363.876 36.099 363.892 36.1378 363.906 36.161C363.939 36.2699 363.972 36.3788 364.005 36.4877C364.021 36.5265 364.037 36.5654 364.052 36.6042C364.086 36.7287 364.12 36.8533 364.167 36.9697C364.168 36.9854 364.182 36.9929 364.169 37.001C364.216 37.1331 364.264 37.2652 364.312 37.3973C364.328 37.4361 364.342 37.4593 364.344 37.4906C364.39 37.5914 364.436 37.6922 364.468 37.7855C364.47 37.8168 364.498 37.8475 364.5 37.8788C364.561 38.0028 364.621 38.1268 364.682 38.2509C364.682 38.2509 364.696 38.2584 364.683 38.2665C364.73 38.383 364.803 38.4989 364.863 38.6073C364.878 38.6305 364.893 38.6693 364.908 38.6925C364.967 38.7852 365.013 38.886 365.072 38.9788C365.086 39.002 365.087 39.0176 365.102 39.0408C365.175 39.1567 365.235 39.2651 365.322 39.373C365.322 39.3886 365.336 39.3962 365.35 39.4037C365.409 39.4965 365.481 39.5967 365.553 39.6814C365.568 39.7046 365.583 39.7278 365.597 39.751C365.67 39.8513 365.742 39.9516 365.828 40.0438L365.842 40.0513C365.914 40.1516 366.014 40.2514 366.099 40.3436C366.113 40.3512 366.114 40.3668 366.141 40.3819C366.213 40.4666 366.298 40.5432 366.369 40.6278C366.383 40.6354 366.398 40.6586 366.412 40.6661C366.596 40.8425 366.766 41.0113 366.962 41.1639C366.975 41.1714 366.989 41.179 366.99 41.1946C367.088 41.2631 367.158 41.3321 367.256 41.4006C367.27 41.4082 367.27 41.4082 367.283 41.4157C367.492 41.5603 367.7 41.6892 367.907 41.8025C367.921 41.81 367.934 41.8176 367.948 41.8251C368.169 41.946 368.375 42.0436 368.608 42.1407C368.717 42.1855 368.84 42.2222 368.935 42.2594C368.949 42.267 368.949 42.267 368.963 42.2745C369.181 42.3485 369.425 42.4062 369.668 42.4483L369.681 42.4559C369.803 42.477 369.91 42.4905 370.032 42.5115C370.032 42.5115 370.046 42.5191 370.059 42.511C370.301 42.5375 370.542 42.5483 370.796 42.5511L370.822 42.5506C372.836 42.5026 375.028 41.3711 377.123 38.7936C382.07 32.6609 375.223 22.388 372.274 18.5178C377.357 20.2558 382.263 22.1539 386.965 24.2439L389.695 25.4809C390.588 25.8936 391.467 26.3144 392.346 26.7352C395.851 28.442 399.202 30.2458 402.411 32.1386C402.284 32.2507 402.158 32.3784 402.006 32.5223C401.916 32.5945 401.841 32.6743 401.765 32.7541C401.588 32.9141 401.411 33.0898 401.208 33.2817C400.6 33.8573 399.893 34.5601 399.047 35.3987C398.782 35.6779 398.479 35.9657 398.189 36.2767C398.038 36.4363 397.887 36.5958 397.722 36.7478C396.16 38.3599 394.338 40.3449 392.296 42.6787C392.195 42.7903 392.095 42.9019 392.021 43.0129C391.984 43.0528 391.959 43.0846 391.921 43.1245C391.858 43.1962 391.809 43.2754 391.734 43.3552C391.696 43.3951 391.672 43.4425 391.634 43.4824C391.572 43.5541 391.536 43.6252 391.473 43.6969C391.449 43.7443 391.399 43.7923 391.375 43.8397C391.325 43.9033 391.276 43.9826 391.226 44.0462C391.202 44.0936 391.152 44.1416 391.128 44.189C391.078 44.2526 391.042 44.3238 390.993 44.403C390.969 44.4505 390.932 44.506 390.895 44.5459C390.859 44.617 390.809 44.6806 390.76 44.7599C390.736 44.8073 390.712 44.8547 390.674 44.8946C390.626 44.9738 390.59 45.045 390.554 45.1162C390.53 45.1636 390.505 45.1954 390.481 45.2428C390.433 45.3377 390.385 45.4326 390.337 45.5274C390.325 45.5512 390.313 45.5749 390.301 45.5986C390.241 45.7172 390.181 45.8358 390.121 45.9544C390.097 45.9862 390.085 46.0255 390.087 46.0568C390.052 46.1436 390.017 46.2304 389.968 46.3096C389.944 46.357 389.933 46.3964 389.909 46.4438C389.873 46.515 389.851 46.5937 389.815 46.6648C389.791 46.7123 389.781 46.7673 389.757 46.8147C389.721 46.8859 389.712 46.9565 389.689 47.0196C389.665 47.067 389.655 47.122 389.645 47.177C389.622 47.24 389.599 47.3187 389.576 47.3818C389.566 47.4368 389.542 47.4842 389.532 47.5392C389.509 47.6023 389.5 47.6729 389.464 47.7441C389.454 47.7991 389.43 47.8465 389.419 47.9015C389.41 47.9721 389.387 48.0352 389.365 48.1139C389.355 48.1689 389.344 48.2082 389.334 48.2632C389.311 48.3419 389.302 48.4125 389.28 48.4912C389.269 48.5306 389.272 48.5775 389.261 48.6169C389.24 48.7268 389.221 48.8524 389.201 48.9624C389.189 49.0018 389.191 49.033 389.18 49.0724C389.158 49.1511 389.163 49.2293 389.14 49.308C389.13 49.363 389.133 49.4099 389.123 49.4649C389.114 49.5355 389.117 49.598 389.094 49.6611C389.084 49.7161 389.087 49.763 389.09 49.8255C389.094 49.8881 389.084 49.9431 389.087 50.0056C389.077 50.0606 389.094 50.115 389.084 50.17C389.087 50.2326 389.077 50.2876 389.081 50.3501C389.07 50.4051 389.087 50.4595 389.077 50.5145C389.08 50.5771 389.083 50.624 389.087 50.6865C389.09 50.7491 389.093 50.796 389.097 50.8585C389.087 50.9135 389.103 50.9679 389.107 51.0305C389.11 51.093 389.113 51.1399 389.117 51.2025C389.119 51.2494 389.123 51.3119 389.126 51.3588C389.129 51.4214 389.146 51.4758 389.136 51.5308C389.138 51.5777 389.155 51.6322 389.158 51.6791C389.178 51.7961 389.185 51.9211 389.219 52.0457C389.235 52.0845 389.224 52.1239 389.239 52.1627C389.243 52.2252 389.273 52.2872 389.277 52.3498C389.279 52.3967 389.295 52.4355 389.298 52.4824C389.314 52.5369 389.332 52.607 389.348 52.6614C389.364 52.7002 389.367 52.7471 389.382 52.786C389.399 52.8404 389.416 52.9105 389.433 52.965C389.448 53.0038 389.451 53.0507 389.467 53.0895C389.483 53.144 389.513 53.206 389.517 53.2685C389.533 53.3073 389.548 53.3462 389.564 53.385C389.594 53.447 389.611 53.5014 389.641 53.5635C389.657 53.6023 389.672 53.6411 389.688 53.6799C389.718 53.7419 389.735 53.7964 389.765 53.8584C389.767 53.8897 389.795 53.9204 389.797 53.9517C389.827 54.0137 389.858 54.0757 389.888 54.1377C389.889 54.1533 389.904 54.1765 389.917 54.1841C390.038 54.4165 390.185 54.6483 390.318 54.8727C390.319 54.8883 390.333 54.8958 390.334 54.9115C390.378 54.981 390.421 55.035 390.478 55.0964C390.493 55.1196 390.507 55.1428 390.522 55.166C390.565 55.2199 390.622 55.2814 390.653 55.3434C390.667 55.3666 390.682 55.3898 390.71 55.4205C390.754 55.4744 390.797 55.5284 390.854 55.5898C390.869 55.613 390.883 55.6362 390.925 55.6589C390.968 55.7128 391.011 55.7667 391.081 55.8201C391.096 55.8433 391.123 55.8584 391.138 55.8816C391.181 55.9355 391.251 55.9889 391.294 56.0428C391.322 56.0579 391.323 56.0736 391.35 56.0887C391.407 56.1502 391.477 56.2036 391.533 56.2494C391.547 56.257 391.547 56.257 391.561 56.2645C391.856 56.5169 392.163 56.7456 392.509 56.95C392.523 56.9576 392.537 56.9651 392.537 56.9651C392.619 57.0104 392.688 57.0482 392.771 57.0935C392.785 57.1011 392.812 57.1162 392.826 57.1237C392.895 57.1615 392.978 57.2068 393.047 57.2445C393.075 57.2596 393.088 57.2672 393.116 57.2823C393.185 57.3201 393.267 57.3497 393.35 57.395C393.377 57.4101 393.391 57.4177 393.431 57.4247C393.513 57.4544 393.582 57.4922 393.678 57.5294C393.692 57.5369 393.719 57.552 393.746 57.5515C393.828 57.5812 393.924 57.6184 394.005 57.6481C394.019 57.6556 394.019 57.6556 394.033 57.6632C394.455 57.8035 394.89 57.9201 395.349 58.0048C395.456 58.0184 395.551 58.0399 395.659 58.0535C395.685 58.0529 395.699 58.0605 395.726 58.0599C395.833 58.0735 395.927 58.0794 396.022 58.101C396.049 58.1005 396.089 58.1075 396.116 58.107C396.21 58.1129 396.317 58.1264 396.411 58.1324C396.438 58.1319 396.478 58.1389 396.505 58.1383C396.599 58.1443 396.72 58.1497 396.813 58.1557C396.84 58.1552 396.881 58.1622 396.907 58.1616C397.014 58.1595 397.108 58.1655 397.228 58.1709C397.255 58.1704 397.282 58.1698 397.308 58.1693C398.457 58.1621 399.716 57.9883 401.084 57.6324C413.874 54.2785 406.942 38.6304 404.146 33.2702C409.256 36.3851 413.978 39.7269 418.231 43.2659C418.232 43.2816 418.232 43.2816 418.233 43.2972L419.819 44.6196C422.252 46.7235 424.528 48.893 426.634 51.1208C426.622 51.1445 426.61 51.1682 426.598 51.1919C426.514 51.358 426.43 51.5084 426.359 51.6663C426.347 51.69 426.348 51.7056 426.336 51.7294C426.265 51.8873 426.194 52.0453 426.136 52.2107C426.137 52.2264 426.125 52.2501 426.112 52.2582C426.055 52.4237 425.998 52.5892 425.941 52.7547C425.943 52.7859 425.918 52.8177 425.92 52.849C425.875 53.0064 425.818 53.1719 425.788 53.3369C425.789 53.3681 425.777 53.3919 425.779 53.4231C425.736 53.5962 425.705 53.7611 425.676 53.9417L425.677 53.9574C425.646 54.1223 425.629 54.2949 425.613 54.4674C425.615 54.4986 425.603 54.5224 425.604 54.5536C425.588 54.7261 425.584 54.8906 425.58 55.055C425.582 55.0863 425.584 55.1176 425.573 55.1569C425.569 55.3213 425.552 55.4939 425.562 55.6658C425.55 55.6896 425.565 55.7127 425.567 55.744C425.563 55.9084 425.573 56.0804 425.596 56.2443C425.597 56.26 425.597 56.2756 425.598 56.2912C425.608 56.4632 425.632 56.6428 425.655 56.8067C425.657 56.8379 425.659 56.8692 425.66 56.9005C425.683 57.0644 425.72 57.2358 425.743 57.3997C425.745 57.431 425.746 57.4623 425.748 57.4935C425.785 57.665 425.822 57.8364 425.858 58.0079C425.859 58.0235 425.873 58.0311 425.874 58.0467C425.91 58.2182 425.96 58.3815 425.997 58.553C426.011 58.5762 426.013 58.6074 426.014 58.6231C426.064 58.7864 426.114 58.9655 426.164 59.1288C426.165 59.1601 426.181 59.1989 426.196 59.2221C426.259 59.393 426.309 59.5564 426.372 59.7273C426.387 59.7505 426.389 59.7818 426.403 59.805C426.467 59.9759 426.543 60.1387 426.606 60.3096C426.62 60.3172 426.607 60.3253 426.621 60.3328C426.698 60.5113 426.774 60.6741 426.851 60.8526C426.866 60.8758 426.882 60.9146 426.896 60.9378C426.973 61.1006 427.063 61.271 427.139 61.4339C427.167 61.4646 427.169 61.4959 427.198 61.5266C427.288 61.697 427.378 61.8674 427.481 62.0297C427.482 62.0453 427.509 62.0604 427.51 62.0761C427.613 62.2384 427.689 62.4012 427.792 62.5635C427.807 62.5867 427.822 62.6099 427.822 62.6255C427.925 62.7879 428.028 62.9502 428.131 63.1125C428.16 63.1432 428.161 63.1745 428.19 63.2052C428.293 63.3675 428.409 63.5217 428.512 63.6841C428.526 63.7072 428.555 63.738 428.57 63.7612C428.686 63.931 428.802 64.0852 428.919 64.2551C429.048 64.4169 429.165 64.5867 429.295 64.7485C429.309 64.7717 429.338 64.8024 429.353 64.8256C429.468 64.9799 429.611 65.1335 429.727 65.2878C429.755 65.3185 429.77 65.3417 429.798 65.3724C429.941 65.5261 430.057 65.6804 430.199 65.834C430.214 65.8572 430.228 65.8648 430.242 65.888C430.371 66.0341 430.514 66.1878 430.642 66.3339C430.656 66.3415 430.671 66.3647 430.685 66.3722C430.827 66.5259 430.956 66.6721 431.111 66.8177C431.14 66.8484 431.154 66.8716 431.183 66.9023C431.324 67.0404 431.467 67.1941 431.609 67.3322C431.623 67.3553 431.665 67.378 431.679 67.4012C431.835 67.5468 431.99 67.6924 432.145 67.838L432.159 67.8456C432.315 67.9912 432.47 68.1368 432.624 68.2668C432.639 68.2899 432.667 68.305 432.681 68.3282C432.836 68.4582 432.978 68.5963 433.146 68.7338C433.174 68.7645 433.202 68.7796 433.23 68.8104C433.385 68.9403 433.553 69.0779 433.708 69.2079C433.735 69.223 433.736 69.2386 433.764 69.2537C433.918 69.3837 434.086 69.5056 434.24 69.6355C434.254 69.6431 434.268 69.6506 434.269 69.6663C434.436 69.7882 434.59 69.9181 434.758 70.04C434.785 70.0551 434.814 70.0859 434.841 70.101C435.009 70.2229 435.162 70.3372 435.33 70.4591C435.357 70.4742 435.372 70.4974 435.413 70.52C435.581 70.6419 435.761 70.7558 435.928 70.8776L435.942 70.8852C436.122 70.999 436.276 71.1133 436.456 71.2272C436.484 71.2423 436.498 71.2498 436.525 71.2649C436.692 71.3712 436.858 71.4774 437.025 71.5837C437.052 71.5988 437.08 71.6139 437.121 71.6365C437.288 71.7428 437.467 71.841 437.62 71.9397C437.647 71.9548 437.661 71.9623 437.689 71.9774C437.868 72.0756 438.034 72.1819 438.213 72.2644L438.227 72.272C438.406 72.3701 438.572 72.4608 438.75 72.5433C438.778 72.5584 438.805 72.5735 438.819 72.5811C438.985 72.6717 439.163 72.7542 439.328 72.8292C439.355 72.8443 439.369 72.8519 439.397 72.867C439.575 72.9495 439.753 73.032 439.918 73.107C439.932 73.1146 439.932 73.1146 439.946 73.1221C440.11 73.1971 440.289 73.2797 440.466 73.3466C440.48 73.3541 440.494 73.3617 440.508 73.3692C440.672 73.4442 440.85 73.5111 441.014 73.5705C441.041 73.5856 441.068 73.585 441.095 73.6001C441.259 73.6595 441.437 73.7264 441.6 73.7857C441.614 73.7933 441.641 73.7928 441.669 73.8079C442.023 73.926 442.349 74.0291 442.689 74.1241C442.703 74.1316 442.729 74.1311 442.743 74.1387C442.906 74.1824 443.069 74.2261 443.218 74.2623C443.231 74.2698 443.258 74.2693 443.286 74.2844C443.449 74.3281 443.611 74.3562 443.772 74.3843C443.772 74.3843 443.786 74.3918 443.799 74.3837C443.961 74.4118 444.123 74.4399 444.271 74.4604L444.298 74.4599C444.446 74.4804 444.594 74.501 444.755 74.5134C444.782 74.5129 444.796 74.5204 444.822 74.5199C445.139 74.451 445.273 74.464 445.42 74.4689C445.447 74.4683 445.447 74.4683 445.474 74.4678C445.768 74.4776 446.076 74.4793 446.355 74.4659C446.382 74.4654 446.382 74.4654 446.409 74.4648C446.555 74.4541 446.675 74.4439 446.807 74.4256C446.834 74.4251 446.847 74.417 446.873 74.4165C447.006 74.3982 447.138 74.3799 447.27 74.3459C447.27 74.3459 447.283 74.3379 447.31 74.3373C447.428 74.3115 447.56 74.2776 447.691 74.2436L447.704 74.2356C447.836 74.2016 447.954 74.1601 448.072 74.1187C448.085 74.1106 448.111 74.1101 448.124 74.102C448.242 74.0605 448.346 74.0115 448.463 73.9544C448.476 73.9463 448.489 73.9382 448.502 73.9301C448.593 73.8892 448.71 73.832 448.813 73.7674C450.013 73.0469 450.807 71.771 451.041 69.8098C452.301 58.3737 435.725 52.4033 429.623 50.6073C427.473 48.31 425.14 46.079 422.65 43.9136L421.245 42.7207C416.878 39.0587 412.028 35.5864 406.778 32.349C415.29 34.4805 436.888 39.0517 445.677 33.2964C448.007 31.7708 448.796 30.4011 448.474 29.2257C448.46 29.2182 448.473 29.2101 448.459 29.2025C448.359 28.8602 448.166 28.5275 447.881 28.2201L447.867 28.2125C447.582 27.9052 447.204 27.6074 446.761 27.3345L446.747 27.327C446.304 27.054 445.768 26.7908 445.18 26.5599C445.166 26.5523 445.166 26.5523 445.152 26.5448C445.043 26.5 444.92 26.4476 444.797 26.411C444.306 26.2329 443.775 26.0635 443.218 25.8945C443.204 25.887 443.163 25.88 443.15 25.8724C443.027 25.8357 442.892 25.8071 442.756 25.7629C442.742 25.7553 442.715 25.7558 442.702 25.7483C442.281 25.6393 441.848 25.5383 441.388 25.4379C441.374 25.4304 441.347 25.4309 441.334 25.4233C441.198 25.3947 441.063 25.3661 440.928 25.3375C440.887 25.3305 440.833 25.3159 440.793 25.3089C440.657 25.2803 440.536 25.2592 440.388 25.2387C440.347 25.2317 440.307 25.2246 440.253 25.2101C439.807 25.1328 439.362 25.0556 438.918 24.994C438.863 24.9794 438.81 24.9805 438.77 24.9735C438.648 24.9524 438.514 24.9394 438.379 24.9265C438.312 24.92 438.231 24.9059 438.164 24.8994C438.03 24.8865 437.908 24.8654 437.774 24.8524C437.693 24.8384 437.626 24.8319 437.532 24.8259C437.398 24.813 437.276 24.7919 437.156 24.7865C437.089 24.78 437.021 24.7735 436.954 24.767C436.712 24.7405 436.47 24.714 436.229 24.7032C436.135 24.6972 436.042 24.6913 435.961 24.6772C435.84 24.6718 435.732 24.6583 435.612 24.6529C435.518 24.6469 435.41 24.6334 435.304 24.6355C435.183 24.6301 435.075 24.6166 434.955 24.6111C434.847 24.5976 434.741 24.5998 434.62 24.5943C434.499 24.5889 434.406 24.583 434.285 24.5775C434.124 24.5651 433.977 24.5602 433.803 24.5558C433.669 24.5428 433.535 24.5455 433.401 24.5325C433.254 24.5276 433.133 24.5222 432.986 24.5173C432.892 24.5113 432.785 24.5135 432.691 24.5075C432.571 24.5021 432.437 24.5047 432.317 24.4993C432.21 24.5014 432.116 24.4955 432.01 24.4976C431.876 24.5003 431.729 24.4954 431.608 24.4899C431.515 24.484 431.435 24.4856 431.328 24.4877C431.101 24.4844 430.887 24.4886 430.66 24.4853C430.606 24.4864 430.553 24.4875 430.486 24.481C430.312 24.4766 430.139 24.4879 429.965 24.4835C429.885 24.4851 429.778 24.4872 429.698 24.4888C429.565 24.4915 429.405 24.4947 429.271 24.4973C429.191 24.4989 429.084 24.5011 429.004 24.5027C428.844 24.5058 428.698 24.5166 428.538 24.5198C428.458 24.5214 428.378 24.523 428.298 24.5245C428.071 24.5369 427.845 24.5492 427.619 24.5615C427.592 24.5621 427.552 24.5707 427.512 24.5637C427.312 24.5755 427.112 24.5873 426.913 24.5991C426.833 24.6007 426.766 24.6098 426.674 24.6195C426.527 24.6302 426.354 24.6415 426.208 24.6522C426.128 24.6538 426.035 24.6635 425.969 24.6727C425.809 24.6915 425.649 24.6947 425.49 24.7135C425.424 24.7226 425.344 24.7242 425.278 24.7334C425.038 24.7538 424.826 24.7737 424.6 24.8016C424.574 24.8022 424.561 24.8103 424.547 24.8027C424.334 24.8226 424.136 24.85 423.923 24.8699C423.857 24.8791 423.79 24.8882 423.698 24.8979C423.538 24.9167 423.379 24.9355 423.234 24.9619C423.155 24.9791 423.074 24.9807 422.995 24.998C422.836 25.0168 422.691 25.0432 422.532 25.062C422.465 25.0711 422.399 25.0803 422.333 25.0894C422.121 25.1249 421.896 25.1529 421.671 25.1965C421.671 25.1965 421.658 25.2046 421.644 25.197C421.433 25.2326 421.221 25.2681 421.009 25.3036C420.943 25.3127 420.877 25.3219 420.812 25.3467C420.666 25.373 420.508 25.4075 420.362 25.4339C420.283 25.4511 420.217 25.4602 420.138 25.4775C419.992 25.5039 419.834 25.5383 419.703 25.5722C419.636 25.5814 419.571 25.6062 419.505 25.6153C419.294 25.6665 419.096 25.7095 418.885 25.7607C415.776 26.5113 413.278 27.2028 411.284 27.8217C410.707 28.0054 410.182 28.1723 409.684 28.3388C409.186 28.5052 408.728 28.6631 408.31 28.8279C407.682 29.0595 407.121 29.282 406.638 29.4873C406.482 29.553 406.326 29.6188 406.169 29.6845C405.57 29.9469 405.102 30.1753 404.714 30.3865C404.61 30.4356 404.532 30.4841 404.442 30.5406C404.313 30.6215 404.171 30.6948 404.067 30.7594C400.804 28.8521 397.386 27.0262 393.839 25.2967L391.05 23.9669C385.848 21.5582 380.377 19.3505 374.678 17.3664C384.179 17.8895 411.542 18.683 412.988 10.6791C413.048 10.3335 413.083 10.0197 413.092 9.7065C413.087 9.62832 413.097 9.5577 413.092 9.47952L413.091 9.46389C413.087 9.38572 413.083 9.32317 413.066 9.25308L413.065 9.23745C413.061 9.17491 413.044 9.10482 413.04 9.04228L413.039 9.02664C413.033 8.9172 413.015 8.84711 413.012 8.78457L413.011 8.76893C413.007 8.70639 412.977 8.64438 412.973 8.58184C412.959 8.57429 412.972 8.56621 412.959 8.55866C412.942 8.5042 412.925 8.43411 412.908 8.37965C412.894 8.3721 412.907 8.36402 412.893 8.35646C412.877 8.30201 412.847 8.24 412.83 8.18554C412.816 8.17799 412.829 8.16991 412.815 8.16236C412.799 8.1079 412.782 8.05344 412.739 7.99952C412.725 7.99197 412.738 7.98388 412.724 7.97633C412.708 7.92188 412.679 7.8755 412.635 7.82158C412.622 7.81402 412.634 7.80594 412.621 7.79839C412.591 7.75201 412.575 7.69756 412.531 7.64363C412.518 7.63608 412.531 7.628 412.517 7.62045C412.487 7.57407 412.458 7.5277 412.415 7.47377C412.401 7.46622 412.414 7.45814 412.4 7.45059C412.371 7.40421 412.341 7.35784 412.285 7.312C412.271 7.30445 412.284 7.29636 412.27 7.28881C412.241 7.24244 412.199 7.20415 412.156 7.15022C412.142 7.14267 412.142 7.14267 412.141 7.12704C412.099 7.08875 412.069 7.04237 412.013 6.99653C411.999 6.98898 411.999 6.98898 411.998 6.97334C411.956 6.93505 411.914 6.89676 411.858 6.85092C411.844 6.84337 411.844 6.84337 411.83 6.83582C411.788 6.79753 411.746 6.75924 411.689 6.71339C411.676 6.70584 411.676 6.70584 411.662 6.69829C411.62 6.66 411.551 6.62224 411.508 6.58395C411.494 6.5764 411.494 6.5764 411.481 6.56885C411.438 6.53056 411.369 6.4928 411.314 6.46259L411.3 6.45504C411.245 6.42483 411.176 6.38707 411.134 6.34878L411.12 6.34123C411.065 6.31102 410.996 6.27326 410.941 6.24305L410.927 6.2355C410.872 6.2053 410.803 6.16754 410.735 6.14541C410.735 6.14541 410.735 6.14541 410.721 6.13786C410.652 6.1001 410.584 6.07798 410.515 6.04022C410.433 6.01054 410.378 5.98034 410.296 5.95066C408.548 5.29672 406.096 5.16553 403.239 5.41808C403.119 5.42829 403 5.4385 402.88 5.44871C402.88 5.44871 402.88 5.44871 402.867 5.45679C402.748 5.467 402.628 5.47721 402.522 5.49497L402.495 5.4955C402.376 5.5057 402.27 5.52347 402.15 5.53367C402.137 5.54176 402.124 5.5342 402.111 5.54229C401.991 5.5525 401.885 5.57026 401.753 5.58855C401.74 5.59663 401.726 5.58908 401.713 5.59716C401.594 5.60737 401.488 5.62513 401.369 5.65097C401.342 5.6515 401.329 5.65959 401.316 5.65204C401.21 5.6698 401.09 5.68 400.971 5.70585C400.945 5.70638 400.932 5.71446 400.905 5.71499C400.799 5.73275 400.68 5.74296 400.561 5.7688C400.534 5.76934 400.521 5.77742 400.495 5.77795C400.389 5.79571 400.283 5.81347 400.151 5.83176C400.124 5.83229 400.111 5.84038 400.084 5.84091C399.978 5.85867 399.86 5.88451 399.754 5.90227C399.727 5.9028 399.714 5.91088 399.675 5.9195C399.569 5.93726 399.45 5.9631 399.344 5.98086C399.318 5.98139 399.292 5.99756 399.265 5.99809C399.159 6.01585 399.041 6.04169 398.935 6.05945C398.908 6.05998 398.869 6.0686 398.856 6.07668C398.75 6.09444 398.631 6.12028 398.525 6.13804C398.499 6.13858 398.459 6.14719 398.446 6.15527C398.34 6.17303 398.222 6.19888 398.116 6.21664C398.076 6.22525 398.049 6.22578 398.024 6.24195C397.918 6.25971 397.799 6.28555 397.693 6.30331C397.654 6.31193 397.627 6.31246 397.601 6.32863C397.495 6.34639 397.377 6.37223 397.272 6.40562C397.232 6.41424 397.206 6.41477 397.18 6.43093C397.061 6.45678 396.969 6.48209 396.85 6.50793C396.811 6.51655 396.784 6.51708 396.744 6.52569C396.626 6.55153 396.534 6.57685 396.415 6.60269C396.375 6.61131 396.336 6.61992 396.323 6.628C396.204 6.65385 396.112 6.67916 395.993 6.705C395.954 6.71361 395.914 6.72223 395.901 6.73031C395.783 6.75616 395.691 6.78147 395.572 6.80731C395.532 6.81592 395.493 6.82454 395.467 6.8407C395.348 6.86655 395.243 6.89994 395.138 6.9177C395.098 6.92632 395.058 6.93493 395.019 6.94355C394.9 6.96939 394.795 7.00279 394.676 7.02863C394.637 7.03724 394.597 7.04586 394.584 7.05394C394.466 7.07978 394.361 7.11318 394.242 7.13902C394.202 7.14763 394.163 7.15625 394.137 7.17242C394.032 7.20581 393.913 7.23165 393.808 7.26505C393.769 7.27366 393.743 7.28983 393.704 7.29845C393.599 7.33184 393.48 7.35768 393.375 7.39108C393.335 7.39969 393.296 7.40831 393.27 7.42447C393.165 7.45787 393.046 7.48371 392.941 7.51711C392.902 7.52572 392.876 7.54189 392.849 7.54242C392.745 7.57581 392.613 7.60974 392.508 7.64313C392.468 7.65175 392.443 7.66791 392.416 7.66845C392.311 7.70184 392.179 7.73577 392.074 7.76916C392.035 7.77778 392.022 7.78586 391.982 7.79447C391.865 7.83595 391.746 7.86179 391.628 7.90327C391.601 7.9038 391.576 7.91997 391.549 7.9205C391.431 7.96198 391.3 7.99591 391.182 8.03738C391.169 8.04547 391.142 8.046 391.116 8.06216C390.985 8.09609 390.867 8.13757 390.736 8.18713C390.723 8.19521 390.697 8.19574 390.697 8.19574C390.552 8.23775 390.434 8.27923 390.29 8.32124C389.253 8.64711 388.232 8.99616 387.211 9.36085C387.093 9.40233 386.963 9.45189 386.845 9.49336C386.819 9.50953 386.792 9.51006 386.766 9.52623C386.662 9.55962 386.558 9.60866 386.453 9.64205C386.413 9.65066 386.374 9.67491 386.335 9.68353C386.23 9.71692 386.139 9.75787 386.034 9.79126C385.981 9.80796 385.943 9.83221 385.903 9.84083C385.812 9.88177 385.707 9.91517 385.629 9.94803C385.576 9.96473 385.524 9.98143 385.485 10.0057C385.394 10.0466 385.302 10.0719 385.211 10.1129C385.158 10.1296 385.093 10.1544 385.041 10.1711C384.962 10.2039 384.857 10.2373 384.779 10.2702C384.714 10.295 384.661 10.3117 384.596 10.3364C384.518 10.3693 384.44 10.4022 384.335 10.4356C384.269 10.4603 384.217 10.477 384.151 10.5018C384.073 10.5347 383.995 10.5675 383.917 10.6004C383.851 10.6252 383.786 10.65 383.734 10.6667C383.655 10.6995 383.577 10.7324 383.499 10.7653C383.433 10.79 383.368 10.8148 383.303 10.8396C383.225 10.8725 383.146 10.9053 383.068 10.9382C383.003 10.963 382.937 10.9878 382.872 11.0125C382.794 11.0454 382.716 11.0783 382.637 11.1111C382.572 11.1359 382.507 11.1607 382.455 11.193C382.377 11.2259 382.299 11.2587 382.22 11.2916C382.155 11.3164 382.09 11.3412 382.038 11.3735C381.96 11.4064 381.894 11.4312 381.816 11.464C381.751 11.4888 381.673 11.5217 381.621 11.554C381.543 11.5869 381.477 11.6116 381.413 11.6521C381.348 11.6768 381.269 11.7097 381.218 11.742C381.14 11.7749 381.074 11.7997 381.01 11.8401C380.944 11.8649 380.866 11.8977 380.815 11.9301C380.736 11.9629 380.671 11.9877 380.607 12.0281C380.541 12.0529 380.477 12.0933 380.411 12.1181C380.333 12.151 380.282 12.1833 380.203 12.2162C380.138 12.2409 380.074 12.2814 380.008 12.3061C379.943 12.3309 379.878 12.3713 379.813 12.3961C379.748 12.4209 379.683 12.4613 379.618 12.4861C379.553 12.5109 379.488 12.5513 379.423 12.5761C379.357 12.6008 379.293 12.6413 379.228 12.666C379.162 12.6908 379.098 12.7312 379.033 12.756C378.967 12.7808 378.903 12.8212 378.837 12.846C378.772 12.8708 378.708 12.9112 378.642 12.936C378.577 12.9608 378.512 13.0012 378.447 13.0259C378.382 13.0507 378.317 13.0911 378.252 13.1159C378.187 13.1407 378.122 13.1811 378.057 13.2059C377.991 13.2307 377.927 13.2711 377.862 13.2959C377.81 13.3282 377.732 13.3611 377.68 13.3934C377.629 13.4257 377.55 13.4586 377.499 13.4909C377.447 13.5233 377.369 13.5561 377.318 13.5885C377.266 13.6208 377.201 13.6456 377.136 13.686C377.085 13.7183 377.006 13.7512 376.955 13.7835C376.903 13.8159 376.838 13.8406 376.786 13.873C376.735 13.9053 376.657 13.9382 376.605 13.9705C376.554 14.0028 376.488 14.0276 376.437 14.0599C376.385 14.0923 376.307 14.1251 376.255 14.1575C376.204 14.1898 376.138 14.2146 376.087 14.2469C376.035 14.2792 375.957 14.3121 375.905 14.3444C375.854 14.3768 375.789 14.4016 375.737 14.4339C375.685 14.4662 375.607 14.4991 375.556 14.5314C375.504 14.5637 375.452 14.5961 375.387 14.6209C375.336 14.6532 375.271 14.6936 375.206 14.7184C375.154 14.7507 375.103 14.7831 375.037 14.8078C374.986 14.8402 374.934 14.8725 374.856 14.9054C374.804 14.9377 374.753 14.97 374.701 15.0024C374.65 15.0347 374.585 15.0751 374.534 15.1074C374.482 15.1398 374.431 15.1721 374.392 15.1964C374.34 15.2287 374.289 15.261 374.224 15.3014C374.173 15.3338 374.121 15.3661 374.083 15.3904C374.031 15.4227 373.98 15.455 373.928 15.4874C373.876 15.5197 373.838 15.5439 373.786 15.5763C373.735 15.6086 373.683 15.6409 373.632 15.6733C373.58 15.7056 373.541 15.7298 373.49 15.7622C373.438 15.7945 373.387 15.8268 373.335 15.8592C373.283 15.8915 373.245 15.9158 373.193 15.9481C373.142 15.9804 373.09 16.0128 373.039 16.0451C373 16.0693 372.948 16.1017 372.91 16.1259C372.858 16.1582 372.807 16.1906 372.742 16.231C372.703 16.2552 372.652 16.2876 372.613 16.3118C372.562 16.3442 372.497 16.3846 372.459 16.4245C372.447 16.4325 372.421 16.4487 372.408 16.4568C368.212 15.0533 363.891 13.7775 359.469 12.629C358.222 12.3094 356.974 11.9899 355.701 11.6865L353.358 11.1305C348.389 9.98506 343.335 8.97432 338.218 8.03528C346.964 7.75157 364.944 5.92222 371.413 -3.91925C372.677 -5.84625 372.931 -7.23658 372.422 -8.18128C372.422 -8.18128 372.408 -8.18883 372.421 -8.19692C372.376 -8.28211 372.318 -8.35922 372.26 -8.43634C372.26 -8.43634 372.246 -8.44389 372.259 -8.45197C372.201 -8.52909 372.13 -8.59811 372.072 -8.67523C371.917 -8.82084 371.75 -8.94272 371.556 -9.06408C371.459 -9.11695 371.363 -9.16981 371.253 -9.21459L371.239 -9.22214C371.13 -9.26692 371.02 -9.3117 370.898 -9.3484C370.898 -9.3484 370.898 -9.3484 370.884 -9.35595C370.516 -9.48168 370.111 -9.56752 369.666 -9.62911C369.666 -9.62911 369.652 -9.63666 369.639 -9.62858C369.491 -9.64911 369.33 -9.66155 369.182 -9.68208C369.182 -9.68208 369.168 -9.68964 369.156 -9.68155C368.672 -9.7189 368.151 -9.73199 367.591 -9.70519L367.565 -9.70466C367.378 -9.70095 367.205 -9.68968 367.005 -9.67788L366.978 -9.67734C366.393 -9.63438 365.769 -9.56718 365.12 -9.46817C365.108 -9.46009 365.094 -9.46763 365.081 -9.45955C364.869 -9.42403 364.67 -9.39659 364.446 -9.35299C364.433 -9.34491 364.406 -9.34438 364.406 -9.34438C364.195 -9.30886 363.97 -9.26526 363.746 -9.22165L363.733 -9.21357C363.284 -9.12636 362.809 -9.02299 362.334 -8.91962C362.321 -8.91154 362.294 -8.91101 362.294 -8.91101C362.057 -8.85932 361.833 -8.80008 361.596 -8.74839C361.569 -8.74786 361.556 -8.73978 361.516 -8.73116C361.293 -8.67192 361.043 -8.61216 360.819 -8.55292C360.806 -8.54484 360.779 -8.54431 360.779 -8.54431C360.292 -8.41722 359.806 -8.27449 359.294 -8.13123C359.281 -8.12315 359.254 -8.12262 359.241 -8.11453C359.005 -8.04721 358.755 -7.97181 358.52 -7.88885C358.48 -7.88024 358.467 -7.87216 358.428 -7.86354C358.178 -7.78814 357.943 -7.70518 357.693 -7.62978C357.68 -7.62169 357.641 -7.61308 357.628 -7.605C357.13 -7.43855 356.606 -7.25594 356.082 -7.07333C356.07 -7.06525 356.043 -7.06472 356.03 -7.05664C355.781 -6.9656 355.533 -6.87456 355.284 -6.78352C355.245 -6.77491 355.219 -6.75874 355.18 -6.75012C354.931 -6.65908 354.682 -6.56804 354.448 -6.46945C354.422 -6.45329 354.382 -6.44468 354.357 -6.42851C354.095 -6.32939 353.86 -6.2308 353.599 -6.13167C353.586 -6.12359 353.573 -6.1155 353.547 -6.11497C353.285 -6.01585 353.038 -5.90917 352.79 -5.8025C352.777 -5.79442 352.764 -5.78634 352.738 -5.7858C352.49 -5.67913 352.242 -5.57246 351.995 -5.46579C351.969 -5.44962 351.916 -5.43292 351.891 -5.41675C351.643 -5.31008 351.395 -5.2034 351.162 -5.08918C351.123 -5.06493 351.083 -5.05632 351.045 -5.03207C350.797 -4.92539 350.55 -4.80308 350.303 -4.69641C350.277 -4.68024 350.25 -4.67971 350.225 -4.66354C349.964 -4.54879 349.73 -4.43456 349.484 -4.31225C349.471 -4.30417 349.458 -4.29608 349.445 -4.288C349.198 -4.16569 348.951 -4.04339 348.705 -3.92108C348.666 -3.89683 348.626 -3.88821 348.588 -3.86396C348.354 -3.74973 348.107 -3.62743 347.887 -3.50565C347.849 -3.4814 347.796 -3.4647 347.757 -3.44045C347.511 -3.31815 347.291 -3.19636 347.044 -3.07406C347.018 -3.05789 346.98 -3.03364 346.94 -3.02503C346.707 -2.89517 346.448 -2.76477 346.215 -2.63491L346.202 -2.62683C345.969 -2.49697 345.723 -2.35903 345.49 -2.22916C345.451 -2.20492 345.426 -2.18875 345.387 -2.1645C345.154 -2.03464 344.921 -1.90478 344.715 -1.77545C344.676 -1.7512 344.638 -1.72695 344.599 -1.7027C344.366 -1.57284 344.147 -1.43543 343.941 -1.3061C343.902 -1.28185 343.876 -1.26568 343.838 -1.24143C343.606 -1.09594 343.386 -0.958522 343.154 -0.813026C343.142 -0.804943 343.142 -0.804943 343.129 -0.79686C342.91 -0.659447 342.678 -0.513952 342.458 -0.376539C342.433 -0.360373 342.394 -0.336123 342.368 -0.319956C342.149 -0.182544 341.944 -0.0375846 341.725 0.0998281C341.686 0.124077 341.647 0.148327 341.609 0.172576C341.403 0.317541 341.197 0.446874 340.992 0.591838C340.953 0.616088 340.914 0.640339 340.89 0.67214C340.684 0.817104 340.479 0.962068 340.261 1.11512C340.248 1.1232 340.222 1.13937 340.209 1.14745C340.004 1.29241 339.812 1.44493 339.607 1.58989C339.581 1.60606 339.555 1.62222 339.543 1.64594C339.352 1.79846 339.147 1.94342 338.968 2.08786C338.929 2.11211 338.904 2.14391 338.866 2.16816C338.687 2.31259 338.496 2.46511 338.317 2.60954C338.278 2.63379 338.253 2.66559 338.215 2.68984C338.023 2.84236 337.858 2.99434 337.681 3.15441C337.655 3.17058 337.643 3.19429 337.63 3.20238C337.465 3.35436 337.288 3.51443 337.123 3.66642C337.11 3.6745 337.098 3.69821 337.085 3.7063C336.907 3.86637 336.742 4.01836 336.591 4.17789C336.566 4.20969 336.528 4.23394 336.516 4.25766C336.351 4.40964 336.2 4.56918 336.062 4.72063C336.037 4.75244 335.998 4.77668 335.973 4.80848C335.822 4.96802 335.671 5.12756 335.533 5.27901C335.521 5.30273 335.495 5.3189 335.483 5.34262C335.332 5.50216 335.195 5.66924 335.044 5.82878C335.031 5.83686 335.018 5.84495 335.032 5.8525C334.895 6.01959 334.758 6.18667 334.633 6.34568C334.621 6.3694 334.596 6.4012 334.571 6.41737C334.446 6.57637 334.322 6.73538 334.197 6.89439C334.173 6.92619 334.148 6.95799 334.136 6.9817C334.074 7.06902 334.012 7.15634 333.938 7.25175C326.246 5.91784 318.468 4.70306 310.754 3.43223L307.113 2.83164C302.836 2.11065 298.585 1.35786 294.383 0.541461C302.389 -1.69194 327.469 -9.15685 329.052 -14.8C329.527 -16.5234 328.52 -17.7556 326.606 -18.5158C326.578 -18.5309 326.552 -18.5304 326.524 -18.5455C326.183 -18.6717 325.829 -18.7899 325.435 -18.8995C325.394 -18.9065 325.381 -18.914 325.34 -18.9211C324.947 -19.015 324.528 -19.1084 324.096 -19.178C324.056 -19.1851 324.029 -19.1845 323.989 -19.1916C323.76 -19.2261 323.544 -19.2531 323.315 -19.2877C323.315 -19.2877 323.301 -19.2953 323.288 -19.2872C323.073 -19.3142 322.845 -19.3331 322.603 -19.3596C322.563 -19.3667 322.536 -19.3661 322.495 -19.3731C322.267 -19.3921 322.012 -19.4105 321.771 -19.4213C321.745 -19.4208 321.731 -19.4284 321.704 -19.4278C321.463 -19.4387 321.236 -19.442 320.995 -19.4528C320.968 -19.4523 320.928 -19.4593 320.888 -19.4507C320.634 -19.4535 320.38 -19.4562 320.113 -19.4509C320.087 -19.4504 320.033 -19.4493 320.006 -19.4488C319.766 -19.444 319.526 -19.4393 319.273 -19.4264C319.246 -19.4259 319.22 -19.4253 319.18 -19.4167C318.913 -19.4114 318.647 -19.3904 318.381 -19.3695C318.328 -19.3684 318.288 -19.3598 318.248 -19.3668C317.995 -19.354 317.743 -19.3255 317.49 -19.3126C317.463 -19.3121 317.436 -19.3116 317.41 -19.311C317.144 -19.2901 316.865 -19.261 316.586 -19.232C316.533 -19.2309 316.48 -19.2143 316.427 -19.2132C316.162 -19.1766 315.896 -19.1557 315.618 -19.111C315.605 -19.1029 315.591 -19.1105 315.578 -19.1024C315.3 -19.0577 315.009 -19.0206 314.731 -18.9759C314.665 -18.9668 314.625 -18.9582 314.559 -18.949C314.003 -18.8597 313.435 -18.7466 312.881 -18.626C312.815 -18.6169 312.762 -18.6002 312.696 -18.5911C312.419 -18.5308 312.142 -18.4705 311.852 -18.4021C311.839 -18.394 311.812 -18.3935 311.812 -18.3935C311.549 -18.3256 311.299 -18.2658 311.036 -18.198C310.983 -18.1813 310.904 -18.1641 310.852 -18.1474C310.576 -18.0714 310.312 -18.0036 310.05 -17.9201C310.01 -17.9115 309.985 -17.8953 309.945 -17.8867C309.696 -17.8113 309.459 -17.744 309.223 -17.661C309.171 -17.6443 309.106 -17.6195 309.053 -17.6028C308.791 -17.5193 308.542 -17.4283 308.267 -17.3367C308.215 -17.32 308.189 -17.3039 308.136 -17.2872C307.901 -17.2042 307.692 -17.1218 307.456 -17.0388C307.404 -17.0221 307.338 -16.9974 307.3 -16.9731C307.038 -16.874 306.804 -16.7754 306.556 -16.6687C306.504 -16.652 306.452 -16.6197 306.4 -16.603C306.178 -16.5125 305.97 -16.4144 305.762 -16.3164C305.723 -16.2921 305.67 -16.2754 305.632 -16.2512C305.398 -16.1369 305.164 -16.0227 304.93 -15.9085C304.879 -15.8762 304.826 -15.8595 304.775 -15.8271C304.568 -15.7134 304.36 -15.6154 304.166 -15.4941C304.14 -15.478 304.102 -15.4537 304.076 -15.4375C303.856 -15.3158 303.637 -15.1784 303.417 -15.0566C303.365 -15.0242 303.314 -14.9919 303.262 -14.9596C303.069 -14.8383 302.863 -14.709 302.683 -14.5802C302.67 -14.5721 302.644 -14.556 302.632 -14.5479C302.426 -14.4029 302.234 -14.266 302.028 -14.1211C301.977 -14.0887 301.939 -14.0488 301.888 -14.0165C301.696 -13.864 301.491 -13.719 301.326 -13.5671C295.772 -8.90147 293.381 -4.53363 292.34 -1.75797C292.063 -1.00112 291.886 -0.371477 291.768 0.123945C284.888 -1.26525 278.117 -2.85227 271.593 -4.78858L271.47 -4.82527C271.389 -4.85495 271.294 -4.87654 271.212 -4.90622L269.091 -5.55272C269.091 -5.55272 269.091 -5.55272 269.064 -5.55218C268.914 -5.60398 268.751 -5.64771 268.601 -5.69951L268.533 -5.72163C267.131 -6.17113 265.742 -6.62873 264.365 -7.11003C247.785 -12.9159 233.616 -20.9142 223.062 -30.3855C222.047 -31.3045 219.798 -30.2344 220.799 -29.323C230.128 -20.9465 242.317 -13.6836 256.429 -8.06338C259.669 -6.77392 263.024 -5.58847 266.427 -4.49789L269.161 -3.65227C276.095 -1.55195 283.316 0.19047 290.697 1.70274C290.53 1.82345 290.378 1.95171 290.225 2.07998C290.186 2.10423 290.148 2.14412 290.11 2.16837C289.905 2.32897 289.715 2.49712 289.524 2.66527C289.498 2.68143 289.499 2.69707 289.473 2.71324C289.296 2.87331 289.118 3.03337 288.94 3.19344C288.915 3.22524 288.889 3.24141 288.851 3.26566C288.687 3.43328 288.509 3.59335 288.345 3.76097C288.32 3.79277 288.283 3.83265 288.244 3.8569C288.08 4.02452 287.929 4.18405 287.792 4.35114C287.78 4.37486 287.741 4.39911 287.729 4.42283C287.592 4.58992 287.454 4.74137 287.316 4.90846C287.304 4.93218 287.292 4.94027 287.266 4.95643C287.128 5.12352 287.005 5.29816 286.881 5.45716C286.856 5.48897 286.831 5.52076 286.806 5.55256C286.695 5.71912 286.571 5.87813 286.474 6.05224C286.45 6.08404 286.438 6.10776 286.413 6.13956C286.302 6.30612 286.205 6.48023 286.095 6.64679L286.082 6.65487C285.985 6.82898 285.888 7.00309 285.792 7.17719C285.767 7.209 285.769 7.24026 285.744 7.27207C285.66 7.43809 285.576 7.60412 285.506 7.7777C285.495 7.81705 285.47 7.84885 285.472 7.88012C285.402 8.0537 285.318 8.21972 285.261 8.38522C285.261 8.40085 285.249 8.42458 285.237 8.43266C285.179 8.59815 285.108 8.7561 285.064 8.91351C285.052 8.93723 285.054 8.9685 285.042 8.99222C284.985 9.15771 284.941 9.33075 284.897 9.48817C284.886 9.52752 284.888 9.55879 284.877 9.59814C284.846 9.76311 284.789 9.9286 284.759 10.0936C284.747 10.1173 284.748 10.1486 284.736 10.1723C284.706 10.3372 284.674 10.4866 284.657 10.6434C284.658 10.6591 284.646 10.6828 284.647 10.6984C284.616 10.8634 284.612 11.0278 284.596 11.2003C284.597 11.2316 284.586 11.271 284.588 11.3022C284.584 11.4667 284.567 11.6235 284.563 11.788C284.565 11.8193 284.567 11.8505 284.568 11.8818C284.565 12.0462 284.561 12.2107 284.557 12.3751L284.558 12.3907C284.554 12.5552 284.564 12.7271 284.587 12.891C284.589 12.9223 284.59 12.9536 284.592 12.9849C284.601 13.1412 284.624 13.3051 284.633 13.4615C284.635 13.4927 284.637 13.524 284.652 13.5628C284.675 13.7267 284.698 13.8906 284.734 14.0464C284.735 14.0621 284.736 14.0777 284.737 14.0933C284.759 14.2416 284.794 14.3974 284.83 14.5532C284.832 14.5845 284.847 14.6077 284.848 14.639C284.884 14.7948 284.92 14.9506 284.969 15.0983C285.067 15.1825 285.069 15.2137 285.084 15.2526Z" fill="#3D4775"/>
<path d="M273.159 69.8883C273.159 69.8883 156.568 2.2299 59.4099 -13.6098C26.4437 -18.9867 0.858931 -18.8488 -18.5525 -16.3087C-59.0295 -11.0212 -69.0183 18.9087 -36.8264 38.4108C-21.3887 47.7639 0.965153 57.2803 33.2648 64.6703C128.447 86.4423 273.159 69.8883 273.159 69.8883Z" fill="#2F8C91"/>
<path d="M17.8107 21.7257C24.4679 23.0182 31.1156 24.3147 37.7729 25.6072C45.0791 40.2616 52.3758 54.92 59.6903 69.5807C60.4828 69.7004 61.2752 69.82 62.0691 69.9294C54.7847 55.3146 47.5002 40.6997 40.2158 26.0848C46.5009 27.3075 52.8039 28.5326 59.089 29.7553C66.4417 43.7397 72.7813 57.8218 78.0777 71.9557C78.8305 72.0335 79.5818 72.1216 80.3346 72.1993C75.0915 58.1405 68.8217 44.1462 61.5498 30.2353C67.596 31.411 73.6422 32.5866 79.6884 33.7622C85.7119 47.1005 91.7271 60.4325 97.7507 73.7708C98.5063 73.8279 99.2619 73.8851 100.027 73.9383C94.0526 60.706 88.0796 47.4635 82.1052 34.2312C88.4439 35.461 94.7812 36.701 101.12 37.9308C108.494 50.2354 115.054 62.6429 120.759 75.1217C121.509 75.152 122.25 75.1862 122.992 75.2101C117.359 62.8666 110.899 50.5927 103.634 38.4178C110.158 39.6876 116.682 40.9573 123.216 42.2231C129.594 53.3069 135.197 64.4776 139.993 75.6998C140.726 75.7174 141.462 75.7247 142.195 75.7423C137.47 64.6658 131.974 53.6453 125.712 42.7078C131.024 43.7399 136.344 44.7784 141.655 45.8105C148.073 55.7411 153.76 65.7697 158.692 75.8671C159.429 75.8641 160.155 75.8651 160.892 75.8621C156.056 65.9293 150.491 56.0739 144.214 46.3085C150.694 47.5673 157.174 48.8261 163.654 50.0848C170.442 58.3762 175.785 66.9341 179.619 75.6294C180.339 75.6138 181.059 75.5982 181.789 75.5786C178.055 67.085 172.884 58.728 166.363 50.6079C168.567 51.0385 170.781 51.4651 172.985 51.8957C173.288 52.0717 173.701 52.1731 174.136 52.12C175.738 52.4298 177.331 52.7436 178.934 53.0533C185.589 60.127 190.166 67.6409 192.481 75.2827C193.203 75.2568 193.914 75.2348 194.636 75.2089C192.371 67.7991 188.044 60.512 181.793 53.6118C186.652 54.5584 191.504 55.4988 196.364 56.4454C201.072 62.4093 205.055 68.4878 208.299 74.6579C209.022 74.6217 209.735 74.5895 210.458 74.5533C207.33 68.5975 203.51 62.7238 199.037 56.9638C203.552 57.8391 208.066 58.7246 212.581 59.5998C214.694 63.74 216.809 67.8699 218.923 72.0101C219.275 72.6905 219.616 73.3852 219.968 74.0656C220.682 74.0231 221.388 73.9845 222.093 73.946C221.569 72.9285 221.08 71.9158 220.573 70.911C218.732 67.2993 216.882 63.6915 215.042 60.0798C218.866 60.8225 222.673 61.5629 226.497 62.3056C229.415 65.8805 232.099 69.5032 234.514 73.1693C235.238 73.1228 235.954 73.0699 236.661 73.0211C234.405 69.5907 231.926 66.194 229.223 62.8414C233.684 63.7096 238.138 64.5715 242.59 65.4437C244.281 67.6888 245.806 69.954 247.146 72.2473C247.872 72.1905 248.58 72.1313 249.278 72.0761C248.069 70.0202 246.723 67.9724 245.237 65.9534C247.929 66.4741 250.61 66.9989 253.302 67.5196C254.311 68.8418 255.33 70.16 256.331 71.4759C257.067 71.4151 257.766 71.3497 258.456 71.2882C257.623 70.204 256.791 69.1198 255.966 68.042C259.985 68.8208 263.995 69.6035 268.023 70.3886C271.359 70.0504 273.16 69.8411 273.16 69.8411C273.16 69.8411 271.746 69.0162 269.095 67.5364C264.616 66.6658 260.137 65.7953 255.657 64.9247C257.706 64.4963 259.659 63.9715 261.532 63.3732C260.939 63.0544 260.339 62.7293 259.722 62.3915C257.284 63.1358 254.691 63.7497 251.938 64.2063C248.813 63.6025 245.689 62.9883 242.564 62.3844C246.559 61.5509 250.328 60.5095 253.871 59.2602C253.278 58.9414 252.676 58.6265 252.058 58.299C248.299 59.5986 244.253 60.6667 239.979 61.4794C239.691 61.5306 239.521 61.6395 239.422 61.7679C233.668 60.6464 227.923 59.5311 222.169 58.4096C228.741 56.677 235.161 54.7935 241.436 52.7756C240.816 52.4584 240.188 52.1349 239.55 51.8154C232.839 53.9648 225.95 55.9545 218.902 57.7767C213.732 56.7736 208.554 55.7642 203.384 54.7611C212.329 52.2915 221.14 49.6733 229.797 46.9247C229.159 46.6052 228.52 46.2959 227.864 45.9741C218.791 48.8462 209.556 51.5714 200.161 54.1392C193.822 52.9095 187.475 51.6734 181.136 50.4437C193.229 47.4225 205.044 44.108 216.57 40.5145C215.913 40.2029 215.256 39.8913 214.591 39.5735C202.63 43.2882 190.347 46.6986 177.78 49.7991C173.602 48.9889 169.415 48.1725 165.236 47.3623C177.159 42.6625 189.082 37.9627 201.005 33.2629C200.355 32.968 199.705 32.673 199.046 32.3717C186.836 37.1806 174.633 41.9957 162.413 46.8086C154.304 45.2314 146.195 43.6541 138.087 42.0769C155.212 37.745 171.782 32.8266 187.721 27.343C187.035 27.0434 186.357 26.7501 185.671 26.4504C169.327 32.0432 152.336 37.048 134.758 41.4307C127.33 39.99 119.912 38.5453 112.476 37.0983C129.782 30.5937 147.097 24.0852 164.403 17.5807C163.696 17.2993 162.999 17.014 162.301 16.7389C144.736 23.3405 127.172 29.9422 109.616 36.5501C106.783 36.0004 103.95 35.4506 101.127 34.8968C97.6829 34.2302 94.2403 33.5533 90.7963 32.8867C109.439 25.5093 128.092 18.1279 146.735 10.7505C146.018 10.4834 145.292 10.2099 144.564 9.94681C125.709 17.4117 106.836 24.8743 87.9813 32.3392C82.6697 31.3071 77.3582 30.275 72.0466 29.2429C89.6051 20.4967 107.163 11.7505 124.714 2.99798C123.983 2.75545 123.253 2.51292 122.513 2.27436C104.915 11.0468 87.3086 19.8129 69.7102 28.5853C69.6125 28.6353 69.5504 28.6901 69.4884 28.7449C61.8932 27.2665 54.3063 25.7944 46.7111 24.316C66.2387 15.1938 85.7746 6.07802 105.302 -3.04412C104.524 -3.26677 103.737 -3.49573 102.959 -3.71837C83.3157 5.45151 63.6725 14.6214 44.0375 23.7976C38.3456 22.6894 32.6619 21.5875 26.97 20.4793C43.8824 10.2803 60.7962 0.0710209 77.7086 -10.128C76.8971 -10.3078 76.0938 -10.4813 75.2809 -10.6508C58.3479 -0.433552 41.397 9.78133 24.4639 19.9986C18.4095 18.8166 12.3537 17.6449 6.29925 16.4629C20.4401 5.46542 35.7386 -4.96095 52.1164 -14.774C51.2072 -14.9038 50.3158 -15.0312 49.423 -15.1483C33.1663 -5.356 17.9805 5.04323 3.95243 16.0136C-5.8742 14.1063 -15.6994 12.1886 -25.526 10.2812C-12.9119 0.409578 0.58693 -9.02107 14.8963 -17.9995C13.8272 -18.0244 12.7843 -18.0406 11.7317 -18.0529C-2.20869 -9.24623 -15.3551 2.62198e-05 -27.6578 9.6557C-27.7295 9.71444 -27.7833 9.77552 -27.8111 9.84527C-31.9458 9.04612 -36.0791 8.23668 -40.2138 7.43753C-30.8022 -0.752321 -21.3824 -8.93585 -11.9804 -17.1217C-13.0664 -17.0231 -14.1359 -16.9117 -15.1876 -16.7981C-24.3 -8.86776 -33.4125 -0.937431 -42.5331 6.98657C-46.6225 6.18814 -50.7215 5.39367 -54.8027 4.60155C-55.1772 5.54309 -55.4734 6.5106 -55.7065 7.48117C-54.5736 7.70314 -53.4407 7.92511 -52.3078 8.14708C-48.4543 17.4268 -44.6009 26.7066 -40.7556 35.98C-39.803 36.6553 -38.7941 37.317 -37.748 37.9732C-41.8043 28.1846 -45.8703 18.4 -49.9349 8.60508C-46.2795 9.32039 -42.6226 10.0254 -38.9672 10.7407C-34.0008 22.3102 -29.0166 33.8821 -24.0502 45.4516C-23.1558 45.8886 -22.2339 46.324 -21.3025 46.7554C-26.3943 34.9074 -31.4943 23.0531 -36.5764 11.2011C-30.9024 12.3069 -25.2366 13.4065 -19.5625 14.5124C-14.3134 27.6652 -9.05457 40.8141 -3.80541 53.9669C-2.96553 54.271 -2.12565 54.5751 -1.25828 54.8776C-6.56872 41.5752 -11.8888 28.2767 -17.191 14.9806C-12.242 15.939 -7.2944 16.9077 -2.34538 17.866C-2.20394 17.8951 -2.07072 17.9178 -1.92929 17.9468C4.82173 31.8784 10.37 45.8987 14.713 59.96C15.4996 60.189 16.2958 60.414 17.1016 60.635C12.7767 46.5079 7.22868 32.4195 0.495766 18.4221C1.13292 18.5476 1.77008 18.6731 2.39901 18.7923C2.5294 18.8356 2.67085 18.8647 2.79725 18.8707C6.94019 19.6762 11.0831 20.4817 15.2343 21.2935C24.2538 36.0468 32.1089 50.9409 38.8052 65.9347C39.6098 66.0979 40.4131 66.2713 41.2274 66.4306C34.6124 51.3741 26.7752 36.4823 17.8107 21.7257Z" fill="#286F7F"/>
<path d="M125.132 59.4309C127.664 49.7981 117.923 37.3526 114.1 32.9405C123.12 36.58 132.283 39.8654 141.587 42.7799C144.087 75.0168 172.741 104.62 172.741 104.62C172.741 104.62 168.504 97.4627 164.267 77.2681C160.523 59.4427 148.314 47.496 143.49 43.3699C152.258 46.0623 161.119 48.425 170.067 50.4515C173.312 51.1859 176.57 51.8731 179.83 52.5169C188.187 61.0883 182.473 76.0827 187.138 90.1272C190.642 100.697 217.773 110.334 217.773 110.334C217.773 110.334 195.041 100.3 197.841 83.8316C200.077 70.6786 185.874 57.3918 180.064 52.5619C190.447 54.6004 200.924 56.1888 211.454 57.3148C212.357 60.2634 215.542 70.105 220.408 79.7425C226.148 91.0958 247.006 115.238 247.006 115.238C247.006 115.238 246.423 104.64 240.404 90.1042C235.534 78.3607 217.063 61.6009 212.308 57.4097C221.065 58.3239 229.859 58.9264 238.684 59.2106C240.159 62.1133 245.224 71.9269 251.369 81.9943C258.695 93.9881 291.63 121.107 291.63 121.107C291.63 121.107 286.222 112.2 274.972 93.0857C265.295 76.6543 245.133 62.7996 239.659 59.2327C247.617 59.4691 255.593 59.4511 263.583 59.172C269.302 60.8616 286.481 64.3988 321.76 60.5321C363.25 55.9874 375.944 52.6433 375.944 52.6433C375.944 52.6433 299.998 45.5192 263.973 57.4452C256.731 57.7079 249.636 57.7433 242.688 57.5951C249.442 54.5251 273.391 43.1584 292.434 27.9315C314.822 10.0237 320.383 4.19202 320.383 4.19202C320.383 4.19202 272.763 28.5239 259.339 40.2645C248.752 49.5293 243.367 55.4675 241.557 57.5631C232.067 57.3201 222.852 56.7068 213.952 55.7958C220.488 52.744 244.837 40.6498 252.996 26.5945C262.457 10.2977 281.969 2.0303 281.969 2.0303C281.969 2.0303 260.066 7.17451 241.768 27.2422C226.585 43.8887 216.337 53.0792 213.273 55.7305C201.594 54.5094 190.449 52.7751 179.881 50.6505C185.983 48.3203 204.277 40.571 215.213 27.8454C228.488 12.4008 253.01 -2.77261 253.01 -2.77261C253.01 -2.77261 214.716 11.7472 195.289 29.5465C181.278 42.3831 178.404 48.0655 177.89 50.2429C165.888 47.772 154.634 44.8134 144.194 41.6028C149.858 40.021 168.118 34.2013 185.46 20.7867C206.327 4.65064 222.415 -7.85718 222.415 -7.85718C222.415 -7.85718 154.959 22.2421 142.906 41.2099C132.562 37.9772 123.037 34.4992 114.39 30.9718C119.586 29.9251 135.084 26.0347 146.957 15.2273C161.424 2.05645 171.165 -1.84126 185.21 -6.03738C185.21 -6.03738 153.823 -0.247003 142.211 8.80631C128.633 19.3971 122.983 27.7412 114.074 30.8417C108.298 28.4848 102.93 26.1089 97.9698 23.7909C58.1556 5.12629 35.5596 -14.6218 35.3243 -14.8205C34.871 -15.2151 33.9692 -15.329 33.2881 -15.0767C33.2047 -15.0414 33.1213 -15.0061 33.0442 -14.9643C32.5782 -14.6867 32.4884 -14.2468 32.8688 -13.8975C33.093 -13.6951 55.9006 6.24218 96.0573 25.0798C101.516 27.6409 107.043 30.0601 112.634 32.3475C112.706 36.3674 112.906 51.0448 111.947 60.6965C110.831 71.9663 140.33 93.4448 140.33 93.4448C140.33 93.4448 121.998 71.3467 125.132 59.4309Z" fill="#E5674E"/>
<path d="M501.992 122.795C501.992 122.795 673.287 102.088 741.998 55.996C765.315 40.3504 775.535 25.1466 778.841 11.8825C785.755 -15.7823 735.186 -42.9708 686.4 -37.8385C662.995 -35.3773 636.462 -28.9541 609.733 -15.136C531.009 25.5616 501.992 122.795 501.992 122.795Z" fill="#BAE3DD"/>
<path d="M694.28 6.32956C689.188 9.33609 684.119 12.3428 679.027 15.3493C649.296 9.23975 619.551 3.12343 589.819 -2.98617C589.275 -2.60633 588.744 -2.21977 588.213 -1.83321C617.87 4.26257 647.527 10.3583 677.17 16.4474C672.37 19.2906 667.546 22.1337 662.745 24.977C634.213 19.3666 605.923 13.1026 577.966 6.17243C577.505 6.55954 577.044 6.94665 576.594 7.32721C604.389 14.223 632.515 20.4858 660.869 26.0881C656.259 28.8203 651.625 31.5522 647.014 34.2844C620.215 28.3564 593.402 22.4216 566.603 16.4936C566.183 16.9009 565.774 17.3016 565.368 17.7156C591.968 23.6024 618.567 29.4892 645.167 35.3759C640.314 38.2386 635.484 41.1015 630.631 43.9642C605.155 39.5627 579.835 34.6129 554.718 29.115C554.359 29.5294 553.99 29.9503 553.631 30.3647C578.464 35.814 603.505 40.7286 628.692 45.1014C623.711 48.0492 618.721 51.0035 613.726 53.9446C590.885 49.8283 568.207 45.1902 545.754 40.0374C545.432 40.4587 545.101 40.8865 544.779 41.3078C566.921 46.3986 589.292 50.988 611.807 55.0686C607.743 57.4673 603.693 59.8727 599.629 62.2714C578.871 58.9989 558.257 55.2177 537.806 50.9477C537.511 51.3825 537.216 51.8172 536.908 52.2452C557.002 56.4528 577.286 60.1852 597.67 63.4216C592.719 66.3498 587.768 69.278 582.816 72.2061C564.907 70.3131 547.104 67.3812 529.659 63.4656C529.387 63.9005 529.13 64.3422 528.859 64.7771C545.896 68.6168 563.251 71.4988 580.75 73.4284C579.064 74.4284 577.387 75.422 575.687 76.4153C575.247 76.4715 574.875 76.6408 574.81 76.9382C573.591 77.6572 572.363 78.3827 571.145 79.1016C555.502 77.9941 539.925 75.351 525.033 71.2829C524.776 71.7246 524.542 72.1664 524.284 72.608C538.739 76.5403 553.809 79.1729 568.958 80.3891C565.244 82.5853 561.54 84.7748 557.827 86.971C545.017 85.508 532.291 83.5291 519.704 81.0614C519.474 81.5165 519.24 81.9583 518.996 82.4067C531.152 84.7983 543.416 86.7206 555.78 88.1801C552.325 90.2193 548.87 92.2585 545.439 94.2979C537.033 92.6041 528.604 90.9101 520.198 89.2162C518.806 88.9406 517.411 88.6517 516.02 88.3761C515.8 88.8247 515.579 89.2732 515.369 89.7153C517.432 90.1285 519.49 90.5615 521.53 90.9746C528.879 92.455 536.214 93.9287 543.563 95.4091C540.648 97.1346 537.734 98.8602 534.82 100.586C527.091 99.7712 519.389 98.7648 511.721 97.5931C511.504 98.0549 511.311 98.5169 511.114 98.9657C518.308 100.074 525.502 101.024 532.744 101.815C529.328 103.828 525.936 105.841 522.52 107.854C517.735 107.261 512.973 106.542 508.236 105.711C508.043 106.173 507.85 106.635 507.677 107.084C511.935 107.838 516.209 108.487 520.493 109.05C518.436 110.266 516.38 111.481 514.323 112.697C511.509 112.357 508.681 112.011 505.857 111.678C505.668 112.153 505.498 112.615 505.325 113.064C507.641 113.341 509.961 113.63 512.277 113.906C509.202 115.723 506.136 117.534 503.062 119.351C502.341 121.576 501.994 122.792 501.994 122.792C501.994 122.792 504.075 122.543 507.857 122.03C511.283 120.01 514.695 117.984 518.13 115.958C518.069 117.473 518.232 118.998 518.56 120.523C519.38 120.404 520.223 120.284 521.095 120.145C520.72 118.176 520.673 116.209 520.972 114.265C523.369 112.853 525.743 111.441 528.14 110.029C528.028 112.975 528.393 115.951 529.223 118.917C530.038 118.784 530.868 118.658 531.72 118.532C530.887 115.394 530.589 112.247 530.866 109.143C530.889 108.938 530.764 108.752 530.581 108.605C534.972 106.003 539.377 103.409 543.768 100.807C544.239 105.916 545.043 111.041 546.17 116.188C546.995 116.048 547.844 115.909 548.689 115.757C547.509 110.265 546.698 104.796 546.263 99.33C550.215 96.99 554.168 94.6501 558.124 92.3234C558.983 99.362 560.151 106.416 561.614 113.479C562.459 113.327 563.28 113.175 564.135 113.016C562.599 105.621 561.405 98.2352 560.566 90.8657C565.42 88.003 570.259 85.1335 575.103 82.2774C575.668 91.5584 576.891 100.891 578.733 110.255C579.574 110.089 580.415 109.923 581.256 109.758C579.375 100.056 578.172 90.3925 577.67 80.7677C580.877 78.8788 584.059 76.9898 587.256 75.1075C590.949 85.4854 594.653 95.8568 598.347 106.235C599.151 106.062 599.955 105.89 600.769 105.71C596.978 95.0802 593.201 84.4566 589.4 73.8329C595.589 70.1727 601.788 66.506 607.977 62.8458C608.859 76.0227 611.068 89.2959 614.552 102.606C615.376 102.42 616.195 102.221 617.029 102.029C613.513 88.4077 611.332 74.8301 610.521 61.3359C616.203 57.9829 621.871 54.6233 627.543 51.2769C632.327 66.1129 637.11 80.9488 641.907 95.7915C642.709 95.5726 643.502 95.3602 644.304 95.1413C639.445 80.0862 634.572 65.0245 629.714 49.9694C631.882 48.695 634.036 47.4138 636.204 46.1394C638.84 44.5838 641.477 43.0283 644.089 41.4726C649.93 57.7271 655.767 73.9683 661.608 90.2228C662.392 89.9839 663.167 89.7515 663.952 89.5125C658.047 73.0788 652.143 56.645 646.234 40.198C650.298 37.7993 654.348 35.3939 658.412 32.9952C667.191 49.5704 675.973 66.1588 684.751 82.734C685.495 82.4748 686.239 82.2157 686.969 81.9499C678.165 65.3282 669.362 48.7065 660.558 32.0848C660.507 31.9917 660.437 31.9117 660.348 31.8448C666.147 28.4133 671.946 24.9818 677.759 21.5571C686.406 39.5681 695.063 57.5726 703.71 75.5836C704.442 75.2846 705.174 74.9857 705.893 74.6801C697.195 56.576 688.494 38.4586 679.796 20.3545C684.138 17.7858 688.48 15.2171 692.832 12.6419C704.532 29.8819 716.227 47.1086 727.926 64.3486C728.586 64.0028 729.242 63.6437 729.889 63.2911C718.172 46.0311 706.455 28.7711 694.752 11.5178C699.372 8.77912 704.006 6.04715 708.626 3.30846C722.913 19.4693 735.681 35.9164 746.891 52.5633C747.5 52.1244 748.096 51.6787 748.682 51.2396C737.461 34.6787 724.688 18.3309 710.424 2.24966C717.929 -2.19495 725.439 -6.62628 732.944 -11.0709C745.787 3.39032 757.486 18.0612 768.026 32.8887C768.514 32.2766 768.97 31.671 769.425 31.0653C759.057 16.5835 747.562 2.2519 734.979 -11.8762C734.896 -11.963 734.806 -12.0299 734.703 -12.1035C737.856 -13.9729 741.023 -15.8355 744.176 -17.7049C755.277 -6.32951 766.354 5.04569 777.455 16.4211C777.715 15.708 777.956 15.008 778.169 14.2945C767.431 3.27946 756.693 -7.73557 745.941 -18.7573C749.065 -20.6071 752.189 -22.4568 755.326 -24.2998C753.753 -25.1992 752.121 -26.0594 750.43 -26.8803C749.563 -26.3639 748.705 -25.8541 747.824 -25.3444C729.309 -29.6722 710.809 -33.9933 692.295 -38.3211C690.67 -38.2344 689.043 -38.1145 687.437 -37.9614C706.956 -33.4007 726.488 -28.8332 746.006 -24.2725C743.209 -22.6255 740.416 -20.9652 737.619 -19.3182C714.471 -24.6089 691.322 -29.8995 668.169 -35.2034C667.005 -34.9807 665.831 -34.7514 664.662 -34.5088C688.375 -29.088 712.088 -23.6672 735.792 -18.2398C731.46 -15.6777 727.127 -13.1155 722.795 -10.5534C696.65 -16.8074 670.495 -23.0549 644.35 -29.309C643.459 -29.0311 642.559 -28.7467 641.649 -28.4558C668.095 -22.1332 694.541 -15.8106 720.987 -9.48804C717.215 -7.25265 713.419 -5.01743 709.647 -2.78203C709.549 -2.71658 709.438 -2.65784 709.326 -2.59911C681.147 -8.52456 653.282 -15.2157 625.844 -22.6517C625.102 -22.3462 624.374 -22.034 623.632 -21.7285C651.18 -14.2387 679.167 -7.48705 707.465 -1.51433C706.988 -1.22668 706.486 -0.939207 706.008 -0.651555C705.869 -0.606278 705.771 -0.540814 705.711 -0.468447C702.547 1.40747 699.371 3.27667 696.208 5.15259C665.592 -0.0169665 635.193 -5.96618 605.096 -12.6878C604.464 -12.3285 603.831 -11.9692 603.199 -11.6099C633.288 -4.83539 663.68 1.13364 694.28 6.32956Z" fill="#97C9CE"/>
<path d="M643.137 17.4141C636.328 8.08708 640.753 -5.7901 642.687 -10.7594C635.146 -5.82657 627.282 -1.23898 619.132 2.99454C630.755 35.7536 614.719 69.5419 614.719 69.5419C614.719 69.5419 615.873 61.7544 611.298 40.8602C607.258 22.4215 614.389 8.68865 617.475 3.86823C609.771 7.80846 601.815 11.4292 593.626 14.7313C590.665 15.9291 587.657 17.0697 584.636 18.1767C579.92 27.9607 592.324 42.243 593.768 57.0015C594.848 68.122 571.581 81.618 571.581 81.618C571.581 81.618 590.226 68.3348 580.151 52.1762C572.095 39.2736 580.664 23.9119 584.436 18.2425C574.81 21.7524 564.876 24.8195 554.671 27.4458C555.047 30.5377 556.158 40.8728 555.442 51.2527C554.601 63.4734 544.06 90.6675 544.06 90.6675C544.06 90.6675 539.979 79.9335 539.709 64.4724C539.473 51.9867 550.859 32.5336 553.841 27.653C545.363 29.8028 536.705 31.648 527.871 33.1776C527.654 36.3035 526.831 46.8745 525.012 57.8624C522.817 70.962 501.322 102.852 501.322 102.852C501.322 102.852 502.898 93.1414 505.91 72.3456C508.492 54.4675 522.859 37.7096 526.857 33.3531C518.884 34.7101 510.783 35.8087 502.55 36.6599C497.484 39.1665 481.623 45.1425 444.117 46.2153C400.02 47.4833 385.671 45.9205 385.671 45.9205C385.671 45.9205 459.599 28.0628 501.378 34.9795C508.836 34.2292 516.062 33.2697 523.033 32.1327C514.823 30.0006 485.532 21.9458 459.532 9.32208C428.94 -5.5251 420.747 -10.5969 420.747 -10.5969C420.747 -10.5969 479.751 7.153 498.544 17.0642C513.35 24.8825 521.445 30.0912 524.199 31.9543C533.724 30.374 542.79 28.4632 551.425 26.2889C543.465 24.1374 513.426 15.4196 498.974 2.43843C482.218 -12.6114 458.783 -18.1677 458.783 -18.1677C458.783 -18.1677 483.268 -16.0864 510.651 1.50851C533.377 16.1004 547.809 23.8879 552.076 26.1268C563.382 23.2531 573.924 19.9451 583.719 16.3241C576.507 14.8355 554.551 9.63137 537.849 -1.62221C517.589 -15.2737 486.054 -27.0775 486.054 -27.0775C486.054 -27.0775 531.298 -17.8772 558.826 -2.7233C578.688 8.20685 584.094 13.5127 585.576 15.625C596.674 11.4503 606.789 6.89521 615.962 2.19151C609.51 1.39939 588.439 -1.87729 564.936 -12.925C536.672 -26.2051 514.851 -36.5072 514.851 -36.5072C514.851 -36.5072 596.523 -15.7562 617.078 1.61694C626.155 -3.08093 634.289 -7.92747 641.518 -12.691C635.788 -13.0183 618.335 -14.7357 601.55 -23.9276C581.086 -35.1303 569.492 -37.6723 553.395 -39.9187C553.395 -39.9187 587.793 -38.5225 603.546 -31.0581C621.979 -22.3249 631.38 -14.74 641.775 -12.8741C646.588 -16.0502 650.998 -19.193 655.013 -22.2367C687.228 -46.603 701.462 -69.632 701.612 -69.8536C701.895 -70.3195 702.767 -70.5572 703.575 -70.3939C703.687 -70.377 703.775 -70.3395 703.866 -70.3128C704.457 -70.0955 704.748 -69.6646 704.513 -69.2617C704.38 -69.0282 689.996 -45.7776 657.538 -21.1948C653.135 -17.8548 648.581 -14.643 643.915 -11.5575C645.598 -7.5105 651.854 7.27488 657.07 16.8449C663.148 28.0133 642.675 53.7597 642.675 53.7597C642.675 53.7597 651.544 28.958 643.137 17.4141Z" fill="#FCF4DF"/>
<path d="M200.499 112.875C200.499 112.875 130.147 23.3757 49.5198 -15.2531C22.1641 -28.3621 -1.40583 -34.7129 -20.6102 -37.3715C-60.6505 -42.9234 -86.0655 -18.9079 -67.0861 6.53185C-57.985 18.7322 -42.6212 32.8273 -16.9701 47.553C58.6231 90.9427 200.499 112.875 200.499 112.875Z" fill="#1A4143"/>
<path d="M-8.10653 5.54983C-2.6886 8.38116 2.71833 11.2136 8.13626 14.0449C6.89187 28.8941 5.63647 43.7444 4.39621 58.6012C5.05971 58.9079 5.72322 59.2146 6.39363 59.5125C7.6366 44.704 8.87957 29.8954 10.1225 15.0869C15.2363 17.7621 20.3651 20.444 25.4789 23.1192C24.6412 37.3857 22.819 51.4825 20.0097 65.3614C20.6594 65.6209 21.3023 65.8891 21.9521 66.1486C24.7697 52.3499 26.6083 38.3486 27.4803 24.1678C32.3999 26.7408 37.3196 29.3138 42.2392 31.8869C40.5306 45.2438 38.8178 58.5931 37.1091 71.9501C37.7727 72.192 38.4363 72.434 39.1108 72.6748C40.807 59.4243 42.5101 46.165 44.2062 32.9146C49.3654 35.6096 54.5176 38.3134 59.6768 41.0084C59.7712 53.7902 59.0615 66.4573 57.527 78.9713C58.2003 79.188 58.8625 79.4057 59.5316 79.6147C61.059 67.2391 61.7879 54.7158 61.7236 42.0768C67.0315 44.8543 72.3393 47.6317 77.6581 50.4081C77.5002 61.8548 76.5822 73.1824 74.8946 84.3515C75.5596 84.5528 76.2315 84.7453 76.8964 84.9466C78.5702 73.9247 79.5045 62.7573 79.6898 51.4698C84.012 53.7296 88.3384 55.9971 92.6606 58.2569C93.1659 68.6907 92.9456 79.0264 91.9941 89.232C92.6729 89.4158 93.3406 89.6006 94.0193 89.7844C94.9693 79.7489 95.2074 69.5977 94.7419 59.3461C100.015 62.1027 105.289 64.8593 110.562 67.6159C112.298 76.6892 112.561 85.6331 111.361 94.3171C112.032 94.4855 112.702 94.6539 113.384 94.8212C114.565 86.3414 114.352 77.6192 112.769 68.7656C114.561 69.7053 116.364 70.644 118.156 71.5837C118.339 71.8165 118.664 72.0111 119.092 72.0739C120.397 72.7543 121.691 73.4357 122.996 74.1161C125.272 82.0755 125.397 89.8996 123.374 97.2645C124.052 97.4241 124.718 97.5848 125.395 97.7444C127.339 90.5979 127.32 83.0384 125.321 75.335C129.274 77.4046 133.224 79.4666 137.177 81.5362C138.265 88.0183 138.625 94.4187 138.255 100.713C138.939 100.864 139.612 101.016 140.297 101.167C140.657 95.0918 140.335 88.9143 139.353 82.6727C143.028 84.5917 146.697 86.5196 150.372 88.4387C150.066 92.6463 149.766 96.8452 149.46 101.053C149.414 101.746 149.35 102.448 149.304 103.141C149.984 103.284 150.653 103.428 151.323 103.572C151.394 102.537 151.495 101.515 151.574 100.495C151.844 96.8257 152.103 93.157 152.373 89.4872C155.486 91.1139 158.583 92.734 161.695 94.3607C162.436 98.2704 162.935 102.164 163.163 106.027C163.855 106.169 164.542 106.303 165.218 106.439C165.007 102.825 164.574 99.184 163.91 95.5258C167.54 97.425 171.166 99.3166 174.784 101.217C175.12 103.637 175.291 106.032 175.277 108.406C175.975 108.539 176.658 108.666 177.33 108.793C177.336 106.664 177.211 104.506 176.941 102.339C179.133 103.482 181.313 104.626 183.505 105.77C183.714 107.198 183.935 108.625 184.14 110.046C184.849 110.178 185.528 110.297 186.196 110.417C186.019 109.245 185.842 108.072 185.67 106.907C188.942 108.615 192.203 110.324 195.479 112.04C198.73 112.584 200.499 112.854 200.499 112.854C200.499 112.854 199.647 111.765 198.014 109.781C194.369 107.875 190.724 105.969 187.079 104.064C189.196 104.202 191.277 104.231 193.323 104.174C192.952 103.741 192.576 103.301 192.192 102.845C189.547 102.888 186.83 102.777 184.051 102.485C181.506 101.159 178.968 99.8232 176.423 98.4966C180.548 98.7681 184.579 98.7981 188.515 98.5865C188.143 98.1537 187.761 97.722 187.37 97.275C183.208 97.4766 178.909 97.4003 174.538 97.0397C174.245 97.0121 174.03 97.0657 173.869 97.1545C169.189 94.7035 164.513 92.2602 159.833 89.8091C166.816 89.9354 173.741 89.8892 180.606 89.6871C180.209 89.2489 179.807 88.8029 179.394 88.358C172.057 88.5664 164.643 88.5881 157.173 88.421C152.966 86.2227 148.753 84.0168 144.545 81.8186C154.111 81.8915 163.633 81.7987 173.084 81.551C172.672 81.1061 172.252 80.67 171.824 80.2186C161.923 80.4704 151.952 80.5508 141.92 80.4513C136.761 77.7562 131.598 75.0535 126.439 72.3584C139.197 72.7386 151.859 72.7882 164.408 72.5173C163.973 72.0746 163.538 71.6319 163.099 71.1815C150.085 71.45 136.941 71.3671 123.704 70.9373C120.302 69.1611 116.897 67.3772 113.496 65.6011C127.01 64.4491 140.524 63.2972 154.038 62.1453C153.601 61.7191 153.163 61.2929 152.721 60.859C138.884 62.0348 125.05 63.2184 111.201 64.3953C104.603 60.9441 98.0057 57.4929 91.4081 54.0416C109.505 54.5327 127.41 54.3628 145.042 53.5318C144.574 53.0924 144.11 52.6607 143.642 52.2213C125.578 53.0465 107.24 53.1865 88.6991 52.626C82.6535 49.4682 76.6189 46.3094 70.5692 43.1439C90.012 41.7531 109.466 40.3612 128.909 38.9704C128.412 38.5419 127.926 38.1124 127.433 37.6916C107.7 39.1031 87.9666 40.5146 68.2374 41.9338C65.9317 40.7291 63.6261 39.5245 61.3314 38.3188C58.5275 36.8558 55.7304 35.3841 52.9265 33.9212C74.0731 32.0945 95.2307 30.2668 116.377 28.4401C115.863 28.0215 115.344 27.5952 114.818 27.1777C93.4291 29.0284 72.025 30.8725 50.636 32.7232C46.3138 30.4634 41.9915 28.2036 37.6693 25.9438C58.5623 22.6284 79.4553 19.3129 100.344 15.9898C99.8047 15.5898 99.2652 15.1899 98.7147 14.7911C77.7707 18.1196 56.8226 21.4405 35.8786 24.7691C35.7616 24.7888 35.6748 24.8217 35.588 24.8546C29.4089 21.621 23.2339 18.3951 17.0547 15.1615C39.9623 12.0109 62.874 8.86793 85.7815 5.71731C85.1869 5.32283 84.5882 4.92066 83.9936 4.52617C60.9539 7.68988 37.9141 10.8536 14.8785 14.025C10.2479 11.6014 5.62146 9.18556 0.990897 6.76201C22.0792 1.9943 43.1745 -2.7822 64.2628 -7.54992C63.6145 -7.9148 62.9703 -8.27198 62.3151 -8.62808C41.1978 -3.8494 20.0654 0.922677 -1.05185 5.70135C-5.97561 3.12063 -10.9063 0.548691 -15.83 -2.03203C3.14425 -8.20955 22.8725 -13.5874 43.2598 -18.1481C42.4944 -18.4933 41.7441 -18.8319 40.987 -19.1617C20.7223 -14.5888 1.11248 -9.20653 -17.7434 -3.02454C-25.7409 -7.20339 -33.7315 -11.391 -41.729 -15.5699C-24.7699 -21.135 -7.23703 -26.085 10.7952 -30.4286C9.82599 -30.7213 8.87603 -30.9996 7.91505 -31.2769C-9.68475 -26.9922 -26.7934 -22.1166 -43.3489 -16.6643C-43.4467 -16.6303 -43.5294 -16.5898 -43.5928 -16.5349C-46.9597 -18.2902 -50.3198 -20.0543 -53.6867 -21.8096C-40.5854 -26.6932 -27.4799 -31.5691 -14.3896 -36.4516C-15.4415 -36.6389 -16.4852 -36.8108 -17.5137 -36.9761C-30.1991 -32.247 -42.8844 -27.518 -55.5739 -22.7966C-58.8996 -24.5398 -62.2362 -26.2819 -65.5577 -28.0174C-66.4135 -27.2769 -67.2114 -26.4936 -67.9529 -25.6915C-67.0321 -25.2079 -66.1112 -24.7243 -65.1903 -24.2407C-66.6891 -15.0333 -68.1878 -5.82589 -69.6907 3.37384C-69.1819 4.21398 -68.6138 5.05635 -68.0086 5.90314C-66.4199 -3.80702 -64.8422 -13.5161 -63.2577 -23.2339C-60.2858 -21.6743 -57.3071 -20.1234 -54.3352 -18.5638C-56.0547 -7.04343 -57.7592 4.48351 -59.4787 16.0039C-58.894 16.6179 -58.283 17.2374 -57.6611 17.8559C-55.9055 6.05672 -54.154 -5.75013 -52.3874 -17.5504C-47.772 -15.1334 -43.1607 -12.7242 -38.5453 -10.3072C-40.865 2.6893 -43.1738 15.6847 -45.4936 28.6812C-44.8867 29.1636 -44.2798 29.6459 -43.6467 30.1337C-41.302 16.989 -38.9683 3.84538 -36.6195 -9.29163C-32.5905 -7.18902 -28.5684 -5.07762 -24.5393 -2.975C-24.4251 -2.91346 -24.3149 -2.8596 -24.2007 -2.79805C-25.5629 11.2694 -28.0789 25.1111 -31.7253 38.6842C-31.1265 39.0864 -30.5168 39.4875 -29.8961 39.8875C-26.1973 26.2606 -23.6441 12.3585 -22.2295 -1.76269C-21.712 -1.49011 -21.1944 -1.21753 -20.681 -0.952634C-20.5846 -0.881216 -20.4704 -0.819669 -20.3575 -0.782273C-16.9864 0.980711 -13.6154 2.7437 -10.2402 4.51437C-9.96331 19.8849 -10.8334 35.0856 -12.8229 50.0814C-12.1718 50.4298 -11.5276 50.787 -10.8655 51.1343C-8.76721 36.1034 -7.88198 20.9093 -8.10653 5.54983Z" fill="#2F8C91"/>
</g>
<defs>
<clipPath id="clip0">
<rect width="708" height="125" fill="white"/>
</clipPath>
</defs>
</svg>
