<svg width="125" height="708" viewBox="0 0 125 708" fill="none" xmlns="http://www.w3.org/2000/svg">
<g clip-path="url(#clip0)">
<path d="M55.1464 344.303C55.1464 344.303 56.9171 124.424 0.0500378 -6.95757C-19.2416 -51.5391 -40.4175 -80.6253 -59.9886 -99.5787C-100.785 -139.112 -152.047 -112.26 -153.717 -50.4995C-154.519 -20.8812 -149.886 16.8564 -134.038 63.2501C-87.3277 199.959 55.1464 344.303 55.1464 344.303Z" fill="#2F8C91"/>
<path d="M-84.9856 -8.71016C-81.3935 0.541932 -77.815 9.78811 -74.2229 19.0402C-89.2961 46.0947 -104.383 73.1432 -119.459 100.215C-118.982 101.273 -118.505 102.331 -118.012 103.377C-102.978 76.3977 -87.9439 49.4186 -72.9096 22.4396C-69.5219 31.1777 -66.1229 39.9391 -62.7351 48.6771C-76.8077 74.9291 -91.8499 100.149 -107.821 124.244C-107.316 125.203 -106.828 126.173 -106.323 127.132C-90.417 103.194 -75.4437 78.1657 -61.4106 52.0999C-58.1508 60.505 -54.891 68.9102 -51.6313 77.3153C-65.8636 101.224 -80.0936 125.116 -94.3259 149.025C-93.7896 149.961 -93.2533 150.897 -92.7034 151.839C-78.5832 128.121 -64.4471 104.392 -50.3269 80.6739C-46.9054 89.482 -43.4999 98.3018 -40.0784 107.11C-51.7203 131.241 -64.1763 154.575 -77.4345 177.023C-76.8639 177.918 -76.3069 178.808 -75.734 179.685C-62.611 157.493 -50.2653 134.444 -38.7201 110.603C-35.2044 119.674 -31.6887 128.745 -28.1594 137.822C-38.8625 159.257 -50.3253 179.918 -62.5223 199.724C-61.947 200.584 -61.3558 201.433 -60.7806 202.293C-48.7346 182.755 -37.4005 162.407 -26.8124 141.291C-23.9477 148.674 -21.0854 156.075 -18.2207 163.458C-27.2345 183.466 -36.9877 202.765 -47.4574 221.289C-46.8502 222.127 -46.2566 222.958 -45.6495 223.795C-35.3379 205.59 -25.734 186.651 -16.8423 167.015C-13.3467 176.022 -9.8512 185.028 -6.35566 194.035C-12.7114 212.373 -20.6329 229.401 -29.9873 244.882C-29.3755 245.684 -28.7636 246.486 -28.1381 247.295C-18.9921 232.186 -11.218 215.611 -4.88957 197.797C-3.70424 200.863 -2.50531 203.936 -1.31998 207.002C-1.32483 207.573 -1.13222 208.174 -0.700363 208.602C0.166259 210.828 1.01928 213.047 1.8859 215.273C-2.82918 231.904 -9.87766 246.725 -18.9615 259.126C-18.3337 259.917 -17.7195 260.702 -17.0917 261.493C-8.30013 249.445 -1.37234 235.2 3.42369 219.25C6.04136 226.008 8.66138 232.749 11.279 239.507C6.5645 252.498 1.09219 264.808 -5.11724 276.39C-4.47347 277.169 -3.84331 277.943 -3.19955 278.722C2.79683 267.546 8.10813 255.683 12.7226 243.222C15.1608 249.495 17.583 255.78 20.0212 262.053C15.8029 269.753 11.6006 277.441 7.38236 285.14C6.693 286.411 5.97409 287.688 5.28473 288.958C5.93085 289.72 6.56336 290.476 7.19587 291.232C8.22874 289.335 9.2841 287.484 10.3123 285.621C13.9946 278.908 17.6634 272.189 21.3457 265.476C23.4089 270.791 25.4609 276.083 27.5241 281.398C24.7766 289.295 21.7689 296.985 18.4785 304.424C19.1382 305.192 19.8003 305.942 20.4488 306.686C23.5303 299.73 26.3812 292.562 28.9854 285.195C31.3899 291.398 33.7966 297.583 36.1874 303.781C34.3466 308.579 32.3406 313.213 30.1425 317.671C30.8181 318.427 31.4825 319.16 32.1334 319.887C34.0978 315.881 35.938 311.73 37.6221 307.455C39.0769 311.193 40.5182 314.925 41.973 318.663C40.8996 321.504 39.8397 324.351 38.7686 327.174C39.4579 327.936 40.1246 328.652 40.7778 329.361C41.6536 327.026 42.5295 324.69 43.403 322.372C45.574 327.956 47.7314 333.534 49.9001 339.136C53.1167 342.514 54.8915 344.303 54.8915 344.303C54.8915 344.303 54.9194 341.635 54.8758 336.719C52.4601 330.492 50.0444 324.266 47.6288 318.039C49.9214 319.832 52.2741 321.393 54.6662 322.767C54.6393 321.683 54.6148 320.582 54.5949 319.446C51.5303 317.613 48.5263 315.436 45.6171 312.876C43.9265 308.536 42.2519 304.185 40.5613 299.845C45.0288 303.342 49.6099 306.316 54.3047 308.767C54.2778 307.683 54.2373 306.594 54.2015 305.469C49.2577 302.836 44.4121 299.581 39.7463 295.738C39.4364 295.474 39.1414 295.419 38.8754 295.47C35.7773 287.468 32.6769 279.483 29.5788 271.481C37.4472 276.774 45.4081 281.7 53.4432 286.289C53.3915 285.176 53.3421 284.045 53.2791 282.909C44.6981 277.99 36.2007 272.664 27.8142 266.943C25.0235 259.758 22.2353 252.557 19.4447 245.372C30.3144 252.433 41.2878 259.152 52.3219 265.527C52.2589 264.39 52.1799 263.265 52.1057 262.106C40.553 255.413 29.0791 248.347 17.7002 240.898C14.2787 232.09 10.8595 223.264 7.43805 214.456C21.6765 224.407 36.1088 233.666 50.7055 242.239C50.6153 241.091 50.5251 239.943 50.4372 238.777C35.3106 229.862 20.3578 220.192 5.61715 209.801C3.36084 203.995 1.10689 198.171 -1.14942 192.365C15.3616 199.979 31.8727 207.593 48.3838 215.207C48.2753 214.087 48.1668 212.968 48.0606 211.832C31.1575 204.029 14.252 196.243 -2.66471 188.434C-7.03577 177.161 -11.4068 165.888 -15.7779 154.615C4.46301 168.64 25.0917 181.28 46.0154 192.479C45.8844 191.313 45.751 190.164 45.62 188.998C24.2072 177.476 3.11007 164.465 -17.5739 149.989C-21.5836 139.668 -25.5797 129.353 -29.5871 119.015C-6.07774 130.47 17.4452 141.931 40.9546 153.387C40.7804 152.221 40.6198 151.06 40.4433 149.912C16.5827 138.285 -7.27788 126.658 -31.1408 115.049C-32.6697 111.112 -34.1986 107.175 -35.7139 103.244C-37.5751 98.4603 -39.4203 93.665 -41.2815 88.8812C-15.4234 100.749 10.4483 112.623 36.3065 124.492C36.1028 123.331 35.9014 122.153 35.6841 120.986C9.52676 108.988 -16.6418 96.9662 -42.7992 84.9678C-45.6639 77.5848 -48.5285 70.2018 -51.3932 62.8189C-24.4564 71.7007 2.4804 80.5825 29.4196 89.4469C29.1704 88.3034 28.9211 87.16 28.6583 86.0106C1.65118 77.1166 -25.3536 68.2052 -52.3608 59.3112C-52.5127 59.2636 -52.6422 59.2626 -52.7716 59.2617C-56.8643 48.7013 -60.9593 38.1584 -65.0519 27.5979C-35.9632 38.2483 -6.87691 48.9161 22.2118 59.5665C21.8946 58.3935 21.5797 57.2029 21.2625 56.0299C-7.98939 45.3085 -37.2413 34.5871 -66.4955 23.8831C-69.5622 15.9686 -72.6312 8.07159 -75.6979 0.157127C-47.2027 6.44628 -18.6916 12.7239 9.80355 19.013C9.39769 17.8568 8.98948 16.7181 8.56767 15.5734C-19.9707 9.28396 -48.5202 2.97112 -77.0586 -3.31833C-80.316 -11.7409 -83.5894 -20.152 -86.8468 -28.5746C-59.4729 -26.4698 -31.9719 -22.3138 -4.46871 -16.1423C-5.02652 -17.3462 -5.57308 -18.5267 -6.1356 -19.6957C-33.5098 -25.7555 -60.8795 -29.8174 -88.1221 -31.8281C-93.425 -45.4842 -98.7118 -59.152 -104.015 -72.8082C-79.5078 -71.0092 -54.9105 -67.6368 -30.2994 -62.7615C-31.1386 -64.014 -31.9689 -65.2256 -32.8129 -66.4432C-56.8752 -71.1165 -80.9192 -74.3219 -104.861 -76.0411C-105.004 -76.048 -105.136 -76.0314 -105.259 -75.9741C-107.495 -81.7158 -109.715 -87.469 -111.951 -93.2108C-92.4817 -92.9212 -73.0147 -92.6142 -53.5589 -92.3305C-54.5895 -93.4446 -55.6248 -94.5237 -56.6489 -95.5794C-75.5006 -95.8588 -94.3523 -96.1382 -113.202 -96.435C-115.402 -102.124 -117.615 -107.819 -119.818 -113.491C-121.477 -112.716 -123.109 -111.819 -124.695 -110.846C-124.086 -109.269 -123.478 -107.692 -122.869 -106.115C-133.047 -89.8655 -143.225 -73.6164 -153.4 -57.3847C-153.591 -55.4348 -153.716 -53.4377 -153.802 -51.4054C-143.059 -68.5359 -132.33 -85.6723 -121.585 -102.82C-119.621 -97.7329 -117.641 -92.657 -115.676 -87.5696C-128.233 -67.126 -140.778 -46.659 -153.334 -26.2153C-153.23 -24.6361 -153.101 -23.0275 -152.959 -21.413C-140.105 -42.3554 -127.248 -63.3153 -114.381 -84.2519C-111.325 -76.3608 -108.268 -68.4871 -105.212 -60.5961C-119.812 -37.8079 -134.398 -15.0137 -148.998 7.77447C-148.747 9.12179 -148.497 10.4691 -148.221 11.8457C-133.457 -11.2034 -118.706 -34.2585 -103.944 -57.2902C-101.27 -50.4153 -98.6121 -43.5289 -95.9381 -36.6541C-95.8641 -36.4555 -95.7877 -36.2744 -95.7136 -36.0758C-110.203 -10.5783 -125.804 13.659 -142.451 36.5725C-142.136 37.763 -141.807 38.9595 -141.465 40.1618C-124.709 17.185 -109.01 -7.13896 -94.4116 -32.6998C-94.0704 -31.812 -93.7292 -30.9242 -93.3856 -30.0539C-93.3411 -29.8497 -93.2671 -29.6511 -93.1724 -29.499C-90.9386 -23.7398 -88.7048 -17.9806 -86.4733 -12.204C-100.286 16.9331 -115.255 44.9203 -131.315 71.7115C-130.891 72.8387 -130.482 73.9774 -130.045 75.1106C-113.828 48.3321 -98.8483 20.3683 -84.9856 -8.71016Z" fill="#286F7F"/>
<path d="M-9.94255 321.492C-9.94255 321.492 -88.0394 432.583 -105.992 537.552C-112.083 573.18 -111.798 602.138 -108.753 624.848C-102.409 672.223 -67.567 692.665 -45.0539 662.249C-34.2528 647.658 -23.2939 625.309 -14.8546 591.049C10.0007 490.146 -9.94255 321.492 -9.94255 321.492Z" fill="#BAE3DD"/>
<path d="M-64.649 595.206C-63.1725 588.081 -61.7078 580.966 -60.2314 573.841C-43.2369 570.068 -26.2332 566.299 -9.23868 562.526C-9.10139 561.67 -8.97329 560.811 -8.84519 559.951C-25.7978 563.712 -42.7503 567.474 -59.6937 571.24C-58.3051 564.509 -56.9046 557.767 -55.516 551.036C-39.2963 547.011 -22.9662 544.141 -6.56622 542.487C-6.47343 541.658 -6.38064 540.83 -6.29042 540.016C-22.5974 541.651 -38.845 544.448 -54.9731 548.405C-53.6399 541.938 -52.295 535.461 -50.9618 528.994C-35.4943 526.265 -20.0177 523.542 -4.55023 520.814C-4.48504 519.971 -4.42241 519.144 -4.36641 518.298C-19.7198 521.001 -35.0732 523.704 -50.4266 526.408C-49.0185 519.621 -47.6221 512.845 -46.214 506.059C-31.9468 501.493 -17.5634 497.875 -3.08737 495.225C-3.05491 494.399 -3.01988 493.558 -2.98742 492.732C-17.3049 495.331 -31.5364 498.878 -45.6491 503.358C-44.2076 496.378 -42.7635 489.382 -41.3127 482.407C-28.4608 478.585 -15.506 475.671 -2.48103 473.683C-2.46954 472.863 -2.45547 472.028 -2.44398 471.208C-15.2921 473.154 -28.0766 476.005 -40.753 479.736C-39.5744 474.05 -38.405 468.361 -37.2264 462.676C-25.7126 458.454 -14.0908 455.111 -2.37667 452.623C-2.38358 451.794 -2.39048 450.964 -2.38818 450.14C-13.9018 452.565 -25.3416 455.836 -36.6564 459.945C-35.2225 453.009 -33.7887 446.074 -32.3549 439.138C-22.7503 434.008 -12.8314 430.588 -2.74225 428.902C-2.76092 428.083 -2.7888 427.26 -2.80747 426.442C-12.6659 428.063 -22.344 431.359 -31.7566 436.243C-31.2692 433.877 -30.7844 431.525 -30.2878 429.163C-30.0882 428.873 -29.9625 428.433 -30.0352 427.927C-29.6818 426.223 -29.326 424.504 -28.9726 422.8C-20.7764 417.447 -12.0701 414.578 -3.20114 414.299C-3.22901 413.476 -3.26865 412.663 -3.29651 411.84C-11.8991 412.137 -20.3491 414.791 -28.3369 419.746C-27.2615 414.544 -26.1887 409.357 -25.1133 404.156C-18.2051 400.661 -11.156 398.029 -4.00295 396.241C-4.04921 395.409 -4.08885 394.596 -4.12592 393.768C-11.0366 395.481 -17.8355 397.993 -24.5202 401.291C-23.5182 396.458 -22.5163 391.625 -21.5261 386.802C-16.7331 385.681 -11.9283 384.551 -7.1353 383.43C-6.34371 383.237 -5.54548 383.064 -4.75388 382.871C-4.80271 382.053 -4.85155 381.236 -4.90295 380.433C-6.07858 380.712 -7.25828 380.957 -8.42214 381.226C-12.6123 382.206 -16.7932 383.191 -20.9833 384.171C-20.14 380.085 -19.2968 376 -18.4535 371.914C-14.3098 369.697 -10.1112 367.798 -5.87086 366.179C-5.92632 365.342 -5.99356 364.516 -6.05416 363.709C-10.0352 365.213 -13.9601 366.971 -17.8527 369.005C-16.861 364.231 -15.8811 359.468 -14.8895 354.695C-12.2927 353.464 -9.66239 352.444 -7.00515 351.616C-7.07238 350.789 -7.13962 349.963 -7.21199 349.166C-9.60329 349.899 -11.9651 350.808 -14.3015 351.86C-13.7058 348.98 -13.11 346.1 -12.5143 343.22C-10.9901 342.481 -9.45668 341.747 -7.92989 340.993C-8.00375 340.147 -8.08275 339.331 -8.15513 338.534C-9.40827 339.148 -10.668 339.742 -11.9212 340.355C-11.0302 336.05 -10.1417 331.76 -9.25072 327.455C-9.67913 323.569 -9.93588 321.467 -9.93588 321.467C-9.93588 321.467 -10.886 322.813 -12.5914 325.357C-13.5856 330.145 -14.5706 334.938 -15.5674 339.741C-16.0733 337.29 -16.6943 334.928 -17.3977 332.639C-17.7643 333.203 -18.1427 333.778 -18.5287 334.397C-17.6445 337.374 -16.9249 340.497 -16.386 343.742C-17.0824 347.09 -17.767 350.428 -18.4633 353.777C-19.4497 349.017 -20.6848 344.426 -22.1485 340.062C-22.5085 340.646 -22.8776 341.225 -23.2586 341.814C-21.7322 346.452 -20.4698 351.348 -19.5098 356.434C-19.4482 356.772 -19.3201 357.014 -19.1766 357.165C-20.4466 363.323 -21.7259 369.477 -22.9959 375.635C-25.0392 367.683 -27.2538 359.858 -29.6373 352.143C-29.9998 352.742 -30.3741 353.351 -30.7418 353.979C-28.2095 362.22 -25.8696 370.594 -23.7179 379.133C-24.8616 384.673 -26.0053 390.214 -27.1556 395.735C-30.0751 384.874 -33.1541 374.13 -36.3836 363.505C-36.7513 364.134 -37.1072 364.752 -37.4774 365.395C-34.094 376.516 -30.8845 387.779 -27.8582 399.177C-29.2664 405.964 -30.6653 412.755 -32.0709 419.526C-35.6372 404.947 -39.5503 390.586 -43.7827 376.456C-44.1437 377.104 -44.5048 377.752 -44.8658 378.4C-40.4938 393.052 -36.4738 407.951 -32.8175 423.109C-33.7486 427.588 -34.6679 432.057 -35.5964 436.522C-41.1118 421.614 -46.6298 406.722 -52.1452 391.815C-52.4852 392.457 -52.8253 393.099 -53.1679 393.756C-47.5148 409.022 -41.8709 424.284 -36.2152 439.536C-38.0075 448.206 -39.8024 456.89 -41.5947 465.559C-46.6978 444.897 -52.4972 424.685 -58.9453 404.996C-59.2905 405.668 -59.6291 406.359 -59.9769 407.046C-53.4024 427.218 -47.5094 447.93 -42.3296 469.132C-43.9775 477.079 -45.6163 485.031 -47.2617 492.963C-54.8983 471.426 -62.5349 449.888 -70.1807 428.346C-70.5035 429.061 -70.8237 429.762 -71.1464 430.477C-63.3946 452.33 -55.6335 474.188 -47.8816 496.042C-48.5123 499.066 -49.1337 502.095 -49.7643 505.12C-50.529 508.807 -51.2936 512.494 -52.0465 516.171C-60.7127 492.847 -69.3722 469.543 -78.0384 446.219C-78.3453 446.959 -78.6497 447.683 -78.9566 448.422C-70.1951 472.004 -61.4335 495.585 -52.6654 519.185C-53.844 524.87 -55.0134 530.56 -56.192 536.245C-66.4371 513.747 -76.6889 491.229 -86.9341 468.73C-87.2134 469.483 -87.4927 470.236 -87.7629 470.994C-77.4886 493.555 -67.2144 516.116 -56.9401 538.678C-56.882 538.803 -56.8187 538.899 -56.7502 538.965C-58.429 547.092 -60.1078 555.218 -61.7958 563.34C-72.4836 538.487 -83.174 513.648 -93.8617 488.794C-94.1212 489.606 -94.3806 490.417 -94.6309 491.233C-83.8849 516.212 -73.1324 541.211 -62.3864 566.19C-63.6436 572.274 -64.9008 578.357 -66.1605 584.456C-78.0982 562.225 -90.0292 540.013 -101.967 517.782C-102.174 518.635 -102.374 519.508 -102.572 520.366C-90.618 542.621 -78.6645 564.876 -66.7203 587.127C-68.056 593.609 -69.401 600.086 -70.7368 606.568C-83.5836 587.241 -95.7734 566.764 -107.257 545.258C-107.406 546.237 -107.545 547.221 -107.682 548.19C-96.2238 569.553 -84.0661 589.869 -71.259 609.08C-73.4304 619.602 -75.6083 630.106 -77.7796 640.629C-89.3047 623.361 -100.333 605.236 -110.838 586.334C-110.865 587.534 -110.878 588.71 -110.891 589.886C-100.594 608.314 -89.7872 625.989 -78.5102 642.843C-78.4377 642.943 -78.3693 643.01 -78.2916 643.08C-79.2032 647.504 -80.1239 651.924 -81.0355 656.349C-90.5992 643.22 -100.151 630.081 -109.715 616.952C-109.592 618.21 -109.464 619.439 -109.318 620.677C-100.063 633.394 -90.8079 646.112 -81.5434 658.835C-82.4473 663.214 -83.3512 667.594 -84.2642 671.969C-83.1611 672.69 -82.0425 673.322 -80.9086 673.864C-80.6585 672.643 -80.4109 671.438 -80.1516 670.222C-69.3837 668.709 -58.625 667.191 -47.8571 665.678C-47.0772 664.799 -46.3079 663.867 -45.5611 662.891C-56.9124 664.489 -68.2729 666.082 -79.6242 667.68C-78.8118 663.774 -78.006 659.848 -77.1936 655.942C-63.7728 653.857 -50.352 651.772 -36.9245 649.707C-36.4227 648.821 -35.9182 647.92 -35.4205 646.999C-49.169 649.133 -62.9176 651.267 -76.6636 653.386C-75.409 647.317 -74.1544 641.248 -72.8998 635.18C-57.6432 633.27 -42.3841 631.346 -27.1275 629.437C-26.7816 628.587 -26.4332 627.723 -26.0822 626.843C-41.5131 628.78 -56.944 630.717 -72.3749 632.653C-71.2841 627.362 -70.1816 622.06 -69.0908 616.769C-69.0651 616.62 -69.0302 616.475 -68.9953 616.33C-52.8401 612.97 -36.5712 610.976 -20.2514 610.368C-19.9894 609.542 -19.7366 608.711 -19.4746 607.885C-35.8679 608.457 -52.2196 610.41 -68.4509 613.749C-68.3143 613.072 -68.1659 612.384 -68.0293 611.706C-67.976 611.571 -67.9503 611.421 -67.9456 611.278C-67.0314 606.839 -66.1081 602.404 -65.194 597.965C-48.0908 592.286 -30.8203 587.953 -13.4267 584.991C-13.2383 584.129 -13.0498 583.266 -12.8614 582.404C-30.2697 585.277 -47.5444 589.576 -64.649 595.206Z" fill="#97C9CE"/>
<path d="M10.9248 375.971C11.1119 375.935 11.2985 375.872 11.4759 375.822C11.5038 375.807 11.5323 375.82 11.5601 375.805C11.7376 375.755 11.915 375.706 12.0828 375.643C12.1016 375.643 12.1294 375.628 12.1482 375.627C12.3347 375.563 12.5122 375.514 12.689 375.437C12.7266 375.436 12.7635 375.407 12.801 375.405C12.9779 375.328 13.1553 375.279 13.3321 375.203C13.36 375.188 13.3976 375.186 13.4254 375.171C13.6022 375.094 13.779 375.018 13.9559 374.942L13.9649 374.928C14.1417 374.851 14.3276 374.761 14.4947 374.671C14.5226 374.656 14.5505 374.641 14.5783 374.626C14.7454 374.537 14.9125 374.447 15.0796 374.358C15.1075 374.343 15.1353 374.328 15.1722 374.299C15.3394 374.209 15.5155 374.106 15.6827 374.016C15.6917 374.002 15.7014 374.015 15.7105 374.001C15.8776 373.912 16.035 373.809 16.1924 373.707C16.2203 373.692 16.2293 373.678 16.2572 373.663C16.4146 373.56 16.572 373.457 16.7385 373.341C16.7663 373.326 16.7942 373.311 16.822 373.296C16.9794 373.193 17.1459 373.077 17.2936 372.961C17.3027 372.947 17.3214 372.946 17.3396 372.918C17.497 372.815 17.6537 372.686 17.8014 372.57C17.8105 372.556 17.8202 372.569 17.8293 372.555C17.977 372.439 18.1337 372.31 18.2814 372.194C18.3093 372.179 18.3274 372.151 18.3462 372.15C18.4939 372.034 18.6319 371.906 18.7796 371.79C18.7886 371.776 18.8165 371.761 18.8256 371.747C19.1203 371.488 19.4053 371.217 19.6904 370.945C19.6994 370.931 19.7273 370.916 19.7364 370.902C19.8743 370.774 20.0026 370.632 20.1309 370.49C20.1399 370.476 20.1581 370.448 20.1769 370.447C20.4522 370.162 20.699 369.865 20.9459 369.569C20.9549 369.555 20.9549 369.555 20.964 369.541C21.0826 369.386 21.2018 369.258 21.3203 369.103C21.3294 369.089 21.3385 369.075 21.3476 369.061C21.4661 368.906 21.5756 368.765 21.6942 368.61C21.9125 368.301 22.1309 367.992 22.3304 367.684C22.3395 367.67 22.3486 367.656 22.3486 367.656C22.4483 367.502 22.5384 367.335 22.6291 367.195L22.6382 367.181C22.8281 366.859 22.9901 366.553 23.1514 366.22L23.1605 366.206C23.2415 366.053 23.3128 365.887 23.375 365.734L23.3841 365.72C23.5889 365.236 23.7659 364.766 23.9046 364.271L23.9137 364.257C24.0434 363.776 24.1452 363.31 24.2095 362.846L24.2185 362.832C24.2432 362.682 24.2491 362.532 24.264 362.369C24.2849 362.056 24.2876 361.771 24.2708 361.46C24.2579 361.311 24.2547 361.176 24.2231 361.028C24.2231 361.028 24.2231 361.028 24.2133 361.015C23.9608 359.075 22.8229 357.463 20.5729 356.529C10.2809 352.234 -0.827115 363.178 -4.72843 367.573C-4.063 364.693 -3.43513 361.814 -2.82668 358.91C-2.41283 356.924 -2.01776 354.938 -1.62268 352.953L-1.07709 350.174C0.347584 342.809 1.71527 335.42 3.20663 328.093C3.27396 328.157 3.34129 328.222 3.39955 328.3C3.58275 328.495 3.75624 328.676 3.93944 328.871C4.0456 328.987 4.15113 329.077 4.25729 329.194C4.42107 329.362 4.58422 329.503 4.748 329.672C4.86323 329.774 4.97847 329.877 5.0937 329.98C5.25684 330.121 5.41092 330.276 5.56435 330.405C5.67959 330.507 5.79482 330.61 5.91913 330.699C6.07256 330.827 6.2357 330.968 6.39821 331.082C6.51344 331.185 6.62804 331.261 6.75235 331.35C6.91485 331.464 7.06829 331.592 7.2308 331.706C7.34539 331.782 7.4697 331.87 7.57523 331.96C7.73773 332.074 7.90023 332.188 8.07181 332.288C8.18641 332.364 8.30101 332.44 8.4059 332.502C8.57747 332.603 8.74904 332.703 8.93033 332.816C9.03522 332.878 9.14011 332.941 9.245 333.004C9.44506 333.116 9.63542 333.215 9.83548 333.327C9.92095 333.364 9.99735 333.414 10.0737 333.465C10.3496 333.6 10.6254 333.736 10.9103 333.858C10.9291 333.857 10.9485 333.883 10.9673 333.882C11.2237 333.991 11.4801 334.101 11.7365 334.21C11.822 334.247 11.9165 334.269 12.002 334.306C12.1917 334.378 12.3814 334.45 12.5614 334.509C12.6657 334.545 12.7699 334.58 12.8742 334.616C13.0445 334.662 13.2154 334.735 13.3857 334.78C13.49 334.816 13.6033 334.838 13.7166 334.859C13.8869 334.905 14.0475 334.938 14.2178 334.984C14.3311 335.005 14.4444 335.027 14.5487 335.062C14.7093 335.095 14.8699 335.128 15.0305 335.161C15.1438 335.182 15.2571 335.204 15.3704 335.226C15.531 335.258 15.7007 335.277 15.8516 335.297C15.9649 335.318 16.0685 335.327 16.1818 335.348C16.3515 335.367 16.5114 335.373 16.6811 335.392C16.7847 335.4 16.8883 335.409 16.9919 335.417C17.1616 335.436 17.3403 335.441 17.519 335.446C17.6129 335.441 17.6978 335.45 17.8014 335.459C17.9989 335.463 18.2055 335.453 18.403 335.457C18.4593 335.454 18.5254 335.464 18.5908 335.447C18.8537 335.434 19.1167 335.422 19.3796 335.409C19.4171 335.407 19.445 335.392 19.4735 335.404C19.6989 335.393 19.9236 335.355 20.1489 335.344C20.2331 335.326 20.3173 335.308 20.4022 335.318C20.5803 335.296 20.7396 335.274 20.908 335.239C21.0109 335.22 21.0951 335.203 21.1981 335.184C21.3574 335.163 21.507 335.128 21.6566 335.094C21.7596 335.075 21.8626 335.056 21.9558 335.025C22.1054 334.99 22.255 334.956 22.3859 334.922C22.4888 334.904 22.5912 334.858 22.6941 334.839C22.834 334.792 22.9746 334.771 23.1145 334.724C23.2174 334.705 23.3198 334.66 23.4228 334.641C23.5626 334.594 23.7025 334.546 23.8334 334.512C23.9266 334.481 24.0387 334.448 24.1319 334.416C24.2718 334.369 24.402 334.308 24.5419 334.261C24.6352 334.229 24.7375 334.183 24.8308 334.152C24.9707 334.104 25.1099 334.03 25.2498 333.982C25.3334 333.937 25.4267 333.906 25.5102 333.861C25.6682 333.785 25.8172 333.724 25.9753 333.648C26.0497 333.617 26.1054 333.588 26.1799 333.557C26.3937 333.451 26.6074 333.346 26.8205 333.214C26.8853 333.17 26.9598 333.139 27.0245 333.095C27.1638 333.02 27.3121 332.932 27.4514 332.857C27.544 332.798 27.6276 332.754 27.7202 332.695C27.8407 332.621 27.9521 332.561 28.0628 332.475C28.1555 332.416 28.2481 332.357 28.3407 332.298C28.4424 332.226 28.5441 332.153 28.6555 332.093C28.7481 332.034 28.8401 331.948 28.9328 331.89C29.0345 331.817 29.1271 331.758 29.2191 331.672C29.3117 331.614 29.4037 331.528 29.4963 331.469C29.5792 331.397 29.6809 331.324 29.7638 331.252C29.8558 331.167 29.9485 331.108 30.0404 331.022C30.1234 330.95 30.2063 330.878 30.2983 330.792C30.3902 330.706 30.4732 330.635 30.5652 330.549C30.6481 330.477 30.7213 330.392 30.8042 330.32C30.8962 330.234 30.9791 330.162 31.0614 330.063C31.1346 329.978 31.2084 329.921 31.2726 329.85C31.3645 329.764 31.4468 329.665 31.5297 329.593C31.5939 329.522 31.6489 329.465 31.7131 329.394C32.0338 329.039 32.3447 328.672 32.6272 328.292C32.6726 328.222 32.7186 328.179 32.7639 328.109C32.8462 328.01 32.9188 327.898 32.9913 327.786C33.0367 327.716 33.082 327.646 33.1371 327.589C33.2097 327.477 33.2732 327.379 33.3458 327.267C33.3911 327.197 33.4365 327.127 33.4818 327.057C33.5453 326.959 33.6179 326.847 33.6717 326.736C33.717 326.665 33.7533 326.609 33.789 326.526C33.8428 326.415 33.9062 326.317 33.96 326.206C33.9963 326.15 34.032 326.067 34.0585 325.998C34.1123 325.887 34.1661 325.776 34.2199 325.665C34.2465 325.595 34.2828 325.539 34.3093 325.47C34.3631 325.359 34.4072 325.235 34.461 325.124C34.4876 325.055 34.5051 325 34.5317 324.931C34.5757 324.806 34.6295 324.695 34.6736 324.571C34.6911 324.516 34.6995 324.475 34.717 324.42C34.7611 324.296 34.8052 324.172 34.8396 324.034L34.8486 324.02C34.9971 323.538 35.0892 323.059 35.1438 322.582C35.1432 322.555 35.1516 322.514 35.16 322.473C35.1756 322.336 35.1821 322.214 35.1886 322.092C35.1874 322.038 35.1958 321.996 35.2036 321.928C35.2101 321.806 35.2076 321.698 35.2141 321.575C35.2128 321.521 35.2115 321.467 35.2193 321.399C35.2168 321.29 35.2142 321.182 35.202 321.061C35.2007 321.006 35.1897 320.939 35.1884 320.885C35.1859 320.777 35.1645 320.669 35.1523 320.548C35.1413 320.481 35.14 320.426 35.12 320.373C35.0986 320.266 35.0773 320.158 35.056 320.051C35.045 319.984 35.0249 319.93 35.0146 319.89C34.9932 319.783 34.9531 319.676 34.9318 319.569C34.9117 319.516 34.8917 319.462 34.8813 319.422C34.8412 319.316 34.8102 319.195 34.7701 319.089C34.7597 319.048 34.7306 319.009 34.7202 318.969C34.2621 317.88 33.4957 316.873 32.3485 316.062C23.0242 309.346 8.18167 321.788 3.69114 325.913C4.74782 320.885 5.88025 315.881 7.15513 310.937L7.20701 310.745C7.25045 310.593 7.28482 310.456 7.31855 310.292C7.31855 310.292 7.31855 310.292 7.32762 310.278L8.08823 307.447C9.79484 301.276 11.7695 295.308 14.0121 289.544C14.5094 289.899 15.1691 290.368 15.9803 290.885C16.0665 290.948 16.1519 290.985 16.238 291.048C16.5909 291.261 16.9729 291.514 17.373 291.738C17.4779 291.801 17.5731 291.851 17.678 291.913C17.9065 292.038 18.1448 292.175 18.3831 292.313C18.5546 292.413 18.7262 292.513 18.9069 292.599C19.0402 292.674 19.1736 292.748 19.3258 292.822C19.7829 293.071 20.2678 293.305 20.7716 293.538C21.0189 293.661 21.2753 293.771 21.5317 293.88C24.7336 295.31 28.5306 296.466 32.3741 296.4C32.5619 296.39 32.7406 296.395 32.9284 296.386C32.9848 296.383 33.0411 296.381 33.0975 296.378C33.238 296.357 33.3792 296.364 33.5197 296.344C33.576 296.341 33.6136 296.339 33.6699 296.336C33.848 296.314 34.0358 296.305 34.2139 296.282C34.2515 296.281 34.2703 296.28 34.3078 296.278C34.4581 296.27 34.6077 296.236 34.7482 296.216C34.8046 296.213 34.8512 296.197 34.9075 296.194C35.0481 296.174 35.1886 296.153 35.3194 296.12C35.357 296.118 35.3946 296.116 35.4224 296.101C35.5908 296.066 35.7592 296.03 35.9276 295.995C35.9651 295.993 36.0118 295.977 36.0396 295.962C36.1704 295.929 36.3013 295.895 36.4321 295.862C36.4787 295.846 36.5253 295.83 36.572 295.814C36.7216 295.78 36.8712 295.745 37.0111 295.698C37.0299 295.697 37.0389 295.683 37.0486 295.696C37.2073 295.648 37.366 295.599 37.5247 295.551C37.5713 295.535 37.5992 295.52 37.6367 295.518C37.7578 295.471 37.879 295.425 37.991 295.392C38.0286 295.39 38.0655 295.361 38.103 295.36C38.252 295.298 38.401 295.237 38.5499 295.175C38.5499 295.175 38.559 295.161 38.5687 295.174C38.7086 295.127 38.8479 295.052 38.9781 294.991C39.0059 294.976 39.0525 294.961 39.0804 294.946C39.1918 294.886 39.3129 294.839 39.4243 294.78C39.4522 294.765 39.471 294.764 39.4988 294.749C39.6381 294.674 39.7683 294.614 39.8978 294.526C39.9166 294.525 39.9257 294.511 39.9347 294.497C40.0461 294.437 40.1666 294.364 40.2683 294.291C40.2962 294.276 40.324 294.261 40.3519 294.246C40.4723 294.172 40.5928 294.099 40.7036 294.012L40.7127 293.998C40.8331 293.924 40.953 293.823 41.0637 293.737C41.0728 293.723 41.0916 293.722 41.1097 293.694C41.2114 293.621 41.3034 293.535 41.4051 293.462C41.4142 293.448 41.442 293.433 41.4511 293.419C41.6629 293.233 41.8657 293.06 42.049 292.861C42.0581 292.847 42.0672 292.833 42.086 292.832C42.1682 292.733 42.2511 292.661 42.3334 292.563C42.3425 292.549 42.3425 292.549 42.3516 292.535C42.5252 292.323 42.68 292.112 42.8161 291.902C42.8252 291.888 42.8343 291.874 42.8433 291.86C42.9885 291.636 43.1057 291.426 43.2224 291.19C43.2762 291.079 43.3203 290.955 43.365 290.858C43.3741 290.844 43.3741 290.844 43.3831 290.83C43.4719 290.608 43.5413 290.361 43.5919 290.114L43.601 290.1C43.6263 289.977 43.6425 289.868 43.6678 289.745C43.6678 289.745 43.6769 289.731 43.6672 289.718C43.699 289.472 43.712 289.227 43.7153 288.969L43.7147 288.942C43.6571 286.898 42.298 284.673 39.2019 282.547C31.8354 277.525 19.4957 284.475 14.847 287.469C16.9346 282.309 19.2146 277.33 21.725 272.556L23.2109 269.785C23.7066 268.879 24.2121 267.987 24.7175 267.094C26.7677 263.536 28.9344 260.135 31.208 256.878C31.3426 257.007 31.496 257.135 31.6689 257.289C31.7556 257.38 31.8515 257.457 31.9473 257.533C32.1395 257.714 32.3506 257.893 32.5811 258.099C33.2725 258.716 34.1167 259.434 35.124 260.293C35.4594 260.561 35.8051 260.87 36.1787 261.163C36.3703 261.316 36.5619 261.47 36.7445 261.637C38.6809 263.223 41.0653 265.073 43.8686 267.145C44.0027 267.247 44.1367 267.349 44.2701 267.424C44.318 267.462 44.3562 267.488 44.4041 267.526C44.4902 267.59 44.5854 267.639 44.6812 267.716C44.7291 267.754 44.7861 267.778 44.834 267.817C44.9201 267.88 45.0055 267.917 45.0917 267.98C45.1486 268.005 45.2062 268.056 45.2632 268.08C45.3396 268.131 45.4348 268.18 45.5112 268.231C45.5682 268.255 45.6258 268.307 45.6828 268.331C45.7592 268.382 45.8446 268.418 45.9398 268.468C45.9968 268.492 46.0635 268.529 46.1114 268.568C46.1969 268.604 46.2733 268.655 46.3684 268.704C46.4254 268.729 46.4824 268.753 46.5303 268.791C46.6255 268.841 46.711 268.877 46.7964 268.914C46.8534 268.938 46.8916 268.963 46.9486 268.988C47.0625 269.036 47.1765 269.085 47.2905 269.134C47.3189 269.146 47.3474 269.158 47.3759 269.17C47.5184 269.231 47.6608 269.292 47.8033 269.353C47.8415 269.378 47.8887 269.389 47.9263 269.387C48.0306 269.423 48.1348 269.458 48.23 269.508C48.287 269.532 48.3342 269.543 48.3912 269.568C48.4767 269.604 48.5712 269.627 48.6567 269.663C48.7137 269.688 48.7797 269.698 48.8367 269.722C48.9222 269.759 49.007 269.768 49.0828 269.791C49.1397 269.816 49.2058 269.826 49.2718 269.836C49.3476 269.86 49.4421 269.882 49.5179 269.906C49.584 269.916 49.6409 269.94 49.707 269.951C49.7827 269.974 49.8676 269.984 49.953 270.02C50.0191 270.03 50.0761 270.055 50.1421 270.065C50.227 270.074 50.3027 270.098 50.3973 270.12C50.4633 270.131 50.5106 270.142 50.5766 270.152C50.6712 270.175 50.756 270.184 50.8505 270.207C50.8978 270.218 50.9541 270.215 51.0014 270.226C51.1335 270.247 51.2844 270.267 51.4165 270.287C51.4638 270.299 51.5013 270.297 51.5486 270.308C51.6431 270.33 51.737 270.326 51.8316 270.348C51.8976 270.359 51.954 270.356 52.02 270.366C52.1049 270.376 52.18 270.372 52.2557 270.395C52.3218 270.406 52.3781 270.403 52.4533 270.399C52.5284 270.395 52.5944 270.406 52.6695 270.402C52.7356 270.412 52.801 270.396 52.8671 270.406C52.9422 270.402 53.0082 270.413 53.0834 270.409C53.1494 270.419 53.2148 270.403 53.2809 270.413C53.356 270.409 53.4123 270.406 53.4875 270.403C53.5626 270.399 53.6189 270.396 53.694 270.393C53.7601 270.403 53.8255 270.386 53.9006 270.382C53.9757 270.379 54.0321 270.376 54.1072 270.372C54.1636 270.37 54.2387 270.366 54.295 270.363C54.3701 270.359 54.4355 270.343 54.5016 270.353C54.5579 270.35 54.6234 270.334 54.6797 270.331C54.8202 270.31 54.9705 270.303 55.1201 270.268C55.1667 270.253 55.214 270.264 55.2606 270.248C55.3357 270.244 55.4102 270.214 55.4853 270.21C55.5417 270.207 55.5883 270.191 55.6447 270.189C55.7101 270.172 55.7943 270.154 55.8597 270.137C55.9063 270.121 55.9626 270.119 56.0093 270.103C56.0747 270.086 56.1589 270.068 56.2243 270.052C56.2709 270.036 56.3273 270.033 56.3739 270.017C56.4393 270 56.5138 269.97 56.5889 269.966C56.6355 269.95 56.6822 269.934 56.7288 269.918C56.8033 269.888 56.8687 269.871 56.9432 269.84C56.9898 269.824 57.0365 269.808 57.0831 269.793C57.1576 269.762 57.223 269.745 57.2975 269.714C57.335 269.712 57.372 269.684 57.4095 269.682C57.484 269.651 57.5585 269.62 57.633 269.589C57.6517 269.588 57.6796 269.574 57.6887 269.56C57.9678 269.437 58.2463 269.288 58.5158 269.153C58.5346 269.152 58.5436 269.138 58.5624 269.137C58.646 269.092 58.7107 269.048 58.7846 268.991C58.8124 268.976 58.8403 268.961 58.8681 268.946C58.9329 268.902 59.0068 268.844 59.0812 268.813C59.1091 268.798 59.1369 268.784 59.1739 268.755C59.2386 268.711 59.3034 268.667 59.3773 268.609C59.4051 268.594 59.433 268.579 59.4602 268.537C59.5249 268.493 59.5897 268.449 59.6539 268.379C59.6817 268.364 59.6999 268.336 59.7277 268.321C59.7925 268.277 59.8566 268.206 59.9214 268.162C59.9395 268.134 59.9583 268.133 59.9765 268.105C60.0503 268.047 60.1144 267.976 60.1695 267.919C60.1786 267.905 60.1786 267.905 60.1876 267.891C60.4908 267.592 60.7655 267.28 61.0111 266.929C61.0201 266.915 61.0292 266.901 61.0292 266.901C61.0836 266.817 61.129 266.747 61.1834 266.663C61.1925 266.649 61.2106 266.621 61.2197 266.607C61.2651 266.537 61.3195 266.453 61.3648 266.383C61.383 266.355 61.3921 266.341 61.4102 266.313C61.4556 266.243 61.4912 266.16 61.5456 266.076C61.5638 266.048 61.5728 266.034 61.5813 265.993C61.6169 265.909 61.6623 265.839 61.707 265.742C61.7161 265.728 61.7342 265.7 61.7336 265.673C61.7692 265.59 61.8139 265.493 61.8496 265.41C61.8586 265.396 61.8586 265.396 61.8677 265.382C62.0362 264.953 62.1763 264.513 62.2781 264.047C62.2943 263.937 62.3203 263.841 62.3365 263.732C62.3359 263.705 62.3449 263.691 62.3443 263.664C62.3605 263.554 62.3677 263.459 62.3936 263.363C62.393 263.336 62.4014 263.295 62.4008 263.268C62.4079 263.172 62.4242 263.063 62.4313 262.968C62.4307 262.941 62.4391 262.9 62.4385 262.873C62.4456 262.777 62.4521 262.655 62.4593 262.56C62.4587 262.533 62.4671 262.492 62.4665 262.465C62.4639 262.356 62.4711 262.261 62.4776 262.139C62.4769 262.111 62.4763 262.084 62.4757 262.057C62.467 260.892 62.2583 259.614 61.8307 258.225C57.802 245.243 39.0059 252.279 32.5672 255.116C36.3088 249.93 40.323 245.137 44.574 240.82C44.5927 240.819 44.5927 240.819 44.6115 240.818L46.2 239.208C48.7271 236.738 51.3331 234.428 54.0091 232.29C54.0376 232.302 54.0661 232.314 54.0946 232.326C54.294 232.411 54.4746 232.497 54.6643 232.57C54.6928 232.582 54.7116 232.581 54.7401 232.593C54.9298 232.665 55.1195 232.737 55.3183 232.795C55.3371 232.794 55.3656 232.806 55.3753 232.819C55.5741 232.877 55.7729 232.936 55.9717 232.994C56.0092 232.992 56.0474 233.017 56.085 233.015C56.2741 233.06 56.4729 233.118 56.671 233.149C56.7086 233.147 56.7371 233.159 56.7746 233.158C56.9825 233.202 57.1806 233.233 57.3976 233.263L57.4164 233.262C57.6145 233.293 57.8217 233.31 58.029 233.327C58.0665 233.325 58.095 233.337 58.1326 233.335C58.3398 233.352 58.5373 233.356 58.7348 233.36C58.7724 233.358 58.8099 233.356 58.8572 233.367C59.0547 233.371 59.2619 233.388 59.4685 233.378C59.497 233.39 59.5249 233.375 59.5624 233.374C59.7599 233.377 59.9665 233.367 60.1634 233.344C60.1822 233.343 60.201 233.342 60.2198 233.341C60.4263 233.331 60.642 233.307 60.8389 233.284C60.8764 233.282 60.914 233.28 60.9515 233.278C61.1484 233.255 61.3544 233.218 61.5512 233.195C61.5888 233.193 61.6264 233.191 61.6639 233.189C61.8699 233.152 62.0758 233.115 62.2818 233.078C62.3005 233.077 62.3096 233.063 62.3284 233.062C62.5343 233.024 62.7306 232.974 62.9365 232.937C62.9644 232.922 63.0019 232.92 63.0207 232.919C63.217 232.869 63.432 232.818 63.6282 232.767C63.6658 232.766 63.7124 232.75 63.7403 232.735C63.9456 232.671 64.1418 232.62 64.3471 232.556C64.375 232.541 64.4125 232.539 64.4404 232.524C64.6457 232.46 64.8413 232.383 65.0466 232.318C65.0557 232.304 65.0654 232.317 65.0744 232.303C65.2888 232.225 65.4844 232.148 65.6988 232.069C65.7267 232.054 65.7733 232.039 65.8011 232.024C65.9967 231.946 66.2014 231.855 66.397 231.778C66.4339 231.749 66.4715 231.747 66.5084 231.718C66.7131 231.626 66.9178 231.535 67.1127 231.431C67.1315 231.43 67.1496 231.402 67.1684 231.401C67.3634 231.296 67.559 231.219 67.7539 231.114C67.7818 231.1 67.8096 231.085 67.8284 231.084C68.0234 230.979 68.2183 230.875 68.4133 230.77C68.4502 230.741 68.4878 230.74 68.5247 230.711C68.7197 230.606 68.9049 230.489 69.0999 230.384C69.1277 230.369 69.1647 230.34 69.1925 230.325C69.3965 230.207 69.5818 230.089 69.7858 229.971C69.9801 229.839 70.1842 229.721 70.3785 229.589C70.4064 229.574 70.4433 229.545 70.4711 229.53C70.6564 229.413 70.841 229.268 71.0262 229.151C71.0632 229.122 71.091 229.107 71.1279 229.078C71.3126 228.933 71.4978 228.816 71.6824 228.671C71.7103 228.656 71.7193 228.642 71.7472 228.627C71.9227 228.497 72.1074 228.352 72.2829 228.221C72.292 228.207 72.3198 228.192 72.3289 228.178C72.5135 228.034 72.689 227.903 72.8639 227.745C72.9009 227.717 72.9287 227.702 72.9656 227.673C73.1315 227.529 73.3161 227.384 73.4819 227.241C73.5098 227.226 73.537 227.184 73.5648 227.169C73.7397 227.011 73.9146 226.853 74.0895 226.696L74.0986 226.682C74.2735 226.524 74.4484 226.366 74.6046 226.209C74.6324 226.194 74.6505 226.166 74.6784 226.151C74.8345 225.995 75.0004 225.851 75.1656 225.68C75.2025 225.651 75.2206 225.623 75.2575 225.594C75.4137 225.437 75.5789 225.267 75.735 225.11C75.7531 225.082 75.7719 225.081 75.79 225.053C75.9462 224.896 76.0926 224.726 76.2487 224.569C76.2578 224.555 76.2669 224.541 76.2856 224.541C76.432 224.371 76.5882 224.214 76.7346 224.044C76.7527 224.016 76.7896 223.987 76.8078 223.959C76.9542 223.789 77.0915 223.633 77.238 223.463C77.2561 223.435 77.284 223.42 77.3112 223.378C77.4576 223.209 77.5943 223.026 77.7407 222.856L77.7498 222.842C77.8865 222.659 78.0238 222.503 78.1605 222.32C78.1787 222.292 78.1877 222.278 78.2059 222.25C78.3335 222.081 78.4612 221.912 78.5888 221.743C78.6069 221.715 78.6251 221.687 78.6523 221.645C78.7799 221.476 78.8978 221.294 79.0164 221.139C79.0345 221.111 79.0436 221.097 79.0618 221.069C79.1797 220.887 79.3073 220.718 79.4065 220.537L79.4155 220.523C79.5335 220.341 79.6423 220.173 79.7415 219.992C79.7596 219.964 79.7777 219.936 79.7868 219.922C79.8957 219.754 79.9948 219.572 80.0849 219.405C80.103 219.377 80.1121 219.363 80.1302 219.335C80.2294 219.154 80.3285 218.973 80.4186 218.806C80.4277 218.792 80.4277 218.792 80.4367 218.778C80.5268 218.611 80.626 218.43 80.7063 218.249C80.7154 218.235 80.7245 218.221 80.7335 218.207C80.8236 218.04 80.904 217.86 80.9753 217.694C80.9934 217.666 80.9928 217.639 81.0109 217.611C81.0822 217.445 81.1626 217.264 81.2339 217.098C81.2429 217.084 81.2423 217.057 81.2604 217.029C81.4024 216.67 81.5262 216.338 81.6403 215.994C81.6494 215.98 81.6487 215.952 81.6578 215.938C81.7103 215.773 81.7628 215.608 81.8063 215.457C81.8153 215.443 81.8147 215.415 81.8328 215.387C81.8853 215.222 81.9191 215.058 81.9528 214.893C81.9528 214.893 81.9619 214.879 81.9522 214.866C81.9859 214.702 82.0196 214.538 82.0443 214.387L82.0437 214.36C82.0683 214.21 82.093 214.06 82.1079 213.896C82.1073 213.869 82.1164 213.855 82.1157 213.828C82.0329 213.507 82.0485 213.37 82.0544 213.221C82.0538 213.194 82.0538 213.194 82.0531 213.167C82.0649 212.868 82.067 212.556 82.0509 212.272C82.0502 212.245 82.0502 212.245 82.0496 212.218C82.0367 212.069 82.0244 211.948 82.0025 211.813C82.0018 211.786 81.9921 211.773 81.9915 211.746C81.9695 211.611 81.9475 211.477 81.9068 211.343C81.9068 211.343 81.8971 211.33 81.8964 211.303C81.8654 211.183 81.8246 211.049 81.7839 210.915L81.7742 210.902C81.7334 210.769 81.6836 210.649 81.6338 210.53C81.6241 210.516 81.6234 210.489 81.6137 210.476C81.5639 210.357 81.505 210.251 81.4364 210.132C81.4267 210.119 81.417 210.106 81.4073 210.093C81.3581 210.001 81.2895 209.882 81.2118 209.777C80.3464 208.559 78.8138 207.753 76.458 207.515C62.7211 206.236 55.5497 223.062 53.3923 229.256C50.6328 231.438 47.9529 233.807 45.352 236.334L43.919 237.76C39.5203 242.193 35.3494 247.116 31.4608 252.445C34.0211 243.805 39.5119 221.882 32.5987 212.96C30.7662 210.595 29.121 209.795 27.7091 210.122C27.7 210.136 27.6903 210.122 27.6813 210.136C27.27 210.238 26.8704 210.434 26.5011 210.723L26.4921 210.737C26.1229 211.026 25.7652 211.41 25.4374 211.86L25.4283 211.874C25.1005 212.324 24.7843 212.868 24.5069 213.465C24.4978 213.479 24.4978 213.479 24.4888 213.493C24.435 213.604 24.3721 213.729 24.328 213.853C24.1142 214.352 23.9106 214.891 23.7077 215.457C23.6987 215.471 23.6902 215.512 23.6812 215.526C23.6371 215.65 23.6027 215.787 23.5496 215.925C23.5405 215.939 23.5411 215.966 23.5321 215.98C23.4011 216.407 23.2798 216.847 23.1592 217.314C23.1502 217.328 23.1508 217.355 23.1417 217.369C23.1074 217.506 23.073 217.644 23.0386 217.781C23.0302 217.822 23.0127 217.877 23.0043 217.918C22.9699 218.055 22.9446 218.179 22.9199 218.329C22.9115 218.37 22.9031 218.411 22.8855 218.466C22.7928 218.918 22.7 219.37 22.626 219.821C22.6085 219.876 22.6098 219.931 22.6014 219.972C22.5761 220.095 22.5605 220.231 22.5449 220.368C22.5371 220.436 22.5202 220.518 22.5124 220.586C22.4969 220.723 22.4716 220.846 22.456 220.982C22.4391 221.064 22.4313 221.133 22.4242 221.228C22.4086 221.364 22.3833 221.487 22.3767 221.61C22.3689 221.678 22.3612 221.746 22.3534 221.814C22.3215 222.06 22.2897 222.306 22.2767 222.55C22.2695 222.646 22.2624 222.741 22.2455 222.823C22.239 222.945 22.2228 223.055 22.2162 223.177C22.2091 223.272 22.1929 223.381 22.1954 223.49C22.1889 223.612 22.1727 223.721 22.1661 223.844C22.1499 223.953 22.1525 224.061 22.146 224.184C22.1394 224.306 22.1323 224.401 22.1258 224.524C22.1108 224.687 22.1049 224.837 22.0997 225.013C22.0841 225.149 22.0873 225.285 22.0717 225.421C22.0658 225.571 22.0593 225.693 22.0534 225.842C22.0463 225.938 22.0488 226.046 22.0417 226.141C22.0351 226.264 22.0383 226.399 22.0318 226.522C22.0344 226.63 22.0272 226.725 22.0298 226.833C22.033 226.969 22.0271 227.118 22.0206 227.241C22.0134 227.336 22.0153 227.417 22.0179 227.526C22.0139 227.756 22.019 227.973 22.015 228.204C22.0163 228.258 22.0176 228.312 22.0098 228.38C22.0046 228.557 22.0181 228.732 22.0128 228.909C22.0148 228.99 22.0173 229.098 22.0192 229.18C22.0224 229.315 22.0262 229.478 22.0294 229.613C22.0314 229.694 22.0339 229.803 22.0358 229.884C22.0397 230.046 22.0525 230.195 22.0564 230.358C22.0583 230.439 22.0602 230.52 22.0621 230.601C22.0769 230.831 22.0918 231.061 22.1066 231.291C22.1072 231.318 22.1176 231.358 22.1091 231.399C22.1233 231.602 22.1375 231.804 22.1516 232.007C22.1536 232.088 22.1645 232.156 22.1762 232.25C22.1891 232.398 22.2026 232.574 22.2155 232.723C22.2174 232.804 22.229 232.898 22.24 232.965C22.2626 233.127 22.2665 233.29 22.2891 233.451C22.3001 233.518 22.302 233.6 22.313 233.667C22.3375 233.91 22.3614 234.126 22.395 234.354C22.3956 234.381 22.4053 234.395 22.3962 234.409C22.4201 234.624 22.4531 234.826 22.477 235.042C22.488 235.109 22.4989 235.176 22.5106 235.271C22.5332 235.432 22.5558 235.594 22.5875 235.742C22.6082 235.822 22.6101 235.903 22.6308 235.983C22.6534 236.145 22.6851 236.293 22.7077 236.454C22.7187 236.522 22.7296 236.589 22.7406 236.656C22.7833 236.871 22.8169 237.1 22.8693 237.328C22.8693 237.328 22.879 237.341 22.8699 237.355C22.9126 237.57 22.9552 237.785 22.9979 237.999C23.0089 238.067 23.0199 238.134 23.0496 238.2C23.0813 238.348 23.1227 238.508 23.1544 238.656C23.1751 238.736 23.1861 238.804 23.2068 238.884C23.2384 239.032 23.2798 239.192 23.3206 239.326C23.3316 239.393 23.3613 239.459 23.3723 239.527C23.4338 239.741 23.4855 239.942 23.547 240.155C24.4486 243.311 25.2792 245.847 26.0226 247.871C26.2432 248.457 26.4438 248.99 26.6437 249.495C26.8436 250 27.0332 250.466 27.2312 250.89C27.5095 251.527 27.7767 252.097 28.0233 252.587C28.1023 252.746 28.1812 252.904 28.2602 253.063C28.5753 253.671 28.8497 254.146 29.1035 254.54C29.1623 254.646 29.2206 254.725 29.2886 254.816C29.3857 254.947 29.4737 255.092 29.5514 255.196C27.2603 258.509 25.067 261.979 22.9896 265.579L21.3923 268.41C18.499 273.69 15.8471 279.244 13.4639 285.028C14.0922 275.384 15.0454 247.609 5.43114 246.142C5.01606 246.08 4.63917 246.045 4.26292 246.036C4.16902 246.041 4.08419 246.031 3.99029 246.036L3.97151 246.037C3.87761 246.041 3.80248 246.045 3.71829 246.063L3.69951 246.064C3.62439 246.067 3.5402 246.085 3.46507 246.089L3.4463 246.09C3.31483 246.096 3.23064 246.114 3.15552 246.117L3.13674 246.118C3.06161 246.122 2.98713 246.153 2.91201 246.156C2.90294 246.17 2.89323 246.157 2.88416 246.171C2.81875 246.188 2.73455 246.206 2.66914 246.223C2.66007 246.237 2.65036 246.224 2.64129 246.238C2.57588 246.254 2.50139 246.285 2.43598 246.302C2.42691 246.316 2.4172 246.303 2.40813 246.317C2.34272 246.334 2.27731 246.35 2.21253 246.394C2.20346 246.408 2.19375 246.395 2.18468 246.409C2.11927 246.426 2.06356 246.456 1.99879 246.5C1.98972 246.514 1.98001 246.5 1.97094 246.514C1.91523 246.544 1.84982 246.561 1.78505 246.605C1.77598 246.619 1.76627 246.606 1.7572 246.62C1.70149 246.65 1.64579 246.68 1.58102 246.723C1.57194 246.737 1.56224 246.724 1.55316 246.738C1.49746 246.768 1.44176 246.798 1.38669 246.855C1.37762 246.869 1.36791 246.856 1.35884 246.87C1.30314 246.9 1.25715 246.943 1.19237 246.987C1.1833 247.001 1.1833 247.001 1.16452 247.001C1.11853 247.044 1.06282 247.074 1.00776 247.131C0.998685 247.145 0.998685 247.145 0.979904 247.146C0.93391 247.189 0.887919 247.232 0.832854 247.289C0.823783 247.303 0.823783 247.303 0.814712 247.317C0.768718 247.36 0.722723 247.403 0.667658 247.46C0.658587 247.474 0.658586 247.474 0.649515 247.488C0.603521 247.531 0.558165 247.601 0.512171 247.644C0.5031 247.658 0.503103 247.658 0.494032 247.672C0.448038 247.715 0.402681 247.785 0.366397 247.841L0.357324 247.855C0.321039 247.911 0.275686 247.981 0.229692 248.024L0.220619 248.038C0.184335 248.094 0.138978 248.164 0.102693 248.22L0.0936238 248.234C0.0573393 248.29 0.0119827 248.36 -0.0145926 248.429C-0.0145926 248.429 -0.014591 248.429 -0.0236622 248.443C-0.0690178 248.513 -0.0955925 248.582 -0.140948 248.652C-0.176595 248.735 -0.212879 248.791 -0.248525 248.874C-1.03402 250.648 -1.19161 253.137 -0.888248 256.037C-0.875986 256.159 -0.863723 256.28 -0.851462 256.402C-0.851462 256.402 -0.851462 256.402 -0.841752 256.415C-0.82949 256.536 -0.817229 256.658 -0.795896 256.765L-0.79526 256.792C-0.782998 256.914 -0.761662 257.021 -0.7494 257.143C-0.739691 257.156 -0.748764 257.17 -0.739054 257.183C-0.726792 257.304 -0.70546 257.412 -0.683489 257.546C-0.673779 257.559 -0.682849 257.573 -0.67314 257.586C-0.660878 257.708 -0.639547 257.815 -0.608505 257.936C-0.607866 257.963 -0.598154 257.976 -0.607225 257.99C-0.585892 258.097 -0.573632 258.219 -0.54259 258.339C-0.541952 258.366 -0.532243 258.379 -0.531605 258.406C-0.510272 258.514 -0.498008 258.635 -0.466966 258.756C-0.466328 258.783 -0.456619 258.796 -0.455981 258.823C-0.434648 258.93 -0.413313 259.038 -0.391342 259.172C-0.390704 259.199 -0.380995 259.213 -0.380357 259.24C-0.359024 259.347 -0.327982 259.468 -0.306649 259.575C-0.30601 259.602 -0.296302 259.615 -0.285954 259.655C-0.264621 259.763 -0.233578 259.883 -0.212245 259.991C-0.211607 260.018 -0.192189 260.044 -0.191551 260.071C-0.170218 260.178 -0.139176 260.299 -0.117843 260.406C-0.117204 260.433 -0.106857 260.474 -0.0971481 260.487C-0.075815 260.594 -0.044773 260.715 -0.0234399 260.822C-0.0228017 260.849 -0.0124547 260.889 -0.00274544 260.902C0.0185876 261.01 0.0496302 261.13 0.0709632 261.238C0.0813107 261.278 0.0819481 261.305 0.101367 261.331C0.1227 261.439 0.153746 261.559 0.175079 261.667C0.185426 261.707 0.186064 261.734 0.205482 261.76C0.226815 261.867 0.257856 261.988 0.29797 262.094C0.308317 262.135 0.308955 262.162 0.328374 262.188C0.359416 262.308 0.389822 262.402 0.420864 262.522C0.431212 262.563 0.431847 262.59 0.442195 262.63C0.473237 262.75 0.503643 262.844 0.534686 262.964C0.545033 263.004 0.55538 263.045 0.56509 263.058C0.596132 263.178 0.626534 263.272 0.657576 263.392C0.667924 263.432 0.678275 263.472 0.687984 263.485C0.719026 263.606 0.749429 263.699 0.780471 263.82C0.790819 263.86 0.801166 263.9 0.820584 263.926C0.851627 264.047 0.891742 264.153 0.913075 264.261C0.923422 264.301 0.933767 264.341 0.944115 264.381C0.975157 264.502 1.01527 264.608 1.04631 264.729C1.05666 264.769 1.06701 264.809 1.07672 264.822C1.10776 264.943 1.14787 265.049 1.17892 265.17C1.18926 265.21 1.19961 265.25 1.21903 265.276C1.25915 265.383 1.29018 265.503 1.3303 265.61C1.34065 265.65 1.36007 265.676 1.37041 265.716C1.41053 265.823 1.44157 265.943 1.48168 266.05C1.49203 266.09 1.50238 266.13 1.5218 266.156C1.56191 266.263 1.59295 266.383 1.63307 266.49C1.64341 266.53 1.66283 266.556 1.66347 266.583C1.70358 266.69 1.74434 266.823 1.78445 266.93C1.7948 266.97 1.81422 266.996 1.81485 267.023C1.85497 267.13 1.89572 267.264 1.93583 267.37C1.94618 267.41 1.95589 267.423 1.96624 267.463C2.01606 267.583 2.0471 267.704 2.09692 267.823C2.09756 267.85 2.11698 267.876 2.11762 267.903C2.16744 268.023 2.20819 268.157 2.25802 268.276C2.26773 268.289 2.26836 268.316 2.28778 268.343C2.32853 268.476 2.37835 268.596 2.43789 268.728C2.4476 268.742 2.44824 268.769 2.44824 268.769C2.4987 268.915 2.54852 269.035 2.59898 269.182C2.9904 270.234 3.40968 271.271 3.84774 272.307C3.89756 272.426 3.95709 272.559 4.00692 272.679C4.02634 272.705 4.02697 272.732 4.04639 272.758C4.08651 272.865 4.1454 272.97 4.18551 273.077C4.19586 273.117 4.22499 273.156 4.23534 273.196C4.27545 273.303 4.32464 273.395 4.36475 273.502C4.38481 273.555 4.41393 273.594 4.42428 273.634C4.47347 273.727 4.51358 273.833 4.55305 273.913C4.57311 273.966 4.59317 274.019 4.62229 274.059C4.67148 274.151 4.70188 274.244 4.75107 274.337C4.77112 274.39 4.80089 274.457 4.82095 274.51C4.86042 274.589 4.90054 274.696 4.94001 274.775C4.96978 274.842 4.98984 274.895 5.0196 274.961C5.05908 275.041 5.09855 275.12 5.13867 275.226C5.16843 275.293 5.18849 275.346 5.21826 275.412C5.25773 275.492 5.29721 275.571 5.33669 275.651C5.36645 275.717 5.39622 275.783 5.41627 275.837C5.45575 275.916 5.49522 275.995 5.53469 276.075C5.56446 276.141 5.59423 276.207 5.62399 276.274C5.66347 276.353 5.70295 276.433 5.74242 276.512C5.77219 276.578 5.80195 276.645 5.83172 276.711C5.8712 276.791 5.91067 276.87 5.95015 276.949C5.97991 277.016 6.00968 277.082 6.04851 277.134C6.08799 277.214 6.12746 277.293 6.16694 277.373C6.19671 277.439 6.22648 277.505 6.26531 277.558C6.30479 277.637 6.33456 277.703 6.37403 277.783C6.4038 277.849 6.44327 277.929 6.48211 277.981C6.52158 278.06 6.55135 278.127 6.5999 278.192C6.62966 278.258 6.66913 278.338 6.70797 278.39C6.74745 278.47 6.77721 278.536 6.82576 278.601C6.85553 278.668 6.895 278.747 6.93384 278.799C6.97331 278.879 7.00308 278.945 7.05163 279.011C7.08139 279.077 7.12994 279.142 7.15971 279.209C7.19918 279.288 7.23802 279.34 7.27749 279.42C7.30726 279.486 7.35581 279.552 7.38557 279.618C7.41534 279.684 7.46388 279.75 7.49365 279.816C7.52341 279.882 7.57196 279.948 7.60173 280.014C7.6315 280.08 7.68004 280.146 7.7098 280.212C7.73957 280.279 7.78812 280.344 7.81789 280.41C7.84765 280.477 7.89619 280.542 7.92596 280.608C7.95573 280.675 8.00428 280.74 8.03404 280.806C8.06381 280.873 8.11236 280.938 8.14212 281.005C8.17189 281.071 8.22043 281.136 8.2502 281.203C8.27996 281.269 8.32851 281.334 8.35828 281.401C8.38805 281.467 8.43659 281.532 8.46635 281.599C8.49612 281.665 8.54467 281.731 8.57444 281.797C8.61327 281.849 8.65275 281.929 8.69158 281.981C8.73042 282.033 8.7699 282.113 8.80873 282.165C8.84757 282.217 8.88705 282.297 8.92589 282.349C8.96472 282.402 8.99449 282.468 9.04303 282.533C9.08187 282.586 9.12135 282.665 9.16018 282.717C9.19902 282.77 9.22879 282.836 9.26763 282.888C9.30646 282.941 9.34594 283.02 9.38478 283.072C9.42361 283.125 9.45338 283.191 9.49221 283.243C9.53105 283.296 9.57052 283.375 9.60936 283.428C9.6482 283.48 9.67797 283.546 9.71681 283.599C9.75564 283.651 9.79512 283.73 9.83395 283.783C9.87279 283.835 9.90255 283.901 9.94139 283.954C9.98023 284.006 10.0197 284.085 10.0585 284.138C10.0974 284.19 10.1362 284.242 10.166 284.309C10.2048 284.361 10.2534 284.426 10.2831 284.493C10.322 284.545 10.3608 284.597 10.3906 284.664C10.4294 284.716 10.4683 284.768 10.5077 284.848C10.5466 284.9 10.5854 284.953 10.6242 285.005C10.6631 285.057 10.7116 285.123 10.7505 285.175C10.7893 285.227 10.8281 285.28 10.8573 285.319C10.8961 285.371 10.9349 285.424 10.9835 285.489C11.0223 285.541 11.0612 285.594 11.0903 285.633C11.1291 285.685 11.168 285.738 11.2068 285.79C11.2456 285.842 11.2748 285.881 11.3136 285.934C11.3524 285.986 11.3913 286.038 11.4301 286.091C11.4689 286.143 11.4981 286.182 11.5369 286.235C11.5757 286.287 11.6146 286.339 11.6534 286.392C11.6923 286.444 11.7214 286.483 11.7602 286.536C11.7991 286.588 11.8379 286.64 11.8767 286.693C11.9059 286.732 11.9447 286.784 11.9738 286.823C12.0127 286.876 12.0515 286.928 12.1001 286.994C12.1292 287.033 12.168 287.085 12.1971 287.124C12.236 287.177 12.2845 287.242 12.3324 287.28C12.3421 287.294 12.3616 287.32 12.3713 287.333C10.6854 291.592 9.15298 295.978 7.77335 300.466C7.38953 301.733 7.00572 302.999 6.64132 304.291L5.97348 306.67C4.59753 311.713 3.38346 316.844 2.25549 322.038C1.91471 313.16 -0.282683 294.909 -12.1041 288.342C-14.4188 287.059 -16.0888 286.802 -17.2236 287.319C-17.2236 287.319 -17.2327 287.333 -17.2424 287.32C-17.3447 287.365 -17.4373 287.424 -17.5299 287.483C-17.5299 287.483 -17.539 287.497 -17.5487 287.484C-17.6414 287.543 -17.7243 287.615 -17.8169 287.673C-17.9918 287.831 -18.1382 288.001 -18.284 288.198C-18.3475 288.296 -18.411 288.394 -18.4648 288.505L-18.4738 288.519C-18.5276 288.63 -18.5814 288.741 -18.6255 288.865C-18.6255 288.865 -18.6255 288.865 -18.6346 288.879C-18.7856 289.253 -18.8887 289.665 -18.9627 290.116C-18.9627 290.116 -18.9718 290.13 -18.962 290.143C-18.9867 290.293 -19.0017 290.457 -19.0263 290.607C-19.0263 290.607 -19.0354 290.621 -19.0257 290.634C-19.0705 291.125 -19.0863 291.654 -19.0541 292.222L-19.0534 292.249C-19.049 292.439 -19.0354 292.614 -19.0213 292.817L-19.0206 292.844C-18.969 293.438 -18.8883 294.071 -18.7694 294.73C-18.7597 294.743 -18.7687 294.757 -18.759 294.77C-18.7163 294.985 -18.6834 295.187 -18.631 295.415C-18.6213 295.428 -18.6207 295.455 -18.6207 295.455C-18.578 295.67 -18.5256 295.898 -18.4733 296.126L-18.4635 296.139C-18.3588 296.595 -18.2346 297.077 -18.1105 297.559C-18.1007 297.572 -18.1001 297.599 -18.1001 297.599C-18.038 297.84 -17.9669 298.067 -17.9048 298.308C-17.9041 298.335 -17.8944 298.348 -17.8841 298.388C-17.8129 298.615 -17.7411 298.869 -17.67 299.096C-17.6603 299.109 -17.6596 299.137 -17.6596 299.137C-17.507 299.631 -17.3355 300.124 -17.1635 300.644C-17.1538 300.657 -17.1531 300.685 -17.1434 300.698C-17.0625 300.938 -16.972 301.191 -16.8723 301.43C-16.862 301.47 -16.8523 301.483 -16.8419 301.524C-16.7513 301.777 -16.6517 302.016 -16.5611 302.269C-16.5514 302.282 -16.5411 302.322 -16.5314 302.335C-16.3314 302.841 -16.1121 303.372 -15.8927 303.904C-15.883 303.917 -15.8824 303.944 -15.8727 303.957C-15.7633 304.21 -15.654 304.462 -15.5446 304.714C-15.5343 304.754 -15.5148 304.78 -15.5045 304.821C-15.3951 305.073 -15.2858 305.325 -15.1674 305.563C-15.1479 305.59 -15.1376 305.63 -15.1182 305.656C-14.9991 305.921 -14.8807 306.16 -14.7616 306.425C-14.7519 306.438 -14.7422 306.451 -14.7416 306.478C-14.6225 306.743 -14.4944 306.995 -14.3662 307.246C-14.3565 307.259 -14.3468 307.272 -14.3462 307.299C-14.218 307.551 -14.0899 307.802 -13.9618 308.053C-13.9423 308.08 -13.9223 308.133 -13.9029 308.159C-13.7747 308.41 -13.6466 308.662 -13.5094 308.899C-13.4803 308.938 -13.4699 308.978 -13.4408 309.018C-13.3127 309.269 -13.1657 309.519 -13.0376 309.771C-13.0182 309.797 -13.0175 309.824 -12.9981 309.85C-12.8603 310.115 -12.7231 310.352 -12.5762 310.602C-12.5665 310.616 -12.5567 310.629 -12.547 310.642C-12.4001 310.892 -12.2532 311.143 -12.1063 311.393C-12.0772 311.432 -12.0668 311.472 -12.0377 311.512C-11.9005 311.749 -11.7536 311.999 -11.6073 312.223C-11.5782 312.262 -11.5581 312.315 -11.529 312.354C-11.3821 312.605 -11.2358 312.828 -11.0889 313.079C-11.0694 313.105 -11.0403 313.144 -11.03 313.184C-10.874 313.421 -10.7174 313.684 -10.5614 313.921L-10.5517 313.934C-10.3957 314.17 -10.23 314.42 -10.074 314.656C-10.0449 314.695 -10.0254 314.721 -9.99632 314.761C-9.84033 314.997 -9.68435 315.234 -9.529 315.443C-9.49987 315.482 -9.47074 315.521 -9.44161 315.561C-9.28563 315.797 -9.12056 316.019 -8.96522 316.229C-8.93609 316.268 -8.91667 316.294 -8.88754 316.333C-8.71277 316.569 -8.54772 316.791 -8.37295 317.027C-8.36324 317.04 -8.36324 317.04 -8.35353 317.053C-8.18847 317.275 -8.01371 317.511 -7.84865 317.733C-7.82923 317.759 -7.8001 317.799 -7.78068 317.825C-7.61562 318.047 -7.4415 318.256 -7.27644 318.478C-7.24731 318.517 -7.21819 318.557 -7.18906 318.596C-7.01493 318.804 -6.85958 319.014 -6.68545 319.222C-6.65632 319.261 -6.62719 319.301 -6.58899 319.326C-6.41486 319.534 -6.24073 319.743 -6.0569 319.964C-6.04719 319.977 -6.02777 320.003 -6.01806 320.016C-5.84393 320.225 -5.66073 320.419 -5.4866 320.628C-5.46718 320.654 -5.44777 320.68 -5.41928 320.692C-5.23608 320.887 -5.06194 321.095 -4.88845 321.276C-4.85933 321.316 -4.82112 321.341 -4.792 321.38C-4.61851 321.561 -4.43531 321.756 -4.26182 321.937C-4.23269 321.976 -4.19449 322.002 -4.16536 322.041C-3.98216 322.235 -3.7996 322.403 -3.60732 322.583C-3.58791 322.609 -3.55942 322.621 -3.54971 322.634C-3.36715 322.802 -3.17488 322.982 -2.99231 323.149C-2.9826 323.163 -2.95412 323.175 -2.94441 323.188C-2.75214 323.368 -2.56957 323.535 -2.37794 323.689C-2.33974 323.714 -2.31061 323.753 -2.28212 323.765C-2.09956 323.933 -1.90793 324.086 -1.72601 324.226C-1.68781 324.252 -1.65868 324.291 -1.62048 324.316C-1.42885 324.469 -1.23721 324.623 -1.05529 324.763C-1.0268 324.775 -1.00738 324.801 -0.978887 324.813C-0.787254 324.967 -0.586552 325.106 -0.394919 325.259C-0.38521 325.272 -0.375498 325.286 -0.366427 325.272C-0.165723 325.411 0.0349753 325.55 0.22597 325.676C0.25446 325.689 0.292663 325.714 0.312081 325.74C0.503076 325.866 0.694073 325.992 0.885069 326.119C0.923268 326.144 0.961465 326.169 0.989955 326.181C1.09484 326.244 1.19973 326.307 1.31432 326.382C-0.287941 334.19 -1.74711 342.085 -3.27362 349.915L-3.99503 353.612C-4.86108 357.952 -5.76532 362.268 -6.74596 366.533C-9.42868 358.407 -18.3954 332.948 -25.1738 331.341C-27.244 330.86 -28.7241 331.882 -29.6372 333.825C-29.6554 333.853 -29.6547 333.88 -29.6729 333.908C-29.8245 334.254 -29.9665 334.614 -30.0981 335.013C-30.1065 335.054 -30.1156 335.068 -30.124 335.109C-30.2368 335.508 -30.349 335.934 -30.4327 336.372C-30.4411 336.413 -30.4405 336.44 -30.4489 336.481C-30.4905 336.714 -30.5229 336.932 -30.5644 337.165C-30.5644 337.165 -30.5735 337.179 -30.5638 337.192C-30.5963 337.411 -30.619 337.642 -30.6508 337.888C-30.6593 337.929 -30.6586 337.956 -30.6671 337.997C-30.6898 338.229 -30.7119 338.487 -30.7249 338.732C-30.7243 338.759 -30.7334 338.773 -30.7327 338.8C-30.7458 339.045 -30.7497 339.276 -30.7628 339.52C-30.7621 339.547 -30.7706 339.588 -30.7602 339.629C-30.7636 339.886 -30.7669 340.144 -30.7605 340.415C-30.7599 340.442 -30.7586 340.496 -30.7579 340.523C-30.7522 340.767 -30.7465 341.011 -30.731 341.268C-30.7304 341.295 -30.7297 341.322 -30.7194 341.362C-30.713 341.633 -30.6878 341.903 -30.6627 342.173C-30.6614 342.227 -30.6511 342.267 -30.6595 342.308C-30.644 342.565 -30.6098 342.821 -30.5943 343.078C-30.5937 343.105 -30.5931 343.132 -30.5924 343.159C-30.5673 343.429 -30.5324 343.712 -30.4975 343.995C-30.4963 344.05 -30.4762 344.103 -30.4749 344.157C-30.431 344.426 -30.4058 344.696 -30.3522 344.978C-30.3425 344.991 -30.3515 345.005 -30.3418 345.018C-30.2882 345.3 -30.2436 345.596 -30.1899 345.879C-30.1789 345.946 -30.1686 345.986 -30.1576 346.053C-30.0503 346.617 -29.9145 347.194 -29.7697 347.756C-29.7587 347.823 -29.7386 347.877 -29.7276 347.944C-29.6552 348.225 -29.5828 348.506 -29.5006 348.801C-29.4909 348.814 -29.4903 348.841 -29.4903 348.841C-29.4088 349.108 -29.337 349.362 -29.2555 349.629C-29.2354 349.683 -29.2147 349.763 -29.1947 349.816C-29.1035 350.096 -29.0219 350.364 -28.9217 350.63C-28.9113 350.67 -28.8919 350.696 -28.8815 350.736C-28.791 350.99 -28.7101 351.23 -28.6105 351.469C-28.5904 351.522 -28.5606 351.588 -28.5406 351.642C-28.4403 351.908 -28.3309 352.16 -28.221 352.44C-28.2009 352.493 -28.1815 352.519 -28.1614 352.572C-28.0618 352.811 -27.9628 353.024 -27.8631 353.263C-27.8431 353.316 -27.8133 353.382 -27.7842 353.422C-27.6651 353.687 -27.5467 353.925 -27.4186 354.176C-27.3985 354.23 -27.3597 354.282 -27.3396 354.335C-27.2309 354.56 -27.1131 354.772 -26.9953 354.983C-26.9662 355.022 -26.9461 355.075 -26.917 355.115C-26.7798 355.352 -26.6426 355.589 -26.5054 355.827C-26.4665 355.879 -26.4465 355.932 -26.4076 355.985C-26.2711 356.195 -26.1533 356.406 -26.0076 356.602C-25.9882 356.628 -25.9591 356.668 -25.9397 356.694C-25.7934 356.917 -25.6283 357.14 -25.4821 357.363C-25.4432 357.415 -25.4044 357.468 -25.3656 357.52C-25.2199 357.716 -25.0646 357.925 -24.9099 358.108C-24.9002 358.121 -24.8807 358.147 -24.871 358.16C-24.6969 358.368 -24.5325 358.564 -24.3583 358.772C-24.3195 358.824 -24.2716 358.863 -24.2328 358.915C-24.0496 359.11 -23.8754 359.318 -23.6929 359.485C-18.0886 365.122 -12.8421 367.55 -9.508 368.607C-8.59888 368.888 -7.84256 369.068 -7.24747 369.188C-8.91615 376.171 -10.8225 383.044 -13.1483 389.666L-13.1924 389.79C-13.228 389.874 -13.254 389.97 -13.2896 390.053L-14.0662 392.206C-14.0662 392.206 -14.0662 392.206 -14.0655 392.233C-14.1278 392.385 -14.1803 392.551 -14.2425 392.703L-14.2691 392.772C-14.809 394.195 -15.3587 395.605 -15.9368 397.003C-22.9107 413.832 -32.5182 428.215 -43.8949 438.928C-44.9987 439.958 -43.7134 442.241 -42.6186 441.225C-32.557 431.756 -23.8329 419.383 -17.082 405.059C-15.5331 401.769 -14.1091 398.364 -12.7991 394.91L-11.7834 392.135C-9.26053 385.096 -7.16756 377.767 -5.35105 370.274C-5.20605 370.443 -5.05199 370.599 -4.89791 370.754C-4.86879 370.793 -4.82087 370.831 -4.79174 370.871C-4.59884 371.078 -4.39686 371.272 -4.19488 371.465C-4.17546 371.491 -4.15667 371.49 -4.13725 371.516C-3.94498 371.697 -3.75271 371.877 -3.56044 372.058C-3.52224 372.083 -3.50283 372.109 -3.4737 372.148C-3.27236 372.315 -3.08008 372.495 -2.87874 372.662C-2.84054 372.687 -2.79264 372.725 -2.76351 372.764C-2.56217 372.931 -2.37053 373.084 -2.16983 373.223C-2.14134 373.236 -2.11221 373.275 -2.08372 373.287C-1.88301 373.426 -1.70109 373.567 -1.50039 373.706C-1.4719 373.718 -1.46218 373.731 -1.44277 373.757C-1.24206 373.897 -1.03229 374.022 -0.841294 374.148C-0.803095 374.173 -0.764901 374.199 -0.726702 374.224C-0.526635 374.336 -0.335639 374.462 -0.126502 374.561C-0.088303 374.586 -0.0598057 374.598 -0.0216067 374.623C0.178459 374.735 0.387593 374.834 0.587659 374.946L0.597367 374.959C0.806504 375.057 1.01564 375.155 1.22478 375.254C1.26298 375.279 1.30054 375.277 1.33874 375.302C1.53816 375.387 1.7376 375.473 1.94609 375.544C1.99336 375.555 2.03156 375.58 2.06913 375.578C2.27762 375.649 2.47705 375.735 2.67584 375.793C2.69462 375.792 2.72311 375.804 2.73282 375.817C2.93161 375.875 3.12133 375.947 3.31041 375.992C3.3389 376.004 3.37646 376.002 3.40495 376.015C3.60374 376.073 3.8116 376.117 4.00068 376.162C4.04795 376.173 4.08551 376.171 4.13278 376.182C4.33093 376.213 4.52972 376.271 4.72787 376.302C4.75636 376.314 4.79393 376.313 4.82242 376.325C5.02057 376.356 5.19994 376.388 5.38838 376.405C5.40717 376.405 5.43565 376.417 5.45443 376.416C5.65258 376.447 5.8501 376.451 6.05732 376.468C6.09488 376.466 6.14215 376.477 6.17971 376.475C6.37723 376.479 6.56567 376.497 6.76318 376.501C6.80074 376.499 6.8383 376.497 6.87586 376.495C7.07338 376.499 7.27089 376.503 7.46841 376.507L7.48719 376.506C7.6847 376.51 7.89129 376.5 8.08816 376.477C8.12572 376.475 8.16328 376.473 8.20084 376.471C8.38865 376.462 8.58552 376.439 8.77332 376.429C8.81088 376.428 8.84845 376.426 8.89508 376.41C9.09195 376.387 9.28883 376.363 9.47599 376.327C9.49477 376.326 9.51356 376.325 9.53234 376.324C9.71043 376.302 9.8976 376.266 10.0848 376.23C10.1223 376.228 10.1502 376.213 10.1877 376.211C10.3749 376.175 10.5621 376.138 10.7395 376.089C10.8406 375.989 10.8781 375.987 10.9248 375.971Z" fill="#3D4775"/>
<path d="M29.8376 430.727C29.8376 430.727 -49.8934 547.364 -67.6326 646.049C-73.6545 679.533 -73.1494 705.678 -69.8405 725.604C-62.9516 767.154 -26.8643 778.458 -3.86359 746.284C7.16737 730.855 18.3028 708.365 26.7519 675.636C51.6437 579.187 29.8376 430.727 29.8376 430.727Z" fill="#2F8C91"/>
<path d="M-24.609 689.799C-23.1449 683.046 -21.6759 676.303 -20.2118 669.55C-2.70747 662.625 14.8018 655.71 32.3136 648.776C32.4469 647.971 32.5801 647.166 32.7009 646.359C15.2438 653.263 -2.21338 660.168 -19.6705 667.072C-18.2853 660.697 -16.8975 654.303 -15.5123 647.928C1.18666 640.931 18.0164 634.972 34.9223 630.081C35.0058 629.314 35.1016 628.55 35.185 627.784C18.3686 632.624 1.64335 638.515 -14.9684 645.432C-13.6365 639.299 -12.3047 633.166 -10.9728 627.033C4.96778 621.37 20.9009 615.715 36.8414 610.051C36.9001 609.282 36.9587 608.512 37.0125 607.732C21.1986 613.349 5.37234 618.964 -10.4415 624.581C-9.04858 618.152 -7.64324 611.724 -6.25029 605.294C8.43084 598.213 23.2464 591.967 38.1589 586.598C38.1853 585.833 38.2166 585.077 38.2355 584.32C23.4845 589.621 8.82816 595.77 -5.69868 602.743C-4.26009 596.125 -2.82152 589.508 -1.38784 582.88C11.8401 576.772 25.1829 571.459 38.5981 566.972C38.6095 566.223 38.6086 565.472 38.62 564.723C25.3787 569.143 12.215 574.353 -0.838803 580.348C0.330413 574.96 1.50711 569.564 2.67633 564.176C14.5188 557.985 26.4886 552.544 38.551 547.877C38.5377 547.124 38.5292 546.382 38.5159 545.629C26.6498 550.205 14.8864 555.528 3.24058 561.581C4.66653 555.008 6.09247 548.435 7.51842 541.861C17.3871 535.232 27.595 530.088 37.988 526.491C37.9597 525.755 37.9313 525.019 37.8981 524.273C27.7461 527.775 17.7772 532.75 8.11076 539.113C8.59871 536.877 9.08175 534.632 9.5697 532.396C9.77711 532.093 9.89339 531.675 9.82386 531.229C10.1747 529.603 10.5304 527.988 10.8812 526.362C19.289 519.824 28.2532 515.424 37.401 513.34C37.3603 512.602 37.3245 511.874 37.2838 511.136C28.4139 513.177 19.7188 517.329 11.514 523.462C12.5866 518.533 13.6516 513.612 14.7242 508.682C21.8249 504.092 29.0729 500.246 36.4408 497.159C36.3877 496.419 36.3395 495.689 36.2864 494.949C29.1745 497.926 22.1703 501.613 15.3114 505.97C16.3027 501.39 17.3065 496.812 18.2978 492.232C23.2426 490.225 28.1749 488.216 33.1196 486.209C33.9322 485.875 34.762 485.552 35.5746 485.217C35.514 484.486 35.4584 483.764 35.4027 483.042C34.1876 483.54 32.9777 484.002 31.7775 484.483C27.464 486.231 23.1553 487.988 18.8417 489.736C19.6831 485.856 20.5218 481.995 21.3632 478.116C25.6182 475.266 29.9338 472.657 34.3051 470.325C34.2396 469.584 34.1666 468.85 34.0986 468.127C30.0083 470.306 25.9615 472.713 21.9705 475.351C22.9541 470.826 23.9303 466.308 24.9188 461.793C27.5929 460.147 30.2934 458.672 33.0301 457.388C32.9522 456.644 32.8718 455.919 32.7963 455.204C30.3429 456.363 27.9012 457.663 25.4959 459.107C26.0857 456.377 26.6803 453.656 27.2701 450.926C28.8448 449.944 30.4146 448.951 31.9818 447.977C31.8991 447.224 31.8111 446.506 31.7281 445.799C30.437 446.61 29.1458 447.421 27.8622 448.224C28.7443 444.147 29.6312 440.08 30.5208 435.994C30.0704 432.574 29.7951 430.726 29.7951 430.726C29.7951 430.726 28.8231 432.14 27.0808 434.794C26.0946 439.338 25.1084 443.881 24.1222 448.425C23.5805 446.316 22.9242 444.302 22.1808 442.367C21.8057 442.96 21.4232 443.562 21.0257 444.18C21.9519 446.698 22.7237 449.368 23.3087 452.197C22.6248 455.368 21.9286 458.536 21.2447 461.707C20.1906 457.595 18.8898 453.707 17.3423 450.042C16.9672 450.635 16.597 451.239 16.2119 451.858C17.8227 455.746 19.1592 459.918 20.192 464.313C20.2574 464.61 20.3903 464.787 20.5459 464.893C19.2752 470.73 18.0119 476.558 16.7411 482.394C14.573 475.617 12.2255 468.989 9.71865 462.505C9.34591 463.127 8.96569 463.757 8.59037 464.397C11.261 471.331 13.7422 478.441 16.0243 485.708C14.888 490.952 13.7443 496.205 12.6081 501.449C9.52325 492.221 6.26166 483.124 2.84553 474.181C2.47021 474.82 2.10728 475.462 1.72938 476.12C5.29943 485.494 8.69506 495.027 11.9039 504.719C10.5109 511.148 9.11051 517.586 7.71756 524.016C3.92843 511.552 -0.209286 499.362 -4.67827 487.456C-5.04378 488.116 -5.40929 488.775 -5.78228 489.443C-1.16195 501.798 3.09717 514.47 6.98785 527.421C6.07021 531.66 5.14508 535.907 4.22745 540.145C-1.57557 527.793 -7.37859 515.441 -13.1816 503.089C-13.5272 503.743 -13.8729 504.396 -14.226 505.058C-8.2882 517.707 -2.34291 530.349 3.59979 543.009C1.81297 551.234 0.0261473 559.459 -1.76067 567.684C-7.19083 550.031 -13.3181 532.924 -20.1157 516.442C-20.4665 517.132 -20.8098 517.813 -21.1606 518.503C-14.2264 535.404 -7.98983 552.944 -2.49272 571.061C-4.12462 578.595 -5.76142 586.12 -7.4008 593.662C-15.4429 575.746 -23.4898 557.82 -31.5319 539.903C-31.8605 540.615 -32.194 541.316 -32.5151 542.019C-24.353 560.204 -16.1908 578.388 -8.02122 596.564C-8.64398 599.438 -9.26674 602.312 -9.8944 605.175C-10.6494 608.669 -11.4168 612.16 -12.1717 615.654C-21.28 596.339 -30.3931 577.014 -39.5013 557.7C-39.8126 558.423 -40.1313 559.154 -40.4377 559.888C-31.2216 579.422 -22.0081 598.975 -12.7919 618.51C-13.9611 623.897 -15.1304 629.285 -16.2996 634.673C-27.0374 616.416 -37.7753 598.159 -48.5206 579.91C-48.8022 580.647 -49.0838 581.384 -49.3606 582.131C-38.5907 600.43 -27.8283 618.737 -17.0585 637.036C-16.997 637.137 -16.9304 637.203 -16.8638 637.268C-18.5388 644.972 -20.2062 652.668 -21.8812 660.372C-33.0967 640.09 -44.3047 619.799 -55.5203 599.517C-55.7773 600.304 -56.0419 601.099 -56.299 601.886C-45.0246 622.288 -33.7502 642.69 -22.4684 663.084C-23.724 668.858 -24.972 674.623 -26.2276 680.397C-38.7018 662.747 -51.1884 645.094 -63.6626 627.444C-63.8678 628.266 -64.0655 629.08 -64.2583 629.904C-51.762 647.577 -39.2681 665.267 -26.7717 682.939C-28.1111 689.081 -29.4381 695.224 -30.7774 701.365C-44.174 686.516 -56.8999 670.506 -68.9035 653.416C-69.0473 654.34 -69.1885 655.245 -69.3173 656.153C-57.3403 673.119 -44.6484 689.013 -31.286 703.746C-33.4465 713.713 -35.6195 723.679 -37.7801 733.647C-49.8041 720.4 -61.3102 706.264 -72.2839 691.318C-72.2996 692.409 -72.3053 693.473 -72.3061 694.548C-61.5436 709.112 -50.2636 722.88 -38.5031 735.802C-38.4316 735.877 -38.3576 735.935 -38.2734 735.965C-39.1784 740.16 -40.0958 744.352 -41.0008 748.546C-50.9624 738.632 -60.9165 728.709 -70.8732 718.804C-70.7402 719.917 -70.5923 721.014 -70.4419 722.092C-60.796 731.692 -51.1501 741.291 -41.5117 750.899C-42.4164 755.047 -43.3163 759.205 -44.2136 763.345C-43.0777 763.762 -41.9117 764.1 -40.7429 764.374C-40.4913 763.225 -40.2398 762.076 -39.9882 760.927C-28.8935 757.331 -17.7988 753.735 -6.71157 750.148C-5.9131 749.2 -5.13169 748.193 -4.35751 747.149C-16.0607 750.933 -27.7589 754.727 -39.4696 758.519C-38.6589 754.812 -37.8606 751.102 -37.0499 747.394C-23.2198 742.746 -9.38706 738.079 4.44308 733.431C4.95613 732.534 5.46686 731.608 5.97268 730.672C-8.19033 735.438 -22.3608 740.213 -36.5287 744.969C-35.2757 739.214 -34.0302 733.466 -32.7772 727.711C-17.0491 722.832 -1.32589 717.943 14.4022 713.064C14.7563 712.217 15.1104 711.37 15.4622 710.495C-0.444721 715.431 -16.3468 720.378 -32.2462 725.306C-31.1608 720.285 -30.063 715.267 -28.9775 710.247C-28.9445 710.103 -28.919 709.968 -28.886 709.825C-12.2424 703.44 4.52356 698.287 21.3549 694.367C21.6194 693.572 21.8791 692.767 22.1339 691.952C5.22333 695.851 -11.6245 701.001 -28.3473 707.365C-28.205 706.719 -28.0627 706.072 -27.9279 705.434C-27.8776 705.303 -27.8446 705.159 -27.839 705.03C-26.9265 700.828 -26.014 696.626 -25.094 692.415C-7.4936 683.743 10.2914 676.266 28.2114 669.976C28.3967 669.16 28.5945 668.346 28.7749 667.52C10.7785 673.725 -7.00392 681.184 -24.609 689.799Z" fill="#286F7F"/>
<path d="M-2.57704 570.321C-14.1478 567.751 -29.0971 577.638 -34.3969 581.519C-30.0252 572.364 -26.0788 563.063 -22.5779 553.618C16.1446 551.081 51.7037 521.995 51.7037 521.995C51.7037 521.995 43.1062 526.296 18.8487 530.597C-2.56285 534.397 -16.913 546.79 -21.8692 551.686C-18.6352 542.787 -15.7972 533.792 -13.363 524.709C-12.4808 521.416 -11.6553 518.108 -10.882 514.799C-0.586158 506.317 17.4249 512.117 34.2949 507.382C46.9914 503.824 58.5668 476.285 58.5668 476.285C58.5668 476.285 46.514 499.359 26.7327 496.517C10.9335 494.247 -5.02638 508.664 -10.8279 514.562C-8.37935 504.023 -6.47133 493.388 -5.11884 482.699C-1.57702 481.782 10.2445 478.549 21.821 473.61C35.4583 467.784 64.4573 446.612 64.4573 446.612C64.4573 446.612 51.7279 447.204 34.2672 453.313C20.1612 458.256 0.0294943 477.006 -5.00484 481.832C-3.90672 472.943 -3.18302 464.017 -2.84159 455.059C0.64499 453.561 12.433 448.42 24.5258 442.183C38.9325 434.747 71.5077 401.315 71.5077 401.315C71.5077 401.315 60.8089 406.805 37.8486 418.224C18.1114 428.047 1.46947 448.513 -2.8151 454.069C-2.5311 445.992 -2.55276 437.895 -2.88796 429.785C-0.858469 423.98 3.39041 406.542 -1.25429 370.732C-6.71331 328.617 -10.7302 315.732 -10.7302 315.732C-10.7302 315.732 -19.2875 392.822 -4.96216 429.389C-4.64667 436.74 -4.6041 443.942 -4.7822 450.995C-8.46977 444.139 -22.1233 419.83 -40.4136 400.499C-61.9241 377.774 -68.9291 372.13 -68.9291 372.13C-68.9291 372.13 -39.702 420.467 -25.5994 434.093C-14.4706 444.839 -7.33783 450.305 -4.82064 452.143C-5.11243 461.775 -5.84911 471.129 -6.94344 480.164C-10.6092 473.529 -25.1365 448.814 -42.0195 440.532C-61.595 430.928 -71.5257 411.122 -71.5257 411.122C-71.5257 411.122 -65.3465 433.355 -41.2415 451.929C-21.2461 467.341 -10.2066 477.742 -7.0219 480.853C-8.48867 492.707 -10.5718 504.02 -13.1239 514.748C-15.9229 508.554 -25.2312 489.984 -40.517 478.884C-59.0688 465.409 -77.2949 440.517 -77.2949 440.517C-77.2949 440.517 -59.854 479.388 -38.4737 499.107C-23.0546 513.33 -16.229 516.247 -13.6135 516.769C-16.5815 528.951 -20.1354 540.374 -23.9918 550.972C-25.8919 545.223 -32.8824 526.687 -48.9957 509.084C-68.3782 487.903 -83.4024 471.573 -83.4024 471.573C-83.4024 471.573 -47.2476 540.045 -24.4638 552.279C-28.3468 562.779 -32.5246 572.447 -36.7616 581.225C-38.0189 575.95 -42.692 560.219 -55.6736 548.167C-71.4943 533.482 -76.1761 523.595 -81.2164 509.338C-81.2164 509.338 -74.2611 541.198 -63.3864 552.984C-50.665 566.767 -40.6422 572.502 -36.9179 581.546C-39.749 587.408 -42.6028 592.857 -45.3871 597.892C-67.8068 638.306 -91.5279 661.242 -91.7666 661.481C-92.2405 661.941 -92.3774 662.857 -92.0743 663.548C-92.032 663.633 -91.9896 663.717 -91.9394 663.796C-91.6058 664.269 -91.0775 664.36 -90.6579 663.974C-90.4148 663.746 -66.4664 640.595 -43.839 599.834C-40.7626 594.293 -37.8567 588.682 -35.1091 583.007C-30.2805 582.934 -12.6503 582.731 -1.05679 583.704C12.4803 584.838 38.28 554.894 38.28 554.894C38.28 554.894 11.7361 573.502 -2.57704 570.321Z" fill="#E5674E"/>
<path d="M124.62 155.025C124.62 155.025 100.896 -19.2149 45.8772 -88.4151C27.2016 -111.898 8.96547 -122.038 -6.98372 -125.165C-40.2487 -131.706 -73.3462 -79.6587 -67.5106 -30.0206C-64.7122 -6.20645 -57.1649 20.7241 -40.714 47.7191C7.73763 127.224 124.62 155.025 124.62 155.025Z" fill="#BAE3DD"/>
<path d="M-14.2682 -38.863C-10.6837 -33.7269 -7.09883 -28.6148 -3.51433 -23.4787C-11.0816 6.94149 -18.657 37.3758 -26.2243 67.796C-25.7707 68.3443 -25.309 68.8785 -24.8472 69.4127C-17.2971 39.0684 -9.74705 8.72413 -2.20517 -21.6061C1.18476 -16.7645 4.57431 -11.899 7.96425 -7.05744C1.00668 22.1314 -6.73631 51.0851 -15.2792 79.7121C-14.8163 80.1746 -14.3534 80.637 -13.8983 81.0896C-5.39793 52.6285 2.34237 23.8423 9.28905 -5.16505C12.5465 -0.515101 15.8037 4.15875 19.0611 8.8087C11.7333 36.2365 4.3972 63.6784 -2.93068 91.1062C-2.44318 91.5265 -1.9635 91.9369 -1.46781 92.3432C5.80896 65.1193 13.0857 37.8954 20.3625 10.6715C23.7755 15.5666 27.1889 20.4378 30.6019 25.3328C25.1216 51.384 18.9821 77.2861 12.1841 102.991C12.6805 103.35 13.1848 103.718 13.6813 104.076C20.4188 78.6609 26.5139 53.0444 31.9575 27.2886C35.4721 32.312 38.9945 37.3452 42.5008 42.3826C37.3826 65.7427 31.6372 88.9454 25.2735 111.929C25.7786 112.249 26.2914 112.579 26.7965 112.9C33.0833 90.2344 38.7679 67.3453 43.8409 44.3186C46.7007 48.4176 49.5686 52.5025 52.4284 56.6015C48.341 77.8221 43.642 98.905 38.3557 119.832C38.8771 120.124 39.3985 120.417 39.9118 120.723C45.1205 100.162 49.7583 79.4163 53.7997 58.577C57.2908 63.5707 60.782 68.5645 64.2731 73.5582C61.8669 91.8498 58.2106 110.052 53.3721 127.908C53.894 128.176 54.424 128.431 54.9458 128.699C59.6899 111.26 63.283 93.5158 65.7303 75.6422C66.9227 77.343 68.1072 79.0339 69.2914 80.7487C69.3559 81.1963 69.5572 81.5724 69.9149 81.6336C70.7721 82.8623 71.637 84.1009 72.4942 85.3296C71.05 101.297 67.7571 117.224 62.7531 132.48C63.2831 132.734 63.8135 132.965 64.3435 133.219C69.1809 118.412 72.4576 103.001 74.0292 87.5362C76.6475 91.2815 79.258 95.0169 81.8764 98.7622C80.0241 111.847 77.5513 124.857 74.4907 137.734C75.0371 137.96 75.5675 138.19 76.1057 138.431C79.0716 125.995 81.473 113.457 83.318 100.827C85.7492 104.311 88.1804 107.796 90.612 111.256C88.5129 119.857 86.4134 128.481 84.3143 137.081C83.9726 138.504 83.6149 139.932 83.2731 141.355C83.8117 141.571 84.3503 141.788 84.8811 141.994C85.3933 139.883 85.9293 137.778 86.4411 135.691C88.2758 128.172 90.1022 120.667 91.9368 113.149C93.9941 116.088 96.0515 119.027 98.1088 121.967C97.0733 129.86 95.807 137.73 94.3419 145.569C94.8965 145.781 95.4515 145.969 95.9905 146.162C97.376 138.808 98.5702 131.457 99.5738 124.061C101.974 127.506 104.374 130.927 106.774 134.372C106.026 139.26 105.127 144.129 104.092 148.973C104.647 149.161 105.202 149.349 105.742 149.518C106.681 145.163 107.492 140.794 108.2 136.417C109.649 138.491 111.099 140.565 112.548 142.639C112.12 145.515 111.683 148.404 111.262 151.289C111.833 151.473 112.388 151.637 112.927 151.806C113.276 149.44 113.641 147.07 113.99 144.704C116.156 147.805 118.315 150.896 120.481 153.998C123.156 154.691 124.618 155.023 124.618 155.023C124.618 155.023 124.333 152.907 123.741 149.06C121.333 145.605 118.917 142.164 116.502 138.699C118.327 138.734 120.163 138.539 122.003 138.177C121.865 137.343 121.727 136.486 121.566 135.599C119.191 136.018 116.822 136.102 114.483 135.833C112.8 133.415 111.117 131.021 109.434 128.603C112.98 128.663 116.566 128.237 120.144 127.337C119.99 126.508 119.844 125.665 119.698 124.798C115.913 125.705 112.121 126.066 108.386 125.84C108.139 125.821 107.914 125.952 107.735 126.141C104.634 121.713 101.54 117.27 98.4386 112.841C104.594 112.267 110.771 111.353 116.977 110.111C116.815 109.272 116.653 108.409 116.476 107.55C109.854 108.854 103.263 109.78 96.6775 110.324C93.8876 106.338 91.0978 102.352 88.3239 98.3615C96.8059 97.357 105.309 96.0373 113.825 94.4165C113.647 93.5579 113.469 92.7231 113.284 91.8545C104.368 93.5561 95.4661 94.9087 86.5858 95.8984C83.1728 91.0033 79.7516 86.1223 76.3464 81.237C87.5267 80.4912 98.7735 79.0729 110.062 77.0244C109.869 76.1699 109.675 75.3154 109.482 74.4609C97.7856 76.5565 86.1404 77.9599 74.5466 78.6472C72.2947 75.4134 70.0424 72.2035 67.7983 68.9796C80.3215 65.024 92.8369 61.0587 105.36 57.1031C105.158 56.2866 104.956 55.4701 104.746 54.6437C91.9181 58.7027 79.0986 62.7477 66.2786 66.8166C61.9147 60.5745 57.543 54.3224 53.1791 48.0802C69.053 46.94 85.0523 44.445 101.104 40.6499C100.887 39.8136 100.653 38.9816 100.427 38.1355C83.9999 41.9692 67.6343 44.441 51.3788 45.5143C47.3814 39.7836 43.3757 34.067 39.3861 28.3462C57.2854 23.1984 75.1847 18.0506 93.0922 12.8888C92.8342 12.0749 92.584 11.271 92.3261 10.4572C74.1624 15.686 55.9905 20.929 37.8269 26.1578C36.3075 23.971 34.78 21.7982 33.2606 19.6113C31.406 16.9524 29.5515 14.2935 27.6965 11.6585C47.3115 5.40678 66.9105 -0.840751 86.5255 -7.09248C86.2433 -7.88805 85.9689 -8.67377 85.6867 -9.46934C65.8554 -3.1491 46.0241 3.17116 26.1768 9.49559C23.317 5.39661 20.449 1.31169 17.5892 -2.78728C37.6111 -12.0395 57.649 -21.296 77.6709 -30.5482C77.3641 -31.3016 77.0573 -32.055 76.7424 -32.7944C56.6643 -23.5155 36.5861 -14.2367 16.508 -4.9578C16.3956 -4.90455 16.2987 -4.83157 16.2175 -4.73887C12.1263 -10.5879 8.03513 -16.437 3.95212 -22.3001C25.7021 -31.4447 47.4443 -40.5993 69.1943 -49.7439C68.8395 -50.4847 68.4847 -51.2256 68.1217 -51.9524C46.2593 -42.7545 24.3808 -33.5524 2.51832 -24.3545C-0.544227 -28.7339 -3.60677 -33.1133 -6.67713 -37.5025C14.166 -49.7446 34.9931 -61.9825 55.8363 -74.2246C55.4245 -74.891 54.9967 -75.5532 54.5767 -76.2055C33.7093 -63.9452 12.842 -51.6849 -8.01717 -39.4386C-11.2825 -44.0984 -14.5396 -48.7723 -17.8049 -53.4321C1.75699 -68.2925 21.6528 -81.6087 41.7783 -93.3414C41.254 -93.9546 40.7216 -94.5537 40.1969 -95.1429C20.1749 -83.4015 0.398628 -70.0808 -19.0672 -55.2455C-24.3664 -62.8151 -29.6496 -70.3888 -34.9487 -77.9584C-17.4438 -91.3159 0.305611 -103.511 18.2353 -114.526C17.5018 -115.013 16.7757 -115.466 16.0496 -115.919C-1.46275 -105.085 -18.8021 -93.1043 -35.9041 -80.0189C-36.0092 -79.9318 -36.0904 -79.8391 -36.1798 -79.7324C-38.4086 -82.9126 -40.6293 -86.107 -42.8581 -89.2873C-29.0814 -100.812 -15.3051 -112.312 -1.52836 -123.837C-2.38525 -124.089 -3.22651 -124.322 -4.08417 -124.526C-17.4244 -113.378 -30.7646 -102.229 -44.1129 -91.0669C-46.3183 -94.2176 -48.5237 -97.3683 -50.7209 -100.533C-51.8151 -98.9129 -52.8625 -97.2335 -53.8629 -95.4949C-53.2472 -94.6199 -52.6393 -93.7547 -52.0318 -92.8656C-57.3742 -73.913 -62.7084 -54.9743 -68.0507 -36.0217C-67.9577 -34.3668 -67.8249 -32.7103 -67.6519 -31.0764C-62.0219 -51.057 -56.3838 -71.0518 -50.7539 -91.0324C-48.7903 -88.2115 -46.8107 -85.3947 -44.8472 -82.5738C-51.3817 -58.8788 -57.9163 -35.1838 -64.4668 -11.4846C-64.2068 -10.3022 -63.939 -9.10983 -63.6552 -7.92167C-56.9599 -32.1946 -50.2646 -56.4676 -43.5614 -80.7307C-40.5067 -76.3612 -37.452 -71.9917 -34.3972 -67.6222C-42.1131 -40.855 -49.8211 -14.0781 -57.537 12.6891C-57.2087 13.5917 -56.8726 14.5041 -56.5287 15.4265C-48.7282 -11.6486 -40.9277 -38.7237 -33.1271 -65.7988C-30.4619 -61.9943 -27.7971 -58.1659 -25.1319 -54.3614C-25.0537 -54.2627 -24.9838 -54.15 -24.9139 -54.0373C-32.2484 -25.2024 -40.5027 3.32528 -49.651 31.4319C-49.2884 32.1826 -48.9176 32.9192 -48.555 33.67C-39.3411 5.45091 -31.013 -23.2033 -23.6207 -52.1605C-23.2777 -51.6786 -22.9351 -51.1727 -22.592 -50.6908C-22.5385 -50.55 -22.4604 -50.4514 -22.3736 -50.3907C-20.137 -47.2005 -17.9086 -43.9963 -15.6719 -40.8062C-22.1134 -9.50144 -29.4922 21.596 -37.799 52.4003C-37.3708 53.0385 -36.9426 53.6768 -36.5145 54.3151C-28.144 23.518 -20.7413 -7.57379 -14.2682 -38.863Z" fill="#97C9CE"/>
<path d="M-30.8576 55.1767C-42.0611 62.0884 -58.7301 57.5972 -64.6991 55.6337C-58.7739 63.2881 -53.2634 71.2713 -48.1782 79.5433C-8.82845 67.7462 31.7575 84.0233 31.7575 84.0233C31.7575 84.0233 22.4032 82.8521 -2.69448 87.4962C-24.8428 91.5969 -41.3385 84.3578 -47.1287 81.2252C-42.3958 89.0453 -38.0466 97.1213 -34.0801 105.434C-32.6414 108.439 -31.2714 111.492 -29.9416 114.559C-18.1892 119.347 -1.03355 106.756 16.6941 105.289C30.052 104.193 46.2631 127.81 46.2631 127.81C46.2631 127.81 30.3075 108.885 10.898 119.112C-4.60039 127.289 -23.0526 118.592 -29.8625 114.763C-25.6465 124.533 -21.9624 134.617 -18.8077 144.976C-15.0938 144.594 -2.67936 143.466 9.78876 144.193C24.4681 145.046 57.1332 155.747 57.1332 155.747C57.1332 155.747 44.2397 159.889 25.6681 160.163C10.6704 160.402 -12.6963 148.845 -18.5588 145.818C-15.9765 154.424 -13.7601 163.212 -11.9227 172.179C-8.16796 172.4 4.52971 173.235 17.7283 175.081C33.4633 177.309 71.7694 199.128 71.7694 199.128C71.7694 199.128 60.1048 197.528 35.1252 194.471C13.6504 191.85 -6.47902 177.267 -11.7119 173.209C-10.0819 181.301 -8.7623 189.525 -7.73991 197.882C-4.72897 203.024 2.44936 219.124 3.73794 257.194C5.26104 301.955 3.38378 316.52 3.38378 316.52C3.38378 316.52 -18.0665 241.48 -9.75833 199.071C-10.6596 191.5 -11.8121 184.165 -13.1779 177.09C-15.7388 185.423 -25.4142 215.156 -40.5776 241.547C-58.4118 272.6 -64.504 280.916 -64.504 280.916C-64.504 280.916 -43.1831 221.024 -31.2779 201.948C-21.8867 186.919 -15.63 178.702 -13.3921 175.907C-15.2903 166.238 -17.5856 157.035 -20.1974 148.271C-22.7817 156.35 -33.2533 186.842 -48.8461 201.511C-66.9238 218.52 -73.5979 242.308 -73.5979 242.308C-73.5979 242.308 -71.0979 217.454 -49.9632 189.658C-32.4356 166.59 -23.0814 151.941 -20.392 147.609C-23.8439 136.133 -27.8174 125.433 -32.1669 115.49C-33.955 122.811 -40.2061 145.098 -53.7237 162.05C-70.1217 182.616 -84.3002 214.625 -84.3002 214.625C-84.3002 214.625 -73.249 168.701 -55.0463 140.758C-41.9172 120.597 -35.5439 115.109 -33.0066 113.605C-38.0213 102.34 -43.4927 92.0722 -49.1428 82.7614C-50.0942 89.3109 -54.0301 110.699 -67.3004 134.556C-83.2523 163.246 -95.6271 185.396 -95.6271 185.396C-95.6271 185.396 -70.7012 102.493 -49.8329 81.6286C-55.4759 72.415 -61.2975 64.1587 -67.0194 56.8205C-67.4126 62.6372 -69.4754 80.3528 -80.5167 97.3907C-93.9731 118.162 -97.0266 129.931 -99.7249 146.271C-99.7249 146.271 -98.0478 111.355 -89.0817 95.364C-78.5915 76.6541 -69.4806 67.1108 -67.2393 56.5597C-71.0543 51.6739 -74.8295 47.1977 -78.4856 43.1225C-107.754 10.4223 -135.416 -4.02665 -135.682 -4.1782C-136.242 -4.46574 -136.527 -5.35126 -136.331 -6.1715C-136.311 -6.28423 -136.266 -6.37436 -136.234 -6.46624C-135.973 -7.06599 -135.455 -7.36153 -134.971 -7.12274C-134.691 -6.98852 -106.763 7.61202 -77.234 40.5592C-73.2221 45.029 -69.3642 49.6512 -65.6579 54.3875C-60.7967 52.6789 -43.0367 46.3284 -31.5413 41.0344C-18.1261 34.8651 12.8002 55.6457 12.8002 55.6457C12.8002 55.6457 -16.9912 46.6435 -30.8576 55.1767Z" fill="#FCF4DF"/>
<path d="M66.8895 579.12C66.8895 579.12 -39.2147 645.581 -84.443 727.606C-99.7917 755.436 -107.111 779.868 -110.07 800.005C-116.249 841.988 -87.2785 871.16 -57.1074 853.349C-42.6381 844.808 -25.9763 829.795 -8.67751 803.922C42.2941 727.675 66.8895 579.12 66.8895 579.12Z" fill="#1A4143"/>
<path d="M-58.924 790.514C-55.6038 785.028 -52.2823 779.553 -48.9621 774.067C-31.2153 776.748 -13.4671 779.44 4.28876 782.118C4.64755 781.442 5.00634 780.766 5.35457 780.083C-12.3437 777.407 -30.0419 774.732 -47.7402 772.056C-44.603 766.878 -41.4581 761.685 -38.3209 756.507C-21.2745 758.703 -4.41973 761.927 12.1859 766.179C12.4885 765.514 12.8016 764.856 13.1041 764.191C-3.40586 759.938 -20.1468 756.705 -37.0913 754.48C-34.074 749.499 -31.0567 744.517 -28.0394 739.536C-12.0693 742.572 3.89155 745.612 19.8616 748.648C20.143 747.967 20.4245 747.285 20.7045 746.592C4.86176 743.579 -10.9915 740.557 -26.8343 737.544C-23.674 732.32 -20.5031 727.103 -17.3428 721.879C-2.07997 722.95 13.0549 724.864 28.0163 727.638C28.2675 726.944 28.5201 726.262 28.7622 725.572C13.9661 722.817 -0.997319 720.897 -16.09 719.806C-12.8329 714.432 -9.57588 709.057 -6.32024 703.671C7.35106 704.888 20.8888 706.899 34.2458 709.713C34.4787 709.026 34.7011 708.331 34.934 707.645C21.7528 704.859 8.40631 702.845 -5.07518 701.614C-2.42523 697.237 0.233861 692.857 2.88381 688.48C15.3381 688.9 27.6834 690.082 39.8816 692.026C40.0934 691.323 40.3066 690.632 40.5184 689.929C28.5234 688.002 16.3982 686.819 4.16113 686.373C7.39365 681.033 10.6262 675.693 13.8587 670.353C24.6744 669.343 35.3523 669.885 45.7361 671.953C45.9296 671.257 46.1231 670.561 46.3152 669.854C36.1755 667.824 25.7619 667.251 15.2068 668.118C16.3088 666.304 17.4095 664.477 18.5115 662.663C18.7875 662.49 19.0162 662.164 19.0864 661.715C19.8842 660.394 20.6834 659.084 21.4812 657.762C30.9606 656.079 40.3026 656.662 49.1206 659.483C49.3036 658.779 49.488 658.087 49.671 657.384C41.1147 654.668 32.0875 653.995 22.9106 655.408C25.3376 651.406 27.7555 647.406 30.1826 643.404C37.9112 642.844 45.5505 643.049 53.0715 644.018C53.2439 643.306 53.4178 642.606 53.5902 641.894C46.3314 640.955 38.9579 640.73 31.5152 641.2C33.7656 637.478 36.0265 633.764 38.2769 630.042C43.3051 630.753 48.3227 631.455 53.351 632.166C54.1787 632.278 55.0184 632.41 55.8461 632.523C56.0094 631.814 56.1741 631.118 56.3388 630.422C55.1018 630.251 53.8802 630.05 52.6615 629.873C48.276 629.25 43.892 628.639 39.5065 628.016C41.4141 624.864 43.3139 621.728 45.2214 618.577C49.8821 618.15 54.5256 617.977 59.1365 618.089C59.2984 617.369 59.4511 616.653 59.6052 615.948C55.2917 615.84 50.949 615.966 46.5878 616.335C48.815 612.659 51.0331 608.988 53.2618 605.324C56.1477 605.19 59.0064 605.228 61.8409 605.46C61.9922 604.732 62.1358 604.02 62.2808 603.319C59.7374 603.117 57.1627 603.052 54.5776 603.139C55.918 600.92 57.2598 598.713 58.6002 596.493C60.3036 596.402 62.0056 596.299 63.6998 596.211C63.8497 595.471 63.9841 594.762 64.12 594.065C62.7217 594.145 61.3235 594.225 59.9343 594.301C61.9372 590.988 63.9415 587.686 65.9535 584.369C66.567 580.972 66.8696 579.12 66.8696 579.12C66.8696 579.12 65.578 579.923 63.2276 581.473C60.9926 585.164 58.7577 588.855 56.5228 592.546C56.6644 590.314 56.6753 588.11 56.5843 585.934C56.0717 586.289 55.5499 586.647 55.0099 587.012C55.0914 589.821 54.9889 592.693 54.672 595.613C53.1164 598.19 51.5502 600.76 49.9946 603.337C50.2724 598.987 50.2629 594.715 49.9659 590.522C49.4532 590.876 48.942 591.242 48.4126 591.615C48.7001 596.047 48.6575 600.6 48.2761 605.202C48.2464 605.51 48.3129 605.743 48.4207 605.922C45.5464 610.661 42.6813 615.396 39.807 620.135C39.8791 612.741 39.746 605.392 39.4274 598.093C38.9085 598.474 38.3804 598.86 37.8538 599.257C38.1853 607.057 38.2947 614.922 38.1792 622.828C35.6014 627.089 33.0145 631.354 30.4368 635.615C30.4162 625.478 30.1981 615.37 29.796 605.324C29.2694 605.721 28.7533 606.126 28.219 606.539C28.6311 617.063 28.8395 627.643 28.8335 638.273C25.6732 643.498 22.5038 648.726 19.3435 653.95C19.6538 640.455 19.5705 627.031 19.1056 613.698C18.5819 614.119 18.0581 614.539 17.5252 614.963C17.9924 628.789 18.0414 642.721 17.6771 656.721C15.5943 660.165 13.5024 663.613 11.4196 667.057C9.89181 652.62 8.36406 638.182 6.8363 623.744C6.33223 624.169 5.82817 624.594 5.31498 625.023C6.87498 639.806 8.44412 654.585 10.0056 669.38C5.95841 676.061 1.91125 682.741 -2.13589 689.422C-1.75321 670.275 -2.15772 651.27 -3.34857 632.496C-3.86804 632.952 -4.37839 633.404 -4.89787 633.86C-3.70903 653.092 -3.33535 672.554 -3.79596 692.165C-7.49888 698.287 -11.2032 704.397 -14.9153 710.523C-16.7951 689.776 -18.6763 669.018 -20.5561 648.271C-21.0622 648.758 -21.5696 649.234 -22.0666 649.718C-20.1588 670.775 -18.251 691.832 -16.3341 712.885C-17.7468 715.22 -19.1594 717.555 -20.5734 719.878C-22.2888 722.717 -24.0149 725.549 -25.7303 728.388C-28.1498 705.794 -30.5707 683.189 -32.9902 660.595C-33.4843 661.103 -33.9875 661.614 -34.4801 662.133C-32.0292 684.986 -29.5861 707.854 -27.1352 730.707C-29.7852 735.084 -32.4351 739.461 -35.0851 743.838C-39.2796 721.376 -43.4741 698.915 -47.6777 676.457C-48.1493 676.993 -48.6208 677.528 -49.0909 678.076C-44.8801 700.592 -40.6785 723.112 -36.4677 745.629C-36.4429 745.755 -36.4026 745.85 -36.3624 745.945C-40.1543 752.202 -43.9372 758.455 -47.7291 764.711C-51.7495 740.129 -55.7607 715.542 -59.7811 690.96C-60.2455 691.554 -60.719 692.152 -61.1834 692.747C-57.1459 717.471 -53.1084 742.195 -49.0618 766.915C-51.9039 771.604 -54.7368 776.289 -57.5788 780.977C-63.5098 758.176 -69.4514 735.366 -75.3824 712.565C-75.8108 713.219 -76.2301 713.869 -76.648 714.531C-70.7036 737.365 -64.7669 760.213 -58.8225 783.047C-61.8489 788.032 -64.8648 793.025 -67.8912 798.01C-75.482 777.321 -82.1263 755.906 -87.8022 733.867C-88.2058 734.647 -88.6017 735.412 -88.987 736.185C-83.298 758.095 -76.6497 779.385 -69.0549 799.948C-73.9552 808.047 -78.8661 816.137 -83.7664 824.236C-90.6032 805.74 -96.7118 786.693 -102.102 767.171C-102.441 768.172 -102.762 769.154 -103.083 770.148C-97.7676 789.205 -91.7526 807.796 -85.0551 825.853C-85.0135 825.96 -84.9641 826.052 -84.8979 826.124C-86.9561 829.534 -89.0249 832.935 -91.0832 836.345C-97.0626 822.003 -103.033 807.658 -109.011 793.328C-109.223 794.426 -109.416 795.517 -109.602 796.593C-103.812 810.479 -98.0217 824.366 -92.2406 838.256C-94.2849 841.623 -96.3277 845.002 -98.3629 848.366C-97.4689 849.341 -96.5245 850.259 -95.5584 851.119C-94.9912 850.187 -94.4241 849.254 -93.8569 848.322C-82.8446 850.755 -71.8323 853.189 -60.8292 855.626C-59.8316 855.163 -58.8321 854.638 -57.8277 854.074C-69.4413 851.499 -81.0536 848.936 -92.6764 846.365C-90.8473 843.356 -89.0288 840.339 -87.1998 837.33C-73.4229 840.21 -59.6384 843.074 -45.8615 845.954C-45.1348 845.39 -44.4018 844.799 -43.6703 844.196C-57.7805 841.252 -71.8999 838.313 -86.0115 835.358C-83.1772 830.684 -80.352 826.015 -77.5176 821.342C-61.9712 824.993 -46.4262 828.633 -30.8797 832.284C-30.3106 831.685 -29.7414 831.085 -29.166 830.459C-44.8897 826.767 -60.612 823.088 -76.3265 819.392C-73.861 815.312 -71.3848 811.24 -68.9193 807.16C-68.8471 807.045 -68.784 806.933 -68.7118 806.817C-51.8972 809.551 -35.3392 813.488 -19.0892 818.599C-18.6157 818.001 -18.1436 817.391 -17.6729 816.77C-33.9877 811.598 -50.6182 807.616 -67.4975 804.822C-67.1779 804.298 -66.8582 803.774 -66.5476 803.254C-66.4634 803.158 -66.3912 803.043 -66.3478 802.926C-64.2804 799.513 -62.213 796.099 -60.1365 792.682C-41.7843 793.797 -23.622 796.113 -5.69169 799.598C-5.28296 798.939 -4.86366 798.289 -4.45635 797.618C-22.4297 794.015 -40.5844 791.684 -58.924 790.514Z" fill="#2F8C91"/>
</g>
<defs>
<clipPath id="clip0">
<rect width="708" height="125" fill="white" transform="translate(0 708) rotate(-90)"/>
</clipPath>
</defs>
</svg>